M48
; DRILL file {KiCad 9.0.8} date 2026-03-29T00:37:06+0000
; FORMAT={-:-/ absolute / metric / decimal}
; #@! TF.CreationDate,2026-03-29T00:37:06+00:00
; #@! TF.GenerationSoftware,Kicad,Pcbnew,9.0.8
; #@! TF.FileFunction,MixedPlating,1,2
FMAT,2
METRIC
; #@! TA.AperFunction,Plated,PTH,ViaDrill
T1C0.300
; #@! TA.AperFunction,Plated,PTH,ComponentDrill
T2C0.500
; #@! TA.AperFunction,Plated,PTH,ComponentDrill
T3C0.890
; #@! TA.AperFunction,Plated,PTH,ComponentDrill
T4C2.010
; #@! TA.AperFunction,NonPlated,NPTH,ComponentDrill
T5C3.200
%
G90
G05
T1
X100.085Y-60.015
X100.085Y-62.555
X100.085Y-65.095
X100.085Y-67.635
X100.085Y-70.175
X100.085Y-72.715
X100.085Y-75.255
X100.085Y-77.795
X100.085Y-80.335
X100.085Y-82.875
X100.085Y-85.415
X100.085Y-87.955
X100.085Y-90.495
X100.085Y-93.035
X102.625Y-60.015
X102.625Y-67.635
X102.625Y-75.255
X102.625Y-77.795
X102.625Y-85.415
X102.625Y-93.035
X105.165Y-60.015
X105.165Y-67.635
X105.165Y-75.255
X105.165Y-77.795
X105.165Y-85.415
X105.165Y-93.035
X107.705Y-60.015
X107.705Y-62.555
X107.705Y-65.095
X107.705Y-67.635
X107.705Y-75.255
X107.705Y-77.795
X107.705Y-85.415
X107.705Y-87.955
X107.705Y-90.495
X107.705Y-93.035
X110.245Y-60.015
X110.245Y-62.555
X110.245Y-65.095
X110.245Y-67.635
X110.245Y-72.715
X110.245Y-82.875
X110.245Y-85.415
X110.245Y-87.955
X110.245Y-90.495
X110.245Y-93.035
X112.785Y-60.015
X112.785Y-62.555
X112.785Y-65.095
X112.785Y-67.635
X112.785Y-70.175
X112.785Y-72.715
X112.785Y-80.335
X112.785Y-82.875
X112.785Y-85.415
X112.785Y-87.955
X112.785Y-90.495
X112.785Y-93.035
X113.0Y-75.5
X113.0Y-76.5
X114.5Y-72.0
X114.5Y-75.0
X114.5Y-77.0
X114.5Y-80.0
X115.325Y-60.015
X115.325Y-62.555
X115.325Y-65.095
X115.325Y-67.635
X115.325Y-70.175
X115.325Y-82.875
X115.325Y-85.415
X115.325Y-87.955
X115.325Y-90.495
X115.325Y-93.035
X117.865Y-60.015
X117.865Y-62.555
X117.865Y-65.095
X117.865Y-67.635
X117.865Y-70.175
X117.865Y-82.875
X117.865Y-85.415
X117.865Y-87.955
X117.865Y-90.495
X117.865Y-93.035
X118.5Y-72.0
X118.5Y-75.0
X118.5Y-77.0
X118.5Y-80.0
X120.405Y-60.015
X120.405Y-62.555
X120.405Y-65.095
X120.405Y-67.635
X120.405Y-70.175
X120.405Y-82.875
X120.405Y-85.415
X120.405Y-87.955
X120.405Y-90.495
X120.405Y-93.035
X122.5Y-72.0
X122.5Y-75.0
X122.5Y-77.0
X122.5Y-80.0
X122.945Y-60.015
X122.945Y-62.555
X122.945Y-65.095
X122.945Y-67.635
X122.945Y-70.175
X122.945Y-82.875
X122.945Y-85.415
X122.945Y-87.955
X122.945Y-90.495
X122.945Y-93.035
X125.485Y-60.015
X125.485Y-62.555
X125.485Y-65.095
X125.485Y-67.635
X125.485Y-70.175
X125.485Y-82.875
X125.485Y-85.415
X125.485Y-87.955
X125.485Y-90.495
X125.485Y-93.035
X126.5Y-72.0
X126.5Y-75.0
X126.5Y-77.0
X126.5Y-80.0
X128.025Y-60.015
X128.025Y-62.555
X128.025Y-65.095
X128.025Y-67.635
X128.025Y-70.175
X128.025Y-82.875
X128.025Y-85.415
X128.025Y-87.955
X128.025Y-90.495
X128.025Y-93.035
X130.5Y-75.0
X130.5Y-77.0
X130.565Y-60.015
X130.565Y-62.555
X130.565Y-65.095
X130.565Y-67.635
X130.565Y-70.175
X130.565Y-72.715
X130.565Y-80.335
X130.565Y-82.875
X130.565Y-85.415
X130.565Y-87.955
X130.565Y-90.495
X130.565Y-93.035
X133.105Y-60.015
X133.105Y-62.555
X133.105Y-65.095
X133.105Y-67.635
X133.105Y-70.175
X133.105Y-82.875
X133.105Y-85.415
X133.105Y-87.955
X133.105Y-90.495
X133.105Y-93.035
X134.0Y-75.0
X134.0Y-77.0
X135.5Y-77.5
X135.645Y-60.015
X135.645Y-62.555
X135.645Y-65.095
X135.645Y-67.635
X135.645Y-70.175
X135.645Y-80.335
X135.645Y-82.875
X135.645Y-85.415
X135.645Y-87.955
X135.645Y-90.495
X135.645Y-93.035
X138.185Y-60.015
X138.185Y-62.555
X138.185Y-65.095
X138.185Y-67.635
X138.185Y-70.175
X138.185Y-85.415
X138.185Y-87.955
X138.185Y-90.495
X138.185Y-93.035
X140.725Y-60.015
X140.725Y-62.555
X140.725Y-65.095
X140.725Y-67.635
X140.725Y-70.175
X140.725Y-72.715
X140.725Y-85.415
X140.725Y-90.495
X140.725Y-93.035
X143.265Y-60.015
X143.265Y-62.555
X143.265Y-65.095
X143.265Y-67.635
X143.265Y-70.175
X143.265Y-72.715
X143.265Y-77.795
X143.265Y-87.955
X143.265Y-90.495
X143.265Y-93.035
X145.805Y-60.015
X145.805Y-62.555
X145.805Y-65.095
X145.805Y-67.635
X145.805Y-70.175
X145.805Y-72.715
X145.805Y-77.795
X145.805Y-80.335
X145.805Y-90.495
X145.805Y-93.035
X148.345Y-60.015
X148.345Y-62.555
X148.345Y-65.095
X148.345Y-67.635
X148.345Y-70.175
X148.345Y-72.715
X148.345Y-80.335
X148.345Y-82.875
X148.345Y-85.415
X148.345Y-87.955
X148.345Y-90.495
X148.345Y-93.035
X150.885Y-60.015
X150.885Y-62.555
X150.885Y-65.095
X150.885Y-67.635
X150.885Y-70.175
X150.885Y-82.875
X150.885Y-85.415
X150.885Y-87.955
X150.885Y-90.495
X150.885Y-93.035
X153.425Y-60.015
X153.425Y-62.555
X153.425Y-65.095
X153.425Y-67.635
X153.425Y-70.175
X153.425Y-82.875
X153.425Y-85.415
X153.425Y-87.955
X153.425Y-90.495
X153.425Y-93.035
X155.965Y-60.015
X155.965Y-62.555
X155.965Y-65.095
X155.965Y-67.635
X155.965Y-70.175
X155.965Y-80.335
X155.965Y-82.875
X155.965Y-85.415
X155.965Y-87.955
X155.965Y-90.495
X155.965Y-93.035
X158.505Y-60.015
X158.505Y-62.555
X158.505Y-65.095
X158.505Y-67.635
X158.505Y-85.415
X158.505Y-87.955
X158.505Y-90.495
X158.505Y-93.035
X161.045Y-60.015
X161.045Y-62.555
X161.045Y-65.095
X161.045Y-67.635
X161.045Y-75.255
X161.045Y-77.795
X161.045Y-85.415
X161.045Y-87.955
X161.045Y-90.495
X161.045Y-93.035
X163.585Y-60.015
X163.585Y-67.635
X163.585Y-75.255
X163.585Y-77.795
X163.585Y-85.415
X163.585Y-93.035
X166.125Y-60.015
X166.125Y-67.635
X166.125Y-72.715
X166.125Y-75.255
X166.125Y-77.795
X166.125Y-82.875
X166.125Y-85.415
X166.125Y-93.035
T2
X141.5Y-87.0
X145.0Y-87.0
T3
X111.05Y-76.08
X111.05Y-78.62
X157.0Y-73.54
X157.0Y-76.08
T4
X105.97Y-71.0
X105.97Y-81.16
X162.08Y-71.0
X162.08Y-81.16
T5
X103.5Y-63.0
X104.0Y-89.0
X164.0Y-89.0
X164.5Y-63.0
M30
