%TF.GenerationSoftware,KiCad,Pcbnew,9.0.8*%
%TF.CreationDate,2026-04-09T00:32:18+00:00*%
%TF.ProjectId,DummyLoad,44756d6d-794c-46f6-9164-2e6b69636164,rev?*%
%TF.SameCoordinates,Original*%
%TF.FileFunction,Legend,Top*%
%TF.FilePolarity,Positive*%
%FSLAX46Y46*%
G04 Gerber Fmt 4.6, Leading zero omitted, Abs format (unit mm)*
G04 Created by KiCad (PCBNEW 9.0.8) date 2026-04-09 00:32:18*
%MOMM*%
%LPD*%
G01*
G04 APERTURE LIST*
%ADD10C,0.250000*%
%ADD11C,0.100000*%
%ADD12C,0.150000*%
%ADD13C,0.120000*%
G04 APERTURE END LIST*
D10*
X121989471Y-60242238D02*
X121037090Y-60242238D01*
X121037090Y-60242238D02*
X120941852Y-61194619D01*
X120941852Y-61194619D02*
X121037090Y-61099380D01*
X121037090Y-61099380D02*
X121227566Y-61004142D01*
X121227566Y-61004142D02*
X121703757Y-61004142D01*
X121703757Y-61004142D02*
X121894233Y-61099380D01*
X121894233Y-61099380D02*
X121989471Y-61194619D01*
X121989471Y-61194619D02*
X122084709Y-61385095D01*
X122084709Y-61385095D02*
X122084709Y-61861285D01*
X122084709Y-61861285D02*
X121989471Y-62051761D01*
X121989471Y-62051761D02*
X121894233Y-62147000D01*
X121894233Y-62147000D02*
X121703757Y-62242238D01*
X121703757Y-62242238D02*
X121227566Y-62242238D01*
X121227566Y-62242238D02*
X121037090Y-62147000D01*
X121037090Y-62147000D02*
X120941852Y-62051761D01*
X123322804Y-60242238D02*
X123513281Y-60242238D01*
X123513281Y-60242238D02*
X123703757Y-60337476D01*
X123703757Y-60337476D02*
X123798995Y-60432714D01*
X123798995Y-60432714D02*
X123894233Y-60623190D01*
X123894233Y-60623190D02*
X123989471Y-61004142D01*
X123989471Y-61004142D02*
X123989471Y-61480333D01*
X123989471Y-61480333D02*
X123894233Y-61861285D01*
X123894233Y-61861285D02*
X123798995Y-62051761D01*
X123798995Y-62051761D02*
X123703757Y-62147000D01*
X123703757Y-62147000D02*
X123513281Y-62242238D01*
X123513281Y-62242238D02*
X123322804Y-62242238D01*
X123322804Y-62242238D02*
X123132328Y-62147000D01*
X123132328Y-62147000D02*
X123037090Y-62051761D01*
X123037090Y-62051761D02*
X122941852Y-61861285D01*
X122941852Y-61861285D02*
X122846614Y-61480333D01*
X122846614Y-61480333D02*
X122846614Y-61004142D01*
X122846614Y-61004142D02*
X122941852Y-60623190D01*
X122941852Y-60623190D02*
X123037090Y-60432714D01*
X123037090Y-60432714D02*
X123132328Y-60337476D01*
X123132328Y-60337476D02*
X123322804Y-60242238D01*
X124751376Y-62242238D02*
X125227566Y-62242238D01*
X125227566Y-62242238D02*
X125227566Y-61861285D01*
X125227566Y-61861285D02*
X125037090Y-61766047D01*
X125037090Y-61766047D02*
X124846614Y-61575571D01*
X124846614Y-61575571D02*
X124751376Y-61289857D01*
X124751376Y-61289857D02*
X124751376Y-60813666D01*
X124751376Y-60813666D02*
X124846614Y-60527952D01*
X124846614Y-60527952D02*
X125037090Y-60337476D01*
X125037090Y-60337476D02*
X125322804Y-60242238D01*
X125322804Y-60242238D02*
X125703757Y-60242238D01*
X125703757Y-60242238D02*
X125989471Y-60337476D01*
X125989471Y-60337476D02*
X126179947Y-60527952D01*
X126179947Y-60527952D02*
X126275185Y-60813666D01*
X126275185Y-60813666D02*
X126275185Y-61289857D01*
X126275185Y-61289857D02*
X126179947Y-61575571D01*
X126179947Y-61575571D02*
X125989471Y-61766047D01*
X125989471Y-61766047D02*
X125798995Y-61861285D01*
X125798995Y-61861285D02*
X125798995Y-62242238D01*
X125798995Y-62242238D02*
X126275185Y-62242238D01*
X128656138Y-62242238D02*
X128656138Y-60242238D01*
X128656138Y-60242238D02*
X129132328Y-60242238D01*
X129132328Y-60242238D02*
X129418043Y-60337476D01*
X129418043Y-60337476D02*
X129608519Y-60527952D01*
X129608519Y-60527952D02*
X129703757Y-60718428D01*
X129703757Y-60718428D02*
X129798995Y-61099380D01*
X129798995Y-61099380D02*
X129798995Y-61385095D01*
X129798995Y-61385095D02*
X129703757Y-61766047D01*
X129703757Y-61766047D02*
X129608519Y-61956523D01*
X129608519Y-61956523D02*
X129418043Y-62147000D01*
X129418043Y-62147000D02*
X129132328Y-62242238D01*
X129132328Y-62242238D02*
X128656138Y-62242238D01*
X131513281Y-60908904D02*
X131513281Y-62242238D01*
X130656138Y-60908904D02*
X130656138Y-61956523D01*
X130656138Y-61956523D02*
X130751376Y-62147000D01*
X130751376Y-62147000D02*
X130941852Y-62242238D01*
X130941852Y-62242238D02*
X131227567Y-62242238D01*
X131227567Y-62242238D02*
X131418043Y-62147000D01*
X131418043Y-62147000D02*
X131513281Y-62051761D01*
X132465662Y-62242238D02*
X132465662Y-60908904D01*
X132465662Y-61099380D02*
X132560900Y-61004142D01*
X132560900Y-61004142D02*
X132751376Y-60908904D01*
X132751376Y-60908904D02*
X133037091Y-60908904D01*
X133037091Y-60908904D02*
X133227567Y-61004142D01*
X133227567Y-61004142D02*
X133322805Y-61194619D01*
X133322805Y-61194619D02*
X133322805Y-62242238D01*
X133322805Y-61194619D02*
X133418043Y-61004142D01*
X133418043Y-61004142D02*
X133608519Y-60908904D01*
X133608519Y-60908904D02*
X133894233Y-60908904D01*
X133894233Y-60908904D02*
X134084710Y-61004142D01*
X134084710Y-61004142D02*
X134179948Y-61194619D01*
X134179948Y-61194619D02*
X134179948Y-62242238D01*
X135132329Y-62242238D02*
X135132329Y-60908904D01*
X135132329Y-61099380D02*
X135227567Y-61004142D01*
X135227567Y-61004142D02*
X135418043Y-60908904D01*
X135418043Y-60908904D02*
X135703758Y-60908904D01*
X135703758Y-60908904D02*
X135894234Y-61004142D01*
X135894234Y-61004142D02*
X135989472Y-61194619D01*
X135989472Y-61194619D02*
X135989472Y-62242238D01*
X135989472Y-61194619D02*
X136084710Y-61004142D01*
X136084710Y-61004142D02*
X136275186Y-60908904D01*
X136275186Y-60908904D02*
X136560900Y-60908904D01*
X136560900Y-60908904D02*
X136751377Y-61004142D01*
X136751377Y-61004142D02*
X136846615Y-61194619D01*
X136846615Y-61194619D02*
X136846615Y-62242238D01*
X137608520Y-60908904D02*
X138084710Y-62242238D01*
X138560901Y-60908904D02*
X138084710Y-62242238D01*
X138084710Y-62242238D02*
X137894234Y-62718428D01*
X137894234Y-62718428D02*
X137798996Y-62813666D01*
X137798996Y-62813666D02*
X137608520Y-62908904D01*
X141798997Y-62242238D02*
X140846616Y-62242238D01*
X140846616Y-62242238D02*
X140846616Y-60242238D01*
X142751378Y-62242238D02*
X142560902Y-62147000D01*
X142560902Y-62147000D02*
X142465664Y-62051761D01*
X142465664Y-62051761D02*
X142370426Y-61861285D01*
X142370426Y-61861285D02*
X142370426Y-61289857D01*
X142370426Y-61289857D02*
X142465664Y-61099380D01*
X142465664Y-61099380D02*
X142560902Y-61004142D01*
X142560902Y-61004142D02*
X142751378Y-60908904D01*
X142751378Y-60908904D02*
X143037093Y-60908904D01*
X143037093Y-60908904D02*
X143227569Y-61004142D01*
X143227569Y-61004142D02*
X143322807Y-61099380D01*
X143322807Y-61099380D02*
X143418045Y-61289857D01*
X143418045Y-61289857D02*
X143418045Y-61861285D01*
X143418045Y-61861285D02*
X143322807Y-62051761D01*
X143322807Y-62051761D02*
X143227569Y-62147000D01*
X143227569Y-62147000D02*
X143037093Y-62242238D01*
X143037093Y-62242238D02*
X142751378Y-62242238D01*
X145132331Y-62242238D02*
X145132331Y-61194619D01*
X145132331Y-61194619D02*
X145037093Y-61004142D01*
X145037093Y-61004142D02*
X144846617Y-60908904D01*
X144846617Y-60908904D02*
X144465664Y-60908904D01*
X144465664Y-60908904D02*
X144275188Y-61004142D01*
X145132331Y-62147000D02*
X144941855Y-62242238D01*
X144941855Y-62242238D02*
X144465664Y-62242238D01*
X144465664Y-62242238D02*
X144275188Y-62147000D01*
X144275188Y-62147000D02*
X144179950Y-61956523D01*
X144179950Y-61956523D02*
X144179950Y-61766047D01*
X144179950Y-61766047D02*
X144275188Y-61575571D01*
X144275188Y-61575571D02*
X144465664Y-61480333D01*
X144465664Y-61480333D02*
X144941855Y-61480333D01*
X144941855Y-61480333D02*
X145132331Y-61385095D01*
X146941855Y-62242238D02*
X146941855Y-60242238D01*
X146941855Y-62147000D02*
X146751379Y-62242238D01*
X146751379Y-62242238D02*
X146370426Y-62242238D01*
X146370426Y-62242238D02*
X146179950Y-62147000D01*
X146179950Y-62147000D02*
X146084712Y-62051761D01*
X146084712Y-62051761D02*
X145989474Y-61861285D01*
X145989474Y-61861285D02*
X145989474Y-61289857D01*
X145989474Y-61289857D02*
X146084712Y-61099380D01*
X146084712Y-61099380D02*
X146179950Y-61004142D01*
X146179950Y-61004142D02*
X146370426Y-60908904D01*
X146370426Y-60908904D02*
X146751379Y-60908904D01*
X146751379Y-60908904D02*
X146941855Y-61004142D01*
D11*
X150732455Y-66705752D02*
X150732455Y-67372419D01*
X150494360Y-66324800D02*
X150256265Y-67039085D01*
X150256265Y-67039085D02*
X150875312Y-67039085D01*
X151446741Y-66372419D02*
X151541979Y-66372419D01*
X151541979Y-66372419D02*
X151637217Y-66420038D01*
X151637217Y-66420038D02*
X151684836Y-66467657D01*
X151684836Y-66467657D02*
X151732455Y-66562895D01*
X151732455Y-66562895D02*
X151780074Y-66753371D01*
X151780074Y-66753371D02*
X151780074Y-66991466D01*
X151780074Y-66991466D02*
X151732455Y-67181942D01*
X151732455Y-67181942D02*
X151684836Y-67277180D01*
X151684836Y-67277180D02*
X151637217Y-67324800D01*
X151637217Y-67324800D02*
X151541979Y-67372419D01*
X151541979Y-67372419D02*
X151446741Y-67372419D01*
X151446741Y-67372419D02*
X151351503Y-67324800D01*
X151351503Y-67324800D02*
X151303884Y-67277180D01*
X151303884Y-67277180D02*
X151256265Y-67181942D01*
X151256265Y-67181942D02*
X151208646Y-66991466D01*
X151208646Y-66991466D02*
X151208646Y-66753371D01*
X151208646Y-66753371D02*
X151256265Y-66562895D01*
X151256265Y-66562895D02*
X151303884Y-66467657D01*
X151303884Y-66467657D02*
X151351503Y-66420038D01*
X151351503Y-66420038D02*
X151446741Y-66372419D01*
X152637217Y-67372419D02*
X152637217Y-66372419D01*
X152637217Y-67324800D02*
X152541979Y-67372419D01*
X152541979Y-67372419D02*
X152351503Y-67372419D01*
X152351503Y-67372419D02*
X152256265Y-67324800D01*
X152256265Y-67324800D02*
X152208646Y-67277180D01*
X152208646Y-67277180D02*
X152161027Y-67181942D01*
X152161027Y-67181942D02*
X152161027Y-66896228D01*
X152161027Y-66896228D02*
X152208646Y-66800990D01*
X152208646Y-66800990D02*
X152256265Y-66753371D01*
X152256265Y-66753371D02*
X152351503Y-66705752D01*
X152351503Y-66705752D02*
X152541979Y-66705752D01*
X152541979Y-66705752D02*
X152637217Y-66753371D01*
X153113408Y-67372419D02*
X153113408Y-66372419D01*
X153113408Y-66753371D02*
X153208646Y-66705752D01*
X153208646Y-66705752D02*
X153399122Y-66705752D01*
X153399122Y-66705752D02*
X153494360Y-66753371D01*
X153494360Y-66753371D02*
X153541979Y-66800990D01*
X153541979Y-66800990D02*
X153589598Y-66896228D01*
X153589598Y-66896228D02*
X153589598Y-67181942D01*
X153589598Y-67181942D02*
X153541979Y-67277180D01*
X153541979Y-67277180D02*
X153494360Y-67324800D01*
X153494360Y-67324800D02*
X153399122Y-67372419D01*
X153399122Y-67372419D02*
X153208646Y-67372419D01*
X153208646Y-67372419D02*
X153113408Y-67324800D01*
X154732456Y-67086704D02*
X155208646Y-67086704D01*
X154637218Y-67372419D02*
X154970551Y-66372419D01*
X154970551Y-66372419D02*
X155303884Y-67372419D01*
X155494361Y-66705752D02*
X155875313Y-66705752D01*
X155637218Y-66372419D02*
X155637218Y-67229561D01*
X155637218Y-67229561D02*
X155684837Y-67324800D01*
X155684837Y-67324800D02*
X155780075Y-67372419D01*
X155780075Y-67372419D02*
X155875313Y-67372419D01*
X156065790Y-66705752D02*
X156446742Y-66705752D01*
X156208647Y-66372419D02*
X156208647Y-67229561D01*
X156208647Y-67229561D02*
X156256266Y-67324800D01*
X156256266Y-67324800D02*
X156351504Y-67372419D01*
X156351504Y-67372419D02*
X156446742Y-67372419D01*
X156780076Y-66705752D02*
X156780076Y-67372419D01*
X156780076Y-66800990D02*
X156827695Y-66753371D01*
X156827695Y-66753371D02*
X156922933Y-66705752D01*
X156922933Y-66705752D02*
X157065790Y-66705752D01*
X157065790Y-66705752D02*
X157161028Y-66753371D01*
X157161028Y-66753371D02*
X157208647Y-66848609D01*
X157208647Y-66848609D02*
X157208647Y-67372419D01*
X158637219Y-66372419D02*
X158827695Y-66372419D01*
X158827695Y-66372419D02*
X158922933Y-66420038D01*
X158922933Y-66420038D02*
X159018171Y-66515276D01*
X159018171Y-66515276D02*
X159065790Y-66705752D01*
X159065790Y-66705752D02*
X159065790Y-67039085D01*
X159065790Y-67039085D02*
X159018171Y-67229561D01*
X159018171Y-67229561D02*
X158922933Y-67324800D01*
X158922933Y-67324800D02*
X158827695Y-67372419D01*
X158827695Y-67372419D02*
X158637219Y-67372419D01*
X158637219Y-67372419D02*
X158541981Y-67324800D01*
X158541981Y-67324800D02*
X158446743Y-67229561D01*
X158446743Y-67229561D02*
X158399124Y-67039085D01*
X158399124Y-67039085D02*
X158399124Y-66705752D01*
X158399124Y-66705752D02*
X158446743Y-66515276D01*
X158446743Y-66515276D02*
X158541981Y-66420038D01*
X158541981Y-66420038D02*
X158637219Y-66372419D01*
X159922933Y-66705752D02*
X159922933Y-67372419D01*
X159494362Y-66705752D02*
X159494362Y-67229561D01*
X159494362Y-67229561D02*
X159541981Y-67324800D01*
X159541981Y-67324800D02*
X159637219Y-67372419D01*
X159637219Y-67372419D02*
X159780076Y-67372419D01*
X159780076Y-67372419D02*
X159875314Y-67324800D01*
X159875314Y-67324800D02*
X159922933Y-67277180D01*
X160256267Y-66705752D02*
X160637219Y-66705752D01*
X160399124Y-66372419D02*
X160399124Y-67229561D01*
X160399124Y-67229561D02*
X160446743Y-67324800D01*
X160446743Y-67324800D02*
X160541981Y-67372419D01*
X160541981Y-67372419D02*
X160637219Y-67372419D01*
X143803884Y-89872419D02*
X143803884Y-88872419D01*
X143803884Y-88872419D02*
X144184836Y-88872419D01*
X144184836Y-88872419D02*
X144280074Y-88920038D01*
X144280074Y-88920038D02*
X144327693Y-88967657D01*
X144327693Y-88967657D02*
X144375312Y-89062895D01*
X144375312Y-89062895D02*
X144375312Y-89205752D01*
X144375312Y-89205752D02*
X144327693Y-89300990D01*
X144327693Y-89300990D02*
X144280074Y-89348609D01*
X144280074Y-89348609D02*
X144184836Y-89396228D01*
X144184836Y-89396228D02*
X143803884Y-89396228D01*
X144946741Y-89872419D02*
X144851503Y-89824800D01*
X144851503Y-89824800D02*
X144803884Y-89777180D01*
X144803884Y-89777180D02*
X144756265Y-89681942D01*
X144756265Y-89681942D02*
X144756265Y-89396228D01*
X144756265Y-89396228D02*
X144803884Y-89300990D01*
X144803884Y-89300990D02*
X144851503Y-89253371D01*
X144851503Y-89253371D02*
X144946741Y-89205752D01*
X144946741Y-89205752D02*
X145089598Y-89205752D01*
X145089598Y-89205752D02*
X145184836Y-89253371D01*
X145184836Y-89253371D02*
X145232455Y-89300990D01*
X145232455Y-89300990D02*
X145280074Y-89396228D01*
X145280074Y-89396228D02*
X145280074Y-89681942D01*
X145280074Y-89681942D02*
X145232455Y-89777180D01*
X145232455Y-89777180D02*
X145184836Y-89824800D01*
X145184836Y-89824800D02*
X145089598Y-89872419D01*
X145089598Y-89872419D02*
X144946741Y-89872419D01*
X145613408Y-89205752D02*
X145803884Y-89872419D01*
X145803884Y-89872419D02*
X145994360Y-89396228D01*
X145994360Y-89396228D02*
X146184836Y-89872419D01*
X146184836Y-89872419D02*
X146375312Y-89205752D01*
X147137217Y-89824800D02*
X147041979Y-89872419D01*
X147041979Y-89872419D02*
X146851503Y-89872419D01*
X146851503Y-89872419D02*
X146756265Y-89824800D01*
X146756265Y-89824800D02*
X146708646Y-89729561D01*
X146708646Y-89729561D02*
X146708646Y-89348609D01*
X146708646Y-89348609D02*
X146756265Y-89253371D01*
X146756265Y-89253371D02*
X146851503Y-89205752D01*
X146851503Y-89205752D02*
X147041979Y-89205752D01*
X147041979Y-89205752D02*
X147137217Y-89253371D01*
X147137217Y-89253371D02*
X147184836Y-89348609D01*
X147184836Y-89348609D02*
X147184836Y-89443847D01*
X147184836Y-89443847D02*
X146708646Y-89539085D01*
X147613408Y-89872419D02*
X147613408Y-89205752D01*
X147613408Y-89396228D02*
X147661027Y-89300990D01*
X147661027Y-89300990D02*
X147708646Y-89253371D01*
X147708646Y-89253371D02*
X147803884Y-89205752D01*
X147803884Y-89205752D02*
X147899122Y-89205752D01*
X152037217Y-91347942D02*
X151637217Y-90776514D01*
X151351503Y-91347942D02*
X151351503Y-90147942D01*
X151351503Y-90147942D02*
X151808646Y-90147942D01*
X151808646Y-90147942D02*
X151922931Y-90205085D01*
X151922931Y-90205085D02*
X151980074Y-90262228D01*
X151980074Y-90262228D02*
X152037217Y-90376514D01*
X152037217Y-90376514D02*
X152037217Y-90547942D01*
X152037217Y-90547942D02*
X151980074Y-90662228D01*
X151980074Y-90662228D02*
X151922931Y-90719371D01*
X151922931Y-90719371D02*
X151808646Y-90776514D01*
X151808646Y-90776514D02*
X151351503Y-90776514D01*
X153008646Y-91290800D02*
X152894360Y-91347942D01*
X152894360Y-91347942D02*
X152665789Y-91347942D01*
X152665789Y-91347942D02*
X152551503Y-91290800D01*
X152551503Y-91290800D02*
X152494360Y-91176514D01*
X152494360Y-91176514D02*
X152494360Y-90719371D01*
X152494360Y-90719371D02*
X152551503Y-90605085D01*
X152551503Y-90605085D02*
X152665789Y-90547942D01*
X152665789Y-90547942D02*
X152894360Y-90547942D01*
X152894360Y-90547942D02*
X153008646Y-90605085D01*
X153008646Y-90605085D02*
X153065789Y-90719371D01*
X153065789Y-90719371D02*
X153065789Y-90833657D01*
X153065789Y-90833657D02*
X152494360Y-90947942D01*
X153465788Y-90547942D02*
X153751502Y-91347942D01*
X153751502Y-91347942D02*
X154037217Y-90547942D01*
X156037217Y-91347942D02*
X155351503Y-91347942D01*
X155694360Y-91347942D02*
X155694360Y-90147942D01*
X155694360Y-90147942D02*
X155580074Y-90319371D01*
X155580074Y-90319371D02*
X155465789Y-90433657D01*
X155465789Y-90433657D02*
X155351503Y-90490800D01*
X131444359Y-64372419D02*
X130872931Y-64372419D01*
X131158645Y-64372419D02*
X131158645Y-63372419D01*
X131158645Y-63372419D02*
X131063407Y-63515276D01*
X131063407Y-63515276D02*
X130968169Y-63610514D01*
X130968169Y-63610514D02*
X130872931Y-63658133D01*
X132063407Y-63372419D02*
X132158645Y-63372419D01*
X132158645Y-63372419D02*
X132253883Y-63420038D01*
X132253883Y-63420038D02*
X132301502Y-63467657D01*
X132301502Y-63467657D02*
X132349121Y-63562895D01*
X132349121Y-63562895D02*
X132396740Y-63753371D01*
X132396740Y-63753371D02*
X132396740Y-63991466D01*
X132396740Y-63991466D02*
X132349121Y-64181942D01*
X132349121Y-64181942D02*
X132301502Y-64277180D01*
X132301502Y-64277180D02*
X132253883Y-64324800D01*
X132253883Y-64324800D02*
X132158645Y-64372419D01*
X132158645Y-64372419D02*
X132063407Y-64372419D01*
X132063407Y-64372419D02*
X131968169Y-64324800D01*
X131968169Y-64324800D02*
X131920550Y-64277180D01*
X131920550Y-64277180D02*
X131872931Y-64181942D01*
X131872931Y-64181942D02*
X131825312Y-63991466D01*
X131825312Y-63991466D02*
X131825312Y-63753371D01*
X131825312Y-63753371D02*
X131872931Y-63562895D01*
X131872931Y-63562895D02*
X131920550Y-63467657D01*
X131920550Y-63467657D02*
X131968169Y-63420038D01*
X131968169Y-63420038D02*
X132063407Y-63372419D01*
X133491979Y-63372419D02*
X133730074Y-64372419D01*
X133730074Y-64372419D02*
X133920550Y-63658133D01*
X133920550Y-63658133D02*
X134111026Y-64372419D01*
X134111026Y-64372419D02*
X134349122Y-63372419D01*
X135158645Y-64372419D02*
X135158645Y-63848609D01*
X135158645Y-63848609D02*
X135111026Y-63753371D01*
X135111026Y-63753371D02*
X135015788Y-63705752D01*
X135015788Y-63705752D02*
X134825312Y-63705752D01*
X134825312Y-63705752D02*
X134730074Y-63753371D01*
X135158645Y-64324800D02*
X135063407Y-64372419D01*
X135063407Y-64372419D02*
X134825312Y-64372419D01*
X134825312Y-64372419D02*
X134730074Y-64324800D01*
X134730074Y-64324800D02*
X134682455Y-64229561D01*
X134682455Y-64229561D02*
X134682455Y-64134323D01*
X134682455Y-64134323D02*
X134730074Y-64039085D01*
X134730074Y-64039085D02*
X134825312Y-63991466D01*
X134825312Y-63991466D02*
X135063407Y-63991466D01*
X135063407Y-63991466D02*
X135158645Y-63943847D01*
X135491979Y-63705752D02*
X135872931Y-63705752D01*
X135634836Y-63372419D02*
X135634836Y-64229561D01*
X135634836Y-64229561D02*
X135682455Y-64324800D01*
X135682455Y-64324800D02*
X135777693Y-64372419D01*
X135777693Y-64372419D02*
X135872931Y-64372419D01*
X136063408Y-63705752D02*
X136444360Y-63705752D01*
X136206265Y-63372419D02*
X136206265Y-64229561D01*
X136206265Y-64229561D02*
X136253884Y-64324800D01*
X136253884Y-64324800D02*
X136349122Y-64372419D01*
X136349122Y-64372419D02*
X136444360Y-64372419D01*
X136730075Y-64324800D02*
X136825313Y-64372419D01*
X136825313Y-64372419D02*
X137015789Y-64372419D01*
X137015789Y-64372419D02*
X137111027Y-64324800D01*
X137111027Y-64324800D02*
X137158646Y-64229561D01*
X137158646Y-64229561D02*
X137158646Y-64181942D01*
X137158646Y-64181942D02*
X137111027Y-64086704D01*
X137111027Y-64086704D02*
X137015789Y-64039085D01*
X137015789Y-64039085D02*
X136872932Y-64039085D01*
X136872932Y-64039085D02*
X136777694Y-63991466D01*
X136777694Y-63991466D02*
X136730075Y-63896228D01*
X136730075Y-63896228D02*
X136730075Y-63848609D01*
X136730075Y-63848609D02*
X136777694Y-63753371D01*
X136777694Y-63753371D02*
X136872932Y-63705752D01*
X136872932Y-63705752D02*
X137015789Y-63705752D01*
X137015789Y-63705752D02*
X137111027Y-63753371D01*
D10*
X110640663Y-88522350D02*
X110640663Y-86522350D01*
X110640663Y-86522350D02*
X111116853Y-86522350D01*
X111116853Y-86522350D02*
X111402568Y-86617588D01*
X111402568Y-86617588D02*
X111593044Y-86808064D01*
X111593044Y-86808064D02*
X111688282Y-86998540D01*
X111688282Y-86998540D02*
X111783520Y-87379492D01*
X111783520Y-87379492D02*
X111783520Y-87665207D01*
X111783520Y-87665207D02*
X111688282Y-88046159D01*
X111688282Y-88046159D02*
X111593044Y-88236635D01*
X111593044Y-88236635D02*
X111402568Y-88427112D01*
X111402568Y-88427112D02*
X111116853Y-88522350D01*
X111116853Y-88522350D02*
X110640663Y-88522350D01*
X113402568Y-88427112D02*
X113212092Y-88522350D01*
X113212092Y-88522350D02*
X112831139Y-88522350D01*
X112831139Y-88522350D02*
X112640663Y-88427112D01*
X112640663Y-88427112D02*
X112545425Y-88236635D01*
X112545425Y-88236635D02*
X112545425Y-87474731D01*
X112545425Y-87474731D02*
X112640663Y-87284254D01*
X112640663Y-87284254D02*
X112831139Y-87189016D01*
X112831139Y-87189016D02*
X113212092Y-87189016D01*
X113212092Y-87189016D02*
X113402568Y-87284254D01*
X113402568Y-87284254D02*
X113497806Y-87474731D01*
X113497806Y-87474731D02*
X113497806Y-87665207D01*
X113497806Y-87665207D02*
X112545425Y-87855683D01*
X114259711Y-88427112D02*
X114450187Y-88522350D01*
X114450187Y-88522350D02*
X114831139Y-88522350D01*
X114831139Y-88522350D02*
X115021616Y-88427112D01*
X115021616Y-88427112D02*
X115116854Y-88236635D01*
X115116854Y-88236635D02*
X115116854Y-88141397D01*
X115116854Y-88141397D02*
X115021616Y-87950921D01*
X115021616Y-87950921D02*
X114831139Y-87855683D01*
X114831139Y-87855683D02*
X114545425Y-87855683D01*
X114545425Y-87855683D02*
X114354949Y-87760445D01*
X114354949Y-87760445D02*
X114259711Y-87569969D01*
X114259711Y-87569969D02*
X114259711Y-87474731D01*
X114259711Y-87474731D02*
X114354949Y-87284254D01*
X114354949Y-87284254D02*
X114545425Y-87189016D01*
X114545425Y-87189016D02*
X114831139Y-87189016D01*
X114831139Y-87189016D02*
X115021616Y-87284254D01*
X115973997Y-88522350D02*
X115973997Y-87189016D01*
X115973997Y-86522350D02*
X115878759Y-86617588D01*
X115878759Y-86617588D02*
X115973997Y-86712826D01*
X115973997Y-86712826D02*
X116069235Y-86617588D01*
X116069235Y-86617588D02*
X115973997Y-86522350D01*
X115973997Y-86522350D02*
X115973997Y-86712826D01*
X117783521Y-87189016D02*
X117783521Y-88808064D01*
X117783521Y-88808064D02*
X117688283Y-88998540D01*
X117688283Y-88998540D02*
X117593045Y-89093778D01*
X117593045Y-89093778D02*
X117402568Y-89189016D01*
X117402568Y-89189016D02*
X117116854Y-89189016D01*
X117116854Y-89189016D02*
X116926378Y-89093778D01*
X117783521Y-88427112D02*
X117593045Y-88522350D01*
X117593045Y-88522350D02*
X117212092Y-88522350D01*
X117212092Y-88522350D02*
X117021616Y-88427112D01*
X117021616Y-88427112D02*
X116926378Y-88331873D01*
X116926378Y-88331873D02*
X116831140Y-88141397D01*
X116831140Y-88141397D02*
X116831140Y-87569969D01*
X116831140Y-87569969D02*
X116926378Y-87379492D01*
X116926378Y-87379492D02*
X117021616Y-87284254D01*
X117021616Y-87284254D02*
X117212092Y-87189016D01*
X117212092Y-87189016D02*
X117593045Y-87189016D01*
X117593045Y-87189016D02*
X117783521Y-87284254D01*
X118735902Y-87189016D02*
X118735902Y-88522350D01*
X118735902Y-87379492D02*
X118831140Y-87284254D01*
X118831140Y-87284254D02*
X119021616Y-87189016D01*
X119021616Y-87189016D02*
X119307331Y-87189016D01*
X119307331Y-87189016D02*
X119497807Y-87284254D01*
X119497807Y-87284254D02*
X119593045Y-87474731D01*
X119593045Y-87474731D02*
X119593045Y-88522350D01*
X122735903Y-87474731D02*
X123021617Y-87569969D01*
X123021617Y-87569969D02*
X123116855Y-87665207D01*
X123116855Y-87665207D02*
X123212093Y-87855683D01*
X123212093Y-87855683D02*
X123212093Y-88141397D01*
X123212093Y-88141397D02*
X123116855Y-88331873D01*
X123116855Y-88331873D02*
X123021617Y-88427112D01*
X123021617Y-88427112D02*
X122831141Y-88522350D01*
X122831141Y-88522350D02*
X122069236Y-88522350D01*
X122069236Y-88522350D02*
X122069236Y-86522350D01*
X122069236Y-86522350D02*
X122735903Y-86522350D01*
X122735903Y-86522350D02*
X122926379Y-86617588D01*
X122926379Y-86617588D02*
X123021617Y-86712826D01*
X123021617Y-86712826D02*
X123116855Y-86903302D01*
X123116855Y-86903302D02*
X123116855Y-87093778D01*
X123116855Y-87093778D02*
X123021617Y-87284254D01*
X123021617Y-87284254D02*
X122926379Y-87379492D01*
X122926379Y-87379492D02*
X122735903Y-87474731D01*
X122735903Y-87474731D02*
X122069236Y-87474731D01*
X123878760Y-87189016D02*
X124354950Y-88522350D01*
X124831141Y-87189016D02*
X124354950Y-88522350D01*
X124354950Y-88522350D02*
X124164474Y-88998540D01*
X124164474Y-88998540D02*
X124069236Y-89093778D01*
X124069236Y-89093778D02*
X123878760Y-89189016D01*
X127116856Y-88522350D02*
X127116856Y-86522350D01*
X127116856Y-86522350D02*
X128259713Y-88522350D01*
X128259713Y-88522350D02*
X128259713Y-86522350D01*
X129212094Y-87474731D02*
X129878761Y-87474731D01*
X130164475Y-88522350D02*
X129212094Y-88522350D01*
X129212094Y-88522350D02*
X129212094Y-86522350D01*
X129212094Y-86522350D02*
X130164475Y-86522350D01*
X130831142Y-86522350D02*
X132069237Y-86522350D01*
X132069237Y-86522350D02*
X131402570Y-87284254D01*
X131402570Y-87284254D02*
X131688285Y-87284254D01*
X131688285Y-87284254D02*
X131878761Y-87379492D01*
X131878761Y-87379492D02*
X131973999Y-87474731D01*
X131973999Y-87474731D02*
X132069237Y-87665207D01*
X132069237Y-87665207D02*
X132069237Y-88141397D01*
X132069237Y-88141397D02*
X131973999Y-88331873D01*
X131973999Y-88331873D02*
X131878761Y-88427112D01*
X131878761Y-88427112D02*
X131688285Y-88522350D01*
X131688285Y-88522350D02*
X131116856Y-88522350D01*
X131116856Y-88522350D02*
X130926380Y-88427112D01*
X130926380Y-88427112D02*
X130831142Y-88331873D01*
X132926380Y-86522350D02*
X132926380Y-88141397D01*
X132926380Y-88141397D02*
X133021618Y-88331873D01*
X133021618Y-88331873D02*
X133116856Y-88427112D01*
X133116856Y-88427112D02*
X133307332Y-88522350D01*
X133307332Y-88522350D02*
X133688285Y-88522350D01*
X133688285Y-88522350D02*
X133878761Y-88427112D01*
X133878761Y-88427112D02*
X133973999Y-88331873D01*
X133973999Y-88331873D02*
X134069237Y-88141397D01*
X134069237Y-88141397D02*
X134069237Y-86522350D01*
X110640663Y-91742238D02*
X110640663Y-89742238D01*
X110640663Y-89742238D02*
X111307330Y-91170809D01*
X111307330Y-91170809D02*
X111973996Y-89742238D01*
X111973996Y-89742238D02*
X111973996Y-91742238D01*
X113783520Y-91742238D02*
X113783520Y-90694619D01*
X113783520Y-90694619D02*
X113688282Y-90504142D01*
X113688282Y-90504142D02*
X113497806Y-90408904D01*
X113497806Y-90408904D02*
X113116853Y-90408904D01*
X113116853Y-90408904D02*
X112926377Y-90504142D01*
X113783520Y-91647000D02*
X113593044Y-91742238D01*
X113593044Y-91742238D02*
X113116853Y-91742238D01*
X113116853Y-91742238D02*
X112926377Y-91647000D01*
X112926377Y-91647000D02*
X112831139Y-91456523D01*
X112831139Y-91456523D02*
X112831139Y-91266047D01*
X112831139Y-91266047D02*
X112926377Y-91075571D01*
X112926377Y-91075571D02*
X113116853Y-90980333D01*
X113116853Y-90980333D02*
X113593044Y-90980333D01*
X113593044Y-90980333D02*
X113783520Y-90885095D01*
X114450187Y-90408904D02*
X115212091Y-90408904D01*
X114735901Y-89742238D02*
X114735901Y-91456523D01*
X114735901Y-91456523D02*
X114831139Y-91647000D01*
X114831139Y-91647000D02*
X115021615Y-91742238D01*
X115021615Y-91742238D02*
X115212091Y-91742238D01*
X115593044Y-90408904D02*
X116354948Y-90408904D01*
X115878758Y-89742238D02*
X115878758Y-91456523D01*
X115878758Y-91456523D02*
X115973996Y-91647000D01*
X115973996Y-91647000D02*
X116164472Y-91742238D01*
X116164472Y-91742238D02*
X116354948Y-91742238D01*
X117021615Y-91742238D02*
X117021615Y-89742238D01*
X117878758Y-91742238D02*
X117878758Y-90694619D01*
X117878758Y-90694619D02*
X117783520Y-90504142D01*
X117783520Y-90504142D02*
X117593044Y-90408904D01*
X117593044Y-90408904D02*
X117307329Y-90408904D01*
X117307329Y-90408904D02*
X117116853Y-90504142D01*
X117116853Y-90504142D02*
X117021615Y-90599380D01*
X119593044Y-91647000D02*
X119402568Y-91742238D01*
X119402568Y-91742238D02*
X119021615Y-91742238D01*
X119021615Y-91742238D02*
X118831139Y-91647000D01*
X118831139Y-91647000D02*
X118735901Y-91456523D01*
X118735901Y-91456523D02*
X118735901Y-90694619D01*
X118735901Y-90694619D02*
X118831139Y-90504142D01*
X118831139Y-90504142D02*
X119021615Y-90408904D01*
X119021615Y-90408904D02*
X119402568Y-90408904D01*
X119402568Y-90408904D02*
X119593044Y-90504142D01*
X119593044Y-90504142D02*
X119688282Y-90694619D01*
X119688282Y-90694619D02*
X119688282Y-90885095D01*
X119688282Y-90885095D02*
X118735901Y-91075571D01*
X120354949Y-90408904D02*
X120735901Y-91742238D01*
X120735901Y-91742238D02*
X121116854Y-90789857D01*
X121116854Y-90789857D02*
X121497806Y-91742238D01*
X121497806Y-91742238D02*
X121878758Y-90408904D01*
X124831140Y-90694619D02*
X125116854Y-90789857D01*
X125116854Y-90789857D02*
X125212092Y-90885095D01*
X125212092Y-90885095D02*
X125307330Y-91075571D01*
X125307330Y-91075571D02*
X125307330Y-91361285D01*
X125307330Y-91361285D02*
X125212092Y-91551761D01*
X125212092Y-91551761D02*
X125116854Y-91647000D01*
X125116854Y-91647000D02*
X124926378Y-91742238D01*
X124926378Y-91742238D02*
X124164473Y-91742238D01*
X124164473Y-91742238D02*
X124164473Y-89742238D01*
X124164473Y-89742238D02*
X124831140Y-89742238D01*
X124831140Y-89742238D02*
X125021616Y-89837476D01*
X125021616Y-89837476D02*
X125116854Y-89932714D01*
X125116854Y-89932714D02*
X125212092Y-90123190D01*
X125212092Y-90123190D02*
X125212092Y-90313666D01*
X125212092Y-90313666D02*
X125116854Y-90504142D01*
X125116854Y-90504142D02*
X125021616Y-90599380D01*
X125021616Y-90599380D02*
X124831140Y-90694619D01*
X124831140Y-90694619D02*
X124164473Y-90694619D01*
X127021616Y-91742238D02*
X127021616Y-90694619D01*
X127021616Y-90694619D02*
X126926378Y-90504142D01*
X126926378Y-90504142D02*
X126735902Y-90408904D01*
X126735902Y-90408904D02*
X126354949Y-90408904D01*
X126354949Y-90408904D02*
X126164473Y-90504142D01*
X127021616Y-91647000D02*
X126831140Y-91742238D01*
X126831140Y-91742238D02*
X126354949Y-91742238D01*
X126354949Y-91742238D02*
X126164473Y-91647000D01*
X126164473Y-91647000D02*
X126069235Y-91456523D01*
X126069235Y-91456523D02*
X126069235Y-91266047D01*
X126069235Y-91266047D02*
X126164473Y-91075571D01*
X126164473Y-91075571D02*
X126354949Y-90980333D01*
X126354949Y-90980333D02*
X126831140Y-90980333D01*
X126831140Y-90980333D02*
X127021616Y-90885095D01*
X127878759Y-91647000D02*
X128069235Y-91742238D01*
X128069235Y-91742238D02*
X128450187Y-91742238D01*
X128450187Y-91742238D02*
X128640664Y-91647000D01*
X128640664Y-91647000D02*
X128735902Y-91456523D01*
X128735902Y-91456523D02*
X128735902Y-91361285D01*
X128735902Y-91361285D02*
X128640664Y-91170809D01*
X128640664Y-91170809D02*
X128450187Y-91075571D01*
X128450187Y-91075571D02*
X128164473Y-91075571D01*
X128164473Y-91075571D02*
X127973997Y-90980333D01*
X127973997Y-90980333D02*
X127878759Y-90789857D01*
X127878759Y-90789857D02*
X127878759Y-90694619D01*
X127878759Y-90694619D02*
X127973997Y-90504142D01*
X127973997Y-90504142D02*
X128164473Y-90408904D01*
X128164473Y-90408904D02*
X128450187Y-90408904D01*
X128450187Y-90408904D02*
X128640664Y-90504142D01*
X130450188Y-91742238D02*
X130450188Y-90694619D01*
X130450188Y-90694619D02*
X130354950Y-90504142D01*
X130354950Y-90504142D02*
X130164474Y-90408904D01*
X130164474Y-90408904D02*
X129783521Y-90408904D01*
X129783521Y-90408904D02*
X129593045Y-90504142D01*
X130450188Y-91647000D02*
X130259712Y-91742238D01*
X130259712Y-91742238D02*
X129783521Y-91742238D01*
X129783521Y-91742238D02*
X129593045Y-91647000D01*
X129593045Y-91647000D02*
X129497807Y-91456523D01*
X129497807Y-91456523D02*
X129497807Y-91266047D01*
X129497807Y-91266047D02*
X129593045Y-91075571D01*
X129593045Y-91075571D02*
X129783521Y-90980333D01*
X129783521Y-90980333D02*
X130259712Y-90980333D01*
X130259712Y-90980333D02*
X130450188Y-90885095D01*
X131402569Y-90408904D02*
X131402569Y-91742238D01*
X131402569Y-90599380D02*
X131497807Y-90504142D01*
X131497807Y-90504142D02*
X131688283Y-90408904D01*
X131688283Y-90408904D02*
X131973998Y-90408904D01*
X131973998Y-90408904D02*
X132164474Y-90504142D01*
X132164474Y-90504142D02*
X132259712Y-90694619D01*
X132259712Y-90694619D02*
X132259712Y-91742238D01*
X132926379Y-90408904D02*
X133688283Y-90408904D01*
X133212093Y-89742238D02*
X133212093Y-91456523D01*
X133212093Y-91456523D02*
X133307331Y-91647000D01*
X133307331Y-91647000D02*
X133497807Y-91742238D01*
X133497807Y-91742238D02*
X133688283Y-91742238D01*
X135212093Y-91742238D02*
X135212093Y-90694619D01*
X135212093Y-90694619D02*
X135116855Y-90504142D01*
X135116855Y-90504142D02*
X134926379Y-90408904D01*
X134926379Y-90408904D02*
X134545426Y-90408904D01*
X134545426Y-90408904D02*
X134354950Y-90504142D01*
X135212093Y-91647000D02*
X135021617Y-91742238D01*
X135021617Y-91742238D02*
X134545426Y-91742238D01*
X134545426Y-91742238D02*
X134354950Y-91647000D01*
X134354950Y-91647000D02*
X134259712Y-91456523D01*
X134259712Y-91456523D02*
X134259712Y-91266047D01*
X134259712Y-91266047D02*
X134354950Y-91075571D01*
X134354950Y-91075571D02*
X134545426Y-90980333D01*
X134545426Y-90980333D02*
X135021617Y-90980333D01*
X135021617Y-90980333D02*
X135212093Y-90885095D01*
D11*
X137827693Y-88920038D02*
X137732455Y-88872419D01*
X137732455Y-88872419D02*
X137589598Y-88872419D01*
X137589598Y-88872419D02*
X137446741Y-88920038D01*
X137446741Y-88920038D02*
X137351503Y-89015276D01*
X137351503Y-89015276D02*
X137303884Y-89110514D01*
X137303884Y-89110514D02*
X137256265Y-89300990D01*
X137256265Y-89300990D02*
X137256265Y-89443847D01*
X137256265Y-89443847D02*
X137303884Y-89634323D01*
X137303884Y-89634323D02*
X137351503Y-89729561D01*
X137351503Y-89729561D02*
X137446741Y-89824800D01*
X137446741Y-89824800D02*
X137589598Y-89872419D01*
X137589598Y-89872419D02*
X137684836Y-89872419D01*
X137684836Y-89872419D02*
X137827693Y-89824800D01*
X137827693Y-89824800D02*
X137875312Y-89777180D01*
X137875312Y-89777180D02*
X137875312Y-89443847D01*
X137875312Y-89443847D02*
X137684836Y-89443847D01*
X138303884Y-89872419D02*
X138303884Y-89205752D01*
X138303884Y-89396228D02*
X138351503Y-89300990D01*
X138351503Y-89300990D02*
X138399122Y-89253371D01*
X138399122Y-89253371D02*
X138494360Y-89205752D01*
X138494360Y-89205752D02*
X138589598Y-89205752D01*
X139065789Y-89872419D02*
X138970551Y-89824800D01*
X138970551Y-89824800D02*
X138922932Y-89777180D01*
X138922932Y-89777180D02*
X138875313Y-89681942D01*
X138875313Y-89681942D02*
X138875313Y-89396228D01*
X138875313Y-89396228D02*
X138922932Y-89300990D01*
X138922932Y-89300990D02*
X138970551Y-89253371D01*
X138970551Y-89253371D02*
X139065789Y-89205752D01*
X139065789Y-89205752D02*
X139208646Y-89205752D01*
X139208646Y-89205752D02*
X139303884Y-89253371D01*
X139303884Y-89253371D02*
X139351503Y-89300990D01*
X139351503Y-89300990D02*
X139399122Y-89396228D01*
X139399122Y-89396228D02*
X139399122Y-89681942D01*
X139399122Y-89681942D02*
X139351503Y-89777180D01*
X139351503Y-89777180D02*
X139303884Y-89824800D01*
X139303884Y-89824800D02*
X139208646Y-89872419D01*
X139208646Y-89872419D02*
X139065789Y-89872419D01*
X140256265Y-89205752D02*
X140256265Y-89872419D01*
X139827694Y-89205752D02*
X139827694Y-89729561D01*
X139827694Y-89729561D02*
X139875313Y-89824800D01*
X139875313Y-89824800D02*
X139970551Y-89872419D01*
X139970551Y-89872419D02*
X140113408Y-89872419D01*
X140113408Y-89872419D02*
X140208646Y-89824800D01*
X140208646Y-89824800D02*
X140256265Y-89777180D01*
X140732456Y-89205752D02*
X140732456Y-89872419D01*
X140732456Y-89300990D02*
X140780075Y-89253371D01*
X140780075Y-89253371D02*
X140875313Y-89205752D01*
X140875313Y-89205752D02*
X141018170Y-89205752D01*
X141018170Y-89205752D02*
X141113408Y-89253371D01*
X141113408Y-89253371D02*
X141161027Y-89348609D01*
X141161027Y-89348609D02*
X141161027Y-89872419D01*
X142065789Y-89872419D02*
X142065789Y-88872419D01*
X142065789Y-89824800D02*
X141970551Y-89872419D01*
X141970551Y-89872419D02*
X141780075Y-89872419D01*
X141780075Y-89872419D02*
X141684837Y-89824800D01*
X141684837Y-89824800D02*
X141637218Y-89777180D01*
X141637218Y-89777180D02*
X141589599Y-89681942D01*
X141589599Y-89681942D02*
X141589599Y-89396228D01*
X141589599Y-89396228D02*
X141637218Y-89300990D01*
X141637218Y-89300990D02*
X141684837Y-89253371D01*
X141684837Y-89253371D02*
X141780075Y-89205752D01*
X141780075Y-89205752D02*
X141970551Y-89205752D01*
X141970551Y-89205752D02*
X142065789Y-89253371D01*
X110375312Y-67372419D02*
X110041979Y-66896228D01*
X109803884Y-67372419D02*
X109803884Y-66372419D01*
X109803884Y-66372419D02*
X110184836Y-66372419D01*
X110184836Y-66372419D02*
X110280074Y-66420038D01*
X110280074Y-66420038D02*
X110327693Y-66467657D01*
X110327693Y-66467657D02*
X110375312Y-66562895D01*
X110375312Y-66562895D02*
X110375312Y-66705752D01*
X110375312Y-66705752D02*
X110327693Y-66800990D01*
X110327693Y-66800990D02*
X110280074Y-66848609D01*
X110280074Y-66848609D02*
X110184836Y-66896228D01*
X110184836Y-66896228D02*
X109803884Y-66896228D01*
X111137217Y-66848609D02*
X110803884Y-66848609D01*
X110803884Y-67372419D02*
X110803884Y-66372419D01*
X110803884Y-66372419D02*
X111280074Y-66372419D01*
X112422932Y-67372419D02*
X112422932Y-66372419D01*
X112899122Y-66705752D02*
X112899122Y-67372419D01*
X112899122Y-66800990D02*
X112946741Y-66753371D01*
X112946741Y-66753371D02*
X113041979Y-66705752D01*
X113041979Y-66705752D02*
X113184836Y-66705752D01*
X113184836Y-66705752D02*
X113280074Y-66753371D01*
X113280074Y-66753371D02*
X113327693Y-66848609D01*
X113327693Y-66848609D02*
X113327693Y-67372419D01*
D12*
X143738095Y-83954819D02*
X144309523Y-83954819D01*
X144023809Y-84954819D02*
X144023809Y-83954819D01*
X144642857Y-84954819D02*
X144642857Y-83954819D01*
X144642857Y-83954819D02*
X145023809Y-83954819D01*
X145023809Y-83954819D02*
X145119047Y-84002438D01*
X145119047Y-84002438D02*
X145166666Y-84050057D01*
X145166666Y-84050057D02*
X145214285Y-84145295D01*
X145214285Y-84145295D02*
X145214285Y-84288152D01*
X145214285Y-84288152D02*
X145166666Y-84383390D01*
X145166666Y-84383390D02*
X145119047Y-84431009D01*
X145119047Y-84431009D02*
X145023809Y-84478628D01*
X145023809Y-84478628D02*
X144642857Y-84478628D01*
X146166666Y-84954819D02*
X145595238Y-84954819D01*
X145880952Y-84954819D02*
X145880952Y-83954819D01*
X145880952Y-83954819D02*
X145785714Y-84097676D01*
X145785714Y-84097676D02*
X145690476Y-84192914D01*
X145690476Y-84192914D02*
X145595238Y-84240533D01*
X155166666Y-84454819D02*
X155166666Y-85169104D01*
X155166666Y-85169104D02*
X155119047Y-85311961D01*
X155119047Y-85311961D02*
X155023809Y-85407200D01*
X155023809Y-85407200D02*
X154880952Y-85454819D01*
X154880952Y-85454819D02*
X154785714Y-85454819D01*
X155595238Y-84550057D02*
X155642857Y-84502438D01*
X155642857Y-84502438D02*
X155738095Y-84454819D01*
X155738095Y-84454819D02*
X155976190Y-84454819D01*
X155976190Y-84454819D02*
X156071428Y-84502438D01*
X156071428Y-84502438D02*
X156119047Y-84550057D01*
X156119047Y-84550057D02*
X156166666Y-84645295D01*
X156166666Y-84645295D02*
X156166666Y-84740533D01*
X156166666Y-84740533D02*
X156119047Y-84883390D01*
X156119047Y-84883390D02*
X155547619Y-85454819D01*
X155547619Y-85454819D02*
X156166666Y-85454819D01*
X114954819Y-73166666D02*
X114478628Y-73499999D01*
X114954819Y-73738094D02*
X113954819Y-73738094D01*
X113954819Y-73738094D02*
X113954819Y-73357142D01*
X113954819Y-73357142D02*
X114002438Y-73261904D01*
X114002438Y-73261904D02*
X114050057Y-73214285D01*
X114050057Y-73214285D02*
X114145295Y-73166666D01*
X114145295Y-73166666D02*
X114288152Y-73166666D01*
X114288152Y-73166666D02*
X114383390Y-73214285D01*
X114383390Y-73214285D02*
X114431009Y-73261904D01*
X114431009Y-73261904D02*
X114478628Y-73357142D01*
X114478628Y-73357142D02*
X114478628Y-73738094D01*
X114954819Y-72214285D02*
X114954819Y-72785713D01*
X114954819Y-72499999D02*
X113954819Y-72499999D01*
X113954819Y-72499999D02*
X114097676Y-72595237D01*
X114097676Y-72595237D02*
X114192914Y-72690475D01*
X114192914Y-72690475D02*
X114240533Y-72785713D01*
X126954819Y-79216666D02*
X126478628Y-79549999D01*
X126954819Y-79788094D02*
X125954819Y-79788094D01*
X125954819Y-79788094D02*
X125954819Y-79407142D01*
X125954819Y-79407142D02*
X126002438Y-79311904D01*
X126002438Y-79311904D02*
X126050057Y-79264285D01*
X126050057Y-79264285D02*
X126145295Y-79216666D01*
X126145295Y-79216666D02*
X126288152Y-79216666D01*
X126288152Y-79216666D02*
X126383390Y-79264285D01*
X126383390Y-79264285D02*
X126431009Y-79311904D01*
X126431009Y-79311904D02*
X126478628Y-79407142D01*
X126478628Y-79407142D02*
X126478628Y-79788094D01*
X126954819Y-78740475D02*
X126954819Y-78549999D01*
X126954819Y-78549999D02*
X126907200Y-78454761D01*
X126907200Y-78454761D02*
X126859580Y-78407142D01*
X126859580Y-78407142D02*
X126716723Y-78311904D01*
X126716723Y-78311904D02*
X126526247Y-78264285D01*
X126526247Y-78264285D02*
X126145295Y-78264285D01*
X126145295Y-78264285D02*
X126050057Y-78311904D01*
X126050057Y-78311904D02*
X126002438Y-78359523D01*
X126002438Y-78359523D02*
X125954819Y-78454761D01*
X125954819Y-78454761D02*
X125954819Y-78645237D01*
X125954819Y-78645237D02*
X126002438Y-78740475D01*
X126002438Y-78740475D02*
X126050057Y-78788094D01*
X126050057Y-78788094D02*
X126145295Y-78835713D01*
X126145295Y-78835713D02*
X126383390Y-78835713D01*
X126383390Y-78835713D02*
X126478628Y-78788094D01*
X126478628Y-78788094D02*
X126526247Y-78740475D01*
X126526247Y-78740475D02*
X126573866Y-78645237D01*
X126573866Y-78645237D02*
X126573866Y-78454761D01*
X126573866Y-78454761D02*
X126526247Y-78359523D01*
X126526247Y-78359523D02*
X126478628Y-78311904D01*
X126478628Y-78311904D02*
X126383390Y-78264285D01*
X118954819Y-73166666D02*
X118478628Y-73499999D01*
X118954819Y-73738094D02*
X117954819Y-73738094D01*
X117954819Y-73738094D02*
X117954819Y-73357142D01*
X117954819Y-73357142D02*
X118002438Y-73261904D01*
X118002438Y-73261904D02*
X118050057Y-73214285D01*
X118050057Y-73214285D02*
X118145295Y-73166666D01*
X118145295Y-73166666D02*
X118288152Y-73166666D01*
X118288152Y-73166666D02*
X118383390Y-73214285D01*
X118383390Y-73214285D02*
X118431009Y-73261904D01*
X118431009Y-73261904D02*
X118478628Y-73357142D01*
X118478628Y-73357142D02*
X118478628Y-73738094D01*
X118050057Y-72785713D02*
X118002438Y-72738094D01*
X118002438Y-72738094D02*
X117954819Y-72642856D01*
X117954819Y-72642856D02*
X117954819Y-72404761D01*
X117954819Y-72404761D02*
X118002438Y-72309523D01*
X118002438Y-72309523D02*
X118050057Y-72261904D01*
X118050057Y-72261904D02*
X118145295Y-72214285D01*
X118145295Y-72214285D02*
X118240533Y-72214285D01*
X118240533Y-72214285D02*
X118383390Y-72261904D01*
X118383390Y-72261904D02*
X118954819Y-72833332D01*
X118954819Y-72833332D02*
X118954819Y-72214285D01*
X139238095Y-83954819D02*
X139809523Y-83954819D01*
X139523809Y-84954819D02*
X139523809Y-83954819D01*
X140142857Y-84954819D02*
X140142857Y-83954819D01*
X140142857Y-83954819D02*
X140523809Y-83954819D01*
X140523809Y-83954819D02*
X140619047Y-84002438D01*
X140619047Y-84002438D02*
X140666666Y-84050057D01*
X140666666Y-84050057D02*
X140714285Y-84145295D01*
X140714285Y-84145295D02*
X140714285Y-84288152D01*
X140714285Y-84288152D02*
X140666666Y-84383390D01*
X140666666Y-84383390D02*
X140619047Y-84431009D01*
X140619047Y-84431009D02*
X140523809Y-84478628D01*
X140523809Y-84478628D02*
X140142857Y-84478628D01*
X141095238Y-84050057D02*
X141142857Y-84002438D01*
X141142857Y-84002438D02*
X141238095Y-83954819D01*
X141238095Y-83954819D02*
X141476190Y-83954819D01*
X141476190Y-83954819D02*
X141571428Y-84002438D01*
X141571428Y-84002438D02*
X141619047Y-84050057D01*
X141619047Y-84050057D02*
X141666666Y-84145295D01*
X141666666Y-84145295D02*
X141666666Y-84240533D01*
X141666666Y-84240533D02*
X141619047Y-84383390D01*
X141619047Y-84383390D02*
X141047619Y-84954819D01*
X141047619Y-84954819D02*
X141666666Y-84954819D01*
X141857142Y-78284819D02*
X141523809Y-77808628D01*
X141285714Y-78284819D02*
X141285714Y-77284819D01*
X141285714Y-77284819D02*
X141666666Y-77284819D01*
X141666666Y-77284819D02*
X141761904Y-77332438D01*
X141761904Y-77332438D02*
X141809523Y-77380057D01*
X141809523Y-77380057D02*
X141857142Y-77475295D01*
X141857142Y-77475295D02*
X141857142Y-77618152D01*
X141857142Y-77618152D02*
X141809523Y-77713390D01*
X141809523Y-77713390D02*
X141761904Y-77761009D01*
X141761904Y-77761009D02*
X141666666Y-77808628D01*
X141666666Y-77808628D02*
X141285714Y-77808628D01*
X142238095Y-77380057D02*
X142285714Y-77332438D01*
X142285714Y-77332438D02*
X142380952Y-77284819D01*
X142380952Y-77284819D02*
X142619047Y-77284819D01*
X142619047Y-77284819D02*
X142714285Y-77332438D01*
X142714285Y-77332438D02*
X142761904Y-77380057D01*
X142761904Y-77380057D02*
X142809523Y-77475295D01*
X142809523Y-77475295D02*
X142809523Y-77570533D01*
X142809523Y-77570533D02*
X142761904Y-77713390D01*
X142761904Y-77713390D02*
X142190476Y-78284819D01*
X142190476Y-78284819D02*
X142809523Y-78284819D01*
X143190476Y-77380057D02*
X143238095Y-77332438D01*
X143238095Y-77332438D02*
X143333333Y-77284819D01*
X143333333Y-77284819D02*
X143571428Y-77284819D01*
X143571428Y-77284819D02*
X143666666Y-77332438D01*
X143666666Y-77332438D02*
X143714285Y-77380057D01*
X143714285Y-77380057D02*
X143761904Y-77475295D01*
X143761904Y-77475295D02*
X143761904Y-77570533D01*
X143761904Y-77570533D02*
X143714285Y-77713390D01*
X143714285Y-77713390D02*
X143142857Y-78284819D01*
X143142857Y-78284819D02*
X143761904Y-78284819D01*
X122954819Y-73166666D02*
X122478628Y-73499999D01*
X122954819Y-73738094D02*
X121954819Y-73738094D01*
X121954819Y-73738094D02*
X121954819Y-73357142D01*
X121954819Y-73357142D02*
X122002438Y-73261904D01*
X122002438Y-73261904D02*
X122050057Y-73214285D01*
X122050057Y-73214285D02*
X122145295Y-73166666D01*
X122145295Y-73166666D02*
X122288152Y-73166666D01*
X122288152Y-73166666D02*
X122383390Y-73214285D01*
X122383390Y-73214285D02*
X122431009Y-73261904D01*
X122431009Y-73261904D02*
X122478628Y-73357142D01*
X122478628Y-73357142D02*
X122478628Y-73738094D01*
X121954819Y-72833332D02*
X121954819Y-72214285D01*
X121954819Y-72214285D02*
X122335771Y-72547618D01*
X122335771Y-72547618D02*
X122335771Y-72404761D01*
X122335771Y-72404761D02*
X122383390Y-72309523D01*
X122383390Y-72309523D02*
X122431009Y-72261904D01*
X122431009Y-72261904D02*
X122526247Y-72214285D01*
X122526247Y-72214285D02*
X122764342Y-72214285D01*
X122764342Y-72214285D02*
X122859580Y-72261904D01*
X122859580Y-72261904D02*
X122907200Y-72309523D01*
X122907200Y-72309523D02*
X122954819Y-72404761D01*
X122954819Y-72404761D02*
X122954819Y-72690475D01*
X122954819Y-72690475D02*
X122907200Y-72785713D01*
X122907200Y-72785713D02*
X122859580Y-72833332D01*
X118954819Y-79216666D02*
X118478628Y-79549999D01*
X118954819Y-79788094D02*
X117954819Y-79788094D01*
X117954819Y-79788094D02*
X117954819Y-79407142D01*
X117954819Y-79407142D02*
X118002438Y-79311904D01*
X118002438Y-79311904D02*
X118050057Y-79264285D01*
X118050057Y-79264285D02*
X118145295Y-79216666D01*
X118145295Y-79216666D02*
X118288152Y-79216666D01*
X118288152Y-79216666D02*
X118383390Y-79264285D01*
X118383390Y-79264285D02*
X118431009Y-79311904D01*
X118431009Y-79311904D02*
X118478628Y-79407142D01*
X118478628Y-79407142D02*
X118478628Y-79788094D01*
X117954819Y-78883332D02*
X117954819Y-78216666D01*
X117954819Y-78216666D02*
X118954819Y-78645237D01*
X150454819Y-71642857D02*
X149978628Y-71976190D01*
X150454819Y-72214285D02*
X149454819Y-72214285D01*
X149454819Y-72214285D02*
X149454819Y-71833333D01*
X149454819Y-71833333D02*
X149502438Y-71738095D01*
X149502438Y-71738095D02*
X149550057Y-71690476D01*
X149550057Y-71690476D02*
X149645295Y-71642857D01*
X149645295Y-71642857D02*
X149788152Y-71642857D01*
X149788152Y-71642857D02*
X149883390Y-71690476D01*
X149883390Y-71690476D02*
X149931009Y-71738095D01*
X149931009Y-71738095D02*
X149978628Y-71833333D01*
X149978628Y-71833333D02*
X149978628Y-72214285D01*
X149550057Y-71261904D02*
X149502438Y-71214285D01*
X149502438Y-71214285D02*
X149454819Y-71119047D01*
X149454819Y-71119047D02*
X149454819Y-70880952D01*
X149454819Y-70880952D02*
X149502438Y-70785714D01*
X149502438Y-70785714D02*
X149550057Y-70738095D01*
X149550057Y-70738095D02*
X149645295Y-70690476D01*
X149645295Y-70690476D02*
X149740533Y-70690476D01*
X149740533Y-70690476D02*
X149883390Y-70738095D01*
X149883390Y-70738095D02*
X150454819Y-71309523D01*
X150454819Y-71309523D02*
X150454819Y-70690476D01*
X149788152Y-69833333D02*
X150454819Y-69833333D01*
X149407200Y-70071428D02*
X150121485Y-70309523D01*
X150121485Y-70309523D02*
X150121485Y-69690476D01*
X136833333Y-74209580D02*
X136785714Y-74257200D01*
X136785714Y-74257200D02*
X136642857Y-74304819D01*
X136642857Y-74304819D02*
X136547619Y-74304819D01*
X136547619Y-74304819D02*
X136404762Y-74257200D01*
X136404762Y-74257200D02*
X136309524Y-74161961D01*
X136309524Y-74161961D02*
X136261905Y-74066723D01*
X136261905Y-74066723D02*
X136214286Y-73876247D01*
X136214286Y-73876247D02*
X136214286Y-73733390D01*
X136214286Y-73733390D02*
X136261905Y-73542914D01*
X136261905Y-73542914D02*
X136309524Y-73447676D01*
X136309524Y-73447676D02*
X136404762Y-73352438D01*
X136404762Y-73352438D02*
X136547619Y-73304819D01*
X136547619Y-73304819D02*
X136642857Y-73304819D01*
X136642857Y-73304819D02*
X136785714Y-73352438D01*
X136785714Y-73352438D02*
X136833333Y-73400057D01*
X137214286Y-73400057D02*
X137261905Y-73352438D01*
X137261905Y-73352438D02*
X137357143Y-73304819D01*
X137357143Y-73304819D02*
X137595238Y-73304819D01*
X137595238Y-73304819D02*
X137690476Y-73352438D01*
X137690476Y-73352438D02*
X137738095Y-73400057D01*
X137738095Y-73400057D02*
X137785714Y-73495295D01*
X137785714Y-73495295D02*
X137785714Y-73590533D01*
X137785714Y-73590533D02*
X137738095Y-73733390D01*
X137738095Y-73733390D02*
X137166667Y-74304819D01*
X137166667Y-74304819D02*
X137785714Y-74304819D01*
X130954819Y-73166666D02*
X130478628Y-73499999D01*
X130954819Y-73738094D02*
X129954819Y-73738094D01*
X129954819Y-73738094D02*
X129954819Y-73357142D01*
X129954819Y-73357142D02*
X130002438Y-73261904D01*
X130002438Y-73261904D02*
X130050057Y-73214285D01*
X130050057Y-73214285D02*
X130145295Y-73166666D01*
X130145295Y-73166666D02*
X130288152Y-73166666D01*
X130288152Y-73166666D02*
X130383390Y-73214285D01*
X130383390Y-73214285D02*
X130431009Y-73261904D01*
X130431009Y-73261904D02*
X130478628Y-73357142D01*
X130478628Y-73357142D02*
X130478628Y-73738094D01*
X129954819Y-72261904D02*
X129954819Y-72738094D01*
X129954819Y-72738094D02*
X130431009Y-72785713D01*
X130431009Y-72785713D02*
X130383390Y-72738094D01*
X130383390Y-72738094D02*
X130335771Y-72642856D01*
X130335771Y-72642856D02*
X130335771Y-72404761D01*
X130335771Y-72404761D02*
X130383390Y-72309523D01*
X130383390Y-72309523D02*
X130431009Y-72261904D01*
X130431009Y-72261904D02*
X130526247Y-72214285D01*
X130526247Y-72214285D02*
X130764342Y-72214285D01*
X130764342Y-72214285D02*
X130859580Y-72261904D01*
X130859580Y-72261904D02*
X130907200Y-72309523D01*
X130907200Y-72309523D02*
X130954819Y-72404761D01*
X130954819Y-72404761D02*
X130954819Y-72642856D01*
X130954819Y-72642856D02*
X130907200Y-72738094D01*
X130907200Y-72738094D02*
X130859580Y-72785713D01*
X122954819Y-79216666D02*
X122478628Y-79549999D01*
X122954819Y-79788094D02*
X121954819Y-79788094D01*
X121954819Y-79788094D02*
X121954819Y-79407142D01*
X121954819Y-79407142D02*
X122002438Y-79311904D01*
X122002438Y-79311904D02*
X122050057Y-79264285D01*
X122050057Y-79264285D02*
X122145295Y-79216666D01*
X122145295Y-79216666D02*
X122288152Y-79216666D01*
X122288152Y-79216666D02*
X122383390Y-79264285D01*
X122383390Y-79264285D02*
X122431009Y-79311904D01*
X122431009Y-79311904D02*
X122478628Y-79407142D01*
X122478628Y-79407142D02*
X122478628Y-79788094D01*
X122383390Y-78645237D02*
X122335771Y-78740475D01*
X122335771Y-78740475D02*
X122288152Y-78788094D01*
X122288152Y-78788094D02*
X122192914Y-78835713D01*
X122192914Y-78835713D02*
X122145295Y-78835713D01*
X122145295Y-78835713D02*
X122050057Y-78788094D01*
X122050057Y-78788094D02*
X122002438Y-78740475D01*
X122002438Y-78740475D02*
X121954819Y-78645237D01*
X121954819Y-78645237D02*
X121954819Y-78454761D01*
X121954819Y-78454761D02*
X122002438Y-78359523D01*
X122002438Y-78359523D02*
X122050057Y-78311904D01*
X122050057Y-78311904D02*
X122145295Y-78264285D01*
X122145295Y-78264285D02*
X122192914Y-78264285D01*
X122192914Y-78264285D02*
X122288152Y-78311904D01*
X122288152Y-78311904D02*
X122335771Y-78359523D01*
X122335771Y-78359523D02*
X122383390Y-78454761D01*
X122383390Y-78454761D02*
X122383390Y-78645237D01*
X122383390Y-78645237D02*
X122431009Y-78740475D01*
X122431009Y-78740475D02*
X122478628Y-78788094D01*
X122478628Y-78788094D02*
X122573866Y-78835713D01*
X122573866Y-78835713D02*
X122764342Y-78835713D01*
X122764342Y-78835713D02*
X122859580Y-78788094D01*
X122859580Y-78788094D02*
X122907200Y-78740475D01*
X122907200Y-78740475D02*
X122954819Y-78645237D01*
X122954819Y-78645237D02*
X122954819Y-78454761D01*
X122954819Y-78454761D02*
X122907200Y-78359523D01*
X122907200Y-78359523D02*
X122859580Y-78311904D01*
X122859580Y-78311904D02*
X122764342Y-78264285D01*
X122764342Y-78264285D02*
X122573866Y-78264285D01*
X122573866Y-78264285D02*
X122478628Y-78311904D01*
X122478628Y-78311904D02*
X122431009Y-78359523D01*
X122431009Y-78359523D02*
X122383390Y-78454761D01*
X136357142Y-78284819D02*
X136023809Y-77808628D01*
X135785714Y-78284819D02*
X135785714Y-77284819D01*
X135785714Y-77284819D02*
X136166666Y-77284819D01*
X136166666Y-77284819D02*
X136261904Y-77332438D01*
X136261904Y-77332438D02*
X136309523Y-77380057D01*
X136309523Y-77380057D02*
X136357142Y-77475295D01*
X136357142Y-77475295D02*
X136357142Y-77618152D01*
X136357142Y-77618152D02*
X136309523Y-77713390D01*
X136309523Y-77713390D02*
X136261904Y-77761009D01*
X136261904Y-77761009D02*
X136166666Y-77808628D01*
X136166666Y-77808628D02*
X135785714Y-77808628D01*
X136738095Y-77380057D02*
X136785714Y-77332438D01*
X136785714Y-77332438D02*
X136880952Y-77284819D01*
X136880952Y-77284819D02*
X137119047Y-77284819D01*
X137119047Y-77284819D02*
X137214285Y-77332438D01*
X137214285Y-77332438D02*
X137261904Y-77380057D01*
X137261904Y-77380057D02*
X137309523Y-77475295D01*
X137309523Y-77475295D02*
X137309523Y-77570533D01*
X137309523Y-77570533D02*
X137261904Y-77713390D01*
X137261904Y-77713390D02*
X136690476Y-78284819D01*
X136690476Y-78284819D02*
X137309523Y-78284819D01*
X138261904Y-78284819D02*
X137690476Y-78284819D01*
X137976190Y-78284819D02*
X137976190Y-77284819D01*
X137976190Y-77284819D02*
X137880952Y-77427676D01*
X137880952Y-77427676D02*
X137785714Y-77522914D01*
X137785714Y-77522914D02*
X137690476Y-77570533D01*
X112166666Y-84454819D02*
X112166666Y-85169104D01*
X112166666Y-85169104D02*
X112119047Y-85311961D01*
X112119047Y-85311961D02*
X112023809Y-85407200D01*
X112023809Y-85407200D02*
X111880952Y-85454819D01*
X111880952Y-85454819D02*
X111785714Y-85454819D01*
X113166666Y-85454819D02*
X112595238Y-85454819D01*
X112880952Y-85454819D02*
X112880952Y-84454819D01*
X112880952Y-84454819D02*
X112785714Y-84597676D01*
X112785714Y-84597676D02*
X112690476Y-84692914D01*
X112690476Y-84692914D02*
X112595238Y-84740533D01*
X126954819Y-73166666D02*
X126478628Y-73499999D01*
X126954819Y-73738094D02*
X125954819Y-73738094D01*
X125954819Y-73738094D02*
X125954819Y-73357142D01*
X125954819Y-73357142D02*
X126002438Y-73261904D01*
X126002438Y-73261904D02*
X126050057Y-73214285D01*
X126050057Y-73214285D02*
X126145295Y-73166666D01*
X126145295Y-73166666D02*
X126288152Y-73166666D01*
X126288152Y-73166666D02*
X126383390Y-73214285D01*
X126383390Y-73214285D02*
X126431009Y-73261904D01*
X126431009Y-73261904D02*
X126478628Y-73357142D01*
X126478628Y-73357142D02*
X126478628Y-73738094D01*
X126288152Y-72309523D02*
X126954819Y-72309523D01*
X125907200Y-72547618D02*
X126621485Y-72785713D01*
X126621485Y-72785713D02*
X126621485Y-72166666D01*
X114954819Y-79166666D02*
X114478628Y-79499999D01*
X114954819Y-79738094D02*
X113954819Y-79738094D01*
X113954819Y-79738094D02*
X113954819Y-79357142D01*
X113954819Y-79357142D02*
X114002438Y-79261904D01*
X114002438Y-79261904D02*
X114050057Y-79214285D01*
X114050057Y-79214285D02*
X114145295Y-79166666D01*
X114145295Y-79166666D02*
X114288152Y-79166666D01*
X114288152Y-79166666D02*
X114383390Y-79214285D01*
X114383390Y-79214285D02*
X114431009Y-79261904D01*
X114431009Y-79261904D02*
X114478628Y-79357142D01*
X114478628Y-79357142D02*
X114478628Y-79738094D01*
X113954819Y-78309523D02*
X113954819Y-78499999D01*
X113954819Y-78499999D02*
X114002438Y-78595237D01*
X114002438Y-78595237D02*
X114050057Y-78642856D01*
X114050057Y-78642856D02*
X114192914Y-78738094D01*
X114192914Y-78738094D02*
X114383390Y-78785713D01*
X114383390Y-78785713D02*
X114764342Y-78785713D01*
X114764342Y-78785713D02*
X114859580Y-78738094D01*
X114859580Y-78738094D02*
X114907200Y-78690475D01*
X114907200Y-78690475D02*
X114954819Y-78595237D01*
X114954819Y-78595237D02*
X114954819Y-78404761D01*
X114954819Y-78404761D02*
X114907200Y-78309523D01*
X114907200Y-78309523D02*
X114859580Y-78261904D01*
X114859580Y-78261904D02*
X114764342Y-78214285D01*
X114764342Y-78214285D02*
X114526247Y-78214285D01*
X114526247Y-78214285D02*
X114431009Y-78261904D01*
X114431009Y-78261904D02*
X114383390Y-78309523D01*
X114383390Y-78309523D02*
X114335771Y-78404761D01*
X114335771Y-78404761D02*
X114335771Y-78595237D01*
X114335771Y-78595237D02*
X114383390Y-78690475D01*
X114383390Y-78690475D02*
X114431009Y-78738094D01*
X114431009Y-78738094D02*
X114526247Y-78785713D01*
X130954819Y-79692857D02*
X130478628Y-80026190D01*
X130954819Y-80264285D02*
X129954819Y-80264285D01*
X129954819Y-80264285D02*
X129954819Y-79883333D01*
X129954819Y-79883333D02*
X130002438Y-79788095D01*
X130002438Y-79788095D02*
X130050057Y-79740476D01*
X130050057Y-79740476D02*
X130145295Y-79692857D01*
X130145295Y-79692857D02*
X130288152Y-79692857D01*
X130288152Y-79692857D02*
X130383390Y-79740476D01*
X130383390Y-79740476D02*
X130431009Y-79788095D01*
X130431009Y-79788095D02*
X130478628Y-79883333D01*
X130478628Y-79883333D02*
X130478628Y-80264285D01*
X130954819Y-78740476D02*
X130954819Y-79311904D01*
X130954819Y-79026190D02*
X129954819Y-79026190D01*
X129954819Y-79026190D02*
X130097676Y-79121428D01*
X130097676Y-79121428D02*
X130192914Y-79216666D01*
X130192914Y-79216666D02*
X130240533Y-79311904D01*
X129954819Y-78121428D02*
X129954819Y-78026190D01*
X129954819Y-78026190D02*
X130002438Y-77930952D01*
X130002438Y-77930952D02*
X130050057Y-77883333D01*
X130050057Y-77883333D02*
X130145295Y-77835714D01*
X130145295Y-77835714D02*
X130335771Y-77788095D01*
X130335771Y-77788095D02*
X130573866Y-77788095D01*
X130573866Y-77788095D02*
X130764342Y-77835714D01*
X130764342Y-77835714D02*
X130859580Y-77883333D01*
X130859580Y-77883333D02*
X130907200Y-77930952D01*
X130907200Y-77930952D02*
X130954819Y-78026190D01*
X130954819Y-78026190D02*
X130954819Y-78121428D01*
X130954819Y-78121428D02*
X130907200Y-78216666D01*
X130907200Y-78216666D02*
X130859580Y-78264285D01*
X130859580Y-78264285D02*
X130764342Y-78311904D01*
X130764342Y-78311904D02*
X130573866Y-78359523D01*
X130573866Y-78359523D02*
X130335771Y-78359523D01*
X130335771Y-78359523D02*
X130145295Y-78311904D01*
X130145295Y-78311904D02*
X130050057Y-78264285D01*
X130050057Y-78264285D02*
X130002438Y-78216666D01*
X130002438Y-78216666D02*
X129954819Y-78121428D01*
X147394642Y-78284819D02*
X147061309Y-77808628D01*
X146823214Y-78284819D02*
X146823214Y-77284819D01*
X146823214Y-77284819D02*
X147204166Y-77284819D01*
X147204166Y-77284819D02*
X147299404Y-77332438D01*
X147299404Y-77332438D02*
X147347023Y-77380057D01*
X147347023Y-77380057D02*
X147394642Y-77475295D01*
X147394642Y-77475295D02*
X147394642Y-77618152D01*
X147394642Y-77618152D02*
X147347023Y-77713390D01*
X147347023Y-77713390D02*
X147299404Y-77761009D01*
X147299404Y-77761009D02*
X147204166Y-77808628D01*
X147204166Y-77808628D02*
X146823214Y-77808628D01*
X147775595Y-77380057D02*
X147823214Y-77332438D01*
X147823214Y-77332438D02*
X147918452Y-77284819D01*
X147918452Y-77284819D02*
X148156547Y-77284819D01*
X148156547Y-77284819D02*
X148251785Y-77332438D01*
X148251785Y-77332438D02*
X148299404Y-77380057D01*
X148299404Y-77380057D02*
X148347023Y-77475295D01*
X148347023Y-77475295D02*
X148347023Y-77570533D01*
X148347023Y-77570533D02*
X148299404Y-77713390D01*
X148299404Y-77713390D02*
X147727976Y-78284819D01*
X147727976Y-78284819D02*
X148347023Y-78284819D01*
X148680357Y-77284819D02*
X149299404Y-77284819D01*
X149299404Y-77284819D02*
X148966071Y-77665771D01*
X148966071Y-77665771D02*
X149108928Y-77665771D01*
X149108928Y-77665771D02*
X149204166Y-77713390D01*
X149204166Y-77713390D02*
X149251785Y-77761009D01*
X149251785Y-77761009D02*
X149299404Y-77856247D01*
X149299404Y-77856247D02*
X149299404Y-78094342D01*
X149299404Y-78094342D02*
X149251785Y-78189580D01*
X149251785Y-78189580D02*
X149204166Y-78237200D01*
X149204166Y-78237200D02*
X149108928Y-78284819D01*
X149108928Y-78284819D02*
X148823214Y-78284819D01*
X148823214Y-78284819D02*
X148727976Y-78237200D01*
X148727976Y-78237200D02*
X148680357Y-78189580D01*
X150454819Y-81642857D02*
X149978628Y-81976190D01*
X150454819Y-82214285D02*
X149454819Y-82214285D01*
X149454819Y-82214285D02*
X149454819Y-81833333D01*
X149454819Y-81833333D02*
X149502438Y-81738095D01*
X149502438Y-81738095D02*
X149550057Y-81690476D01*
X149550057Y-81690476D02*
X149645295Y-81642857D01*
X149645295Y-81642857D02*
X149788152Y-81642857D01*
X149788152Y-81642857D02*
X149883390Y-81690476D01*
X149883390Y-81690476D02*
X149931009Y-81738095D01*
X149931009Y-81738095D02*
X149978628Y-81833333D01*
X149978628Y-81833333D02*
X149978628Y-82214285D01*
X149550057Y-81261904D02*
X149502438Y-81214285D01*
X149502438Y-81214285D02*
X149454819Y-81119047D01*
X149454819Y-81119047D02*
X149454819Y-80880952D01*
X149454819Y-80880952D02*
X149502438Y-80785714D01*
X149502438Y-80785714D02*
X149550057Y-80738095D01*
X149550057Y-80738095D02*
X149645295Y-80690476D01*
X149645295Y-80690476D02*
X149740533Y-80690476D01*
X149740533Y-80690476D02*
X149883390Y-80738095D01*
X149883390Y-80738095D02*
X150454819Y-81309523D01*
X150454819Y-81309523D02*
X150454819Y-80690476D01*
X149454819Y-79785714D02*
X149454819Y-80261904D01*
X149454819Y-80261904D02*
X149931009Y-80309523D01*
X149931009Y-80309523D02*
X149883390Y-80261904D01*
X149883390Y-80261904D02*
X149835771Y-80166666D01*
X149835771Y-80166666D02*
X149835771Y-79928571D01*
X149835771Y-79928571D02*
X149883390Y-79833333D01*
X149883390Y-79833333D02*
X149931009Y-79785714D01*
X149931009Y-79785714D02*
X150026247Y-79738095D01*
X150026247Y-79738095D02*
X150264342Y-79738095D01*
X150264342Y-79738095D02*
X150359580Y-79785714D01*
X150359580Y-79785714D02*
X150407200Y-79833333D01*
X150407200Y-79833333D02*
X150454819Y-79928571D01*
X150454819Y-79928571D02*
X150454819Y-80166666D01*
X150454819Y-80166666D02*
X150407200Y-80261904D01*
X150407200Y-80261904D02*
X150359580Y-80309523D01*
D13*
%TO.C,TP1*%
X146750000Y-87000000D02*
G75*
G02*
X143250000Y-87000000I-1750000J0D01*
G01*
X143250000Y-87000000D02*
G75*
G02*
X146750000Y-87000000I1750000J0D01*
G01*
%TO.C,J2*%
X154700000Y-68580000D02*
X169700000Y-68580000D01*
X154700000Y-83580000D02*
X154700000Y-68580000D01*
X169500000Y-76080000D02*
X168500000Y-75080000D01*
X169500000Y-76080000D02*
X168500000Y-77080000D01*
X169700000Y-68580000D02*
X169700000Y-83580000D01*
X169700000Y-83580000D02*
X154700000Y-83580000D01*
%TO.C,R1*%
X115590000Y-73727064D02*
X115590000Y-72272936D01*
X117410000Y-73727064D02*
X117410000Y-72272936D01*
%TO.C,R9*%
X127590000Y-78322936D02*
X127590000Y-79777064D01*
X129410000Y-78322936D02*
X129410000Y-79777064D01*
%TO.C,R2*%
X119590000Y-73777064D02*
X119590000Y-72322936D01*
X121410000Y-73777064D02*
X121410000Y-72322936D01*
%TO.C,TP2*%
X142250000Y-87000000D02*
G75*
G02*
X138750000Y-87000000I-1750000J0D01*
G01*
X138750000Y-87000000D02*
G75*
G02*
X142250000Y-87000000I1750000J0D01*
G01*
%TO.C,R22*%
X143227064Y-75090000D02*
X141772936Y-75090000D01*
X143227064Y-76910000D02*
X141772936Y-76910000D01*
%TO.C,R3*%
X123590000Y-73777064D02*
X123590000Y-72322936D01*
X125410000Y-73777064D02*
X125410000Y-72322936D01*
%TO.C,R7*%
X119590000Y-78322936D02*
X119590000Y-79777064D01*
X121410000Y-78322936D02*
X121410000Y-79777064D01*
%TO.C,R24*%
X151090000Y-73727064D02*
X151090000Y-72272936D01*
X152910000Y-73727064D02*
X152910000Y-72272936D01*
%TO.C,C2*%
X137711252Y-71090000D02*
X136288748Y-71090000D01*
X137711252Y-72910000D02*
X136288748Y-72910000D01*
%TO.C,R5*%
X131590000Y-73777064D02*
X131590000Y-72322936D01*
X133410000Y-73777064D02*
X133410000Y-72322936D01*
%TO.C,R8*%
X123590000Y-78322936D02*
X123590000Y-79777064D01*
X125410000Y-78322936D02*
X125410000Y-79777064D01*
%TO.C,R21*%
X137727064Y-75090000D02*
X136272936Y-75090000D01*
X137727064Y-76910000D02*
X136272936Y-76910000D01*
%TO.C,J1*%
X98350000Y-68580000D02*
X113350000Y-68580000D01*
X98350000Y-83580000D02*
X98350000Y-68580000D01*
X98550000Y-76080000D02*
X99550000Y-75080000D01*
X98550000Y-76080000D02*
X99550000Y-77080000D01*
X113350000Y-68580000D02*
X113350000Y-83580000D01*
X113350000Y-83580000D02*
X98350000Y-83580000D01*
%TO.C,R4*%
X127590000Y-73777064D02*
X127590000Y-72322936D01*
X129410000Y-73777064D02*
X129410000Y-72322936D01*
%TO.C,R6*%
X115590000Y-78272936D02*
X115590000Y-79727064D01*
X117410000Y-78272936D02*
X117410000Y-79727064D01*
%TO.C,R10*%
X131590000Y-78322936D02*
X131590000Y-79777064D01*
X133410000Y-78322936D02*
X133410000Y-79777064D01*
%TO.C,R23*%
X148764564Y-75090000D02*
X147310436Y-75090000D01*
X148764564Y-76910000D02*
X147310436Y-76910000D01*
%TO.C,R25*%
X151090000Y-78272936D02*
X151090000Y-79727064D01*
X152910000Y-78272936D02*
X152910000Y-79727064D01*
%TD*%
M02*
