%TF.GenerationSoftware,KiCad,Pcbnew,9.0.8*%
%TF.CreationDate,2026-03-29T00:31:11+00:00*%
%TF.ProjectId,DummyLoad,44756d6d-794c-46f6-9164-2e6b69636164,rev?*%
%TF.SameCoordinates,Original*%
%TF.FileFunction,Other,User*%
%FSLAX46Y46*%
G04 Gerber Fmt 4.6, Leading zero omitted, Abs format (unit mm)*
G04 Created by KiCad (PCBNEW 9.0.8) date 2026-03-29 00:31:11*
%MOMM*%
%LPD*%
G01*
G04 APERTURE LIST*
%ADD10C,0.050000*%
G04 APERTURE END LIST*
D10*
%TO.C,R13*%
X123370000Y-71220000D02*
X123370000Y-75780000D01*
X123370000Y-75780000D02*
X125630000Y-75780000D01*
X125630000Y-71220000D02*
X123370000Y-71220000D01*
X125630000Y-75780000D02*
X125630000Y-71220000D01*
%TO.C,R19*%
X119370000Y-76220000D02*
X119370000Y-80780000D01*
X119370000Y-80780000D02*
X121630000Y-80780000D01*
X121630000Y-76220000D02*
X119370000Y-76220000D01*
X121630000Y-80780000D02*
X121630000Y-76220000D01*
%TO.C,R14*%
X119370000Y-71220000D02*
X119370000Y-75780000D01*
X119370000Y-75780000D02*
X121630000Y-75780000D01*
X121630000Y-71220000D02*
X119370000Y-71220000D01*
X121630000Y-75780000D02*
X121630000Y-71220000D01*
%TO.C,R11*%
X131370000Y-71220000D02*
X131370000Y-75780000D01*
X131370000Y-75780000D02*
X133630000Y-75780000D01*
X133630000Y-71220000D02*
X131370000Y-71220000D01*
X133630000Y-75780000D02*
X133630000Y-71220000D01*
%TO.C,R26*%
X136370000Y-79220000D02*
X136370000Y-83780000D01*
X136370000Y-83780000D02*
X138630000Y-83780000D01*
X138630000Y-79220000D02*
X136370000Y-79220000D01*
X138630000Y-83780000D02*
X138630000Y-79220000D01*
%TO.C,R12*%
X127370000Y-71220000D02*
X127370000Y-75780000D01*
X127370000Y-75780000D02*
X129630000Y-75780000D01*
X129630000Y-71220000D02*
X127370000Y-71220000D01*
X129630000Y-75780000D02*
X129630000Y-71220000D01*
%TO.C,R20*%
X115370000Y-76220000D02*
X115370000Y-80780000D01*
X115370000Y-80780000D02*
X117630000Y-80780000D01*
X117630000Y-76220000D02*
X115370000Y-76220000D01*
X117630000Y-80780000D02*
X117630000Y-76220000D01*
%TO.C,D1*%
X136750000Y-74900000D02*
X136750000Y-77100000D01*
X136750000Y-77100000D02*
X141250000Y-77100000D01*
X141250000Y-74900000D02*
X136750000Y-74900000D01*
X141250000Y-74900000D02*
X141250000Y-77100000D01*
%TO.C,R17*%
X127370000Y-76220000D02*
X127370000Y-80780000D01*
X127370000Y-80780000D02*
X129630000Y-80780000D01*
X129630000Y-76220000D02*
X127370000Y-76220000D01*
X129630000Y-80780000D02*
X129630000Y-76220000D01*
%TO.C,C1*%
X139850000Y-79200000D02*
X139850000Y-83800000D01*
X139850000Y-83800000D02*
X142150000Y-83800000D01*
X142150000Y-79200000D02*
X139850000Y-79200000D01*
X142150000Y-83800000D02*
X142150000Y-79200000D01*
%TO.C,R18*%
X123370000Y-76220000D02*
X123370000Y-80780000D01*
X123370000Y-80780000D02*
X125630000Y-80780000D01*
X125630000Y-76220000D02*
X123370000Y-76220000D01*
X125630000Y-80780000D02*
X125630000Y-76220000D01*
%TO.C,R16*%
X131370000Y-76220000D02*
X131370000Y-80780000D01*
X131370000Y-80780000D02*
X133630000Y-80780000D01*
X133630000Y-76220000D02*
X131370000Y-76220000D01*
X133630000Y-80780000D02*
X133630000Y-76220000D01*
%TO.C,R15*%
X115370000Y-71220000D02*
X115370000Y-75780000D01*
X115370000Y-75780000D02*
X117630000Y-75780000D01*
X117630000Y-71220000D02*
X115370000Y-71220000D01*
X117630000Y-75780000D02*
X117630000Y-71220000D01*
%TD*%
M02*
