%TF.GenerationSoftware,KiCad,Pcbnew,9.0.8*%
%TF.CreationDate,2026-03-26T20:49:17+00:00*%
%TF.ProjectId,DummyLoad,44756d6d-794c-46f6-9164-2e6b69636164,rev?*%
%TF.SameCoordinates,Original*%
%TF.FileFunction,AssemblyDrawing,Bot*%
%FSLAX46Y46*%
G04 Gerber Fmt 4.6, Leading zero omitted, Abs format (unit mm)*
G04 Created by KiCad (PCBNEW 9.0.8) date 2026-03-26 20:49:17*
%MOMM*%
%LPD*%
G01*
G04 APERTURE LIST*
%ADD10C,0.150000*%
%ADD11C,0.120000*%
%ADD12C,0.100000*%
G04 APERTURE END LIST*
D10*
X123124819Y-73285714D02*
X123124819Y-72714286D01*
X123124819Y-73000000D02*
X122124819Y-73000000D01*
X122124819Y-73000000D02*
X122267676Y-72904762D01*
X122267676Y-72904762D02*
X122362914Y-72809524D01*
X122362914Y-72809524D02*
X122410533Y-72714286D01*
X123124819Y-73714286D02*
X122124819Y-73714286D01*
X123124819Y-74285714D02*
X122553390Y-73857143D01*
X122124819Y-74285714D02*
X122696247Y-73714286D01*
D11*
X124863855Y-72985714D02*
X124482902Y-72719047D01*
X124863855Y-72528571D02*
X124063855Y-72528571D01*
X124063855Y-72528571D02*
X124063855Y-72833333D01*
X124063855Y-72833333D02*
X124101950Y-72909523D01*
X124101950Y-72909523D02*
X124140045Y-72947618D01*
X124140045Y-72947618D02*
X124216236Y-72985714D01*
X124216236Y-72985714D02*
X124330521Y-72985714D01*
X124330521Y-72985714D02*
X124406712Y-72947618D01*
X124406712Y-72947618D02*
X124444807Y-72909523D01*
X124444807Y-72909523D02*
X124482902Y-72833333D01*
X124482902Y-72833333D02*
X124482902Y-72528571D01*
X124863855Y-73747618D02*
X124863855Y-73290475D01*
X124863855Y-73519047D02*
X124063855Y-73519047D01*
X124063855Y-73519047D02*
X124178140Y-73442856D01*
X124178140Y-73442856D02*
X124254331Y-73366666D01*
X124254331Y-73366666D02*
X124292426Y-73290475D01*
X124063855Y-74014285D02*
X124063855Y-74509523D01*
X124063855Y-74509523D02*
X124368617Y-74242857D01*
X124368617Y-74242857D02*
X124368617Y-74357142D01*
X124368617Y-74357142D02*
X124406712Y-74433333D01*
X124406712Y-74433333D02*
X124444807Y-74471428D01*
X124444807Y-74471428D02*
X124520998Y-74509523D01*
X124520998Y-74509523D02*
X124711474Y-74509523D01*
X124711474Y-74509523D02*
X124787664Y-74471428D01*
X124787664Y-74471428D02*
X124825760Y-74433333D01*
X124825760Y-74433333D02*
X124863855Y-74357142D01*
X124863855Y-74357142D02*
X124863855Y-74128571D01*
X124863855Y-74128571D02*
X124825760Y-74052380D01*
X124825760Y-74052380D02*
X124787664Y-74014285D01*
D10*
X122784819Y-78285714D02*
X122784819Y-77714286D01*
X122784819Y-78000000D02*
X121784819Y-78000000D01*
X121784819Y-78000000D02*
X121927676Y-77904762D01*
X121927676Y-77904762D02*
X122022914Y-77809524D01*
X122022914Y-77809524D02*
X122070533Y-77714286D01*
X122784819Y-78714286D02*
X121784819Y-78714286D01*
X122784819Y-79285714D02*
X122213390Y-78857143D01*
X121784819Y-79285714D02*
X122356247Y-78714286D01*
D11*
X120863855Y-77985714D02*
X120482902Y-77719047D01*
X120863855Y-77528571D02*
X120063855Y-77528571D01*
X120063855Y-77528571D02*
X120063855Y-77833333D01*
X120063855Y-77833333D02*
X120101950Y-77909523D01*
X120101950Y-77909523D02*
X120140045Y-77947618D01*
X120140045Y-77947618D02*
X120216236Y-77985714D01*
X120216236Y-77985714D02*
X120330521Y-77985714D01*
X120330521Y-77985714D02*
X120406712Y-77947618D01*
X120406712Y-77947618D02*
X120444807Y-77909523D01*
X120444807Y-77909523D02*
X120482902Y-77833333D01*
X120482902Y-77833333D02*
X120482902Y-77528571D01*
X120863855Y-78747618D02*
X120863855Y-78290475D01*
X120863855Y-78519047D02*
X120063855Y-78519047D01*
X120063855Y-78519047D02*
X120178140Y-78442856D01*
X120178140Y-78442856D02*
X120254331Y-78366666D01*
X120254331Y-78366666D02*
X120292426Y-78290475D01*
X120863855Y-79128571D02*
X120863855Y-79280952D01*
X120863855Y-79280952D02*
X120825760Y-79357142D01*
X120825760Y-79357142D02*
X120787664Y-79395238D01*
X120787664Y-79395238D02*
X120673379Y-79471428D01*
X120673379Y-79471428D02*
X120520998Y-79509523D01*
X120520998Y-79509523D02*
X120216236Y-79509523D01*
X120216236Y-79509523D02*
X120140045Y-79471428D01*
X120140045Y-79471428D02*
X120101950Y-79433333D01*
X120101950Y-79433333D02*
X120063855Y-79357142D01*
X120063855Y-79357142D02*
X120063855Y-79204761D01*
X120063855Y-79204761D02*
X120101950Y-79128571D01*
X120101950Y-79128571D02*
X120140045Y-79090476D01*
X120140045Y-79090476D02*
X120216236Y-79052380D01*
X120216236Y-79052380D02*
X120406712Y-79052380D01*
X120406712Y-79052380D02*
X120482902Y-79090476D01*
X120482902Y-79090476D02*
X120520998Y-79128571D01*
X120520998Y-79128571D02*
X120559093Y-79204761D01*
X120559093Y-79204761D02*
X120559093Y-79357142D01*
X120559093Y-79357142D02*
X120520998Y-79433333D01*
X120520998Y-79433333D02*
X120482902Y-79471428D01*
X120482902Y-79471428D02*
X120406712Y-79509523D01*
D10*
X119124819Y-73285714D02*
X119124819Y-72714286D01*
X119124819Y-73000000D02*
X118124819Y-73000000D01*
X118124819Y-73000000D02*
X118267676Y-72904762D01*
X118267676Y-72904762D02*
X118362914Y-72809524D01*
X118362914Y-72809524D02*
X118410533Y-72714286D01*
X119124819Y-73714286D02*
X118124819Y-73714286D01*
X119124819Y-74285714D02*
X118553390Y-73857143D01*
X118124819Y-74285714D02*
X118696247Y-73714286D01*
D11*
X120863855Y-72985714D02*
X120482902Y-72719047D01*
X120863855Y-72528571D02*
X120063855Y-72528571D01*
X120063855Y-72528571D02*
X120063855Y-72833333D01*
X120063855Y-72833333D02*
X120101950Y-72909523D01*
X120101950Y-72909523D02*
X120140045Y-72947618D01*
X120140045Y-72947618D02*
X120216236Y-72985714D01*
X120216236Y-72985714D02*
X120330521Y-72985714D01*
X120330521Y-72985714D02*
X120406712Y-72947618D01*
X120406712Y-72947618D02*
X120444807Y-72909523D01*
X120444807Y-72909523D02*
X120482902Y-72833333D01*
X120482902Y-72833333D02*
X120482902Y-72528571D01*
X120863855Y-73747618D02*
X120863855Y-73290475D01*
X120863855Y-73519047D02*
X120063855Y-73519047D01*
X120063855Y-73519047D02*
X120178140Y-73442856D01*
X120178140Y-73442856D02*
X120254331Y-73366666D01*
X120254331Y-73366666D02*
X120292426Y-73290475D01*
X120330521Y-74433333D02*
X120863855Y-74433333D01*
X120025760Y-74242857D02*
X120597188Y-74052380D01*
X120597188Y-74052380D02*
X120597188Y-74547619D01*
D10*
X131124819Y-73285714D02*
X131124819Y-72714286D01*
X131124819Y-73000000D02*
X130124819Y-73000000D01*
X130124819Y-73000000D02*
X130267676Y-72904762D01*
X130267676Y-72904762D02*
X130362914Y-72809524D01*
X130362914Y-72809524D02*
X130410533Y-72714286D01*
X131124819Y-73714286D02*
X130124819Y-73714286D01*
X131124819Y-74285714D02*
X130553390Y-73857143D01*
X130124819Y-74285714D02*
X130696247Y-73714286D01*
D11*
X132863855Y-72985714D02*
X132482902Y-72719047D01*
X132863855Y-72528571D02*
X132063855Y-72528571D01*
X132063855Y-72528571D02*
X132063855Y-72833333D01*
X132063855Y-72833333D02*
X132101950Y-72909523D01*
X132101950Y-72909523D02*
X132140045Y-72947618D01*
X132140045Y-72947618D02*
X132216236Y-72985714D01*
X132216236Y-72985714D02*
X132330521Y-72985714D01*
X132330521Y-72985714D02*
X132406712Y-72947618D01*
X132406712Y-72947618D02*
X132444807Y-72909523D01*
X132444807Y-72909523D02*
X132482902Y-72833333D01*
X132482902Y-72833333D02*
X132482902Y-72528571D01*
X132863855Y-73747618D02*
X132863855Y-73290475D01*
X132863855Y-73519047D02*
X132063855Y-73519047D01*
X132063855Y-73519047D02*
X132178140Y-73442856D01*
X132178140Y-73442856D02*
X132254331Y-73366666D01*
X132254331Y-73366666D02*
X132292426Y-73290475D01*
X132863855Y-74509523D02*
X132863855Y-74052380D01*
X132863855Y-74280952D02*
X132063855Y-74280952D01*
X132063855Y-74280952D02*
X132178140Y-74204761D01*
X132178140Y-74204761D02*
X132254331Y-74128571D01*
X132254331Y-74128571D02*
X132292426Y-74052380D01*
D10*
X139784819Y-80333333D02*
X139784819Y-79761905D01*
X139784819Y-80047619D02*
X138784819Y-80047619D01*
X138784819Y-80047619D02*
X138927676Y-79952381D01*
X138927676Y-79952381D02*
X139022914Y-79857143D01*
X139022914Y-79857143D02*
X139070533Y-79761905D01*
X138784819Y-80952381D02*
X138784819Y-81047619D01*
X138784819Y-81047619D02*
X138832438Y-81142857D01*
X138832438Y-81142857D02*
X138880057Y-81190476D01*
X138880057Y-81190476D02*
X138975295Y-81238095D01*
X138975295Y-81238095D02*
X139165771Y-81285714D01*
X139165771Y-81285714D02*
X139403866Y-81285714D01*
X139403866Y-81285714D02*
X139594342Y-81238095D01*
X139594342Y-81238095D02*
X139689580Y-81190476D01*
X139689580Y-81190476D02*
X139737200Y-81142857D01*
X139737200Y-81142857D02*
X139784819Y-81047619D01*
X139784819Y-81047619D02*
X139784819Y-80952381D01*
X139784819Y-80952381D02*
X139737200Y-80857143D01*
X139737200Y-80857143D02*
X139689580Y-80809524D01*
X139689580Y-80809524D02*
X139594342Y-80761905D01*
X139594342Y-80761905D02*
X139403866Y-80714286D01*
X139403866Y-80714286D02*
X139165771Y-80714286D01*
X139165771Y-80714286D02*
X138975295Y-80761905D01*
X138975295Y-80761905D02*
X138880057Y-80809524D01*
X138880057Y-80809524D02*
X138832438Y-80857143D01*
X138832438Y-80857143D02*
X138784819Y-80952381D01*
X138784819Y-81904762D02*
X138784819Y-82000000D01*
X138784819Y-82000000D02*
X138832438Y-82095238D01*
X138832438Y-82095238D02*
X138880057Y-82142857D01*
X138880057Y-82142857D02*
X138975295Y-82190476D01*
X138975295Y-82190476D02*
X139165771Y-82238095D01*
X139165771Y-82238095D02*
X139403866Y-82238095D01*
X139403866Y-82238095D02*
X139594342Y-82190476D01*
X139594342Y-82190476D02*
X139689580Y-82142857D01*
X139689580Y-82142857D02*
X139737200Y-82095238D01*
X139737200Y-82095238D02*
X139784819Y-82000000D01*
X139784819Y-82000000D02*
X139784819Y-81904762D01*
X139784819Y-81904762D02*
X139737200Y-81809524D01*
X139737200Y-81809524D02*
X139689580Y-81761905D01*
X139689580Y-81761905D02*
X139594342Y-81714286D01*
X139594342Y-81714286D02*
X139403866Y-81666667D01*
X139403866Y-81666667D02*
X139165771Y-81666667D01*
X139165771Y-81666667D02*
X138975295Y-81714286D01*
X138975295Y-81714286D02*
X138880057Y-81761905D01*
X138880057Y-81761905D02*
X138832438Y-81809524D01*
X138832438Y-81809524D02*
X138784819Y-81904762D01*
X139784819Y-82666667D02*
X138784819Y-82666667D01*
X139784819Y-83238095D02*
X139213390Y-82809524D01*
X138784819Y-83238095D02*
X139356247Y-82666667D01*
D11*
X137863855Y-80985714D02*
X137482902Y-80719047D01*
X137863855Y-80528571D02*
X137063855Y-80528571D01*
X137063855Y-80528571D02*
X137063855Y-80833333D01*
X137063855Y-80833333D02*
X137101950Y-80909523D01*
X137101950Y-80909523D02*
X137140045Y-80947618D01*
X137140045Y-80947618D02*
X137216236Y-80985714D01*
X137216236Y-80985714D02*
X137330521Y-80985714D01*
X137330521Y-80985714D02*
X137406712Y-80947618D01*
X137406712Y-80947618D02*
X137444807Y-80909523D01*
X137444807Y-80909523D02*
X137482902Y-80833333D01*
X137482902Y-80833333D02*
X137482902Y-80528571D01*
X137140045Y-81290475D02*
X137101950Y-81328571D01*
X137101950Y-81328571D02*
X137063855Y-81404761D01*
X137063855Y-81404761D02*
X137063855Y-81595237D01*
X137063855Y-81595237D02*
X137101950Y-81671428D01*
X137101950Y-81671428D02*
X137140045Y-81709523D01*
X137140045Y-81709523D02*
X137216236Y-81747618D01*
X137216236Y-81747618D02*
X137292426Y-81747618D01*
X137292426Y-81747618D02*
X137406712Y-81709523D01*
X137406712Y-81709523D02*
X137863855Y-81252380D01*
X137863855Y-81252380D02*
X137863855Y-81747618D01*
X137063855Y-82433333D02*
X137063855Y-82280952D01*
X137063855Y-82280952D02*
X137101950Y-82204761D01*
X137101950Y-82204761D02*
X137140045Y-82166666D01*
X137140045Y-82166666D02*
X137254331Y-82090476D01*
X137254331Y-82090476D02*
X137406712Y-82052380D01*
X137406712Y-82052380D02*
X137711474Y-82052380D01*
X137711474Y-82052380D02*
X137787664Y-82090476D01*
X137787664Y-82090476D02*
X137825760Y-82128571D01*
X137825760Y-82128571D02*
X137863855Y-82204761D01*
X137863855Y-82204761D02*
X137863855Y-82357142D01*
X137863855Y-82357142D02*
X137825760Y-82433333D01*
X137825760Y-82433333D02*
X137787664Y-82471428D01*
X137787664Y-82471428D02*
X137711474Y-82509523D01*
X137711474Y-82509523D02*
X137520998Y-82509523D01*
X137520998Y-82509523D02*
X137444807Y-82471428D01*
X137444807Y-82471428D02*
X137406712Y-82433333D01*
X137406712Y-82433333D02*
X137368617Y-82357142D01*
X137368617Y-82357142D02*
X137368617Y-82204761D01*
X137368617Y-82204761D02*
X137406712Y-82128571D01*
X137406712Y-82128571D02*
X137444807Y-82090476D01*
X137444807Y-82090476D02*
X137520998Y-82052380D01*
D10*
X127124819Y-73285714D02*
X127124819Y-72714286D01*
X127124819Y-73000000D02*
X126124819Y-73000000D01*
X126124819Y-73000000D02*
X126267676Y-72904762D01*
X126267676Y-72904762D02*
X126362914Y-72809524D01*
X126362914Y-72809524D02*
X126410533Y-72714286D01*
X127124819Y-73714286D02*
X126124819Y-73714286D01*
X127124819Y-74285714D02*
X126553390Y-73857143D01*
X126124819Y-74285714D02*
X126696247Y-73714286D01*
D11*
X128863855Y-72985714D02*
X128482902Y-72719047D01*
X128863855Y-72528571D02*
X128063855Y-72528571D01*
X128063855Y-72528571D02*
X128063855Y-72833333D01*
X128063855Y-72833333D02*
X128101950Y-72909523D01*
X128101950Y-72909523D02*
X128140045Y-72947618D01*
X128140045Y-72947618D02*
X128216236Y-72985714D01*
X128216236Y-72985714D02*
X128330521Y-72985714D01*
X128330521Y-72985714D02*
X128406712Y-72947618D01*
X128406712Y-72947618D02*
X128444807Y-72909523D01*
X128444807Y-72909523D02*
X128482902Y-72833333D01*
X128482902Y-72833333D02*
X128482902Y-72528571D01*
X128863855Y-73747618D02*
X128863855Y-73290475D01*
X128863855Y-73519047D02*
X128063855Y-73519047D01*
X128063855Y-73519047D02*
X128178140Y-73442856D01*
X128178140Y-73442856D02*
X128254331Y-73366666D01*
X128254331Y-73366666D02*
X128292426Y-73290475D01*
X128140045Y-74052380D02*
X128101950Y-74090476D01*
X128101950Y-74090476D02*
X128063855Y-74166666D01*
X128063855Y-74166666D02*
X128063855Y-74357142D01*
X128063855Y-74357142D02*
X128101950Y-74433333D01*
X128101950Y-74433333D02*
X128140045Y-74471428D01*
X128140045Y-74471428D02*
X128216236Y-74509523D01*
X128216236Y-74509523D02*
X128292426Y-74509523D01*
X128292426Y-74509523D02*
X128406712Y-74471428D01*
X128406712Y-74471428D02*
X128863855Y-74014285D01*
X128863855Y-74014285D02*
X128863855Y-74509523D01*
D10*
X118784819Y-78285714D02*
X118784819Y-77714286D01*
X118784819Y-78000000D02*
X117784819Y-78000000D01*
X117784819Y-78000000D02*
X117927676Y-77904762D01*
X117927676Y-77904762D02*
X118022914Y-77809524D01*
X118022914Y-77809524D02*
X118070533Y-77714286D01*
X118784819Y-78714286D02*
X117784819Y-78714286D01*
X118784819Y-79285714D02*
X118213390Y-78857143D01*
X117784819Y-79285714D02*
X118356247Y-78714286D01*
D11*
X116863855Y-77985714D02*
X116482902Y-77719047D01*
X116863855Y-77528571D02*
X116063855Y-77528571D01*
X116063855Y-77528571D02*
X116063855Y-77833333D01*
X116063855Y-77833333D02*
X116101950Y-77909523D01*
X116101950Y-77909523D02*
X116140045Y-77947618D01*
X116140045Y-77947618D02*
X116216236Y-77985714D01*
X116216236Y-77985714D02*
X116330521Y-77985714D01*
X116330521Y-77985714D02*
X116406712Y-77947618D01*
X116406712Y-77947618D02*
X116444807Y-77909523D01*
X116444807Y-77909523D02*
X116482902Y-77833333D01*
X116482902Y-77833333D02*
X116482902Y-77528571D01*
X116140045Y-78290475D02*
X116101950Y-78328571D01*
X116101950Y-78328571D02*
X116063855Y-78404761D01*
X116063855Y-78404761D02*
X116063855Y-78595237D01*
X116063855Y-78595237D02*
X116101950Y-78671428D01*
X116101950Y-78671428D02*
X116140045Y-78709523D01*
X116140045Y-78709523D02*
X116216236Y-78747618D01*
X116216236Y-78747618D02*
X116292426Y-78747618D01*
X116292426Y-78747618D02*
X116406712Y-78709523D01*
X116406712Y-78709523D02*
X116863855Y-78252380D01*
X116863855Y-78252380D02*
X116863855Y-78747618D01*
X116063855Y-79242857D02*
X116063855Y-79319047D01*
X116063855Y-79319047D02*
X116101950Y-79395238D01*
X116101950Y-79395238D02*
X116140045Y-79433333D01*
X116140045Y-79433333D02*
X116216236Y-79471428D01*
X116216236Y-79471428D02*
X116368617Y-79509523D01*
X116368617Y-79509523D02*
X116559093Y-79509523D01*
X116559093Y-79509523D02*
X116711474Y-79471428D01*
X116711474Y-79471428D02*
X116787664Y-79433333D01*
X116787664Y-79433333D02*
X116825760Y-79395238D01*
X116825760Y-79395238D02*
X116863855Y-79319047D01*
X116863855Y-79319047D02*
X116863855Y-79242857D01*
X116863855Y-79242857D02*
X116825760Y-79166666D01*
X116825760Y-79166666D02*
X116787664Y-79128571D01*
X116787664Y-79128571D02*
X116711474Y-79090476D01*
X116711474Y-79090476D02*
X116559093Y-79052380D01*
X116559093Y-79052380D02*
X116368617Y-79052380D01*
X116368617Y-79052380D02*
X116216236Y-79090476D01*
X116216236Y-79090476D02*
X116140045Y-79128571D01*
X116140045Y-79128571D02*
X116101950Y-79166666D01*
X116101950Y-79166666D02*
X116063855Y-79242857D01*
D10*
X141142857Y-78454819D02*
X141714285Y-78454819D01*
X141428571Y-78454819D02*
X141428571Y-77454819D01*
X141428571Y-77454819D02*
X141523809Y-77597676D01*
X141523809Y-77597676D02*
X141619047Y-77692914D01*
X141619047Y-77692914D02*
X141714285Y-77740533D01*
X140714285Y-78454819D02*
X140714285Y-77454819D01*
X140714285Y-77454819D02*
X140142857Y-78454819D01*
X140142857Y-78454819D02*
X140142857Y-77454819D01*
X139190476Y-77454819D02*
X139666666Y-77454819D01*
X139666666Y-77454819D02*
X139714285Y-77931009D01*
X139714285Y-77931009D02*
X139666666Y-77883390D01*
X139666666Y-77883390D02*
X139571428Y-77835771D01*
X139571428Y-77835771D02*
X139333333Y-77835771D01*
X139333333Y-77835771D02*
X139238095Y-77883390D01*
X139238095Y-77883390D02*
X139190476Y-77931009D01*
X139190476Y-77931009D02*
X139142857Y-78026247D01*
X139142857Y-78026247D02*
X139142857Y-78264342D01*
X139142857Y-78264342D02*
X139190476Y-78359580D01*
X139190476Y-78359580D02*
X139238095Y-78407200D01*
X139238095Y-78407200D02*
X139333333Y-78454819D01*
X139333333Y-78454819D02*
X139571428Y-78454819D01*
X139571428Y-78454819D02*
X139666666Y-78407200D01*
X139666666Y-78407200D02*
X139714285Y-78359580D01*
X138809523Y-77454819D02*
X138142857Y-77454819D01*
X138142857Y-77454819D02*
X138571428Y-78454819D01*
X137238095Y-78454819D02*
X137809523Y-78454819D01*
X137523809Y-78454819D02*
X137523809Y-77454819D01*
X137523809Y-77454819D02*
X137619047Y-77597676D01*
X137619047Y-77597676D02*
X137714285Y-77692914D01*
X137714285Y-77692914D02*
X137809523Y-77740533D01*
X136285714Y-78454819D02*
X136857142Y-78454819D01*
X136571428Y-78454819D02*
X136571428Y-77454819D01*
X136571428Y-77454819D02*
X136666666Y-77597676D01*
X136666666Y-77597676D02*
X136761904Y-77692914D01*
X136761904Y-77692914D02*
X136857142Y-77740533D01*
X139738094Y-74454819D02*
X139738094Y-73454819D01*
X139738094Y-73454819D02*
X139499999Y-73454819D01*
X139499999Y-73454819D02*
X139357142Y-73502438D01*
X139357142Y-73502438D02*
X139261904Y-73597676D01*
X139261904Y-73597676D02*
X139214285Y-73692914D01*
X139214285Y-73692914D02*
X139166666Y-73883390D01*
X139166666Y-73883390D02*
X139166666Y-74026247D01*
X139166666Y-74026247D02*
X139214285Y-74216723D01*
X139214285Y-74216723D02*
X139261904Y-74311961D01*
X139261904Y-74311961D02*
X139357142Y-74407200D01*
X139357142Y-74407200D02*
X139499999Y-74454819D01*
X139499999Y-74454819D02*
X139738094Y-74454819D01*
X138214285Y-74454819D02*
X138785713Y-74454819D01*
X138499999Y-74454819D02*
X138499999Y-73454819D01*
X138499999Y-73454819D02*
X138595237Y-73597676D01*
X138595237Y-73597676D02*
X138690475Y-73692914D01*
X138690475Y-73692914D02*
X138785713Y-73740533D01*
X130784819Y-78285714D02*
X130784819Y-77714286D01*
X130784819Y-78000000D02*
X129784819Y-78000000D01*
X129784819Y-78000000D02*
X129927676Y-77904762D01*
X129927676Y-77904762D02*
X130022914Y-77809524D01*
X130022914Y-77809524D02*
X130070533Y-77714286D01*
X130784819Y-78714286D02*
X129784819Y-78714286D01*
X130784819Y-79285714D02*
X130213390Y-78857143D01*
X129784819Y-79285714D02*
X130356247Y-78714286D01*
D11*
X128863855Y-77985714D02*
X128482902Y-77719047D01*
X128863855Y-77528571D02*
X128063855Y-77528571D01*
X128063855Y-77528571D02*
X128063855Y-77833333D01*
X128063855Y-77833333D02*
X128101950Y-77909523D01*
X128101950Y-77909523D02*
X128140045Y-77947618D01*
X128140045Y-77947618D02*
X128216236Y-77985714D01*
X128216236Y-77985714D02*
X128330521Y-77985714D01*
X128330521Y-77985714D02*
X128406712Y-77947618D01*
X128406712Y-77947618D02*
X128444807Y-77909523D01*
X128444807Y-77909523D02*
X128482902Y-77833333D01*
X128482902Y-77833333D02*
X128482902Y-77528571D01*
X128863855Y-78747618D02*
X128863855Y-78290475D01*
X128863855Y-78519047D02*
X128063855Y-78519047D01*
X128063855Y-78519047D02*
X128178140Y-78442856D01*
X128178140Y-78442856D02*
X128254331Y-78366666D01*
X128254331Y-78366666D02*
X128292426Y-78290475D01*
X128063855Y-79014285D02*
X128063855Y-79547619D01*
X128063855Y-79547619D02*
X128863855Y-79204761D01*
D10*
X143304819Y-80428571D02*
X143304819Y-79857143D01*
X143304819Y-80142857D02*
X142304819Y-80142857D01*
X142304819Y-80142857D02*
X142447676Y-80047619D01*
X142447676Y-80047619D02*
X142542914Y-79952381D01*
X142542914Y-79952381D02*
X142590533Y-79857143D01*
X142304819Y-81047619D02*
X142304819Y-81142857D01*
X142304819Y-81142857D02*
X142352438Y-81238095D01*
X142352438Y-81238095D02*
X142400057Y-81285714D01*
X142400057Y-81285714D02*
X142495295Y-81333333D01*
X142495295Y-81333333D02*
X142685771Y-81380952D01*
X142685771Y-81380952D02*
X142923866Y-81380952D01*
X142923866Y-81380952D02*
X143114342Y-81333333D01*
X143114342Y-81333333D02*
X143209580Y-81285714D01*
X143209580Y-81285714D02*
X143257200Y-81238095D01*
X143257200Y-81238095D02*
X143304819Y-81142857D01*
X143304819Y-81142857D02*
X143304819Y-81047619D01*
X143304819Y-81047619D02*
X143257200Y-80952381D01*
X143257200Y-80952381D02*
X143209580Y-80904762D01*
X143209580Y-80904762D02*
X143114342Y-80857143D01*
X143114342Y-80857143D02*
X142923866Y-80809524D01*
X142923866Y-80809524D02*
X142685771Y-80809524D01*
X142685771Y-80809524D02*
X142495295Y-80857143D01*
X142495295Y-80857143D02*
X142400057Y-80904762D01*
X142400057Y-80904762D02*
X142352438Y-80952381D01*
X142352438Y-80952381D02*
X142304819Y-81047619D01*
X142638152Y-81809524D02*
X143304819Y-81809524D01*
X142733390Y-81809524D02*
X142685771Y-81857143D01*
X142685771Y-81857143D02*
X142638152Y-81952381D01*
X142638152Y-81952381D02*
X142638152Y-82095238D01*
X142638152Y-82095238D02*
X142685771Y-82190476D01*
X142685771Y-82190476D02*
X142781009Y-82238095D01*
X142781009Y-82238095D02*
X143304819Y-82238095D01*
X142781009Y-83047619D02*
X142781009Y-82714286D01*
X143304819Y-82714286D02*
X142304819Y-82714286D01*
X142304819Y-82714286D02*
X142304819Y-83190476D01*
D11*
X141287664Y-81366667D02*
X141325760Y-81328571D01*
X141325760Y-81328571D02*
X141363855Y-81214286D01*
X141363855Y-81214286D02*
X141363855Y-81138095D01*
X141363855Y-81138095D02*
X141325760Y-81023809D01*
X141325760Y-81023809D02*
X141249569Y-80947619D01*
X141249569Y-80947619D02*
X141173379Y-80909524D01*
X141173379Y-80909524D02*
X141020998Y-80871428D01*
X141020998Y-80871428D02*
X140906712Y-80871428D01*
X140906712Y-80871428D02*
X140754331Y-80909524D01*
X140754331Y-80909524D02*
X140678140Y-80947619D01*
X140678140Y-80947619D02*
X140601950Y-81023809D01*
X140601950Y-81023809D02*
X140563855Y-81138095D01*
X140563855Y-81138095D02*
X140563855Y-81214286D01*
X140563855Y-81214286D02*
X140601950Y-81328571D01*
X140601950Y-81328571D02*
X140640045Y-81366667D01*
X141363855Y-82128571D02*
X141363855Y-81671428D01*
X141363855Y-81900000D02*
X140563855Y-81900000D01*
X140563855Y-81900000D02*
X140678140Y-81823809D01*
X140678140Y-81823809D02*
X140754331Y-81747619D01*
X140754331Y-81747619D02*
X140792426Y-81671428D01*
D10*
X126784819Y-78285714D02*
X126784819Y-77714286D01*
X126784819Y-78000000D02*
X125784819Y-78000000D01*
X125784819Y-78000000D02*
X125927676Y-77904762D01*
X125927676Y-77904762D02*
X126022914Y-77809524D01*
X126022914Y-77809524D02*
X126070533Y-77714286D01*
X126784819Y-78714286D02*
X125784819Y-78714286D01*
X126784819Y-79285714D02*
X126213390Y-78857143D01*
X125784819Y-79285714D02*
X126356247Y-78714286D01*
D11*
X124863855Y-77985714D02*
X124482902Y-77719047D01*
X124863855Y-77528571D02*
X124063855Y-77528571D01*
X124063855Y-77528571D02*
X124063855Y-77833333D01*
X124063855Y-77833333D02*
X124101950Y-77909523D01*
X124101950Y-77909523D02*
X124140045Y-77947618D01*
X124140045Y-77947618D02*
X124216236Y-77985714D01*
X124216236Y-77985714D02*
X124330521Y-77985714D01*
X124330521Y-77985714D02*
X124406712Y-77947618D01*
X124406712Y-77947618D02*
X124444807Y-77909523D01*
X124444807Y-77909523D02*
X124482902Y-77833333D01*
X124482902Y-77833333D02*
X124482902Y-77528571D01*
X124863855Y-78747618D02*
X124863855Y-78290475D01*
X124863855Y-78519047D02*
X124063855Y-78519047D01*
X124063855Y-78519047D02*
X124178140Y-78442856D01*
X124178140Y-78442856D02*
X124254331Y-78366666D01*
X124254331Y-78366666D02*
X124292426Y-78290475D01*
X124406712Y-79204761D02*
X124368617Y-79128571D01*
X124368617Y-79128571D02*
X124330521Y-79090476D01*
X124330521Y-79090476D02*
X124254331Y-79052380D01*
X124254331Y-79052380D02*
X124216236Y-79052380D01*
X124216236Y-79052380D02*
X124140045Y-79090476D01*
X124140045Y-79090476D02*
X124101950Y-79128571D01*
X124101950Y-79128571D02*
X124063855Y-79204761D01*
X124063855Y-79204761D02*
X124063855Y-79357142D01*
X124063855Y-79357142D02*
X124101950Y-79433333D01*
X124101950Y-79433333D02*
X124140045Y-79471428D01*
X124140045Y-79471428D02*
X124216236Y-79509523D01*
X124216236Y-79509523D02*
X124254331Y-79509523D01*
X124254331Y-79509523D02*
X124330521Y-79471428D01*
X124330521Y-79471428D02*
X124368617Y-79433333D01*
X124368617Y-79433333D02*
X124406712Y-79357142D01*
X124406712Y-79357142D02*
X124406712Y-79204761D01*
X124406712Y-79204761D02*
X124444807Y-79128571D01*
X124444807Y-79128571D02*
X124482902Y-79090476D01*
X124482902Y-79090476D02*
X124559093Y-79052380D01*
X124559093Y-79052380D02*
X124711474Y-79052380D01*
X124711474Y-79052380D02*
X124787664Y-79090476D01*
X124787664Y-79090476D02*
X124825760Y-79128571D01*
X124825760Y-79128571D02*
X124863855Y-79204761D01*
X124863855Y-79204761D02*
X124863855Y-79357142D01*
X124863855Y-79357142D02*
X124825760Y-79433333D01*
X124825760Y-79433333D02*
X124787664Y-79471428D01*
X124787664Y-79471428D02*
X124711474Y-79509523D01*
X124711474Y-79509523D02*
X124559093Y-79509523D01*
X124559093Y-79509523D02*
X124482902Y-79471428D01*
X124482902Y-79471428D02*
X124444807Y-79433333D01*
X124444807Y-79433333D02*
X124406712Y-79357142D01*
D10*
X134784819Y-78285714D02*
X134784819Y-77714286D01*
X134784819Y-78000000D02*
X133784819Y-78000000D01*
X133784819Y-78000000D02*
X133927676Y-77904762D01*
X133927676Y-77904762D02*
X134022914Y-77809524D01*
X134022914Y-77809524D02*
X134070533Y-77714286D01*
X134784819Y-78714286D02*
X133784819Y-78714286D01*
X134784819Y-79285714D02*
X134213390Y-78857143D01*
X133784819Y-79285714D02*
X134356247Y-78714286D01*
D11*
X132863855Y-77985714D02*
X132482902Y-77719047D01*
X132863855Y-77528571D02*
X132063855Y-77528571D01*
X132063855Y-77528571D02*
X132063855Y-77833333D01*
X132063855Y-77833333D02*
X132101950Y-77909523D01*
X132101950Y-77909523D02*
X132140045Y-77947618D01*
X132140045Y-77947618D02*
X132216236Y-77985714D01*
X132216236Y-77985714D02*
X132330521Y-77985714D01*
X132330521Y-77985714D02*
X132406712Y-77947618D01*
X132406712Y-77947618D02*
X132444807Y-77909523D01*
X132444807Y-77909523D02*
X132482902Y-77833333D01*
X132482902Y-77833333D02*
X132482902Y-77528571D01*
X132863855Y-78747618D02*
X132863855Y-78290475D01*
X132863855Y-78519047D02*
X132063855Y-78519047D01*
X132063855Y-78519047D02*
X132178140Y-78442856D01*
X132178140Y-78442856D02*
X132254331Y-78366666D01*
X132254331Y-78366666D02*
X132292426Y-78290475D01*
X132063855Y-79433333D02*
X132063855Y-79280952D01*
X132063855Y-79280952D02*
X132101950Y-79204761D01*
X132101950Y-79204761D02*
X132140045Y-79166666D01*
X132140045Y-79166666D02*
X132254331Y-79090476D01*
X132254331Y-79090476D02*
X132406712Y-79052380D01*
X132406712Y-79052380D02*
X132711474Y-79052380D01*
X132711474Y-79052380D02*
X132787664Y-79090476D01*
X132787664Y-79090476D02*
X132825760Y-79128571D01*
X132825760Y-79128571D02*
X132863855Y-79204761D01*
X132863855Y-79204761D02*
X132863855Y-79357142D01*
X132863855Y-79357142D02*
X132825760Y-79433333D01*
X132825760Y-79433333D02*
X132787664Y-79471428D01*
X132787664Y-79471428D02*
X132711474Y-79509523D01*
X132711474Y-79509523D02*
X132520998Y-79509523D01*
X132520998Y-79509523D02*
X132444807Y-79471428D01*
X132444807Y-79471428D02*
X132406712Y-79433333D01*
X132406712Y-79433333D02*
X132368617Y-79357142D01*
X132368617Y-79357142D02*
X132368617Y-79204761D01*
X132368617Y-79204761D02*
X132406712Y-79128571D01*
X132406712Y-79128571D02*
X132444807Y-79090476D01*
X132444807Y-79090476D02*
X132520998Y-79052380D01*
D10*
X115124819Y-73285714D02*
X115124819Y-72714286D01*
X115124819Y-73000000D02*
X114124819Y-73000000D01*
X114124819Y-73000000D02*
X114267676Y-72904762D01*
X114267676Y-72904762D02*
X114362914Y-72809524D01*
X114362914Y-72809524D02*
X114410533Y-72714286D01*
X115124819Y-73714286D02*
X114124819Y-73714286D01*
X115124819Y-74285714D02*
X114553390Y-73857143D01*
X114124819Y-74285714D02*
X114696247Y-73714286D01*
D11*
X116863855Y-72985714D02*
X116482902Y-72719047D01*
X116863855Y-72528571D02*
X116063855Y-72528571D01*
X116063855Y-72528571D02*
X116063855Y-72833333D01*
X116063855Y-72833333D02*
X116101950Y-72909523D01*
X116101950Y-72909523D02*
X116140045Y-72947618D01*
X116140045Y-72947618D02*
X116216236Y-72985714D01*
X116216236Y-72985714D02*
X116330521Y-72985714D01*
X116330521Y-72985714D02*
X116406712Y-72947618D01*
X116406712Y-72947618D02*
X116444807Y-72909523D01*
X116444807Y-72909523D02*
X116482902Y-72833333D01*
X116482902Y-72833333D02*
X116482902Y-72528571D01*
X116863855Y-73747618D02*
X116863855Y-73290475D01*
X116863855Y-73519047D02*
X116063855Y-73519047D01*
X116063855Y-73519047D02*
X116178140Y-73442856D01*
X116178140Y-73442856D02*
X116254331Y-73366666D01*
X116254331Y-73366666D02*
X116292426Y-73290475D01*
X116063855Y-74471428D02*
X116063855Y-74090476D01*
X116063855Y-74090476D02*
X116444807Y-74052380D01*
X116444807Y-74052380D02*
X116406712Y-74090476D01*
X116406712Y-74090476D02*
X116368617Y-74166666D01*
X116368617Y-74166666D02*
X116368617Y-74357142D01*
X116368617Y-74357142D02*
X116406712Y-74433333D01*
X116406712Y-74433333D02*
X116444807Y-74471428D01*
X116444807Y-74471428D02*
X116520998Y-74509523D01*
X116520998Y-74509523D02*
X116711474Y-74509523D01*
X116711474Y-74509523D02*
X116787664Y-74471428D01*
X116787664Y-74471428D02*
X116825760Y-74433333D01*
X116825760Y-74433333D02*
X116863855Y-74357142D01*
X116863855Y-74357142D02*
X116863855Y-74166666D01*
X116863855Y-74166666D02*
X116825760Y-74090476D01*
X116825760Y-74090476D02*
X116787664Y-74052380D01*
D12*
%TO.C,R13*%
X123700000Y-71900000D02*
X123700000Y-75100000D01*
X123700000Y-75100000D02*
X125300000Y-75100000D01*
X125300000Y-71900000D02*
X123700000Y-71900000D01*
X125300000Y-75100000D02*
X125300000Y-71900000D01*
%TO.C,R19*%
X119700000Y-76900000D02*
X119700000Y-80100000D01*
X119700000Y-80100000D02*
X121300000Y-80100000D01*
X121300000Y-76900000D02*
X119700000Y-76900000D01*
X121300000Y-80100000D02*
X121300000Y-76900000D01*
%TO.C,R14*%
X119700000Y-71900000D02*
X119700000Y-75100000D01*
X119700000Y-75100000D02*
X121300000Y-75100000D01*
X121300000Y-71900000D02*
X119700000Y-71900000D01*
X121300000Y-75100000D02*
X121300000Y-71900000D01*
%TO.C,R11*%
X131700000Y-71900000D02*
X131700000Y-75100000D01*
X131700000Y-75100000D02*
X133300000Y-75100000D01*
X133300000Y-71900000D02*
X131700000Y-71900000D01*
X133300000Y-75100000D02*
X133300000Y-71900000D01*
%TO.C,R26*%
X136700000Y-79900000D02*
X136700000Y-83100000D01*
X136700000Y-83100000D02*
X138300000Y-83100000D01*
X138300000Y-79900000D02*
X136700000Y-79900000D01*
X138300000Y-83100000D02*
X138300000Y-79900000D01*
%TO.C,R12*%
X127700000Y-71900000D02*
X127700000Y-75100000D01*
X127700000Y-75100000D02*
X129300000Y-75100000D01*
X129300000Y-71900000D02*
X127700000Y-71900000D01*
X129300000Y-75100000D02*
X129300000Y-71900000D01*
%TO.C,R20*%
X115700000Y-76900000D02*
X115700000Y-80100000D01*
X115700000Y-80100000D02*
X117300000Y-80100000D01*
X117300000Y-76900000D02*
X115700000Y-76900000D01*
X117300000Y-80100000D02*
X117300000Y-76900000D01*
%TO.C,D1*%
X137700000Y-75150000D02*
X137700000Y-76850000D01*
X137700000Y-76850000D02*
X140300000Y-76850000D01*
X138250000Y-76000000D02*
X138750000Y-76000000D01*
X138750000Y-75600000D02*
X138750000Y-76400000D01*
X139350000Y-75450000D02*
X139350000Y-76550000D01*
X139350000Y-76000000D02*
X138750000Y-75600000D01*
X139350000Y-76000000D02*
X138750000Y-76400000D01*
X139750000Y-76000000D02*
X139350000Y-76000000D01*
X140300000Y-75150000D02*
X137700000Y-75150000D01*
X140300000Y-76850000D02*
X140300000Y-75150000D01*
%TO.C,R17*%
X127700000Y-76900000D02*
X127700000Y-80100000D01*
X127700000Y-80100000D02*
X129300000Y-80100000D01*
X129300000Y-76900000D02*
X127700000Y-76900000D01*
X129300000Y-80100000D02*
X129300000Y-76900000D01*
%TO.C,C1*%
X140200000Y-79900000D02*
X140200000Y-83100000D01*
X140200000Y-83100000D02*
X141800000Y-83100000D01*
X141800000Y-79900000D02*
X140200000Y-79900000D01*
X141800000Y-83100000D02*
X141800000Y-79900000D01*
%TO.C,R18*%
X123700000Y-76900000D02*
X123700000Y-80100000D01*
X123700000Y-80100000D02*
X125300000Y-80100000D01*
X125300000Y-76900000D02*
X123700000Y-76900000D01*
X125300000Y-80100000D02*
X125300000Y-76900000D01*
%TO.C,R16*%
X131700000Y-76900000D02*
X131700000Y-80100000D01*
X131700000Y-80100000D02*
X133300000Y-80100000D01*
X133300000Y-76900000D02*
X131700000Y-76900000D01*
X133300000Y-80100000D02*
X133300000Y-76900000D01*
%TO.C,R15*%
X115700000Y-71900000D02*
X115700000Y-75100000D01*
X115700000Y-75100000D02*
X117300000Y-75100000D01*
X117300000Y-71900000D02*
X115700000Y-71900000D01*
X117300000Y-75100000D02*
X117300000Y-71900000D01*
%TD*%
M02*
