%TF.GenerationSoftware,KiCad,Pcbnew,9.0.8*%
%TF.CreationDate,2026-04-10T12:11:48+00:00*%
%TF.ProjectId,DummyLoad,44756d6d-794c-46f6-9164-2e6b69636164,rev?*%
%TF.SameCoordinates,Original*%
%TF.FileFunction,Legend,Top*%
%TF.FilePolarity,Positive*%
%FSLAX46Y46*%
G04 Gerber Fmt 4.6, Leading zero omitted, Abs format (unit mm)*
G04 Created by KiCad (PCBNEW 9.0.8) date 2026-04-10 12:11:48*
%MOMM*%
%LPD*%
G01*
G04 APERTURE LIST*
%ADD10C,0.250000*%
%ADD11C,0.100000*%
%ADD12C,0.150000*%
%ADD13C,0.120000*%
G04 APERTURE END LIST*
D10*
X118179947Y-60242238D02*
X117227566Y-60242238D01*
X117227566Y-60242238D02*
X117132328Y-61194619D01*
X117132328Y-61194619D02*
X117227566Y-61099380D01*
X117227566Y-61099380D02*
X117418042Y-61004142D01*
X117418042Y-61004142D02*
X117894233Y-61004142D01*
X117894233Y-61004142D02*
X118084709Y-61099380D01*
X118084709Y-61099380D02*
X118179947Y-61194619D01*
X118179947Y-61194619D02*
X118275185Y-61385095D01*
X118275185Y-61385095D02*
X118275185Y-61861285D01*
X118275185Y-61861285D02*
X118179947Y-62051761D01*
X118179947Y-62051761D02*
X118084709Y-62147000D01*
X118084709Y-62147000D02*
X117894233Y-62242238D01*
X117894233Y-62242238D02*
X117418042Y-62242238D01*
X117418042Y-62242238D02*
X117227566Y-62147000D01*
X117227566Y-62147000D02*
X117132328Y-62051761D01*
X119513280Y-60242238D02*
X119703757Y-60242238D01*
X119703757Y-60242238D02*
X119894233Y-60337476D01*
X119894233Y-60337476D02*
X119989471Y-60432714D01*
X119989471Y-60432714D02*
X120084709Y-60623190D01*
X120084709Y-60623190D02*
X120179947Y-61004142D01*
X120179947Y-61004142D02*
X120179947Y-61480333D01*
X120179947Y-61480333D02*
X120084709Y-61861285D01*
X120084709Y-61861285D02*
X119989471Y-62051761D01*
X119989471Y-62051761D02*
X119894233Y-62147000D01*
X119894233Y-62147000D02*
X119703757Y-62242238D01*
X119703757Y-62242238D02*
X119513280Y-62242238D01*
X119513280Y-62242238D02*
X119322804Y-62147000D01*
X119322804Y-62147000D02*
X119227566Y-62051761D01*
X119227566Y-62051761D02*
X119132328Y-61861285D01*
X119132328Y-61861285D02*
X119037090Y-61480333D01*
X119037090Y-61480333D02*
X119037090Y-61004142D01*
X119037090Y-61004142D02*
X119132328Y-60623190D01*
X119132328Y-60623190D02*
X119227566Y-60432714D01*
X119227566Y-60432714D02*
X119322804Y-60337476D01*
X119322804Y-60337476D02*
X119513280Y-60242238D01*
X120941852Y-62242238D02*
X121418042Y-62242238D01*
X121418042Y-62242238D02*
X121418042Y-61861285D01*
X121418042Y-61861285D02*
X121227566Y-61766047D01*
X121227566Y-61766047D02*
X121037090Y-61575571D01*
X121037090Y-61575571D02*
X120941852Y-61289857D01*
X120941852Y-61289857D02*
X120941852Y-60813666D01*
X120941852Y-60813666D02*
X121037090Y-60527952D01*
X121037090Y-60527952D02*
X121227566Y-60337476D01*
X121227566Y-60337476D02*
X121513280Y-60242238D01*
X121513280Y-60242238D02*
X121894233Y-60242238D01*
X121894233Y-60242238D02*
X122179947Y-60337476D01*
X122179947Y-60337476D02*
X122370423Y-60527952D01*
X122370423Y-60527952D02*
X122465661Y-60813666D01*
X122465661Y-60813666D02*
X122465661Y-61289857D01*
X122465661Y-61289857D02*
X122370423Y-61575571D01*
X122370423Y-61575571D02*
X122179947Y-61766047D01*
X122179947Y-61766047D02*
X121989471Y-61861285D01*
X121989471Y-61861285D02*
X121989471Y-62242238D01*
X121989471Y-62242238D02*
X122465661Y-62242238D01*
X126179947Y-62432714D02*
X125989471Y-62337476D01*
X125989471Y-62337476D02*
X125798995Y-62147000D01*
X125798995Y-62147000D02*
X125513281Y-61861285D01*
X125513281Y-61861285D02*
X125322804Y-61766047D01*
X125322804Y-61766047D02*
X125132328Y-61766047D01*
X125227566Y-62242238D02*
X125037090Y-62147000D01*
X125037090Y-62147000D02*
X124846614Y-61956523D01*
X124846614Y-61956523D02*
X124751376Y-61575571D01*
X124751376Y-61575571D02*
X124751376Y-60908904D01*
X124751376Y-60908904D02*
X124846614Y-60527952D01*
X124846614Y-60527952D02*
X125037090Y-60337476D01*
X125037090Y-60337476D02*
X125227566Y-60242238D01*
X125227566Y-60242238D02*
X125608519Y-60242238D01*
X125608519Y-60242238D02*
X125798995Y-60337476D01*
X125798995Y-60337476D02*
X125989471Y-60527952D01*
X125989471Y-60527952D02*
X126084709Y-60908904D01*
X126084709Y-60908904D02*
X126084709Y-61575571D01*
X126084709Y-61575571D02*
X125989471Y-61956523D01*
X125989471Y-61956523D02*
X125798995Y-62147000D01*
X125798995Y-62147000D02*
X125608519Y-62242238D01*
X125608519Y-62242238D02*
X125227566Y-62242238D01*
X128084709Y-62242238D02*
X127418042Y-61289857D01*
X126941852Y-62242238D02*
X126941852Y-60242238D01*
X126941852Y-60242238D02*
X127703757Y-60242238D01*
X127703757Y-60242238D02*
X127894233Y-60337476D01*
X127894233Y-60337476D02*
X127989471Y-60432714D01*
X127989471Y-60432714D02*
X128084709Y-60623190D01*
X128084709Y-60623190D02*
X128084709Y-60908904D01*
X128084709Y-60908904D02*
X127989471Y-61099380D01*
X127989471Y-61099380D02*
X127894233Y-61194619D01*
X127894233Y-61194619D02*
X127703757Y-61289857D01*
X127703757Y-61289857D02*
X126941852Y-61289857D01*
X128941852Y-62242238D02*
X128941852Y-60242238D01*
X128941852Y-60242238D02*
X129703757Y-60242238D01*
X129703757Y-60242238D02*
X129894233Y-60337476D01*
X129894233Y-60337476D02*
X129989471Y-60432714D01*
X129989471Y-60432714D02*
X130084709Y-60623190D01*
X130084709Y-60623190D02*
X130084709Y-60908904D01*
X130084709Y-60908904D02*
X129989471Y-61099380D01*
X129989471Y-61099380D02*
X129894233Y-61194619D01*
X129894233Y-61194619D02*
X129703757Y-61289857D01*
X129703757Y-61289857D02*
X128941852Y-61289857D01*
X132465662Y-62242238D02*
X132465662Y-60242238D01*
X132465662Y-60242238D02*
X132941852Y-60242238D01*
X132941852Y-60242238D02*
X133227567Y-60337476D01*
X133227567Y-60337476D02*
X133418043Y-60527952D01*
X133418043Y-60527952D02*
X133513281Y-60718428D01*
X133513281Y-60718428D02*
X133608519Y-61099380D01*
X133608519Y-61099380D02*
X133608519Y-61385095D01*
X133608519Y-61385095D02*
X133513281Y-61766047D01*
X133513281Y-61766047D02*
X133418043Y-61956523D01*
X133418043Y-61956523D02*
X133227567Y-62147000D01*
X133227567Y-62147000D02*
X132941852Y-62242238D01*
X132941852Y-62242238D02*
X132465662Y-62242238D01*
X135322805Y-60908904D02*
X135322805Y-62242238D01*
X134465662Y-60908904D02*
X134465662Y-61956523D01*
X134465662Y-61956523D02*
X134560900Y-62147000D01*
X134560900Y-62147000D02*
X134751376Y-62242238D01*
X134751376Y-62242238D02*
X135037091Y-62242238D01*
X135037091Y-62242238D02*
X135227567Y-62147000D01*
X135227567Y-62147000D02*
X135322805Y-62051761D01*
X136275186Y-62242238D02*
X136275186Y-60908904D01*
X136275186Y-61099380D02*
X136370424Y-61004142D01*
X136370424Y-61004142D02*
X136560900Y-60908904D01*
X136560900Y-60908904D02*
X136846615Y-60908904D01*
X136846615Y-60908904D02*
X137037091Y-61004142D01*
X137037091Y-61004142D02*
X137132329Y-61194619D01*
X137132329Y-61194619D02*
X137132329Y-62242238D01*
X137132329Y-61194619D02*
X137227567Y-61004142D01*
X137227567Y-61004142D02*
X137418043Y-60908904D01*
X137418043Y-60908904D02*
X137703757Y-60908904D01*
X137703757Y-60908904D02*
X137894234Y-61004142D01*
X137894234Y-61004142D02*
X137989472Y-61194619D01*
X137989472Y-61194619D02*
X137989472Y-62242238D01*
X138941853Y-62242238D02*
X138941853Y-60908904D01*
X138941853Y-61099380D02*
X139037091Y-61004142D01*
X139037091Y-61004142D02*
X139227567Y-60908904D01*
X139227567Y-60908904D02*
X139513282Y-60908904D01*
X139513282Y-60908904D02*
X139703758Y-61004142D01*
X139703758Y-61004142D02*
X139798996Y-61194619D01*
X139798996Y-61194619D02*
X139798996Y-62242238D01*
X139798996Y-61194619D02*
X139894234Y-61004142D01*
X139894234Y-61004142D02*
X140084710Y-60908904D01*
X140084710Y-60908904D02*
X140370424Y-60908904D01*
X140370424Y-60908904D02*
X140560901Y-61004142D01*
X140560901Y-61004142D02*
X140656139Y-61194619D01*
X140656139Y-61194619D02*
X140656139Y-62242238D01*
X141418044Y-60908904D02*
X141894234Y-62242238D01*
X142370425Y-60908904D02*
X141894234Y-62242238D01*
X141894234Y-62242238D02*
X141703758Y-62718428D01*
X141703758Y-62718428D02*
X141608520Y-62813666D01*
X141608520Y-62813666D02*
X141418044Y-62908904D01*
X145608521Y-62242238D02*
X144656140Y-62242238D01*
X144656140Y-62242238D02*
X144656140Y-60242238D01*
X146560902Y-62242238D02*
X146370426Y-62147000D01*
X146370426Y-62147000D02*
X146275188Y-62051761D01*
X146275188Y-62051761D02*
X146179950Y-61861285D01*
X146179950Y-61861285D02*
X146179950Y-61289857D01*
X146179950Y-61289857D02*
X146275188Y-61099380D01*
X146275188Y-61099380D02*
X146370426Y-61004142D01*
X146370426Y-61004142D02*
X146560902Y-60908904D01*
X146560902Y-60908904D02*
X146846617Y-60908904D01*
X146846617Y-60908904D02*
X147037093Y-61004142D01*
X147037093Y-61004142D02*
X147132331Y-61099380D01*
X147132331Y-61099380D02*
X147227569Y-61289857D01*
X147227569Y-61289857D02*
X147227569Y-61861285D01*
X147227569Y-61861285D02*
X147132331Y-62051761D01*
X147132331Y-62051761D02*
X147037093Y-62147000D01*
X147037093Y-62147000D02*
X146846617Y-62242238D01*
X146846617Y-62242238D02*
X146560902Y-62242238D01*
X148941855Y-62242238D02*
X148941855Y-61194619D01*
X148941855Y-61194619D02*
X148846617Y-61004142D01*
X148846617Y-61004142D02*
X148656141Y-60908904D01*
X148656141Y-60908904D02*
X148275188Y-60908904D01*
X148275188Y-60908904D02*
X148084712Y-61004142D01*
X148941855Y-62147000D02*
X148751379Y-62242238D01*
X148751379Y-62242238D02*
X148275188Y-62242238D01*
X148275188Y-62242238D02*
X148084712Y-62147000D01*
X148084712Y-62147000D02*
X147989474Y-61956523D01*
X147989474Y-61956523D02*
X147989474Y-61766047D01*
X147989474Y-61766047D02*
X148084712Y-61575571D01*
X148084712Y-61575571D02*
X148275188Y-61480333D01*
X148275188Y-61480333D02*
X148751379Y-61480333D01*
X148751379Y-61480333D02*
X148941855Y-61385095D01*
X150751379Y-62242238D02*
X150751379Y-60242238D01*
X150751379Y-62147000D02*
X150560903Y-62242238D01*
X150560903Y-62242238D02*
X150179950Y-62242238D01*
X150179950Y-62242238D02*
X149989474Y-62147000D01*
X149989474Y-62147000D02*
X149894236Y-62051761D01*
X149894236Y-62051761D02*
X149798998Y-61861285D01*
X149798998Y-61861285D02*
X149798998Y-61289857D01*
X149798998Y-61289857D02*
X149894236Y-61099380D01*
X149894236Y-61099380D02*
X149989474Y-61004142D01*
X149989474Y-61004142D02*
X150179950Y-60908904D01*
X150179950Y-60908904D02*
X150560903Y-60908904D01*
X150560903Y-60908904D02*
X150751379Y-61004142D01*
D11*
X150732455Y-66705752D02*
X150732455Y-67372419D01*
X150494360Y-66324800D02*
X150256265Y-67039085D01*
X150256265Y-67039085D02*
X150875312Y-67039085D01*
X151446741Y-66372419D02*
X151541979Y-66372419D01*
X151541979Y-66372419D02*
X151637217Y-66420038D01*
X151637217Y-66420038D02*
X151684836Y-66467657D01*
X151684836Y-66467657D02*
X151732455Y-66562895D01*
X151732455Y-66562895D02*
X151780074Y-66753371D01*
X151780074Y-66753371D02*
X151780074Y-66991466D01*
X151780074Y-66991466D02*
X151732455Y-67181942D01*
X151732455Y-67181942D02*
X151684836Y-67277180D01*
X151684836Y-67277180D02*
X151637217Y-67324800D01*
X151637217Y-67324800D02*
X151541979Y-67372419D01*
X151541979Y-67372419D02*
X151446741Y-67372419D01*
X151446741Y-67372419D02*
X151351503Y-67324800D01*
X151351503Y-67324800D02*
X151303884Y-67277180D01*
X151303884Y-67277180D02*
X151256265Y-67181942D01*
X151256265Y-67181942D02*
X151208646Y-66991466D01*
X151208646Y-66991466D02*
X151208646Y-66753371D01*
X151208646Y-66753371D02*
X151256265Y-66562895D01*
X151256265Y-66562895D02*
X151303884Y-66467657D01*
X151303884Y-66467657D02*
X151351503Y-66420038D01*
X151351503Y-66420038D02*
X151446741Y-66372419D01*
X152637217Y-67372419D02*
X152637217Y-66372419D01*
X152637217Y-67324800D02*
X152541979Y-67372419D01*
X152541979Y-67372419D02*
X152351503Y-67372419D01*
X152351503Y-67372419D02*
X152256265Y-67324800D01*
X152256265Y-67324800D02*
X152208646Y-67277180D01*
X152208646Y-67277180D02*
X152161027Y-67181942D01*
X152161027Y-67181942D02*
X152161027Y-66896228D01*
X152161027Y-66896228D02*
X152208646Y-66800990D01*
X152208646Y-66800990D02*
X152256265Y-66753371D01*
X152256265Y-66753371D02*
X152351503Y-66705752D01*
X152351503Y-66705752D02*
X152541979Y-66705752D01*
X152541979Y-66705752D02*
X152637217Y-66753371D01*
X153113408Y-67372419D02*
X153113408Y-66372419D01*
X153113408Y-66753371D02*
X153208646Y-66705752D01*
X153208646Y-66705752D02*
X153399122Y-66705752D01*
X153399122Y-66705752D02*
X153494360Y-66753371D01*
X153494360Y-66753371D02*
X153541979Y-66800990D01*
X153541979Y-66800990D02*
X153589598Y-66896228D01*
X153589598Y-66896228D02*
X153589598Y-67181942D01*
X153589598Y-67181942D02*
X153541979Y-67277180D01*
X153541979Y-67277180D02*
X153494360Y-67324800D01*
X153494360Y-67324800D02*
X153399122Y-67372419D01*
X153399122Y-67372419D02*
X153208646Y-67372419D01*
X153208646Y-67372419D02*
X153113408Y-67324800D01*
X154732456Y-67086704D02*
X155208646Y-67086704D01*
X154637218Y-67372419D02*
X154970551Y-66372419D01*
X154970551Y-66372419D02*
X155303884Y-67372419D01*
X155494361Y-66705752D02*
X155875313Y-66705752D01*
X155637218Y-66372419D02*
X155637218Y-67229561D01*
X155637218Y-67229561D02*
X155684837Y-67324800D01*
X155684837Y-67324800D02*
X155780075Y-67372419D01*
X155780075Y-67372419D02*
X155875313Y-67372419D01*
X156065790Y-66705752D02*
X156446742Y-66705752D01*
X156208647Y-66372419D02*
X156208647Y-67229561D01*
X156208647Y-67229561D02*
X156256266Y-67324800D01*
X156256266Y-67324800D02*
X156351504Y-67372419D01*
X156351504Y-67372419D02*
X156446742Y-67372419D01*
X156780076Y-66705752D02*
X156780076Y-67372419D01*
X156780076Y-66800990D02*
X156827695Y-66753371D01*
X156827695Y-66753371D02*
X156922933Y-66705752D01*
X156922933Y-66705752D02*
X157065790Y-66705752D01*
X157065790Y-66705752D02*
X157161028Y-66753371D01*
X157161028Y-66753371D02*
X157208647Y-66848609D01*
X157208647Y-66848609D02*
X157208647Y-67372419D01*
X158637219Y-66372419D02*
X158827695Y-66372419D01*
X158827695Y-66372419D02*
X158922933Y-66420038D01*
X158922933Y-66420038D02*
X159018171Y-66515276D01*
X159018171Y-66515276D02*
X159065790Y-66705752D01*
X159065790Y-66705752D02*
X159065790Y-67039085D01*
X159065790Y-67039085D02*
X159018171Y-67229561D01*
X159018171Y-67229561D02*
X158922933Y-67324800D01*
X158922933Y-67324800D02*
X158827695Y-67372419D01*
X158827695Y-67372419D02*
X158637219Y-67372419D01*
X158637219Y-67372419D02*
X158541981Y-67324800D01*
X158541981Y-67324800D02*
X158446743Y-67229561D01*
X158446743Y-67229561D02*
X158399124Y-67039085D01*
X158399124Y-67039085D02*
X158399124Y-66705752D01*
X158399124Y-66705752D02*
X158446743Y-66515276D01*
X158446743Y-66515276D02*
X158541981Y-66420038D01*
X158541981Y-66420038D02*
X158637219Y-66372419D01*
X159922933Y-66705752D02*
X159922933Y-67372419D01*
X159494362Y-66705752D02*
X159494362Y-67229561D01*
X159494362Y-67229561D02*
X159541981Y-67324800D01*
X159541981Y-67324800D02*
X159637219Y-67372419D01*
X159637219Y-67372419D02*
X159780076Y-67372419D01*
X159780076Y-67372419D02*
X159875314Y-67324800D01*
X159875314Y-67324800D02*
X159922933Y-67277180D01*
X160256267Y-66705752D02*
X160637219Y-66705752D01*
X160399124Y-66372419D02*
X160399124Y-67229561D01*
X160399124Y-67229561D02*
X160446743Y-67324800D01*
X160446743Y-67324800D02*
X160541981Y-67372419D01*
X160541981Y-67372419D02*
X160637219Y-67372419D01*
X143803884Y-90872419D02*
X143803884Y-89872419D01*
X143803884Y-89872419D02*
X144184836Y-89872419D01*
X144184836Y-89872419D02*
X144280074Y-89920038D01*
X144280074Y-89920038D02*
X144327693Y-89967657D01*
X144327693Y-89967657D02*
X144375312Y-90062895D01*
X144375312Y-90062895D02*
X144375312Y-90205752D01*
X144375312Y-90205752D02*
X144327693Y-90300990D01*
X144327693Y-90300990D02*
X144280074Y-90348609D01*
X144280074Y-90348609D02*
X144184836Y-90396228D01*
X144184836Y-90396228D02*
X143803884Y-90396228D01*
X144946741Y-90872419D02*
X144851503Y-90824800D01*
X144851503Y-90824800D02*
X144803884Y-90777180D01*
X144803884Y-90777180D02*
X144756265Y-90681942D01*
X144756265Y-90681942D02*
X144756265Y-90396228D01*
X144756265Y-90396228D02*
X144803884Y-90300990D01*
X144803884Y-90300990D02*
X144851503Y-90253371D01*
X144851503Y-90253371D02*
X144946741Y-90205752D01*
X144946741Y-90205752D02*
X145089598Y-90205752D01*
X145089598Y-90205752D02*
X145184836Y-90253371D01*
X145184836Y-90253371D02*
X145232455Y-90300990D01*
X145232455Y-90300990D02*
X145280074Y-90396228D01*
X145280074Y-90396228D02*
X145280074Y-90681942D01*
X145280074Y-90681942D02*
X145232455Y-90777180D01*
X145232455Y-90777180D02*
X145184836Y-90824800D01*
X145184836Y-90824800D02*
X145089598Y-90872419D01*
X145089598Y-90872419D02*
X144946741Y-90872419D01*
X145613408Y-90205752D02*
X145803884Y-90872419D01*
X145803884Y-90872419D02*
X145994360Y-90396228D01*
X145994360Y-90396228D02*
X146184836Y-90872419D01*
X146184836Y-90872419D02*
X146375312Y-90205752D01*
X147137217Y-90824800D02*
X147041979Y-90872419D01*
X147041979Y-90872419D02*
X146851503Y-90872419D01*
X146851503Y-90872419D02*
X146756265Y-90824800D01*
X146756265Y-90824800D02*
X146708646Y-90729561D01*
X146708646Y-90729561D02*
X146708646Y-90348609D01*
X146708646Y-90348609D02*
X146756265Y-90253371D01*
X146756265Y-90253371D02*
X146851503Y-90205752D01*
X146851503Y-90205752D02*
X147041979Y-90205752D01*
X147041979Y-90205752D02*
X147137217Y-90253371D01*
X147137217Y-90253371D02*
X147184836Y-90348609D01*
X147184836Y-90348609D02*
X147184836Y-90443847D01*
X147184836Y-90443847D02*
X146708646Y-90539085D01*
X147613408Y-90872419D02*
X147613408Y-90205752D01*
X147613408Y-90396228D02*
X147661027Y-90300990D01*
X147661027Y-90300990D02*
X147708646Y-90253371D01*
X147708646Y-90253371D02*
X147803884Y-90205752D01*
X147803884Y-90205752D02*
X147899122Y-90205752D01*
X154037217Y-92347942D02*
X153637217Y-91776514D01*
X153351503Y-92347942D02*
X153351503Y-91147942D01*
X153351503Y-91147942D02*
X153808646Y-91147942D01*
X153808646Y-91147942D02*
X153922931Y-91205085D01*
X153922931Y-91205085D02*
X153980074Y-91262228D01*
X153980074Y-91262228D02*
X154037217Y-91376514D01*
X154037217Y-91376514D02*
X154037217Y-91547942D01*
X154037217Y-91547942D02*
X153980074Y-91662228D01*
X153980074Y-91662228D02*
X153922931Y-91719371D01*
X153922931Y-91719371D02*
X153808646Y-91776514D01*
X153808646Y-91776514D02*
X153351503Y-91776514D01*
X155008646Y-92290800D02*
X154894360Y-92347942D01*
X154894360Y-92347942D02*
X154665789Y-92347942D01*
X154665789Y-92347942D02*
X154551503Y-92290800D01*
X154551503Y-92290800D02*
X154494360Y-92176514D01*
X154494360Y-92176514D02*
X154494360Y-91719371D01*
X154494360Y-91719371D02*
X154551503Y-91605085D01*
X154551503Y-91605085D02*
X154665789Y-91547942D01*
X154665789Y-91547942D02*
X154894360Y-91547942D01*
X154894360Y-91547942D02*
X155008646Y-91605085D01*
X155008646Y-91605085D02*
X155065789Y-91719371D01*
X155065789Y-91719371D02*
X155065789Y-91833657D01*
X155065789Y-91833657D02*
X154494360Y-91947942D01*
X155465788Y-91547942D02*
X155751502Y-92347942D01*
X155751502Y-92347942D02*
X156037217Y-91547942D01*
X158037217Y-92347942D02*
X157351503Y-92347942D01*
X157694360Y-92347942D02*
X157694360Y-91147942D01*
X157694360Y-91147942D02*
X157580074Y-91319371D01*
X157580074Y-91319371D02*
X157465789Y-91433657D01*
X157465789Y-91433657D02*
X157351503Y-91490800D01*
D10*
X120513281Y-66242238D02*
X120513281Y-64242238D01*
X120513281Y-64242238D02*
X120989471Y-64242238D01*
X120989471Y-64242238D02*
X121275186Y-64337476D01*
X121275186Y-64337476D02*
X121465662Y-64527952D01*
X121465662Y-64527952D02*
X121560900Y-64718428D01*
X121560900Y-64718428D02*
X121656138Y-65099380D01*
X121656138Y-65099380D02*
X121656138Y-65385095D01*
X121656138Y-65385095D02*
X121560900Y-65766047D01*
X121560900Y-65766047D02*
X121465662Y-65956523D01*
X121465662Y-65956523D02*
X121275186Y-66147000D01*
X121275186Y-66147000D02*
X120989471Y-66242238D01*
X120989471Y-66242238D02*
X120513281Y-66242238D01*
X123275186Y-66147000D02*
X123084710Y-66242238D01*
X123084710Y-66242238D02*
X122703757Y-66242238D01*
X122703757Y-66242238D02*
X122513281Y-66147000D01*
X122513281Y-66147000D02*
X122418043Y-65956523D01*
X122418043Y-65956523D02*
X122418043Y-65194619D01*
X122418043Y-65194619D02*
X122513281Y-65004142D01*
X122513281Y-65004142D02*
X122703757Y-64908904D01*
X122703757Y-64908904D02*
X123084710Y-64908904D01*
X123084710Y-64908904D02*
X123275186Y-65004142D01*
X123275186Y-65004142D02*
X123370424Y-65194619D01*
X123370424Y-65194619D02*
X123370424Y-65385095D01*
X123370424Y-65385095D02*
X122418043Y-65575571D01*
X124132329Y-66147000D02*
X124322805Y-66242238D01*
X124322805Y-66242238D02*
X124703757Y-66242238D01*
X124703757Y-66242238D02*
X124894234Y-66147000D01*
X124894234Y-66147000D02*
X124989472Y-65956523D01*
X124989472Y-65956523D02*
X124989472Y-65861285D01*
X124989472Y-65861285D02*
X124894234Y-65670809D01*
X124894234Y-65670809D02*
X124703757Y-65575571D01*
X124703757Y-65575571D02*
X124418043Y-65575571D01*
X124418043Y-65575571D02*
X124227567Y-65480333D01*
X124227567Y-65480333D02*
X124132329Y-65289857D01*
X124132329Y-65289857D02*
X124132329Y-65194619D01*
X124132329Y-65194619D02*
X124227567Y-65004142D01*
X124227567Y-65004142D02*
X124418043Y-64908904D01*
X124418043Y-64908904D02*
X124703757Y-64908904D01*
X124703757Y-64908904D02*
X124894234Y-65004142D01*
X125846615Y-66242238D02*
X125846615Y-64908904D01*
X125846615Y-64242238D02*
X125751377Y-64337476D01*
X125751377Y-64337476D02*
X125846615Y-64432714D01*
X125846615Y-64432714D02*
X125941853Y-64337476D01*
X125941853Y-64337476D02*
X125846615Y-64242238D01*
X125846615Y-64242238D02*
X125846615Y-64432714D01*
X127656139Y-64908904D02*
X127656139Y-66527952D01*
X127656139Y-66527952D02*
X127560901Y-66718428D01*
X127560901Y-66718428D02*
X127465663Y-66813666D01*
X127465663Y-66813666D02*
X127275186Y-66908904D01*
X127275186Y-66908904D02*
X126989472Y-66908904D01*
X126989472Y-66908904D02*
X126798996Y-66813666D01*
X127656139Y-66147000D02*
X127465663Y-66242238D01*
X127465663Y-66242238D02*
X127084710Y-66242238D01*
X127084710Y-66242238D02*
X126894234Y-66147000D01*
X126894234Y-66147000D02*
X126798996Y-66051761D01*
X126798996Y-66051761D02*
X126703758Y-65861285D01*
X126703758Y-65861285D02*
X126703758Y-65289857D01*
X126703758Y-65289857D02*
X126798996Y-65099380D01*
X126798996Y-65099380D02*
X126894234Y-65004142D01*
X126894234Y-65004142D02*
X127084710Y-64908904D01*
X127084710Y-64908904D02*
X127465663Y-64908904D01*
X127465663Y-64908904D02*
X127656139Y-65004142D01*
X128608520Y-64908904D02*
X128608520Y-66242238D01*
X128608520Y-65099380D02*
X128703758Y-65004142D01*
X128703758Y-65004142D02*
X128894234Y-64908904D01*
X128894234Y-64908904D02*
X129179949Y-64908904D01*
X129179949Y-64908904D02*
X129370425Y-65004142D01*
X129370425Y-65004142D02*
X129465663Y-65194619D01*
X129465663Y-65194619D02*
X129465663Y-66242238D01*
X131179949Y-66147000D02*
X130989473Y-66242238D01*
X130989473Y-66242238D02*
X130608520Y-66242238D01*
X130608520Y-66242238D02*
X130418044Y-66147000D01*
X130418044Y-66147000D02*
X130322806Y-65956523D01*
X130322806Y-65956523D02*
X130322806Y-65194619D01*
X130322806Y-65194619D02*
X130418044Y-65004142D01*
X130418044Y-65004142D02*
X130608520Y-64908904D01*
X130608520Y-64908904D02*
X130989473Y-64908904D01*
X130989473Y-64908904D02*
X131179949Y-65004142D01*
X131179949Y-65004142D02*
X131275187Y-65194619D01*
X131275187Y-65194619D02*
X131275187Y-65385095D01*
X131275187Y-65385095D02*
X130322806Y-65575571D01*
X132989473Y-66242238D02*
X132989473Y-64242238D01*
X132989473Y-66147000D02*
X132798997Y-66242238D01*
X132798997Y-66242238D02*
X132418044Y-66242238D01*
X132418044Y-66242238D02*
X132227568Y-66147000D01*
X132227568Y-66147000D02*
X132132330Y-66051761D01*
X132132330Y-66051761D02*
X132037092Y-65861285D01*
X132037092Y-65861285D02*
X132037092Y-65289857D01*
X132037092Y-65289857D02*
X132132330Y-65099380D01*
X132132330Y-65099380D02*
X132227568Y-65004142D01*
X132227568Y-65004142D02*
X132418044Y-64908904D01*
X132418044Y-64908904D02*
X132798997Y-64908904D01*
X132798997Y-64908904D02*
X132989473Y-65004142D01*
X136132331Y-65194619D02*
X136418045Y-65289857D01*
X136418045Y-65289857D02*
X136513283Y-65385095D01*
X136513283Y-65385095D02*
X136608521Y-65575571D01*
X136608521Y-65575571D02*
X136608521Y-65861285D01*
X136608521Y-65861285D02*
X136513283Y-66051761D01*
X136513283Y-66051761D02*
X136418045Y-66147000D01*
X136418045Y-66147000D02*
X136227569Y-66242238D01*
X136227569Y-66242238D02*
X135465664Y-66242238D01*
X135465664Y-66242238D02*
X135465664Y-64242238D01*
X135465664Y-64242238D02*
X136132331Y-64242238D01*
X136132331Y-64242238D02*
X136322807Y-64337476D01*
X136322807Y-64337476D02*
X136418045Y-64432714D01*
X136418045Y-64432714D02*
X136513283Y-64623190D01*
X136513283Y-64623190D02*
X136513283Y-64813666D01*
X136513283Y-64813666D02*
X136418045Y-65004142D01*
X136418045Y-65004142D02*
X136322807Y-65099380D01*
X136322807Y-65099380D02*
X136132331Y-65194619D01*
X136132331Y-65194619D02*
X135465664Y-65194619D01*
X137275188Y-64908904D02*
X137751378Y-66242238D01*
X138227569Y-64908904D02*
X137751378Y-66242238D01*
X137751378Y-66242238D02*
X137560902Y-66718428D01*
X137560902Y-66718428D02*
X137465664Y-66813666D01*
X137465664Y-66813666D02*
X137275188Y-66908904D01*
X140513284Y-66242238D02*
X140513284Y-64242238D01*
X140513284Y-64242238D02*
X141656141Y-66242238D01*
X141656141Y-66242238D02*
X141656141Y-64242238D01*
X142608522Y-65194619D02*
X143275189Y-65194619D01*
X143560903Y-66242238D02*
X142608522Y-66242238D01*
X142608522Y-66242238D02*
X142608522Y-64242238D01*
X142608522Y-64242238D02*
X143560903Y-64242238D01*
X144227570Y-64242238D02*
X145465665Y-64242238D01*
X145465665Y-64242238D02*
X144798998Y-65004142D01*
X144798998Y-65004142D02*
X145084713Y-65004142D01*
X145084713Y-65004142D02*
X145275189Y-65099380D01*
X145275189Y-65099380D02*
X145370427Y-65194619D01*
X145370427Y-65194619D02*
X145465665Y-65385095D01*
X145465665Y-65385095D02*
X145465665Y-65861285D01*
X145465665Y-65861285D02*
X145370427Y-66051761D01*
X145370427Y-66051761D02*
X145275189Y-66147000D01*
X145275189Y-66147000D02*
X145084713Y-66242238D01*
X145084713Y-66242238D02*
X144513284Y-66242238D01*
X144513284Y-66242238D02*
X144322808Y-66147000D01*
X144322808Y-66147000D02*
X144227570Y-66051761D01*
X146322808Y-64242238D02*
X146322808Y-65861285D01*
X146322808Y-65861285D02*
X146418046Y-66051761D01*
X146418046Y-66051761D02*
X146513284Y-66147000D01*
X146513284Y-66147000D02*
X146703760Y-66242238D01*
X146703760Y-66242238D02*
X147084713Y-66242238D01*
X147084713Y-66242238D02*
X147275189Y-66147000D01*
X147275189Y-66147000D02*
X147370427Y-66051761D01*
X147370427Y-66051761D02*
X147465665Y-65861285D01*
X147465665Y-65861285D02*
X147465665Y-64242238D01*
D11*
X115375312Y-90872419D02*
X115041979Y-90396228D01*
X114803884Y-90872419D02*
X114803884Y-89872419D01*
X114803884Y-89872419D02*
X115184836Y-89872419D01*
X115184836Y-89872419D02*
X115280074Y-89920038D01*
X115280074Y-89920038D02*
X115327693Y-89967657D01*
X115327693Y-89967657D02*
X115375312Y-90062895D01*
X115375312Y-90062895D02*
X115375312Y-90205752D01*
X115375312Y-90205752D02*
X115327693Y-90300990D01*
X115327693Y-90300990D02*
X115280074Y-90348609D01*
X115280074Y-90348609D02*
X115184836Y-90396228D01*
X115184836Y-90396228D02*
X114803884Y-90396228D01*
X116137217Y-90348609D02*
X115803884Y-90348609D01*
X115803884Y-90872419D02*
X115803884Y-89872419D01*
X115803884Y-89872419D02*
X116280074Y-89872419D01*
X117422932Y-90872419D02*
X117422932Y-89872419D01*
X117899122Y-90205752D02*
X117899122Y-90872419D01*
X117899122Y-90300990D02*
X117946741Y-90253371D01*
X117946741Y-90253371D02*
X118041979Y-90205752D01*
X118041979Y-90205752D02*
X118184836Y-90205752D01*
X118184836Y-90205752D02*
X118280074Y-90253371D01*
X118280074Y-90253371D02*
X118327693Y-90348609D01*
X118327693Y-90348609D02*
X118327693Y-90872419D01*
X137327693Y-89920038D02*
X137232455Y-89872419D01*
X137232455Y-89872419D02*
X137089598Y-89872419D01*
X137089598Y-89872419D02*
X136946741Y-89920038D01*
X136946741Y-89920038D02*
X136851503Y-90015276D01*
X136851503Y-90015276D02*
X136803884Y-90110514D01*
X136803884Y-90110514D02*
X136756265Y-90300990D01*
X136756265Y-90300990D02*
X136756265Y-90443847D01*
X136756265Y-90443847D02*
X136803884Y-90634323D01*
X136803884Y-90634323D02*
X136851503Y-90729561D01*
X136851503Y-90729561D02*
X136946741Y-90824800D01*
X136946741Y-90824800D02*
X137089598Y-90872419D01*
X137089598Y-90872419D02*
X137184836Y-90872419D01*
X137184836Y-90872419D02*
X137327693Y-90824800D01*
X137327693Y-90824800D02*
X137375312Y-90777180D01*
X137375312Y-90777180D02*
X137375312Y-90443847D01*
X137375312Y-90443847D02*
X137184836Y-90443847D01*
X137803884Y-90872419D02*
X137803884Y-90205752D01*
X137803884Y-90396228D02*
X137851503Y-90300990D01*
X137851503Y-90300990D02*
X137899122Y-90253371D01*
X137899122Y-90253371D02*
X137994360Y-90205752D01*
X137994360Y-90205752D02*
X138089598Y-90205752D01*
X138565789Y-90872419D02*
X138470551Y-90824800D01*
X138470551Y-90824800D02*
X138422932Y-90777180D01*
X138422932Y-90777180D02*
X138375313Y-90681942D01*
X138375313Y-90681942D02*
X138375313Y-90396228D01*
X138375313Y-90396228D02*
X138422932Y-90300990D01*
X138422932Y-90300990D02*
X138470551Y-90253371D01*
X138470551Y-90253371D02*
X138565789Y-90205752D01*
X138565789Y-90205752D02*
X138708646Y-90205752D01*
X138708646Y-90205752D02*
X138803884Y-90253371D01*
X138803884Y-90253371D02*
X138851503Y-90300990D01*
X138851503Y-90300990D02*
X138899122Y-90396228D01*
X138899122Y-90396228D02*
X138899122Y-90681942D01*
X138899122Y-90681942D02*
X138851503Y-90777180D01*
X138851503Y-90777180D02*
X138803884Y-90824800D01*
X138803884Y-90824800D02*
X138708646Y-90872419D01*
X138708646Y-90872419D02*
X138565789Y-90872419D01*
X139756265Y-90205752D02*
X139756265Y-90872419D01*
X139327694Y-90205752D02*
X139327694Y-90729561D01*
X139327694Y-90729561D02*
X139375313Y-90824800D01*
X139375313Y-90824800D02*
X139470551Y-90872419D01*
X139470551Y-90872419D02*
X139613408Y-90872419D01*
X139613408Y-90872419D02*
X139708646Y-90824800D01*
X139708646Y-90824800D02*
X139756265Y-90777180D01*
X140232456Y-90205752D02*
X140232456Y-90872419D01*
X140232456Y-90300990D02*
X140280075Y-90253371D01*
X140280075Y-90253371D02*
X140375313Y-90205752D01*
X140375313Y-90205752D02*
X140518170Y-90205752D01*
X140518170Y-90205752D02*
X140613408Y-90253371D01*
X140613408Y-90253371D02*
X140661027Y-90348609D01*
X140661027Y-90348609D02*
X140661027Y-90872419D01*
X141565789Y-90872419D02*
X141565789Y-89872419D01*
X141565789Y-90824800D02*
X141470551Y-90872419D01*
X141470551Y-90872419D02*
X141280075Y-90872419D01*
X141280075Y-90872419D02*
X141184837Y-90824800D01*
X141184837Y-90824800D02*
X141137218Y-90777180D01*
X141137218Y-90777180D02*
X141089599Y-90681942D01*
X141089599Y-90681942D02*
X141089599Y-90396228D01*
X141089599Y-90396228D02*
X141137218Y-90300990D01*
X141137218Y-90300990D02*
X141184837Y-90253371D01*
X141184837Y-90253371D02*
X141280075Y-90205752D01*
X141280075Y-90205752D02*
X141470551Y-90205752D01*
X141470551Y-90205752D02*
X141565789Y-90253371D01*
X121327693Y-89920038D02*
X121232455Y-89872419D01*
X121232455Y-89872419D02*
X121089598Y-89872419D01*
X121089598Y-89872419D02*
X120946741Y-89920038D01*
X120946741Y-89920038D02*
X120851503Y-90015276D01*
X120851503Y-90015276D02*
X120803884Y-90110514D01*
X120803884Y-90110514D02*
X120756265Y-90300990D01*
X120756265Y-90300990D02*
X120756265Y-90443847D01*
X120756265Y-90443847D02*
X120803884Y-90634323D01*
X120803884Y-90634323D02*
X120851503Y-90729561D01*
X120851503Y-90729561D02*
X120946741Y-90824800D01*
X120946741Y-90824800D02*
X121089598Y-90872419D01*
X121089598Y-90872419D02*
X121184836Y-90872419D01*
X121184836Y-90872419D02*
X121327693Y-90824800D01*
X121327693Y-90824800D02*
X121375312Y-90777180D01*
X121375312Y-90777180D02*
X121375312Y-90443847D01*
X121375312Y-90443847D02*
X121184836Y-90443847D01*
X121803884Y-90872419D02*
X121803884Y-90205752D01*
X121803884Y-90396228D02*
X121851503Y-90300990D01*
X121851503Y-90300990D02*
X121899122Y-90253371D01*
X121899122Y-90253371D02*
X121994360Y-90205752D01*
X121994360Y-90205752D02*
X122089598Y-90205752D01*
X122565789Y-90872419D02*
X122470551Y-90824800D01*
X122470551Y-90824800D02*
X122422932Y-90777180D01*
X122422932Y-90777180D02*
X122375313Y-90681942D01*
X122375313Y-90681942D02*
X122375313Y-90396228D01*
X122375313Y-90396228D02*
X122422932Y-90300990D01*
X122422932Y-90300990D02*
X122470551Y-90253371D01*
X122470551Y-90253371D02*
X122565789Y-90205752D01*
X122565789Y-90205752D02*
X122708646Y-90205752D01*
X122708646Y-90205752D02*
X122803884Y-90253371D01*
X122803884Y-90253371D02*
X122851503Y-90300990D01*
X122851503Y-90300990D02*
X122899122Y-90396228D01*
X122899122Y-90396228D02*
X122899122Y-90681942D01*
X122899122Y-90681942D02*
X122851503Y-90777180D01*
X122851503Y-90777180D02*
X122803884Y-90824800D01*
X122803884Y-90824800D02*
X122708646Y-90872419D01*
X122708646Y-90872419D02*
X122565789Y-90872419D01*
X123756265Y-90205752D02*
X123756265Y-90872419D01*
X123327694Y-90205752D02*
X123327694Y-90729561D01*
X123327694Y-90729561D02*
X123375313Y-90824800D01*
X123375313Y-90824800D02*
X123470551Y-90872419D01*
X123470551Y-90872419D02*
X123613408Y-90872419D01*
X123613408Y-90872419D02*
X123708646Y-90824800D01*
X123708646Y-90824800D02*
X123756265Y-90777180D01*
X124232456Y-90205752D02*
X124232456Y-90872419D01*
X124232456Y-90300990D02*
X124280075Y-90253371D01*
X124280075Y-90253371D02*
X124375313Y-90205752D01*
X124375313Y-90205752D02*
X124518170Y-90205752D01*
X124518170Y-90205752D02*
X124613408Y-90253371D01*
X124613408Y-90253371D02*
X124661027Y-90348609D01*
X124661027Y-90348609D02*
X124661027Y-90872419D01*
X125565789Y-90872419D02*
X125565789Y-89872419D01*
X125565789Y-90824800D02*
X125470551Y-90872419D01*
X125470551Y-90872419D02*
X125280075Y-90872419D01*
X125280075Y-90872419D02*
X125184837Y-90824800D01*
X125184837Y-90824800D02*
X125137218Y-90777180D01*
X125137218Y-90777180D02*
X125089599Y-90681942D01*
X125089599Y-90681942D02*
X125089599Y-90396228D01*
X125089599Y-90396228D02*
X125137218Y-90300990D01*
X125137218Y-90300990D02*
X125184837Y-90253371D01*
X125184837Y-90253371D02*
X125280075Y-90205752D01*
X125280075Y-90205752D02*
X125470551Y-90205752D01*
X125470551Y-90205752D02*
X125565789Y-90253371D01*
X110375312Y-67372419D02*
X110041979Y-66896228D01*
X109803884Y-67372419D02*
X109803884Y-66372419D01*
X109803884Y-66372419D02*
X110184836Y-66372419D01*
X110184836Y-66372419D02*
X110280074Y-66420038D01*
X110280074Y-66420038D02*
X110327693Y-66467657D01*
X110327693Y-66467657D02*
X110375312Y-66562895D01*
X110375312Y-66562895D02*
X110375312Y-66705752D01*
X110375312Y-66705752D02*
X110327693Y-66800990D01*
X110327693Y-66800990D02*
X110280074Y-66848609D01*
X110280074Y-66848609D02*
X110184836Y-66896228D01*
X110184836Y-66896228D02*
X109803884Y-66896228D01*
X111137217Y-66848609D02*
X110803884Y-66848609D01*
X110803884Y-67372419D02*
X110803884Y-66372419D01*
X110803884Y-66372419D02*
X111280074Y-66372419D01*
X112422932Y-67372419D02*
X112422932Y-66372419D01*
X112899122Y-66705752D02*
X112899122Y-67372419D01*
X112899122Y-66800990D02*
X112946741Y-66753371D01*
X112946741Y-66753371D02*
X113041979Y-66705752D01*
X113041979Y-66705752D02*
X113184836Y-66705752D01*
X113184836Y-66705752D02*
X113280074Y-66753371D01*
X113280074Y-66753371D02*
X113327693Y-66848609D01*
X113327693Y-66848609D02*
X113327693Y-67372419D01*
D12*
X143738095Y-84454819D02*
X144309523Y-84454819D01*
X144023809Y-85454819D02*
X144023809Y-84454819D01*
X144642857Y-85454819D02*
X144642857Y-84454819D01*
X144642857Y-84454819D02*
X145023809Y-84454819D01*
X145023809Y-84454819D02*
X145119047Y-84502438D01*
X145119047Y-84502438D02*
X145166666Y-84550057D01*
X145166666Y-84550057D02*
X145214285Y-84645295D01*
X145214285Y-84645295D02*
X145214285Y-84788152D01*
X145214285Y-84788152D02*
X145166666Y-84883390D01*
X145166666Y-84883390D02*
X145119047Y-84931009D01*
X145119047Y-84931009D02*
X145023809Y-84978628D01*
X145023809Y-84978628D02*
X144642857Y-84978628D01*
X145547619Y-84454819D02*
X146166666Y-84454819D01*
X146166666Y-84454819D02*
X145833333Y-84835771D01*
X145833333Y-84835771D02*
X145976190Y-84835771D01*
X145976190Y-84835771D02*
X146071428Y-84883390D01*
X146071428Y-84883390D02*
X146119047Y-84931009D01*
X146119047Y-84931009D02*
X146166666Y-85026247D01*
X146166666Y-85026247D02*
X146166666Y-85264342D01*
X146166666Y-85264342D02*
X146119047Y-85359580D01*
X146119047Y-85359580D02*
X146071428Y-85407200D01*
X146071428Y-85407200D02*
X145976190Y-85454819D01*
X145976190Y-85454819D02*
X145690476Y-85454819D01*
X145690476Y-85454819D02*
X145595238Y-85407200D01*
X145595238Y-85407200D02*
X145547619Y-85359580D01*
X155166666Y-84454819D02*
X155166666Y-85169104D01*
X155166666Y-85169104D02*
X155119047Y-85311961D01*
X155119047Y-85311961D02*
X155023809Y-85407200D01*
X155023809Y-85407200D02*
X154880952Y-85454819D01*
X154880952Y-85454819D02*
X154785714Y-85454819D01*
X155595238Y-84550057D02*
X155642857Y-84502438D01*
X155642857Y-84502438D02*
X155738095Y-84454819D01*
X155738095Y-84454819D02*
X155976190Y-84454819D01*
X155976190Y-84454819D02*
X156071428Y-84502438D01*
X156071428Y-84502438D02*
X156119047Y-84550057D01*
X156119047Y-84550057D02*
X156166666Y-84645295D01*
X156166666Y-84645295D02*
X156166666Y-84740533D01*
X156166666Y-84740533D02*
X156119047Y-84883390D01*
X156119047Y-84883390D02*
X155547619Y-85454819D01*
X155547619Y-85454819D02*
X156166666Y-85454819D01*
X114954819Y-73166666D02*
X114478628Y-73499999D01*
X114954819Y-73738094D02*
X113954819Y-73738094D01*
X113954819Y-73738094D02*
X113954819Y-73357142D01*
X113954819Y-73357142D02*
X114002438Y-73261904D01*
X114002438Y-73261904D02*
X114050057Y-73214285D01*
X114050057Y-73214285D02*
X114145295Y-73166666D01*
X114145295Y-73166666D02*
X114288152Y-73166666D01*
X114288152Y-73166666D02*
X114383390Y-73214285D01*
X114383390Y-73214285D02*
X114431009Y-73261904D01*
X114431009Y-73261904D02*
X114478628Y-73357142D01*
X114478628Y-73357142D02*
X114478628Y-73738094D01*
X114954819Y-72214285D02*
X114954819Y-72785713D01*
X114954819Y-72499999D02*
X113954819Y-72499999D01*
X113954819Y-72499999D02*
X114097676Y-72595237D01*
X114097676Y-72595237D02*
X114192914Y-72690475D01*
X114192914Y-72690475D02*
X114240533Y-72785713D01*
X126954819Y-79216666D02*
X126478628Y-79549999D01*
X126954819Y-79788094D02*
X125954819Y-79788094D01*
X125954819Y-79788094D02*
X125954819Y-79407142D01*
X125954819Y-79407142D02*
X126002438Y-79311904D01*
X126002438Y-79311904D02*
X126050057Y-79264285D01*
X126050057Y-79264285D02*
X126145295Y-79216666D01*
X126145295Y-79216666D02*
X126288152Y-79216666D01*
X126288152Y-79216666D02*
X126383390Y-79264285D01*
X126383390Y-79264285D02*
X126431009Y-79311904D01*
X126431009Y-79311904D02*
X126478628Y-79407142D01*
X126478628Y-79407142D02*
X126478628Y-79788094D01*
X126954819Y-78740475D02*
X126954819Y-78549999D01*
X126954819Y-78549999D02*
X126907200Y-78454761D01*
X126907200Y-78454761D02*
X126859580Y-78407142D01*
X126859580Y-78407142D02*
X126716723Y-78311904D01*
X126716723Y-78311904D02*
X126526247Y-78264285D01*
X126526247Y-78264285D02*
X126145295Y-78264285D01*
X126145295Y-78264285D02*
X126050057Y-78311904D01*
X126050057Y-78311904D02*
X126002438Y-78359523D01*
X126002438Y-78359523D02*
X125954819Y-78454761D01*
X125954819Y-78454761D02*
X125954819Y-78645237D01*
X125954819Y-78645237D02*
X126002438Y-78740475D01*
X126002438Y-78740475D02*
X126050057Y-78788094D01*
X126050057Y-78788094D02*
X126145295Y-78835713D01*
X126145295Y-78835713D02*
X126383390Y-78835713D01*
X126383390Y-78835713D02*
X126478628Y-78788094D01*
X126478628Y-78788094D02*
X126526247Y-78740475D01*
X126526247Y-78740475D02*
X126573866Y-78645237D01*
X126573866Y-78645237D02*
X126573866Y-78454761D01*
X126573866Y-78454761D02*
X126526247Y-78359523D01*
X126526247Y-78359523D02*
X126478628Y-78311904D01*
X126478628Y-78311904D02*
X126383390Y-78264285D01*
X118954819Y-73166666D02*
X118478628Y-73499999D01*
X118954819Y-73738094D02*
X117954819Y-73738094D01*
X117954819Y-73738094D02*
X117954819Y-73357142D01*
X117954819Y-73357142D02*
X118002438Y-73261904D01*
X118002438Y-73261904D02*
X118050057Y-73214285D01*
X118050057Y-73214285D02*
X118145295Y-73166666D01*
X118145295Y-73166666D02*
X118288152Y-73166666D01*
X118288152Y-73166666D02*
X118383390Y-73214285D01*
X118383390Y-73214285D02*
X118431009Y-73261904D01*
X118431009Y-73261904D02*
X118478628Y-73357142D01*
X118478628Y-73357142D02*
X118478628Y-73738094D01*
X118050057Y-72785713D02*
X118002438Y-72738094D01*
X118002438Y-72738094D02*
X117954819Y-72642856D01*
X117954819Y-72642856D02*
X117954819Y-72404761D01*
X117954819Y-72404761D02*
X118002438Y-72309523D01*
X118002438Y-72309523D02*
X118050057Y-72261904D01*
X118050057Y-72261904D02*
X118145295Y-72214285D01*
X118145295Y-72214285D02*
X118240533Y-72214285D01*
X118240533Y-72214285D02*
X118383390Y-72261904D01*
X118383390Y-72261904D02*
X118954819Y-72833332D01*
X118954819Y-72833332D02*
X118954819Y-72214285D01*
X139238095Y-84454819D02*
X139809523Y-84454819D01*
X139523809Y-85454819D02*
X139523809Y-84454819D01*
X140142857Y-85454819D02*
X140142857Y-84454819D01*
X140142857Y-84454819D02*
X140523809Y-84454819D01*
X140523809Y-84454819D02*
X140619047Y-84502438D01*
X140619047Y-84502438D02*
X140666666Y-84550057D01*
X140666666Y-84550057D02*
X140714285Y-84645295D01*
X140714285Y-84645295D02*
X140714285Y-84788152D01*
X140714285Y-84788152D02*
X140666666Y-84883390D01*
X140666666Y-84883390D02*
X140619047Y-84931009D01*
X140619047Y-84931009D02*
X140523809Y-84978628D01*
X140523809Y-84978628D02*
X140142857Y-84978628D01*
X141571428Y-84788152D02*
X141571428Y-85454819D01*
X141333333Y-84407200D02*
X141095238Y-85121485D01*
X141095238Y-85121485D02*
X141714285Y-85121485D01*
X141857142Y-78284819D02*
X141523809Y-77808628D01*
X141285714Y-78284819D02*
X141285714Y-77284819D01*
X141285714Y-77284819D02*
X141666666Y-77284819D01*
X141666666Y-77284819D02*
X141761904Y-77332438D01*
X141761904Y-77332438D02*
X141809523Y-77380057D01*
X141809523Y-77380057D02*
X141857142Y-77475295D01*
X141857142Y-77475295D02*
X141857142Y-77618152D01*
X141857142Y-77618152D02*
X141809523Y-77713390D01*
X141809523Y-77713390D02*
X141761904Y-77761009D01*
X141761904Y-77761009D02*
X141666666Y-77808628D01*
X141666666Y-77808628D02*
X141285714Y-77808628D01*
X142238095Y-77380057D02*
X142285714Y-77332438D01*
X142285714Y-77332438D02*
X142380952Y-77284819D01*
X142380952Y-77284819D02*
X142619047Y-77284819D01*
X142619047Y-77284819D02*
X142714285Y-77332438D01*
X142714285Y-77332438D02*
X142761904Y-77380057D01*
X142761904Y-77380057D02*
X142809523Y-77475295D01*
X142809523Y-77475295D02*
X142809523Y-77570533D01*
X142809523Y-77570533D02*
X142761904Y-77713390D01*
X142761904Y-77713390D02*
X142190476Y-78284819D01*
X142190476Y-78284819D02*
X142809523Y-78284819D01*
X143190476Y-77380057D02*
X143238095Y-77332438D01*
X143238095Y-77332438D02*
X143333333Y-77284819D01*
X143333333Y-77284819D02*
X143571428Y-77284819D01*
X143571428Y-77284819D02*
X143666666Y-77332438D01*
X143666666Y-77332438D02*
X143714285Y-77380057D01*
X143714285Y-77380057D02*
X143761904Y-77475295D01*
X143761904Y-77475295D02*
X143761904Y-77570533D01*
X143761904Y-77570533D02*
X143714285Y-77713390D01*
X143714285Y-77713390D02*
X143142857Y-78284819D01*
X143142857Y-78284819D02*
X143761904Y-78284819D01*
X116238095Y-84454819D02*
X116809523Y-84454819D01*
X116523809Y-85454819D02*
X116523809Y-84454819D01*
X117142857Y-85454819D02*
X117142857Y-84454819D01*
X117142857Y-84454819D02*
X117523809Y-84454819D01*
X117523809Y-84454819D02*
X117619047Y-84502438D01*
X117619047Y-84502438D02*
X117666666Y-84550057D01*
X117666666Y-84550057D02*
X117714285Y-84645295D01*
X117714285Y-84645295D02*
X117714285Y-84788152D01*
X117714285Y-84788152D02*
X117666666Y-84883390D01*
X117666666Y-84883390D02*
X117619047Y-84931009D01*
X117619047Y-84931009D02*
X117523809Y-84978628D01*
X117523809Y-84978628D02*
X117142857Y-84978628D01*
X118666666Y-85454819D02*
X118095238Y-85454819D01*
X118380952Y-85454819D02*
X118380952Y-84454819D01*
X118380952Y-84454819D02*
X118285714Y-84597676D01*
X118285714Y-84597676D02*
X118190476Y-84692914D01*
X118190476Y-84692914D02*
X118095238Y-84740533D01*
X122954819Y-73166666D02*
X122478628Y-73499999D01*
X122954819Y-73738094D02*
X121954819Y-73738094D01*
X121954819Y-73738094D02*
X121954819Y-73357142D01*
X121954819Y-73357142D02*
X122002438Y-73261904D01*
X122002438Y-73261904D02*
X122050057Y-73214285D01*
X122050057Y-73214285D02*
X122145295Y-73166666D01*
X122145295Y-73166666D02*
X122288152Y-73166666D01*
X122288152Y-73166666D02*
X122383390Y-73214285D01*
X122383390Y-73214285D02*
X122431009Y-73261904D01*
X122431009Y-73261904D02*
X122478628Y-73357142D01*
X122478628Y-73357142D02*
X122478628Y-73738094D01*
X121954819Y-72833332D02*
X121954819Y-72214285D01*
X121954819Y-72214285D02*
X122335771Y-72547618D01*
X122335771Y-72547618D02*
X122335771Y-72404761D01*
X122335771Y-72404761D02*
X122383390Y-72309523D01*
X122383390Y-72309523D02*
X122431009Y-72261904D01*
X122431009Y-72261904D02*
X122526247Y-72214285D01*
X122526247Y-72214285D02*
X122764342Y-72214285D01*
X122764342Y-72214285D02*
X122859580Y-72261904D01*
X122859580Y-72261904D02*
X122907200Y-72309523D01*
X122907200Y-72309523D02*
X122954819Y-72404761D01*
X122954819Y-72404761D02*
X122954819Y-72690475D01*
X122954819Y-72690475D02*
X122907200Y-72785713D01*
X122907200Y-72785713D02*
X122859580Y-72833332D01*
X118954819Y-79216666D02*
X118478628Y-79549999D01*
X118954819Y-79788094D02*
X117954819Y-79788094D01*
X117954819Y-79788094D02*
X117954819Y-79407142D01*
X117954819Y-79407142D02*
X118002438Y-79311904D01*
X118002438Y-79311904D02*
X118050057Y-79264285D01*
X118050057Y-79264285D02*
X118145295Y-79216666D01*
X118145295Y-79216666D02*
X118288152Y-79216666D01*
X118288152Y-79216666D02*
X118383390Y-79264285D01*
X118383390Y-79264285D02*
X118431009Y-79311904D01*
X118431009Y-79311904D02*
X118478628Y-79407142D01*
X118478628Y-79407142D02*
X118478628Y-79788094D01*
X117954819Y-78883332D02*
X117954819Y-78216666D01*
X117954819Y-78216666D02*
X118954819Y-78645237D01*
X150454819Y-71642857D02*
X149978628Y-71976190D01*
X150454819Y-72214285D02*
X149454819Y-72214285D01*
X149454819Y-72214285D02*
X149454819Y-71833333D01*
X149454819Y-71833333D02*
X149502438Y-71738095D01*
X149502438Y-71738095D02*
X149550057Y-71690476D01*
X149550057Y-71690476D02*
X149645295Y-71642857D01*
X149645295Y-71642857D02*
X149788152Y-71642857D01*
X149788152Y-71642857D02*
X149883390Y-71690476D01*
X149883390Y-71690476D02*
X149931009Y-71738095D01*
X149931009Y-71738095D02*
X149978628Y-71833333D01*
X149978628Y-71833333D02*
X149978628Y-72214285D01*
X149550057Y-71261904D02*
X149502438Y-71214285D01*
X149502438Y-71214285D02*
X149454819Y-71119047D01*
X149454819Y-71119047D02*
X149454819Y-70880952D01*
X149454819Y-70880952D02*
X149502438Y-70785714D01*
X149502438Y-70785714D02*
X149550057Y-70738095D01*
X149550057Y-70738095D02*
X149645295Y-70690476D01*
X149645295Y-70690476D02*
X149740533Y-70690476D01*
X149740533Y-70690476D02*
X149883390Y-70738095D01*
X149883390Y-70738095D02*
X150454819Y-71309523D01*
X150454819Y-71309523D02*
X150454819Y-70690476D01*
X149788152Y-69833333D02*
X150454819Y-69833333D01*
X149407200Y-70071428D02*
X150121485Y-70309523D01*
X150121485Y-70309523D02*
X150121485Y-69690476D01*
X136833333Y-74209580D02*
X136785714Y-74257200D01*
X136785714Y-74257200D02*
X136642857Y-74304819D01*
X136642857Y-74304819D02*
X136547619Y-74304819D01*
X136547619Y-74304819D02*
X136404762Y-74257200D01*
X136404762Y-74257200D02*
X136309524Y-74161961D01*
X136309524Y-74161961D02*
X136261905Y-74066723D01*
X136261905Y-74066723D02*
X136214286Y-73876247D01*
X136214286Y-73876247D02*
X136214286Y-73733390D01*
X136214286Y-73733390D02*
X136261905Y-73542914D01*
X136261905Y-73542914D02*
X136309524Y-73447676D01*
X136309524Y-73447676D02*
X136404762Y-73352438D01*
X136404762Y-73352438D02*
X136547619Y-73304819D01*
X136547619Y-73304819D02*
X136642857Y-73304819D01*
X136642857Y-73304819D02*
X136785714Y-73352438D01*
X136785714Y-73352438D02*
X136833333Y-73400057D01*
X137214286Y-73400057D02*
X137261905Y-73352438D01*
X137261905Y-73352438D02*
X137357143Y-73304819D01*
X137357143Y-73304819D02*
X137595238Y-73304819D01*
X137595238Y-73304819D02*
X137690476Y-73352438D01*
X137690476Y-73352438D02*
X137738095Y-73400057D01*
X137738095Y-73400057D02*
X137785714Y-73495295D01*
X137785714Y-73495295D02*
X137785714Y-73590533D01*
X137785714Y-73590533D02*
X137738095Y-73733390D01*
X137738095Y-73733390D02*
X137166667Y-74304819D01*
X137166667Y-74304819D02*
X137785714Y-74304819D01*
X120738095Y-84454819D02*
X121309523Y-84454819D01*
X121023809Y-85454819D02*
X121023809Y-84454819D01*
X121642857Y-85454819D02*
X121642857Y-84454819D01*
X121642857Y-84454819D02*
X122023809Y-84454819D01*
X122023809Y-84454819D02*
X122119047Y-84502438D01*
X122119047Y-84502438D02*
X122166666Y-84550057D01*
X122166666Y-84550057D02*
X122214285Y-84645295D01*
X122214285Y-84645295D02*
X122214285Y-84788152D01*
X122214285Y-84788152D02*
X122166666Y-84883390D01*
X122166666Y-84883390D02*
X122119047Y-84931009D01*
X122119047Y-84931009D02*
X122023809Y-84978628D01*
X122023809Y-84978628D02*
X121642857Y-84978628D01*
X122595238Y-84550057D02*
X122642857Y-84502438D01*
X122642857Y-84502438D02*
X122738095Y-84454819D01*
X122738095Y-84454819D02*
X122976190Y-84454819D01*
X122976190Y-84454819D02*
X123071428Y-84502438D01*
X123071428Y-84502438D02*
X123119047Y-84550057D01*
X123119047Y-84550057D02*
X123166666Y-84645295D01*
X123166666Y-84645295D02*
X123166666Y-84740533D01*
X123166666Y-84740533D02*
X123119047Y-84883390D01*
X123119047Y-84883390D02*
X122547619Y-85454819D01*
X122547619Y-85454819D02*
X123166666Y-85454819D01*
X130954819Y-73166666D02*
X130478628Y-73499999D01*
X130954819Y-73738094D02*
X129954819Y-73738094D01*
X129954819Y-73738094D02*
X129954819Y-73357142D01*
X129954819Y-73357142D02*
X130002438Y-73261904D01*
X130002438Y-73261904D02*
X130050057Y-73214285D01*
X130050057Y-73214285D02*
X130145295Y-73166666D01*
X130145295Y-73166666D02*
X130288152Y-73166666D01*
X130288152Y-73166666D02*
X130383390Y-73214285D01*
X130383390Y-73214285D02*
X130431009Y-73261904D01*
X130431009Y-73261904D02*
X130478628Y-73357142D01*
X130478628Y-73357142D02*
X130478628Y-73738094D01*
X129954819Y-72261904D02*
X129954819Y-72738094D01*
X129954819Y-72738094D02*
X130431009Y-72785713D01*
X130431009Y-72785713D02*
X130383390Y-72738094D01*
X130383390Y-72738094D02*
X130335771Y-72642856D01*
X130335771Y-72642856D02*
X130335771Y-72404761D01*
X130335771Y-72404761D02*
X130383390Y-72309523D01*
X130383390Y-72309523D02*
X130431009Y-72261904D01*
X130431009Y-72261904D02*
X130526247Y-72214285D01*
X130526247Y-72214285D02*
X130764342Y-72214285D01*
X130764342Y-72214285D02*
X130859580Y-72261904D01*
X130859580Y-72261904D02*
X130907200Y-72309523D01*
X130907200Y-72309523D02*
X130954819Y-72404761D01*
X130954819Y-72404761D02*
X130954819Y-72642856D01*
X130954819Y-72642856D02*
X130907200Y-72738094D01*
X130907200Y-72738094D02*
X130859580Y-72785713D01*
X122954819Y-79216666D02*
X122478628Y-79549999D01*
X122954819Y-79788094D02*
X121954819Y-79788094D01*
X121954819Y-79788094D02*
X121954819Y-79407142D01*
X121954819Y-79407142D02*
X122002438Y-79311904D01*
X122002438Y-79311904D02*
X122050057Y-79264285D01*
X122050057Y-79264285D02*
X122145295Y-79216666D01*
X122145295Y-79216666D02*
X122288152Y-79216666D01*
X122288152Y-79216666D02*
X122383390Y-79264285D01*
X122383390Y-79264285D02*
X122431009Y-79311904D01*
X122431009Y-79311904D02*
X122478628Y-79407142D01*
X122478628Y-79407142D02*
X122478628Y-79788094D01*
X122383390Y-78645237D02*
X122335771Y-78740475D01*
X122335771Y-78740475D02*
X122288152Y-78788094D01*
X122288152Y-78788094D02*
X122192914Y-78835713D01*
X122192914Y-78835713D02*
X122145295Y-78835713D01*
X122145295Y-78835713D02*
X122050057Y-78788094D01*
X122050057Y-78788094D02*
X122002438Y-78740475D01*
X122002438Y-78740475D02*
X121954819Y-78645237D01*
X121954819Y-78645237D02*
X121954819Y-78454761D01*
X121954819Y-78454761D02*
X122002438Y-78359523D01*
X122002438Y-78359523D02*
X122050057Y-78311904D01*
X122050057Y-78311904D02*
X122145295Y-78264285D01*
X122145295Y-78264285D02*
X122192914Y-78264285D01*
X122192914Y-78264285D02*
X122288152Y-78311904D01*
X122288152Y-78311904D02*
X122335771Y-78359523D01*
X122335771Y-78359523D02*
X122383390Y-78454761D01*
X122383390Y-78454761D02*
X122383390Y-78645237D01*
X122383390Y-78645237D02*
X122431009Y-78740475D01*
X122431009Y-78740475D02*
X122478628Y-78788094D01*
X122478628Y-78788094D02*
X122573866Y-78835713D01*
X122573866Y-78835713D02*
X122764342Y-78835713D01*
X122764342Y-78835713D02*
X122859580Y-78788094D01*
X122859580Y-78788094D02*
X122907200Y-78740475D01*
X122907200Y-78740475D02*
X122954819Y-78645237D01*
X122954819Y-78645237D02*
X122954819Y-78454761D01*
X122954819Y-78454761D02*
X122907200Y-78359523D01*
X122907200Y-78359523D02*
X122859580Y-78311904D01*
X122859580Y-78311904D02*
X122764342Y-78264285D01*
X122764342Y-78264285D02*
X122573866Y-78264285D01*
X122573866Y-78264285D02*
X122478628Y-78311904D01*
X122478628Y-78311904D02*
X122431009Y-78359523D01*
X122431009Y-78359523D02*
X122383390Y-78454761D01*
X136357142Y-78284819D02*
X136023809Y-77808628D01*
X135785714Y-78284819D02*
X135785714Y-77284819D01*
X135785714Y-77284819D02*
X136166666Y-77284819D01*
X136166666Y-77284819D02*
X136261904Y-77332438D01*
X136261904Y-77332438D02*
X136309523Y-77380057D01*
X136309523Y-77380057D02*
X136357142Y-77475295D01*
X136357142Y-77475295D02*
X136357142Y-77618152D01*
X136357142Y-77618152D02*
X136309523Y-77713390D01*
X136309523Y-77713390D02*
X136261904Y-77761009D01*
X136261904Y-77761009D02*
X136166666Y-77808628D01*
X136166666Y-77808628D02*
X135785714Y-77808628D01*
X136738095Y-77380057D02*
X136785714Y-77332438D01*
X136785714Y-77332438D02*
X136880952Y-77284819D01*
X136880952Y-77284819D02*
X137119047Y-77284819D01*
X137119047Y-77284819D02*
X137214285Y-77332438D01*
X137214285Y-77332438D02*
X137261904Y-77380057D01*
X137261904Y-77380057D02*
X137309523Y-77475295D01*
X137309523Y-77475295D02*
X137309523Y-77570533D01*
X137309523Y-77570533D02*
X137261904Y-77713390D01*
X137261904Y-77713390D02*
X136690476Y-78284819D01*
X136690476Y-78284819D02*
X137309523Y-78284819D01*
X138261904Y-78284819D02*
X137690476Y-78284819D01*
X137976190Y-78284819D02*
X137976190Y-77284819D01*
X137976190Y-77284819D02*
X137880952Y-77427676D01*
X137880952Y-77427676D02*
X137785714Y-77522914D01*
X137785714Y-77522914D02*
X137690476Y-77570533D01*
X112166666Y-84454819D02*
X112166666Y-85169104D01*
X112166666Y-85169104D02*
X112119047Y-85311961D01*
X112119047Y-85311961D02*
X112023809Y-85407200D01*
X112023809Y-85407200D02*
X111880952Y-85454819D01*
X111880952Y-85454819D02*
X111785714Y-85454819D01*
X113166666Y-85454819D02*
X112595238Y-85454819D01*
X112880952Y-85454819D02*
X112880952Y-84454819D01*
X112880952Y-84454819D02*
X112785714Y-84597676D01*
X112785714Y-84597676D02*
X112690476Y-84692914D01*
X112690476Y-84692914D02*
X112595238Y-84740533D01*
X126954819Y-73166666D02*
X126478628Y-73499999D01*
X126954819Y-73738094D02*
X125954819Y-73738094D01*
X125954819Y-73738094D02*
X125954819Y-73357142D01*
X125954819Y-73357142D02*
X126002438Y-73261904D01*
X126002438Y-73261904D02*
X126050057Y-73214285D01*
X126050057Y-73214285D02*
X126145295Y-73166666D01*
X126145295Y-73166666D02*
X126288152Y-73166666D01*
X126288152Y-73166666D02*
X126383390Y-73214285D01*
X126383390Y-73214285D02*
X126431009Y-73261904D01*
X126431009Y-73261904D02*
X126478628Y-73357142D01*
X126478628Y-73357142D02*
X126478628Y-73738094D01*
X126288152Y-72309523D02*
X126954819Y-72309523D01*
X125907200Y-72547618D02*
X126621485Y-72785713D01*
X126621485Y-72785713D02*
X126621485Y-72166666D01*
X114954819Y-79166666D02*
X114478628Y-79499999D01*
X114954819Y-79738094D02*
X113954819Y-79738094D01*
X113954819Y-79738094D02*
X113954819Y-79357142D01*
X113954819Y-79357142D02*
X114002438Y-79261904D01*
X114002438Y-79261904D02*
X114050057Y-79214285D01*
X114050057Y-79214285D02*
X114145295Y-79166666D01*
X114145295Y-79166666D02*
X114288152Y-79166666D01*
X114288152Y-79166666D02*
X114383390Y-79214285D01*
X114383390Y-79214285D02*
X114431009Y-79261904D01*
X114431009Y-79261904D02*
X114478628Y-79357142D01*
X114478628Y-79357142D02*
X114478628Y-79738094D01*
X113954819Y-78309523D02*
X113954819Y-78499999D01*
X113954819Y-78499999D02*
X114002438Y-78595237D01*
X114002438Y-78595237D02*
X114050057Y-78642856D01*
X114050057Y-78642856D02*
X114192914Y-78738094D01*
X114192914Y-78738094D02*
X114383390Y-78785713D01*
X114383390Y-78785713D02*
X114764342Y-78785713D01*
X114764342Y-78785713D02*
X114859580Y-78738094D01*
X114859580Y-78738094D02*
X114907200Y-78690475D01*
X114907200Y-78690475D02*
X114954819Y-78595237D01*
X114954819Y-78595237D02*
X114954819Y-78404761D01*
X114954819Y-78404761D02*
X114907200Y-78309523D01*
X114907200Y-78309523D02*
X114859580Y-78261904D01*
X114859580Y-78261904D02*
X114764342Y-78214285D01*
X114764342Y-78214285D02*
X114526247Y-78214285D01*
X114526247Y-78214285D02*
X114431009Y-78261904D01*
X114431009Y-78261904D02*
X114383390Y-78309523D01*
X114383390Y-78309523D02*
X114335771Y-78404761D01*
X114335771Y-78404761D02*
X114335771Y-78595237D01*
X114335771Y-78595237D02*
X114383390Y-78690475D01*
X114383390Y-78690475D02*
X114431009Y-78738094D01*
X114431009Y-78738094D02*
X114526247Y-78785713D01*
X130954819Y-79692857D02*
X130478628Y-80026190D01*
X130954819Y-80264285D02*
X129954819Y-80264285D01*
X129954819Y-80264285D02*
X129954819Y-79883333D01*
X129954819Y-79883333D02*
X130002438Y-79788095D01*
X130002438Y-79788095D02*
X130050057Y-79740476D01*
X130050057Y-79740476D02*
X130145295Y-79692857D01*
X130145295Y-79692857D02*
X130288152Y-79692857D01*
X130288152Y-79692857D02*
X130383390Y-79740476D01*
X130383390Y-79740476D02*
X130431009Y-79788095D01*
X130431009Y-79788095D02*
X130478628Y-79883333D01*
X130478628Y-79883333D02*
X130478628Y-80264285D01*
X130954819Y-78740476D02*
X130954819Y-79311904D01*
X130954819Y-79026190D02*
X129954819Y-79026190D01*
X129954819Y-79026190D02*
X130097676Y-79121428D01*
X130097676Y-79121428D02*
X130192914Y-79216666D01*
X130192914Y-79216666D02*
X130240533Y-79311904D01*
X129954819Y-78121428D02*
X129954819Y-78026190D01*
X129954819Y-78026190D02*
X130002438Y-77930952D01*
X130002438Y-77930952D02*
X130050057Y-77883333D01*
X130050057Y-77883333D02*
X130145295Y-77835714D01*
X130145295Y-77835714D02*
X130335771Y-77788095D01*
X130335771Y-77788095D02*
X130573866Y-77788095D01*
X130573866Y-77788095D02*
X130764342Y-77835714D01*
X130764342Y-77835714D02*
X130859580Y-77883333D01*
X130859580Y-77883333D02*
X130907200Y-77930952D01*
X130907200Y-77930952D02*
X130954819Y-78026190D01*
X130954819Y-78026190D02*
X130954819Y-78121428D01*
X130954819Y-78121428D02*
X130907200Y-78216666D01*
X130907200Y-78216666D02*
X130859580Y-78264285D01*
X130859580Y-78264285D02*
X130764342Y-78311904D01*
X130764342Y-78311904D02*
X130573866Y-78359523D01*
X130573866Y-78359523D02*
X130335771Y-78359523D01*
X130335771Y-78359523D02*
X130145295Y-78311904D01*
X130145295Y-78311904D02*
X130050057Y-78264285D01*
X130050057Y-78264285D02*
X130002438Y-78216666D01*
X130002438Y-78216666D02*
X129954819Y-78121428D01*
X147394642Y-78284819D02*
X147061309Y-77808628D01*
X146823214Y-78284819D02*
X146823214Y-77284819D01*
X146823214Y-77284819D02*
X147204166Y-77284819D01*
X147204166Y-77284819D02*
X147299404Y-77332438D01*
X147299404Y-77332438D02*
X147347023Y-77380057D01*
X147347023Y-77380057D02*
X147394642Y-77475295D01*
X147394642Y-77475295D02*
X147394642Y-77618152D01*
X147394642Y-77618152D02*
X147347023Y-77713390D01*
X147347023Y-77713390D02*
X147299404Y-77761009D01*
X147299404Y-77761009D02*
X147204166Y-77808628D01*
X147204166Y-77808628D02*
X146823214Y-77808628D01*
X147775595Y-77380057D02*
X147823214Y-77332438D01*
X147823214Y-77332438D02*
X147918452Y-77284819D01*
X147918452Y-77284819D02*
X148156547Y-77284819D01*
X148156547Y-77284819D02*
X148251785Y-77332438D01*
X148251785Y-77332438D02*
X148299404Y-77380057D01*
X148299404Y-77380057D02*
X148347023Y-77475295D01*
X148347023Y-77475295D02*
X148347023Y-77570533D01*
X148347023Y-77570533D02*
X148299404Y-77713390D01*
X148299404Y-77713390D02*
X147727976Y-78284819D01*
X147727976Y-78284819D02*
X148347023Y-78284819D01*
X148680357Y-77284819D02*
X149299404Y-77284819D01*
X149299404Y-77284819D02*
X148966071Y-77665771D01*
X148966071Y-77665771D02*
X149108928Y-77665771D01*
X149108928Y-77665771D02*
X149204166Y-77713390D01*
X149204166Y-77713390D02*
X149251785Y-77761009D01*
X149251785Y-77761009D02*
X149299404Y-77856247D01*
X149299404Y-77856247D02*
X149299404Y-78094342D01*
X149299404Y-78094342D02*
X149251785Y-78189580D01*
X149251785Y-78189580D02*
X149204166Y-78237200D01*
X149204166Y-78237200D02*
X149108928Y-78284819D01*
X149108928Y-78284819D02*
X148823214Y-78284819D01*
X148823214Y-78284819D02*
X148727976Y-78237200D01*
X148727976Y-78237200D02*
X148680357Y-78189580D01*
X150454819Y-81642857D02*
X149978628Y-81976190D01*
X150454819Y-82214285D02*
X149454819Y-82214285D01*
X149454819Y-82214285D02*
X149454819Y-81833333D01*
X149454819Y-81833333D02*
X149502438Y-81738095D01*
X149502438Y-81738095D02*
X149550057Y-81690476D01*
X149550057Y-81690476D02*
X149645295Y-81642857D01*
X149645295Y-81642857D02*
X149788152Y-81642857D01*
X149788152Y-81642857D02*
X149883390Y-81690476D01*
X149883390Y-81690476D02*
X149931009Y-81738095D01*
X149931009Y-81738095D02*
X149978628Y-81833333D01*
X149978628Y-81833333D02*
X149978628Y-82214285D01*
X149550057Y-81261904D02*
X149502438Y-81214285D01*
X149502438Y-81214285D02*
X149454819Y-81119047D01*
X149454819Y-81119047D02*
X149454819Y-80880952D01*
X149454819Y-80880952D02*
X149502438Y-80785714D01*
X149502438Y-80785714D02*
X149550057Y-80738095D01*
X149550057Y-80738095D02*
X149645295Y-80690476D01*
X149645295Y-80690476D02*
X149740533Y-80690476D01*
X149740533Y-80690476D02*
X149883390Y-80738095D01*
X149883390Y-80738095D02*
X150454819Y-81309523D01*
X150454819Y-81309523D02*
X150454819Y-80690476D01*
X149454819Y-79785714D02*
X149454819Y-80261904D01*
X149454819Y-80261904D02*
X149931009Y-80309523D01*
X149931009Y-80309523D02*
X149883390Y-80261904D01*
X149883390Y-80261904D02*
X149835771Y-80166666D01*
X149835771Y-80166666D02*
X149835771Y-79928571D01*
X149835771Y-79928571D02*
X149883390Y-79833333D01*
X149883390Y-79833333D02*
X149931009Y-79785714D01*
X149931009Y-79785714D02*
X150026247Y-79738095D01*
X150026247Y-79738095D02*
X150264342Y-79738095D01*
X150264342Y-79738095D02*
X150359580Y-79785714D01*
X150359580Y-79785714D02*
X150407200Y-79833333D01*
X150407200Y-79833333D02*
X150454819Y-79928571D01*
X150454819Y-79928571D02*
X150454819Y-80166666D01*
X150454819Y-80166666D02*
X150407200Y-80261904D01*
X150407200Y-80261904D02*
X150359580Y-80309523D01*
D13*
%TO.C,TP3*%
X146750000Y-87500000D02*
G75*
G02*
X143250000Y-87500000I-1750000J0D01*
G01*
X143250000Y-87500000D02*
G75*
G02*
X146750000Y-87500000I1750000J0D01*
G01*
%TO.C,J2*%
X154700000Y-68580000D02*
X169700000Y-68580000D01*
X154700000Y-83580000D02*
X154700000Y-68580000D01*
X169500000Y-76080000D02*
X168500000Y-75080000D01*
X169500000Y-76080000D02*
X168500000Y-77080000D01*
X169700000Y-68580000D02*
X169700000Y-83580000D01*
X169700000Y-83580000D02*
X154700000Y-83580000D01*
%TO.C,R1*%
X115590000Y-73727064D02*
X115590000Y-72272936D01*
X117410000Y-73727064D02*
X117410000Y-72272936D01*
%TO.C,R9*%
X127590000Y-78322936D02*
X127590000Y-79777064D01*
X129410000Y-78322936D02*
X129410000Y-79777064D01*
%TO.C,R2*%
X119590000Y-73777064D02*
X119590000Y-72322936D01*
X121410000Y-73777064D02*
X121410000Y-72322936D01*
%TO.C,TP4*%
X142250000Y-87500000D02*
G75*
G02*
X138750000Y-87500000I-1750000J0D01*
G01*
X138750000Y-87500000D02*
G75*
G02*
X142250000Y-87500000I1750000J0D01*
G01*
%TO.C,R22*%
X143227064Y-75090000D02*
X141772936Y-75090000D01*
X143227064Y-76910000D02*
X141772936Y-76910000D01*
%TO.C,TP1*%
X119250000Y-87500000D02*
G75*
G02*
X115750000Y-87500000I-1750000J0D01*
G01*
X115750000Y-87500000D02*
G75*
G02*
X119250000Y-87500000I1750000J0D01*
G01*
%TO.C,R3*%
X123590000Y-73777064D02*
X123590000Y-72322936D01*
X125410000Y-73777064D02*
X125410000Y-72322936D01*
%TO.C,R7*%
X119590000Y-78322936D02*
X119590000Y-79777064D01*
X121410000Y-78322936D02*
X121410000Y-79777064D01*
%TO.C,R24*%
X151090000Y-73727064D02*
X151090000Y-72272936D01*
X152910000Y-73727064D02*
X152910000Y-72272936D01*
%TO.C,C2*%
X137711252Y-71090000D02*
X136288748Y-71090000D01*
X137711252Y-72910000D02*
X136288748Y-72910000D01*
%TO.C,TP2*%
X123750000Y-87500000D02*
G75*
G02*
X120250000Y-87500000I-1750000J0D01*
G01*
X120250000Y-87500000D02*
G75*
G02*
X123750000Y-87500000I1750000J0D01*
G01*
%TO.C,R5*%
X131590000Y-73777064D02*
X131590000Y-72322936D01*
X133410000Y-73777064D02*
X133410000Y-72322936D01*
%TO.C,R8*%
X123590000Y-78322936D02*
X123590000Y-79777064D01*
X125410000Y-78322936D02*
X125410000Y-79777064D01*
%TO.C,R21*%
X137727064Y-75090000D02*
X136272936Y-75090000D01*
X137727064Y-76910000D02*
X136272936Y-76910000D01*
%TO.C,J1*%
X98350000Y-68580000D02*
X113350000Y-68580000D01*
X98350000Y-83580000D02*
X98350000Y-68580000D01*
X98550000Y-76080000D02*
X99550000Y-75080000D01*
X98550000Y-76080000D02*
X99550000Y-77080000D01*
X113350000Y-68580000D02*
X113350000Y-83580000D01*
X113350000Y-83580000D02*
X98350000Y-83580000D01*
%TO.C,R4*%
X127590000Y-73777064D02*
X127590000Y-72322936D01*
X129410000Y-73777064D02*
X129410000Y-72322936D01*
%TO.C,R6*%
X115590000Y-78272936D02*
X115590000Y-79727064D01*
X117410000Y-78272936D02*
X117410000Y-79727064D01*
%TO.C,R10*%
X131590000Y-78322936D02*
X131590000Y-79777064D01*
X133410000Y-78322936D02*
X133410000Y-79777064D01*
%TO.C,R23*%
X148764564Y-75090000D02*
X147310436Y-75090000D01*
X148764564Y-76910000D02*
X147310436Y-76910000D01*
%TO.C,R25*%
X151090000Y-78272936D02*
X151090000Y-79727064D01*
X152910000Y-78272936D02*
X152910000Y-79727064D01*
%TD*%
M02*
