%TF.GenerationSoftware,KiCad,Pcbnew,9.0.8*%
%TF.CreationDate,2026-04-10T12:08:16+00:00*%
%TF.ProjectId,DummyLoad,44756d6d-794c-46f6-9164-2e6b69636164,rev?*%
%TF.SameCoordinates,Original*%
%TF.FileFunction,Copper,L2,Bot*%
%TF.FilePolarity,Positive*%
%FSLAX46Y46*%
G04 Gerber Fmt 4.6, Leading zero omitted, Abs format (unit mm)*
G04 Created by KiCad (PCBNEW 9.0.8) date 2026-04-10 12:08:16*
%MOMM*%
%LPD*%
G01*
G04 APERTURE LIST*
G04 Aperture macros list*
%AMRoundRect*
0 Rectangle with rounded corners*
0 $1 Rounding radius*
0 $2 $3 $4 $5 $6 $7 $8 $9 X,Y pos of 4 corners*
0 Add a 4 corners polygon primitive as box body*
4,1,4,$2,$3,$4,$5,$6,$7,$8,$9,$2,$3,0*
0 Add four circle primitives for the rounded corners*
1,1,$1+$1,$2,$3*
1,1,$1+$1,$4,$5*
1,1,$1+$1,$6,$7*
1,1,$1+$1,$8,$9*
0 Add four rect primitives between the rounded corners*
20,1,$1+$1,$2,$3,$4,$5,0*
20,1,$1+$1,$4,$5,$6,$7,0*
20,1,$1+$1,$6,$7,$8,$9,0*
20,1,$1+$1,$8,$9,$2,$3,0*%
G04 Aperture macros list end*
%TA.AperFunction,ComponentPad*%
%ADD10C,3.000000*%
%TD*%
%TA.AperFunction,ComponentPad*%
%ADD11O,2.500000X1.600000*%
%TD*%
%TA.AperFunction,ComponentPad*%
%ADD12O,7.000000X3.500000*%
%TD*%
%TA.AperFunction,SMDPad,CuDef*%
%ADD13RoundRect,0.250000X0.625000X-0.400000X0.625000X0.400000X-0.625000X0.400000X-0.625000X-0.400000X0*%
%TD*%
%TA.AperFunction,SMDPad,CuDef*%
%ADD14RoundRect,0.250000X-0.625000X0.400000X-0.625000X-0.400000X0.625000X-0.400000X0.625000X0.400000X0*%
%TD*%
%TA.AperFunction,SMDPad,CuDef*%
%ADD15R,1.200000X1.200000*%
%TD*%
%TA.AperFunction,SMDPad,CuDef*%
%ADD16RoundRect,0.250000X-0.650000X0.412500X-0.650000X-0.412500X0.650000X-0.412500X0.650000X0.412500X0*%
%TD*%
%TA.AperFunction,ViaPad*%
%ADD17C,0.600000*%
%TD*%
%TA.AperFunction,Conductor*%
%ADD18C,1.500000*%
%TD*%
G04 APERTURE END LIST*
D10*
%TO.P,TP3,1,1*%
%TO.N,Net-(D1-K)*%
X145000000Y-87500000D03*
%TD*%
D11*
%TO.P,J2,1,In*%
%TO.N,RF_Out*%
X157000000Y-76080000D03*
D12*
%TO.P,J2,2,Ext*%
%TO.N,GND*%
X162080000Y-71000000D03*
D11*
X157000000Y-73540000D03*
D12*
X162080000Y-81160000D03*
%TD*%
D10*
%TO.P,TP4,1,1*%
%TO.N,GND*%
X140500000Y-87500000D03*
%TD*%
%TO.P,TP1,1,1*%
%TO.N,RF_In*%
X117500000Y-87500000D03*
%TD*%
%TO.P,TP2,1,1*%
%TO.N,GND*%
X122000000Y-87500000D03*
%TD*%
D11*
%TO.P,J1,1,In*%
%TO.N,RF_In*%
X111050000Y-76080000D03*
D12*
%TO.P,J1,2,Ext*%
%TO.N,GND*%
X105970000Y-81160000D03*
D11*
X111050000Y-78620000D03*
D12*
X105970000Y-71000000D03*
%TD*%
D13*
%TO.P,R13,1*%
%TO.N,RF_In*%
X124500000Y-74550000D03*
%TO.P,R13,2*%
%TO.N,GND*%
X124500000Y-71450000D03*
%TD*%
D14*
%TO.P,R19,1*%
%TO.N,RF_In*%
X120500000Y-77450000D03*
%TO.P,R19,2*%
%TO.N,GND*%
X120500000Y-80550000D03*
%TD*%
D13*
%TO.P,R14,1*%
%TO.N,RF_In*%
X120500000Y-74550000D03*
%TO.P,R14,2*%
%TO.N,GND*%
X120500000Y-71450000D03*
%TD*%
%TO.P,R11,1*%
%TO.N,RF_In*%
X132500000Y-74550000D03*
%TO.P,R11,2*%
%TO.N,GND*%
X132500000Y-71450000D03*
%TD*%
D14*
%TO.P,R26,1*%
%TO.N,Net-(D1-K)*%
X137500000Y-79950000D03*
%TO.P,R26,2*%
%TO.N,GND*%
X137500000Y-83050000D03*
%TD*%
D13*
%TO.P,R12,1*%
%TO.N,RF_In*%
X128500000Y-74550000D03*
%TO.P,R12,2*%
%TO.N,GND*%
X128500000Y-71450000D03*
%TD*%
D14*
%TO.P,R20,1*%
%TO.N,RF_In*%
X116500000Y-77450000D03*
%TO.P,R20,2*%
%TO.N,GND*%
X116500000Y-80550000D03*
%TD*%
D15*
%TO.P,D1,1,K*%
%TO.N,Net-(D1-K)*%
X140400000Y-76000000D03*
%TO.P,D1,2,A*%
%TO.N,RF_In*%
X137600000Y-76000000D03*
%TD*%
D14*
%TO.P,R17,1*%
%TO.N,RF_In*%
X128500000Y-77450000D03*
%TO.P,R17,2*%
%TO.N,GND*%
X128500000Y-80550000D03*
%TD*%
D16*
%TO.P,C1,1*%
%TO.N,Net-(D1-K)*%
X141000000Y-79937500D03*
%TO.P,C1,2*%
%TO.N,GND*%
X141000000Y-83062500D03*
%TD*%
D14*
%TO.P,R18,1*%
%TO.N,RF_In*%
X124500000Y-77450000D03*
%TO.P,R18,2*%
%TO.N,GND*%
X124500000Y-80550000D03*
%TD*%
%TO.P,R16,1*%
%TO.N,RF_In*%
X132500000Y-77450000D03*
%TO.P,R16,2*%
%TO.N,GND*%
X132500000Y-80550000D03*
%TD*%
D13*
%TO.P,R15,1*%
%TO.N,RF_In*%
X116500000Y-74550000D03*
%TO.P,R15,2*%
%TO.N,GND*%
X116500000Y-71450000D03*
%TD*%
D17*
%TO.N,GND*%
X138185000Y-87955000D03*
X120405000Y-90495000D03*
X107705000Y-62555000D03*
X133105000Y-82875000D03*
X110245000Y-85415000D03*
X135645000Y-60015000D03*
X163585000Y-60015000D03*
X133105000Y-62555000D03*
X150885000Y-85415000D03*
X140725000Y-60015000D03*
X122945000Y-82875000D03*
X112785000Y-62555000D03*
X100085000Y-87955000D03*
X115325000Y-93035000D03*
X107705000Y-77795000D03*
X105165000Y-93035000D03*
X153425000Y-93035000D03*
X128025000Y-87955000D03*
X161045000Y-60015000D03*
X148345000Y-65095000D03*
X122500000Y-80000000D03*
X120405000Y-62555000D03*
X110245000Y-90495000D03*
X120405000Y-85415000D03*
X153425000Y-67635000D03*
X143265000Y-62555000D03*
X138185000Y-93035000D03*
X135645000Y-90495000D03*
X115325000Y-62555000D03*
X112785000Y-70175000D03*
X105165000Y-60015000D03*
X166125000Y-82875000D03*
X128025000Y-62555000D03*
X117865000Y-65095000D03*
X130565000Y-60015000D03*
X163585000Y-75255000D03*
X166125000Y-60015000D03*
X107705000Y-93035000D03*
X118500000Y-80000000D03*
X112785000Y-65095000D03*
X161045000Y-65095000D03*
X122945000Y-90495000D03*
X148345000Y-82875000D03*
X161045000Y-62555000D03*
X163585000Y-77795000D03*
X110245000Y-67635000D03*
X143265000Y-72715000D03*
X107705000Y-75255000D03*
X135645000Y-62555000D03*
X133105000Y-90495000D03*
X150885000Y-62555000D03*
X100085000Y-65095000D03*
X100085000Y-72715000D03*
X122945000Y-93035000D03*
X117865000Y-62555000D03*
X107705000Y-67635000D03*
X107705000Y-65095000D03*
X125485000Y-82875000D03*
X163585000Y-67635000D03*
X130565000Y-62555000D03*
X112785000Y-72715000D03*
X161045000Y-93035000D03*
X155965000Y-60015000D03*
X125485000Y-62555000D03*
X128025000Y-85415000D03*
X114500000Y-72000000D03*
X112785000Y-67635000D03*
X100085000Y-93035000D03*
X138185000Y-90495000D03*
X145805000Y-65095000D03*
X148345000Y-62555000D03*
X122500000Y-72000000D03*
X155965000Y-65095000D03*
X140725000Y-90495000D03*
X155965000Y-62555000D03*
X161045000Y-75255000D03*
X117865000Y-82875000D03*
X150885000Y-60015000D03*
X117865000Y-60015000D03*
X150885000Y-82875000D03*
X128025000Y-67635000D03*
X150885000Y-67635000D03*
X125485000Y-90495000D03*
X145805000Y-60015000D03*
X148345000Y-87955000D03*
X100085000Y-82875000D03*
X100085000Y-80335000D03*
X135645000Y-65095000D03*
X161045000Y-85415000D03*
X130565000Y-82875000D03*
X100085000Y-90495000D03*
X120405000Y-93035000D03*
X102625000Y-60015000D03*
X107705000Y-85415000D03*
X145805000Y-72715000D03*
X135645000Y-67635000D03*
X135645000Y-70175000D03*
X166125000Y-93035000D03*
X158505000Y-62555000D03*
X161045000Y-77795000D03*
X143265000Y-90495000D03*
X155965000Y-80335000D03*
X153425000Y-65095000D03*
X122945000Y-62555000D03*
X140725000Y-67635000D03*
X140725000Y-65095000D03*
X135645000Y-87955000D03*
X105165000Y-67635000D03*
X145805000Y-77795000D03*
X102625000Y-93035000D03*
X150885000Y-87955000D03*
X135645000Y-82875000D03*
X140725000Y-72715000D03*
X120405000Y-65095000D03*
X155965000Y-93035000D03*
X112785000Y-87955000D03*
X115325000Y-60015000D03*
X153425000Y-87955000D03*
X110245000Y-62555000D03*
X148345000Y-67635000D03*
X105165000Y-75255000D03*
X125485000Y-85415000D03*
X100085000Y-70175000D03*
X138185000Y-85415000D03*
X125485000Y-87955000D03*
X130565000Y-70175000D03*
X130565000Y-67635000D03*
X153425000Y-60015000D03*
X135645000Y-93035000D03*
X166125000Y-67635000D03*
X166125000Y-72715000D03*
X145805000Y-70175000D03*
X148345000Y-90495000D03*
X130565000Y-85415000D03*
X117865000Y-67635000D03*
X105165000Y-85415000D03*
X110245000Y-93035000D03*
X163585000Y-85415000D03*
X107705000Y-90495000D03*
X110245000Y-72715000D03*
X166125000Y-85415000D03*
X125485000Y-93035000D03*
X118500000Y-72000000D03*
X158505000Y-87955000D03*
X153425000Y-62555000D03*
X115325000Y-90495000D03*
X143265000Y-70175000D03*
X128025000Y-82875000D03*
X128025000Y-90495000D03*
X100085000Y-67635000D03*
X126500000Y-80000000D03*
X155965000Y-67635000D03*
X135645000Y-85415000D03*
X138185000Y-60015000D03*
X145805000Y-62555000D03*
X112785000Y-60015000D03*
X130565000Y-93035000D03*
X150885000Y-90495000D03*
X133105000Y-85415000D03*
X148345000Y-85415000D03*
X133105000Y-65095000D03*
X158505000Y-85415000D03*
X166125000Y-75255000D03*
X163585000Y-93035000D03*
X148345000Y-93035000D03*
X166125000Y-77795000D03*
X102625000Y-67635000D03*
X153425000Y-85415000D03*
X145805000Y-67635000D03*
X128025000Y-93035000D03*
X158505000Y-60015000D03*
X110245000Y-82875000D03*
X112785000Y-90495000D03*
X145805000Y-93035000D03*
X143265000Y-67635000D03*
X110245000Y-65095000D03*
X115325000Y-67635000D03*
X120405000Y-67635000D03*
X120405000Y-82875000D03*
X122945000Y-65095000D03*
X126500000Y-72000000D03*
X125485000Y-65095000D03*
X117865000Y-93035000D03*
X158505000Y-67635000D03*
X100085000Y-75255000D03*
X110245000Y-60015000D03*
X153425000Y-82875000D03*
X161045000Y-87955000D03*
X130565000Y-65095000D03*
X107705000Y-60015000D03*
X161045000Y-67635000D03*
X143265000Y-60015000D03*
X130565000Y-90495000D03*
X138185000Y-62555000D03*
X155965000Y-85415000D03*
X138185000Y-67635000D03*
X138185000Y-70175000D03*
X110245000Y-87955000D03*
X102625000Y-85415000D03*
X143265000Y-85415000D03*
X130565000Y-80335000D03*
X140725000Y-93035000D03*
X125485000Y-67635000D03*
X145805000Y-80335000D03*
X135645000Y-80335000D03*
X128025000Y-65095000D03*
X148345000Y-70175000D03*
X112785000Y-93035000D03*
X122945000Y-67635000D03*
X102625000Y-75255000D03*
X150885000Y-65095000D03*
X138185000Y-65095000D03*
X143265000Y-77795000D03*
X133105000Y-93035000D03*
X145805000Y-90495000D03*
X133105000Y-60015000D03*
X158505000Y-93035000D03*
X140725000Y-70175000D03*
X158505000Y-90495000D03*
X107705000Y-87955000D03*
X100085000Y-85415000D03*
X150885000Y-93035000D03*
X102625000Y-77795000D03*
X122945000Y-60015000D03*
X100085000Y-60015000D03*
X155965000Y-70175000D03*
X117865000Y-90495000D03*
X140725000Y-62555000D03*
X115325000Y-65095000D03*
X155965000Y-82875000D03*
X125485000Y-60015000D03*
X105165000Y-77795000D03*
X133105000Y-87955000D03*
X158505000Y-65095000D03*
X133105000Y-67635000D03*
X128025000Y-60015000D03*
X100085000Y-77795000D03*
X153425000Y-90495000D03*
X148345000Y-80335000D03*
X120405000Y-60015000D03*
X148345000Y-60015000D03*
X143265000Y-93035000D03*
X100085000Y-62555000D03*
X143265000Y-65095000D03*
X130565000Y-87955000D03*
X155965000Y-90495000D03*
X155965000Y-87955000D03*
X161045000Y-90495000D03*
%TO.N,RF_In*%
X135500000Y-77500000D03*
X114500000Y-77000000D03*
X126500000Y-75000000D03*
X114500000Y-75000000D03*
X134000000Y-75000000D03*
X130500000Y-75000000D03*
X126500000Y-77000000D03*
X130500000Y-77000000D03*
X113000000Y-75500000D03*
X122500000Y-77000000D03*
X118500000Y-75000000D03*
X118500000Y-77000000D03*
X134000000Y-77000000D03*
X122500000Y-75000000D03*
X113000000Y-76500000D03*
%TD*%
D18*
%TO.N,Net-(D1-K)*%
X145000000Y-83500000D02*
X144000000Y-82500000D01*
X145000000Y-87500000D02*
X145000000Y-83500000D01*
X141000000Y-79937500D02*
X140400000Y-76000000D01*
X137500000Y-79950000D02*
X141000000Y-79937500D01*
X141000000Y-79937500D02*
X144000000Y-82500000D01*
%TD*%
%TA.AperFunction,Conductor*%
%TO.N,RF_In*%
G36*
X138443039Y-73519685D02*
G01*
X138488794Y-73572489D01*
X138500000Y-73624000D01*
X138500000Y-74799652D01*
X138480315Y-74866691D01*
X138427511Y-74912446D01*
X138358353Y-74922390D01*
X138332669Y-74915835D01*
X138307379Y-74906403D01*
X138307372Y-74906401D01*
X138247844Y-74900000D01*
X137850000Y-74900000D01*
X137850000Y-77100000D01*
X138247828Y-77100000D01*
X138247844Y-77099999D01*
X138307372Y-77093598D01*
X138307376Y-77093597D01*
X138332666Y-77084165D01*
X138402358Y-77079181D01*
X138463681Y-77112665D01*
X138497166Y-77173989D01*
X138500000Y-77200347D01*
X138500000Y-78376000D01*
X138480315Y-78443039D01*
X138427511Y-78488794D01*
X138376000Y-78500000D01*
X115034345Y-78500000D01*
X114970548Y-78482329D01*
X112500000Y-77000000D01*
X109624000Y-77000000D01*
X109556961Y-76980315D01*
X109511206Y-76927511D01*
X109500000Y-76876000D01*
X109500000Y-76647844D01*
X136500000Y-76647844D01*
X136506401Y-76707372D01*
X136506403Y-76707379D01*
X136556645Y-76842086D01*
X136556649Y-76842093D01*
X136642809Y-76957187D01*
X136642812Y-76957190D01*
X136757906Y-77043350D01*
X136757913Y-77043354D01*
X136892620Y-77093596D01*
X136892627Y-77093598D01*
X136952155Y-77099999D01*
X136952172Y-77100000D01*
X137350000Y-77100000D01*
X137350000Y-76250000D01*
X136500000Y-76250000D01*
X136500000Y-76647844D01*
X109500000Y-76647844D01*
X109500000Y-75352155D01*
X136500000Y-75352155D01*
X136500000Y-75750000D01*
X137350000Y-75750000D01*
X137350000Y-74900000D01*
X136952155Y-74900000D01*
X136892627Y-74906401D01*
X136892620Y-74906403D01*
X136757913Y-74956645D01*
X136757906Y-74956649D01*
X136642812Y-75042809D01*
X136642809Y-75042812D01*
X136556649Y-75157906D01*
X136556645Y-75157913D01*
X136506403Y-75292620D01*
X136506401Y-75292627D01*
X136500000Y-75352155D01*
X109500000Y-75352155D01*
X109500000Y-75094711D01*
X109519685Y-75027672D01*
X109572489Y-74981917D01*
X109591373Y-74975080D01*
X109658954Y-74956649D01*
X114983980Y-73504368D01*
X115016607Y-73500000D01*
X138376000Y-73500000D01*
X138443039Y-73519685D01*
G37*
%TD.AperFunction*%
%TD*%
%TA.AperFunction,Conductor*%
%TO.N,GND*%
G36*
X168942539Y-58020185D02*
G01*
X168988294Y-58072989D01*
X168999500Y-58124500D01*
X168999500Y-93875500D01*
X168979815Y-93942539D01*
X168927011Y-93988294D01*
X168875500Y-93999500D01*
X99124500Y-93999500D01*
X99057461Y-93979815D01*
X99011706Y-93927011D01*
X99000500Y-93875500D01*
X99000500Y-88878711D01*
X102149500Y-88878711D01*
X102149500Y-89121288D01*
X102181161Y-89361785D01*
X102243947Y-89596104D01*
X102336773Y-89820205D01*
X102336776Y-89820212D01*
X102458064Y-90030289D01*
X102458066Y-90030292D01*
X102458067Y-90030293D01*
X102605733Y-90222736D01*
X102605739Y-90222743D01*
X102777256Y-90394260D01*
X102777262Y-90394265D01*
X102969711Y-90541936D01*
X103179788Y-90663224D01*
X103403900Y-90756054D01*
X103638211Y-90818838D01*
X103818586Y-90842584D01*
X103878711Y-90850500D01*
X103878712Y-90850500D01*
X104121289Y-90850500D01*
X104169388Y-90844167D01*
X104361789Y-90818838D01*
X104596100Y-90756054D01*
X104820212Y-90663224D01*
X105030289Y-90541936D01*
X105222738Y-90394265D01*
X105394265Y-90222738D01*
X105541936Y-90030289D01*
X105663224Y-89820212D01*
X105756054Y-89596100D01*
X105818838Y-89361789D01*
X105850500Y-89121288D01*
X105850500Y-88878712D01*
X105818838Y-88638211D01*
X105756054Y-88403900D01*
X105663224Y-88179788D01*
X105541936Y-87969711D01*
X105394265Y-87777262D01*
X105394260Y-87777256D01*
X105222743Y-87605739D01*
X105222736Y-87605733D01*
X105036979Y-87463197D01*
X105030292Y-87458066D01*
X104875804Y-87368872D01*
X115499500Y-87368872D01*
X115499500Y-87631127D01*
X115526123Y-87833339D01*
X115533730Y-87891116D01*
X115585028Y-88082563D01*
X115601602Y-88144418D01*
X115601605Y-88144428D01*
X115701953Y-88386690D01*
X115701958Y-88386700D01*
X115833075Y-88613803D01*
X115992718Y-88821851D01*
X115992726Y-88821860D01*
X116178140Y-89007274D01*
X116178148Y-89007281D01*
X116386196Y-89166924D01*
X116613299Y-89298041D01*
X116613309Y-89298046D01*
X116855571Y-89398394D01*
X116855581Y-89398398D01*
X117108884Y-89466270D01*
X117357188Y-89498960D01*
X117365074Y-89499999D01*
X117368880Y-89500500D01*
X117368887Y-89500500D01*
X117631113Y-89500500D01*
X117631120Y-89500500D01*
X117891116Y-89466270D01*
X118144419Y-89398398D01*
X118386697Y-89298043D01*
X118613803Y-89166924D01*
X118821851Y-89007282D01*
X118821855Y-89007277D01*
X118821860Y-89007274D01*
X119007274Y-88821860D01*
X119007277Y-88821855D01*
X119007282Y-88821851D01*
X119166924Y-88613803D01*
X119298043Y-88386697D01*
X119398398Y-88144419D01*
X119466270Y-87891116D01*
X119500500Y-87631120D01*
X119500500Y-87368905D01*
X120000000Y-87368905D01*
X120000000Y-87631094D01*
X120034220Y-87891009D01*
X120034222Y-87891020D01*
X120102075Y-88144255D01*
X120202404Y-88386471D01*
X120202409Y-88386482D01*
X120333488Y-88613516D01*
X120333494Y-88613524D01*
X120420080Y-88726365D01*
X121322421Y-87824024D01*
X121335359Y-87855258D01*
X121417437Y-87978097D01*
X121521903Y-88082563D01*
X121644742Y-88164641D01*
X121675974Y-88177577D01*
X120773633Y-89079917D01*
X120773633Y-89079918D01*
X120886475Y-89166505D01*
X120886483Y-89166511D01*
X121113517Y-89297590D01*
X121113528Y-89297595D01*
X121355744Y-89397924D01*
X121608979Y-89465777D01*
X121608990Y-89465779D01*
X121868905Y-89499999D01*
X121868920Y-89500000D01*
X122131080Y-89500000D01*
X122131094Y-89499999D01*
X122391009Y-89465779D01*
X122391020Y-89465777D01*
X122644255Y-89397924D01*
X122886471Y-89297595D01*
X122886482Y-89297590D01*
X123113516Y-89166511D01*
X123113534Y-89166499D01*
X123226365Y-89079919D01*
X123226365Y-89079917D01*
X122324025Y-88177578D01*
X122355258Y-88164641D01*
X122478097Y-88082563D01*
X122582563Y-87978097D01*
X122664641Y-87855258D01*
X122677577Y-87824025D01*
X123579917Y-88726365D01*
X123579919Y-88726365D01*
X123666499Y-88613534D01*
X123666511Y-88613516D01*
X123797590Y-88386482D01*
X123797595Y-88386471D01*
X123897924Y-88144255D01*
X123965777Y-87891020D01*
X123965779Y-87891009D01*
X123999999Y-87631094D01*
X124000000Y-87631080D01*
X124000000Y-87368919D01*
X123999999Y-87368905D01*
X138500000Y-87368905D01*
X138500000Y-87631094D01*
X138534220Y-87891009D01*
X138534222Y-87891020D01*
X138602075Y-88144255D01*
X138702404Y-88386471D01*
X138702409Y-88386482D01*
X138833488Y-88613516D01*
X138833494Y-88613524D01*
X138920080Y-88726365D01*
X139822421Y-87824024D01*
X139835359Y-87855258D01*
X139917437Y-87978097D01*
X140021903Y-88082563D01*
X140144742Y-88164641D01*
X140175974Y-88177577D01*
X139273633Y-89079917D01*
X139273633Y-89079918D01*
X139386475Y-89166505D01*
X139386483Y-89166511D01*
X139613517Y-89297590D01*
X139613528Y-89297595D01*
X139855744Y-89397924D01*
X140108979Y-89465777D01*
X140108990Y-89465779D01*
X140368905Y-89499999D01*
X140368920Y-89500000D01*
X140631080Y-89500000D01*
X140631094Y-89499999D01*
X140891009Y-89465779D01*
X140891020Y-89465777D01*
X141144255Y-89397924D01*
X141386471Y-89297595D01*
X141386482Y-89297590D01*
X141613516Y-89166511D01*
X141613534Y-89166499D01*
X141726365Y-89079919D01*
X141726365Y-89079917D01*
X140824025Y-88177578D01*
X140855258Y-88164641D01*
X140978097Y-88082563D01*
X141082563Y-87978097D01*
X141164641Y-87855258D01*
X141177577Y-87824025D01*
X142079917Y-88726365D01*
X142079919Y-88726365D01*
X142166499Y-88613534D01*
X142166511Y-88613516D01*
X142297590Y-88386482D01*
X142297595Y-88386471D01*
X142397924Y-88144255D01*
X142465777Y-87891020D01*
X142465779Y-87891009D01*
X142499999Y-87631094D01*
X142500000Y-87631080D01*
X142500000Y-87368919D01*
X142499999Y-87368905D01*
X142465779Y-87108990D01*
X142465777Y-87108979D01*
X142397924Y-86855744D01*
X142297595Y-86613528D01*
X142297590Y-86613517D01*
X142166511Y-86386483D01*
X142166505Y-86386475D01*
X142079918Y-86273633D01*
X142079917Y-86273633D01*
X141177577Y-87175973D01*
X141164641Y-87144742D01*
X141082563Y-87021903D01*
X140978097Y-86917437D01*
X140855258Y-86835359D01*
X140824023Y-86822421D01*
X141726365Y-85920080D01*
X141613524Y-85833494D01*
X141613516Y-85833488D01*
X141386482Y-85702409D01*
X141386471Y-85702404D01*
X141144255Y-85602075D01*
X140891020Y-85534222D01*
X140891009Y-85534220D01*
X140631094Y-85500000D01*
X140368905Y-85500000D01*
X140108990Y-85534220D01*
X140108979Y-85534222D01*
X139855744Y-85602075D01*
X139613528Y-85702404D01*
X139613517Y-85702409D01*
X139386471Y-85833496D01*
X139273633Y-85920079D01*
X139273633Y-85920080D01*
X140175974Y-86822421D01*
X140144742Y-86835359D01*
X140021903Y-86917437D01*
X139917437Y-87021903D01*
X139835359Y-87144742D01*
X139822421Y-87175974D01*
X138920080Y-86273633D01*
X138920079Y-86273633D01*
X138833496Y-86386471D01*
X138702409Y-86613517D01*
X138702404Y-86613528D01*
X138602075Y-86855744D01*
X138534222Y-87108979D01*
X138534220Y-87108990D01*
X138500000Y-87368905D01*
X123999999Y-87368905D01*
X123965779Y-87108990D01*
X123965777Y-87108979D01*
X123897924Y-86855744D01*
X123797595Y-86613528D01*
X123797590Y-86613517D01*
X123666511Y-86386483D01*
X123666505Y-86386475D01*
X123579918Y-86273633D01*
X123579917Y-86273633D01*
X122677577Y-87175973D01*
X122664641Y-87144742D01*
X122582563Y-87021903D01*
X122478097Y-86917437D01*
X122355258Y-86835359D01*
X122324023Y-86822421D01*
X123226365Y-85920080D01*
X123113524Y-85833494D01*
X123113516Y-85833488D01*
X122886482Y-85702409D01*
X122886471Y-85702404D01*
X122644255Y-85602075D01*
X122391020Y-85534222D01*
X122391009Y-85534220D01*
X122131094Y-85500000D01*
X121868905Y-85500000D01*
X121608990Y-85534220D01*
X121608979Y-85534222D01*
X121355744Y-85602075D01*
X121113528Y-85702404D01*
X121113517Y-85702409D01*
X120886471Y-85833496D01*
X120773633Y-85920079D01*
X120773633Y-85920080D01*
X121675974Y-86822421D01*
X121644742Y-86835359D01*
X121521903Y-86917437D01*
X121417437Y-87021903D01*
X121335359Y-87144742D01*
X121322421Y-87175974D01*
X120420080Y-86273633D01*
X120420079Y-86273633D01*
X120333496Y-86386471D01*
X120202409Y-86613517D01*
X120202404Y-86613528D01*
X120102075Y-86855744D01*
X120034222Y-87108979D01*
X120034220Y-87108990D01*
X120000000Y-87368905D01*
X119500500Y-87368905D01*
X119500500Y-87368880D01*
X119466270Y-87108884D01*
X119398398Y-86855581D01*
X119390022Y-86835359D01*
X119298046Y-86613309D01*
X119298041Y-86613299D01*
X119166924Y-86386196D01*
X119007281Y-86178148D01*
X119007274Y-86178140D01*
X118821860Y-85992726D01*
X118821851Y-85992718D01*
X118613803Y-85833075D01*
X118386700Y-85701958D01*
X118386690Y-85701953D01*
X118144428Y-85601605D01*
X118144421Y-85601603D01*
X118144419Y-85601602D01*
X117891116Y-85533730D01*
X117833339Y-85526123D01*
X117631127Y-85499500D01*
X117631120Y-85499500D01*
X117368880Y-85499500D01*
X117368872Y-85499500D01*
X117137772Y-85529926D01*
X117108884Y-85533730D01*
X116855581Y-85601602D01*
X116855571Y-85601605D01*
X116613309Y-85701953D01*
X116613299Y-85701958D01*
X116386196Y-85833075D01*
X116178148Y-85992718D01*
X115992718Y-86178148D01*
X115833075Y-86386196D01*
X115701958Y-86613299D01*
X115701953Y-86613309D01*
X115601605Y-86855571D01*
X115601602Y-86855581D01*
X115533730Y-87108884D01*
X115533716Y-87108990D01*
X115499500Y-87368872D01*
X104875804Y-87368872D01*
X104820214Y-87336777D01*
X104820205Y-87336773D01*
X104596104Y-87243947D01*
X104361785Y-87181161D01*
X104121289Y-87149500D01*
X104121288Y-87149500D01*
X103878712Y-87149500D01*
X103878711Y-87149500D01*
X103638214Y-87181161D01*
X103403895Y-87243947D01*
X103179794Y-87336773D01*
X103179785Y-87336777D01*
X102969706Y-87458067D01*
X102777263Y-87605733D01*
X102777256Y-87605739D01*
X102605739Y-87777256D01*
X102605733Y-87777263D01*
X102458067Y-87969706D01*
X102336777Y-88179785D01*
X102336773Y-88179794D01*
X102243947Y-88403895D01*
X102181161Y-88638214D01*
X102149500Y-88878711D01*
X99000500Y-88878711D01*
X99000500Y-83499986D01*
X136125001Y-83499986D01*
X136135494Y-83602697D01*
X136190641Y-83769119D01*
X136190643Y-83769124D01*
X136282684Y-83918345D01*
X136406654Y-84042315D01*
X136555875Y-84134356D01*
X136555880Y-84134358D01*
X136722302Y-84189505D01*
X136722309Y-84189506D01*
X136825019Y-84199999D01*
X137249999Y-84199999D01*
X137750000Y-84199999D01*
X138174972Y-84199999D01*
X138174986Y-84199998D01*
X138277697Y-84189505D01*
X138444119Y-84134358D01*
X138444124Y-84134356D01*
X138593345Y-84042315D01*
X138717315Y-83918345D01*
X138809356Y-83769124D01*
X138809358Y-83769119D01*
X138864505Y-83602697D01*
X138864506Y-83602690D01*
X138872445Y-83524986D01*
X139600001Y-83524986D01*
X139610494Y-83627697D01*
X139665641Y-83794119D01*
X139665643Y-83794124D01*
X139757684Y-83943345D01*
X139881654Y-84067315D01*
X140030875Y-84159356D01*
X140030880Y-84159358D01*
X140197302Y-84214505D01*
X140197309Y-84214506D01*
X140300019Y-84224999D01*
X140749999Y-84224999D01*
X141250000Y-84224999D01*
X141699972Y-84224999D01*
X141699986Y-84224998D01*
X141802697Y-84214505D01*
X141969119Y-84159358D01*
X141969124Y-84159356D01*
X142118345Y-84067315D01*
X142242315Y-83943345D01*
X142334356Y-83794124D01*
X142334358Y-83794119D01*
X142389505Y-83627697D01*
X142389506Y-83627690D01*
X142399999Y-83524986D01*
X142400000Y-83524973D01*
X142400000Y-83312500D01*
X141250000Y-83312500D01*
X141250000Y-84224999D01*
X140749999Y-84224999D01*
X140750000Y-84224998D01*
X140750000Y-83312500D01*
X139600001Y-83312500D01*
X139600001Y-83524986D01*
X138872445Y-83524986D01*
X138874999Y-83499986D01*
X138875000Y-83499973D01*
X138875000Y-83300000D01*
X137750000Y-83300000D01*
X137750000Y-84199999D01*
X137249999Y-84199999D01*
X137250000Y-84199998D01*
X137250000Y-83300000D01*
X136125001Y-83300000D01*
X136125001Y-83499986D01*
X99000500Y-83499986D01*
X99000500Y-80910000D01*
X101983497Y-80910000D01*
X104995038Y-80910000D01*
X104965000Y-81061016D01*
X104965000Y-81258984D01*
X104995038Y-81410000D01*
X101983498Y-81410000D01*
X102008496Y-81599884D01*
X102008499Y-81599897D01*
X102084835Y-81884790D01*
X102084838Y-81884800D01*
X102197704Y-82157281D01*
X102197709Y-82157292D01*
X102345174Y-82412707D01*
X102345185Y-82412723D01*
X102524729Y-82646709D01*
X102524735Y-82646716D01*
X102733283Y-82855264D01*
X102733290Y-82855270D01*
X102967276Y-83034814D01*
X102967292Y-83034825D01*
X103222707Y-83182290D01*
X103222718Y-83182295D01*
X103495199Y-83295161D01*
X103495209Y-83295164D01*
X103780102Y-83371500D01*
X103780115Y-83371503D01*
X104072516Y-83409998D01*
X104072534Y-83410000D01*
X105720000Y-83410000D01*
X105720000Y-82134961D01*
X105871016Y-82165000D01*
X106068984Y-82165000D01*
X106220000Y-82134961D01*
X106220000Y-83410000D01*
X107867466Y-83410000D01*
X107867483Y-83409998D01*
X108159884Y-83371503D01*
X108159897Y-83371500D01*
X108444790Y-83295164D01*
X108444800Y-83295161D01*
X108717281Y-83182295D01*
X108717292Y-83182290D01*
X108788374Y-83141251D01*
X108972707Y-83034825D01*
X108972723Y-83034814D01*
X109206709Y-82855270D01*
X109206716Y-82855264D01*
X109415264Y-82646716D01*
X109415270Y-82646709D01*
X109451102Y-82600013D01*
X136125000Y-82600013D01*
X136125000Y-82800000D01*
X137250000Y-82800000D01*
X137750000Y-82800000D01*
X138874999Y-82800000D01*
X138874999Y-82600029D01*
X138874998Y-82600013D01*
X139600000Y-82600013D01*
X139600000Y-82812500D01*
X140750000Y-82812500D01*
X140750000Y-81900000D01*
X140300028Y-81900000D01*
X140300012Y-81900001D01*
X140197302Y-81910494D01*
X140030880Y-81965641D01*
X140030875Y-81965643D01*
X139881654Y-82057684D01*
X139757684Y-82181654D01*
X139665643Y-82330875D01*
X139665641Y-82330880D01*
X139610494Y-82497302D01*
X139610493Y-82497309D01*
X139600000Y-82600013D01*
X138874998Y-82600013D01*
X138874998Y-82600012D01*
X138864505Y-82497302D01*
X138809358Y-82330880D01*
X138809356Y-82330875D01*
X138717315Y-82181654D01*
X138593345Y-82057684D01*
X138444124Y-81965643D01*
X138444119Y-81965641D01*
X138277697Y-81910494D01*
X138277690Y-81910493D01*
X138174986Y-81900000D01*
X137750000Y-81900000D01*
X137750000Y-82800000D01*
X137250000Y-82800000D01*
X137250000Y-81900000D01*
X136825028Y-81900000D01*
X136825012Y-81900001D01*
X136722302Y-81910494D01*
X136555880Y-81965641D01*
X136555875Y-81965643D01*
X136406654Y-82057684D01*
X136282684Y-82181654D01*
X136190643Y-82330875D01*
X136190641Y-82330880D01*
X136135494Y-82497302D01*
X136135493Y-82497309D01*
X136125000Y-82600013D01*
X109451102Y-82600013D01*
X109511441Y-82521378D01*
X109511441Y-82521377D01*
X109594819Y-82412715D01*
X109594825Y-82412707D01*
X109742290Y-82157292D01*
X109742295Y-82157281D01*
X109855161Y-81884800D01*
X109855164Y-81884790D01*
X109931500Y-81599897D01*
X109931503Y-81599884D01*
X109956502Y-81410000D01*
X106944962Y-81410000D01*
X106975000Y-81258984D01*
X106975000Y-81061016D01*
X106944962Y-80910000D01*
X109956502Y-80910000D01*
X109931503Y-80720115D01*
X109931500Y-80720102D01*
X109855164Y-80435209D01*
X109855161Y-80435199D01*
X109742295Y-80162718D01*
X109742290Y-80162707D01*
X109594825Y-79907292D01*
X109594814Y-79907276D01*
X109415270Y-79673290D01*
X109415264Y-79673283D01*
X109206716Y-79464735D01*
X109206709Y-79464729D01*
X108972723Y-79285185D01*
X108972707Y-79285174D01*
X108717292Y-79137709D01*
X108717281Y-79137704D01*
X108444800Y-79024838D01*
X108444790Y-79024835D01*
X108175620Y-78952712D01*
X108159897Y-78948499D01*
X108159884Y-78948496D01*
X107867483Y-78910001D01*
X107867466Y-78910000D01*
X106220000Y-78910000D01*
X106220000Y-80185038D01*
X106068984Y-80155000D01*
X105871016Y-80155000D01*
X105720000Y-80185038D01*
X105720000Y-78910000D01*
X104072534Y-78910000D01*
X104072516Y-78910001D01*
X103780115Y-78948496D01*
X103780102Y-78948499D01*
X103495209Y-79024835D01*
X103495199Y-79024838D01*
X103222718Y-79137704D01*
X103222707Y-79137709D01*
X102967292Y-79285174D01*
X102967276Y-79285185D01*
X102733290Y-79464729D01*
X102733283Y-79464735D01*
X102524735Y-79673283D01*
X102524729Y-79673290D01*
X102345185Y-79907276D01*
X102345174Y-79907292D01*
X102197709Y-80162707D01*
X102197704Y-80162718D01*
X102084838Y-80435199D01*
X102084835Y-80435209D01*
X102008499Y-80720102D01*
X102008496Y-80720115D01*
X101983497Y-80910000D01*
X99000500Y-80910000D01*
X99000500Y-75094711D01*
X108994500Y-75094711D01*
X108994500Y-76876000D01*
X108994501Y-76876009D01*
X109006052Y-76983450D01*
X109006054Y-76983462D01*
X109017260Y-77034972D01*
X109051383Y-77137497D01*
X109051386Y-77137503D01*
X109129171Y-77258537D01*
X109129179Y-77258548D01*
X109174923Y-77311340D01*
X109174926Y-77311343D01*
X109174930Y-77311347D01*
X109283664Y-77405567D01*
X109414541Y-77465338D01*
X109481580Y-77485023D01*
X109481584Y-77485024D01*
X109599145Y-77501926D01*
X109662698Y-77530949D01*
X109700473Y-77589727D01*
X109700474Y-77659597D01*
X109669178Y-77712344D01*
X109608414Y-77773107D01*
X109488140Y-77938650D01*
X109395244Y-78120970D01*
X109332009Y-78315586D01*
X109323391Y-78370000D01*
X110680496Y-78370000D01*
X110635326Y-78448236D01*
X110605000Y-78561415D01*
X110605000Y-78678585D01*
X110635326Y-78791764D01*
X110680496Y-78870000D01*
X109323391Y-78870000D01*
X109332009Y-78924413D01*
X109395244Y-79119029D01*
X109488140Y-79301349D01*
X109608417Y-79466894D01*
X109608417Y-79466895D01*
X109753104Y-79611582D01*
X109918650Y-79731859D01*
X110100968Y-79824755D01*
X110295582Y-79887990D01*
X110497683Y-79920000D01*
X110800000Y-79920000D01*
X110800000Y-78989504D01*
X110878236Y-79034674D01*
X110991415Y-79065000D01*
X111108585Y-79065000D01*
X111221764Y-79034674D01*
X111300000Y-78989504D01*
X111300000Y-79920000D01*
X111602317Y-79920000D01*
X111804417Y-79887990D01*
X111999031Y-79824755D01*
X112181349Y-79731859D01*
X112346894Y-79611582D01*
X112346895Y-79611582D01*
X112491582Y-79466895D01*
X112491582Y-79466894D01*
X112611859Y-79301349D01*
X112704755Y-79119029D01*
X112767990Y-78924413D01*
X112776609Y-78870000D01*
X111419504Y-78870000D01*
X111464674Y-78791764D01*
X111495000Y-78678585D01*
X111495000Y-78561415D01*
X111464674Y-78448236D01*
X111419504Y-78370000D01*
X112776609Y-78370000D01*
X112767990Y-78315586D01*
X112704755Y-78120970D01*
X112611858Y-77938647D01*
X112606267Y-77930952D01*
X112582788Y-77865145D01*
X112598614Y-77797092D01*
X112648721Y-77748398D01*
X112717199Y-77734523D01*
X112770380Y-77751737D01*
X114340445Y-78693777D01*
X114700816Y-78910000D01*
X114710470Y-78915792D01*
X114835611Y-78969486D01*
X114899408Y-78987157D01*
X114899412Y-78987157D01*
X114899414Y-78987158D01*
X114923142Y-78990383D01*
X115034345Y-79005500D01*
X136106895Y-79005500D01*
X136173934Y-79025185D01*
X136219689Y-79077989D01*
X136229633Y-79147147D01*
X136212434Y-79194594D01*
X136205608Y-79205663D01*
X136190187Y-79230663D01*
X136190186Y-79230666D01*
X136135001Y-79397203D01*
X136135001Y-79397204D01*
X136135000Y-79397204D01*
X136124500Y-79499983D01*
X136124500Y-80400001D01*
X136124501Y-80400019D01*
X136135000Y-80502796D01*
X136135001Y-80502799D01*
X136190185Y-80669331D01*
X136190187Y-80669336D01*
X136221500Y-80720102D01*
X136282288Y-80818656D01*
X136406344Y-80942712D01*
X136555666Y-81034814D01*
X136722203Y-81089999D01*
X136824991Y-81100500D01*
X136975068Y-81100499D01*
X137019433Y-81109240D01*
X137019478Y-81109102D01*
X137020667Y-81109483D01*
X137022110Y-81109768D01*
X137024112Y-81110588D01*
X137024117Y-81110591D01*
X137211532Y-81170747D01*
X137406050Y-81200844D01*
X137406058Y-81200843D01*
X137406059Y-81200844D01*
X137710498Y-81199756D01*
X140494561Y-81189813D01*
X140561669Y-81209258D01*
X140575538Y-81219525D01*
X141206536Y-81758503D01*
X141244726Y-81817010D01*
X141250000Y-81852788D01*
X141250000Y-82812500D01*
X142394736Y-82812500D01*
X142461775Y-82832185D01*
X142475269Y-82842212D01*
X142902541Y-83207173D01*
X143146779Y-83415793D01*
X143153924Y-83422398D01*
X143713181Y-83981655D01*
X143746666Y-84042978D01*
X143749500Y-84069336D01*
X143749500Y-85876818D01*
X143729815Y-85943857D01*
X143700989Y-85975192D01*
X143678144Y-85992722D01*
X143492718Y-86178148D01*
X143333075Y-86386196D01*
X143201958Y-86613299D01*
X143201953Y-86613309D01*
X143101605Y-86855571D01*
X143101602Y-86855581D01*
X143033730Y-87108884D01*
X143033716Y-87108990D01*
X142999500Y-87368872D01*
X142999500Y-87631127D01*
X143026123Y-87833339D01*
X143033730Y-87891116D01*
X143085028Y-88082563D01*
X143101602Y-88144418D01*
X143101605Y-88144428D01*
X143201953Y-88386690D01*
X143201958Y-88386700D01*
X143333075Y-88613803D01*
X143492718Y-88821851D01*
X143492726Y-88821860D01*
X143678140Y-89007274D01*
X143678148Y-89007281D01*
X143886196Y-89166924D01*
X144113299Y-89298041D01*
X144113309Y-89298046D01*
X144355571Y-89398394D01*
X144355581Y-89398398D01*
X144608884Y-89466270D01*
X144857188Y-89498960D01*
X144865074Y-89499999D01*
X144868880Y-89500500D01*
X144868887Y-89500500D01*
X145131113Y-89500500D01*
X145131120Y-89500500D01*
X145391116Y-89466270D01*
X145644419Y-89398398D01*
X145886697Y-89298043D01*
X146113803Y-89166924D01*
X146321851Y-89007282D01*
X146321855Y-89007277D01*
X146321860Y-89007274D01*
X146450423Y-88878711D01*
X162149500Y-88878711D01*
X162149500Y-89121288D01*
X162181161Y-89361785D01*
X162243947Y-89596104D01*
X162336773Y-89820205D01*
X162336776Y-89820212D01*
X162458064Y-90030289D01*
X162458066Y-90030292D01*
X162458067Y-90030293D01*
X162605733Y-90222736D01*
X162605739Y-90222743D01*
X162777256Y-90394260D01*
X162777262Y-90394265D01*
X162969711Y-90541936D01*
X163179788Y-90663224D01*
X163403900Y-90756054D01*
X163638211Y-90818838D01*
X163818586Y-90842584D01*
X163878711Y-90850500D01*
X163878712Y-90850500D01*
X164121289Y-90850500D01*
X164169388Y-90844167D01*
X164361789Y-90818838D01*
X164596100Y-90756054D01*
X164820212Y-90663224D01*
X165030289Y-90541936D01*
X165222738Y-90394265D01*
X165394265Y-90222738D01*
X165541936Y-90030289D01*
X165663224Y-89820212D01*
X165756054Y-89596100D01*
X165818838Y-89361789D01*
X165850500Y-89121288D01*
X165850500Y-88878712D01*
X165818838Y-88638211D01*
X165756054Y-88403900D01*
X165663224Y-88179788D01*
X165541936Y-87969711D01*
X165394265Y-87777262D01*
X165394260Y-87777256D01*
X165222743Y-87605739D01*
X165222736Y-87605733D01*
X165030293Y-87458067D01*
X165030292Y-87458066D01*
X165030289Y-87458064D01*
X164820212Y-87336776D01*
X164820205Y-87336773D01*
X164596104Y-87243947D01*
X164361785Y-87181161D01*
X164121289Y-87149500D01*
X164121288Y-87149500D01*
X163878712Y-87149500D01*
X163878711Y-87149500D01*
X163638214Y-87181161D01*
X163403895Y-87243947D01*
X163179794Y-87336773D01*
X163179785Y-87336777D01*
X162969706Y-87458067D01*
X162777263Y-87605733D01*
X162777256Y-87605739D01*
X162605739Y-87777256D01*
X162605733Y-87777263D01*
X162458067Y-87969706D01*
X162336777Y-88179785D01*
X162336773Y-88179794D01*
X162243947Y-88403895D01*
X162181161Y-88638214D01*
X162149500Y-88878711D01*
X146450423Y-88878711D01*
X146507274Y-88821860D01*
X146507277Y-88821855D01*
X146507282Y-88821851D01*
X146666924Y-88613803D01*
X146798043Y-88386697D01*
X146898398Y-88144419D01*
X146966270Y-87891116D01*
X147000500Y-87631120D01*
X147000500Y-87368880D01*
X146966270Y-87108884D01*
X146898398Y-86855581D01*
X146890022Y-86835359D01*
X146798046Y-86613309D01*
X146798041Y-86613299D01*
X146666924Y-86386196D01*
X146507281Y-86178148D01*
X146507274Y-86178140D01*
X146321860Y-85992726D01*
X146321855Y-85992722D01*
X146321851Y-85992718D01*
X146299011Y-85975192D01*
X146257810Y-85918763D01*
X146250500Y-85876818D01*
X146250500Y-83401577D01*
X146219709Y-83207173D01*
X146163709Y-83034825D01*
X146158884Y-83019975D01*
X146158882Y-83019972D01*
X146158882Y-83019970D01*
X146069523Y-82844594D01*
X146067794Y-82842214D01*
X145953829Y-82685355D01*
X144919004Y-81650530D01*
X144887016Y-81613073D01*
X144849514Y-81581040D01*
X144814646Y-81546172D01*
X144814644Y-81546170D01*
X144814642Y-81546169D01*
X144778744Y-81520088D01*
X144771092Y-81514055D01*
X144713390Y-81464768D01*
X144699786Y-81453148D01*
X144063906Y-80910000D01*
X158093497Y-80910000D01*
X161105038Y-80910000D01*
X161075000Y-81061016D01*
X161075000Y-81258984D01*
X161105038Y-81410000D01*
X158093498Y-81410000D01*
X158118496Y-81599884D01*
X158118499Y-81599897D01*
X158194835Y-81884790D01*
X158194838Y-81884800D01*
X158307704Y-82157281D01*
X158307709Y-82157292D01*
X158455174Y-82412707D01*
X158455185Y-82412723D01*
X158634729Y-82646709D01*
X158634735Y-82646716D01*
X158843283Y-82855264D01*
X158843290Y-82855270D01*
X159077276Y-83034814D01*
X159077292Y-83034825D01*
X159332707Y-83182290D01*
X159332718Y-83182295D01*
X159605199Y-83295161D01*
X159605209Y-83295164D01*
X159890102Y-83371500D01*
X159890115Y-83371503D01*
X160182516Y-83409998D01*
X160182534Y-83410000D01*
X161830000Y-83410000D01*
X161830000Y-82134961D01*
X161981016Y-82165000D01*
X162178984Y-82165000D01*
X162330000Y-82134961D01*
X162330000Y-83410000D01*
X163977466Y-83410000D01*
X163977483Y-83409998D01*
X164269884Y-83371503D01*
X164269897Y-83371500D01*
X164554790Y-83295164D01*
X164554800Y-83295161D01*
X164827281Y-83182295D01*
X164827292Y-83182290D01*
X165082707Y-83034825D01*
X165082723Y-83034814D01*
X165316709Y-82855270D01*
X165316716Y-82855264D01*
X165525264Y-82646716D01*
X165525270Y-82646709D01*
X165704814Y-82412723D01*
X165704825Y-82412707D01*
X165852290Y-82157292D01*
X165852295Y-82157281D01*
X165965161Y-81884800D01*
X165965164Y-81884790D01*
X166041500Y-81599897D01*
X166041503Y-81599884D01*
X166066502Y-81410000D01*
X163054962Y-81410000D01*
X163085000Y-81258984D01*
X163085000Y-81061016D01*
X163054962Y-80910000D01*
X166066502Y-80910000D01*
X166041503Y-80720115D01*
X166041500Y-80720102D01*
X165965164Y-80435209D01*
X165965161Y-80435199D01*
X165852295Y-80162718D01*
X165852290Y-80162707D01*
X165704825Y-79907292D01*
X165704814Y-79907276D01*
X165525270Y-79673290D01*
X165525264Y-79673283D01*
X165316716Y-79464735D01*
X165316709Y-79464729D01*
X165082723Y-79285185D01*
X165082707Y-79285174D01*
X164827292Y-79137709D01*
X164827281Y-79137704D01*
X164554800Y-79024838D01*
X164554790Y-79024835D01*
X164269897Y-78948499D01*
X164269884Y-78948496D01*
X163977483Y-78910001D01*
X163977466Y-78910000D01*
X162330000Y-78910000D01*
X162330000Y-80185038D01*
X162178984Y-80155000D01*
X161981016Y-80155000D01*
X161830000Y-80185038D01*
X161830000Y-78910000D01*
X160182534Y-78910000D01*
X160182516Y-78910001D01*
X159890115Y-78948496D01*
X159890102Y-78948499D01*
X159605209Y-79024835D01*
X159605199Y-79024838D01*
X159332718Y-79137704D01*
X159332707Y-79137709D01*
X159077292Y-79285174D01*
X159077276Y-79285185D01*
X158843290Y-79464729D01*
X158843283Y-79464735D01*
X158634735Y-79673283D01*
X158634729Y-79673290D01*
X158455185Y-79907276D01*
X158455174Y-79907292D01*
X158307709Y-80162707D01*
X158307704Y-80162718D01*
X158194838Y-80435199D01*
X158194835Y-80435209D01*
X158118499Y-80720102D01*
X158118496Y-80720115D01*
X158093497Y-80910000D01*
X144063906Y-80910000D01*
X142439859Y-79522793D01*
X142401669Y-79464285D01*
X142397038Y-79441113D01*
X142389999Y-79372203D01*
X142334814Y-79205666D01*
X142242712Y-79056344D01*
X142139293Y-78952925D01*
X142105808Y-78891602D01*
X142104392Y-78883945D01*
X141661529Y-75977648D01*
X155249500Y-75977648D01*
X155249500Y-76182351D01*
X155281522Y-76384534D01*
X155344781Y-76579223D01*
X155437715Y-76761613D01*
X155558028Y-76927213D01*
X155702786Y-77071971D01*
X155805088Y-77146296D01*
X155868390Y-77192287D01*
X155984607Y-77251503D01*
X156050776Y-77285218D01*
X156050778Y-77285218D01*
X156050781Y-77285220D01*
X156131170Y-77311340D01*
X156245465Y-77348477D01*
X156346557Y-77364488D01*
X156447648Y-77380500D01*
X156447649Y-77380500D01*
X157552351Y-77380500D01*
X157552352Y-77380500D01*
X157754534Y-77348477D01*
X157949219Y-77285220D01*
X158131610Y-77192287D01*
X158231188Y-77119940D01*
X158297213Y-77071971D01*
X158297215Y-77071968D01*
X158297219Y-77071966D01*
X158441966Y-76927219D01*
X158441968Y-76927215D01*
X158441971Y-76927213D01*
X158494732Y-76854590D01*
X158562287Y-76761610D01*
X158655220Y-76579219D01*
X158718477Y-76384534D01*
X158750500Y-76182352D01*
X158750500Y-75977648D01*
X158718477Y-75775466D01*
X158655220Y-75580781D01*
X158655218Y-75580778D01*
X158655218Y-75580776D01*
X158620779Y-75513187D01*
X158562287Y-75398390D01*
X158545709Y-75375572D01*
X158441971Y-75232786D01*
X158297213Y-75088028D01*
X158131611Y-74967713D01*
X158038369Y-74920203D01*
X157987574Y-74872229D01*
X157970779Y-74804407D01*
X157993317Y-74738273D01*
X158038371Y-74699234D01*
X158131347Y-74651861D01*
X158296894Y-74531582D01*
X158296895Y-74531582D01*
X158441582Y-74386895D01*
X158441582Y-74386894D01*
X158561859Y-74221349D01*
X158654755Y-74039029D01*
X158717990Y-73844413D01*
X158726609Y-73790000D01*
X157369504Y-73790000D01*
X157414674Y-73711764D01*
X157445000Y-73598585D01*
X157445000Y-73481415D01*
X157414674Y-73368236D01*
X157369504Y-73290000D01*
X158726609Y-73290000D01*
X158717990Y-73235586D01*
X158654755Y-73040970D01*
X158561859Y-72858650D01*
X158441582Y-72693105D01*
X158441582Y-72693104D01*
X158296895Y-72548417D01*
X158131349Y-72428140D01*
X157949031Y-72335244D01*
X157754417Y-72272009D01*
X157552317Y-72240000D01*
X157250000Y-72240000D01*
X157250000Y-73170495D01*
X157171764Y-73125326D01*
X157058585Y-73095000D01*
X156941415Y-73095000D01*
X156828236Y-73125326D01*
X156750000Y-73170495D01*
X156750000Y-72240000D01*
X156447683Y-72240000D01*
X156245582Y-72272009D01*
X156050968Y-72335244D01*
X155868650Y-72428140D01*
X155703105Y-72548417D01*
X155703104Y-72548417D01*
X155558417Y-72693104D01*
X155558417Y-72693105D01*
X155438140Y-72858650D01*
X155345244Y-73040970D01*
X155282009Y-73235586D01*
X155273391Y-73290000D01*
X156630496Y-73290000D01*
X156585326Y-73368236D01*
X156555000Y-73481415D01*
X156555000Y-73598585D01*
X156585326Y-73711764D01*
X156630496Y-73790000D01*
X155273391Y-73790000D01*
X155282009Y-73844413D01*
X155345244Y-74039029D01*
X155438140Y-74221349D01*
X155558417Y-74386894D01*
X155558417Y-74386895D01*
X155703104Y-74531582D01*
X155868652Y-74651861D01*
X155961628Y-74699234D01*
X156012425Y-74747208D01*
X156029220Y-74815029D01*
X156006683Y-74881164D01*
X155961630Y-74920203D01*
X155868388Y-74967713D01*
X155702786Y-75088028D01*
X155558028Y-75232786D01*
X155437715Y-75398386D01*
X155344781Y-75580776D01*
X155281522Y-75775465D01*
X155249500Y-75977648D01*
X141661529Y-75977648D01*
X141621404Y-75714328D01*
X141561678Y-75526776D01*
X141513686Y-75431205D01*
X141500499Y-75375559D01*
X141500499Y-75352129D01*
X141500498Y-75352123D01*
X141500497Y-75352116D01*
X141494091Y-75292517D01*
X141443796Y-75157669D01*
X141443795Y-75157668D01*
X141443793Y-75157664D01*
X141357547Y-75042455D01*
X141357544Y-75042452D01*
X141242335Y-74956206D01*
X141242328Y-74956202D01*
X141107482Y-74905908D01*
X141107483Y-74905908D01*
X141047883Y-74899501D01*
X141047881Y-74899500D01*
X141047873Y-74899500D01*
X141047865Y-74899500D01*
X141024425Y-74899500D01*
X140967483Y-74885652D01*
X140946451Y-74874780D01*
X140886812Y-74843949D01*
X140753146Y-74799652D01*
X140699970Y-74782029D01*
X140699966Y-74782028D01*
X140699965Y-74782028D01*
X140505751Y-74750098D01*
X140387647Y-74749405D01*
X140308916Y-74748944D01*
X140308915Y-74748944D01*
X140308912Y-74748944D01*
X140114328Y-74778595D01*
X139985189Y-74819720D01*
X139926776Y-74838322D01*
X139926773Y-74838323D01*
X139926768Y-74838325D01*
X139831205Y-74886313D01*
X139775564Y-74899500D01*
X139752132Y-74899500D01*
X139752122Y-74899501D01*
X139692516Y-74905908D01*
X139557671Y-74956202D01*
X139557664Y-74956206D01*
X139442455Y-75042452D01*
X139442452Y-75042455D01*
X139356206Y-75157664D01*
X139356202Y-75157671D01*
X139305908Y-75292517D01*
X139301546Y-75333094D01*
X139299501Y-75352123D01*
X139299500Y-75352135D01*
X139299500Y-75375572D01*
X139285653Y-75432513D01*
X139243950Y-75513187D01*
X139182028Y-75700034D01*
X139150098Y-75894247D01*
X139150098Y-75894249D01*
X139148944Y-76091087D01*
X139523638Y-78550020D01*
X139514277Y-78619260D01*
X139468968Y-78672447D01*
X139402097Y-78692696D01*
X139401496Y-78692699D01*
X139099620Y-78693777D01*
X139032510Y-78674332D01*
X138986567Y-78621692D01*
X138976377Y-78552569D01*
X138980199Y-78534847D01*
X138985023Y-78518420D01*
X138985024Y-78518416D01*
X139005500Y-78376000D01*
X139005500Y-77200347D01*
X139002603Y-77146307D01*
X138999769Y-77119949D01*
X138991114Y-77066540D01*
X138940834Y-76931731D01*
X138907349Y-76870407D01*
X138907345Y-76870400D01*
X138907344Y-76870398D01*
X138907342Y-76870395D01*
X138821119Y-76755219D01*
X138750189Y-76702123D01*
X138708318Y-76646189D01*
X138700499Y-76602860D01*
X138700499Y-75399487D01*
X138720184Y-75332449D01*
X138755216Y-75297418D01*
X138755000Y-75297129D01*
X138757012Y-75295622D01*
X138757465Y-75295169D01*
X138758543Y-75294477D01*
X138811347Y-75248722D01*
X138905567Y-75139988D01*
X138965338Y-75009111D01*
X138985023Y-74942072D01*
X138985024Y-74942068D01*
X139005500Y-74799652D01*
X139005500Y-73624000D01*
X138993947Y-73516544D01*
X138982741Y-73465033D01*
X138982624Y-73464684D01*
X138949857Y-73366231D01*
X138949853Y-73366221D01*
X138948613Y-73362497D01*
X138948613Y-73362496D01*
X138870828Y-73241462D01*
X138870825Y-73241457D01*
X138844870Y-73211503D01*
X138825076Y-73188659D01*
X138825072Y-73188656D01*
X138825070Y-73188653D01*
X138716336Y-73094433D01*
X138716333Y-73094431D01*
X138716331Y-73094430D01*
X138585465Y-73034664D01*
X138585460Y-73034662D01*
X138585459Y-73034662D01*
X138524220Y-73016680D01*
X138518417Y-73014976D01*
X138470944Y-73008150D01*
X138376000Y-72994500D01*
X115016607Y-72994500D01*
X115016602Y-72994500D01*
X115016577Y-72994501D01*
X114949540Y-72998969D01*
X114949534Y-72998969D01*
X114949531Y-72998970D01*
X114944545Y-72999637D01*
X114916903Y-73003337D01*
X114916891Y-73003340D01*
X114850983Y-73016677D01*
X109458367Y-74487392D01*
X109419289Y-74499772D01*
X109411121Y-74502729D01*
X109400403Y-74506610D01*
X109362496Y-74522098D01*
X109362493Y-74522099D01*
X109362490Y-74522101D01*
X109241462Y-74599881D01*
X109241451Y-74599890D01*
X109188659Y-74645634D01*
X109094433Y-74754375D01*
X109094430Y-74754379D01*
X109034664Y-74885245D01*
X109014976Y-74952293D01*
X109012759Y-74967713D01*
X108994500Y-75094711D01*
X99000500Y-75094711D01*
X99000500Y-70750000D01*
X101983497Y-70750000D01*
X104995038Y-70750000D01*
X104965000Y-70901016D01*
X104965000Y-71098984D01*
X104995038Y-71250000D01*
X101983498Y-71250000D01*
X102008496Y-71439884D01*
X102008499Y-71439897D01*
X102084835Y-71724790D01*
X102084838Y-71724800D01*
X102197704Y-71997281D01*
X102197709Y-71997292D01*
X102345174Y-72252707D01*
X102345185Y-72252723D01*
X102524729Y-72486709D01*
X102524735Y-72486716D01*
X102733283Y-72695264D01*
X102733290Y-72695270D01*
X102967276Y-72874814D01*
X102967292Y-72874825D01*
X103222707Y-73022290D01*
X103222718Y-73022295D01*
X103495199Y-73135161D01*
X103495209Y-73135164D01*
X103780102Y-73211500D01*
X103780115Y-73211503D01*
X104072516Y-73249998D01*
X104072534Y-73250000D01*
X105720000Y-73250000D01*
X105720000Y-71974961D01*
X105871016Y-72005000D01*
X106068984Y-72005000D01*
X106220000Y-71974961D01*
X106220000Y-73250000D01*
X107867466Y-73250000D01*
X107867483Y-73249998D01*
X108159884Y-73211503D01*
X108159897Y-73211500D01*
X108444790Y-73135164D01*
X108444800Y-73135161D01*
X108717281Y-73022295D01*
X108717292Y-73022290D01*
X108972707Y-72874825D01*
X108972723Y-72874814D01*
X109206709Y-72695270D01*
X109206716Y-72695264D01*
X109415264Y-72486716D01*
X109415270Y-72486709D01*
X109594814Y-72252723D01*
X109594825Y-72252707D01*
X109742290Y-71997292D01*
X109742295Y-71997281D01*
X109855161Y-71724800D01*
X109855164Y-71724790D01*
X109931500Y-71439897D01*
X109931503Y-71439884D01*
X109956502Y-71250000D01*
X106944962Y-71250000D01*
X106975000Y-71098984D01*
X106975000Y-70901016D01*
X106944962Y-70750000D01*
X109956502Y-70750000D01*
X158093497Y-70750000D01*
X161105038Y-70750000D01*
X161075000Y-70901016D01*
X161075000Y-71098984D01*
X161105038Y-71250000D01*
X158093498Y-71250000D01*
X158118496Y-71439884D01*
X158118499Y-71439897D01*
X158194835Y-71724790D01*
X158194838Y-71724800D01*
X158307704Y-71997281D01*
X158307709Y-71997292D01*
X158455174Y-72252707D01*
X158455185Y-72252723D01*
X158634729Y-72486709D01*
X158634735Y-72486716D01*
X158843283Y-72695264D01*
X158843290Y-72695270D01*
X159077276Y-72874814D01*
X159077292Y-72874825D01*
X159332707Y-73022290D01*
X159332718Y-73022295D01*
X159605199Y-73135161D01*
X159605209Y-73135164D01*
X159890102Y-73211500D01*
X159890115Y-73211503D01*
X160182516Y-73249998D01*
X160182534Y-73250000D01*
X161830000Y-73250000D01*
X161830000Y-71974961D01*
X161981016Y-72005000D01*
X162178984Y-72005000D01*
X162330000Y-71974961D01*
X162330000Y-73250000D01*
X163977466Y-73250000D01*
X163977483Y-73249998D01*
X164269884Y-73211503D01*
X164269897Y-73211500D01*
X164554790Y-73135164D01*
X164554800Y-73135161D01*
X164827281Y-73022295D01*
X164827292Y-73022290D01*
X165082707Y-72874825D01*
X165082723Y-72874814D01*
X165316709Y-72695270D01*
X165316716Y-72695264D01*
X165525264Y-72486716D01*
X165525270Y-72486709D01*
X165704814Y-72252723D01*
X165704825Y-72252707D01*
X165852290Y-71997292D01*
X165852295Y-71997281D01*
X165965161Y-71724800D01*
X165965164Y-71724790D01*
X166041500Y-71439897D01*
X166041503Y-71439884D01*
X166066502Y-71250000D01*
X163054962Y-71250000D01*
X163085000Y-71098984D01*
X163085000Y-70901016D01*
X163054962Y-70750000D01*
X166066502Y-70750000D01*
X166041503Y-70560115D01*
X166041500Y-70560102D01*
X165965164Y-70275209D01*
X165965161Y-70275199D01*
X165852295Y-70002718D01*
X165852290Y-70002707D01*
X165704825Y-69747292D01*
X165704814Y-69747276D01*
X165525270Y-69513290D01*
X165525264Y-69513283D01*
X165316716Y-69304735D01*
X165316709Y-69304729D01*
X165082723Y-69125185D01*
X165082707Y-69125174D01*
X164827292Y-68977709D01*
X164827281Y-68977704D01*
X164554800Y-68864838D01*
X164554790Y-68864835D01*
X164269897Y-68788499D01*
X164269884Y-68788496D01*
X163977483Y-68750001D01*
X163977466Y-68750000D01*
X162330000Y-68750000D01*
X162330000Y-70025038D01*
X162178984Y-69995000D01*
X161981016Y-69995000D01*
X161830000Y-70025038D01*
X161830000Y-68750000D01*
X160182534Y-68750000D01*
X160182516Y-68750001D01*
X159890115Y-68788496D01*
X159890102Y-68788499D01*
X159605209Y-68864835D01*
X159605199Y-68864838D01*
X159332718Y-68977704D01*
X159332707Y-68977709D01*
X159077292Y-69125174D01*
X159077276Y-69125185D01*
X158843290Y-69304729D01*
X158843283Y-69304735D01*
X158634735Y-69513283D01*
X158634729Y-69513290D01*
X158455185Y-69747276D01*
X158455174Y-69747292D01*
X158307709Y-70002707D01*
X158307704Y-70002718D01*
X158194838Y-70275199D01*
X158194835Y-70275209D01*
X158118499Y-70560102D01*
X158118496Y-70560115D01*
X158093497Y-70750000D01*
X109956502Y-70750000D01*
X109931503Y-70560115D01*
X109931500Y-70560102D01*
X109855164Y-70275209D01*
X109855161Y-70275199D01*
X109742295Y-70002718D01*
X109742290Y-70002707D01*
X109594825Y-69747292D01*
X109594814Y-69747276D01*
X109415270Y-69513290D01*
X109415264Y-69513283D01*
X109206716Y-69304735D01*
X109206709Y-69304729D01*
X108972723Y-69125185D01*
X108972707Y-69125174D01*
X108717292Y-68977709D01*
X108717281Y-68977704D01*
X108444800Y-68864838D01*
X108444790Y-68864835D01*
X108159897Y-68788499D01*
X108159884Y-68788496D01*
X107867483Y-68750001D01*
X107867466Y-68750000D01*
X106220000Y-68750000D01*
X106220000Y-70025038D01*
X106068984Y-69995000D01*
X105871016Y-69995000D01*
X105720000Y-70025038D01*
X105720000Y-68750000D01*
X104072534Y-68750000D01*
X104072516Y-68750001D01*
X103780115Y-68788496D01*
X103780102Y-68788499D01*
X103495209Y-68864835D01*
X103495199Y-68864838D01*
X103222718Y-68977704D01*
X103222707Y-68977709D01*
X102967292Y-69125174D01*
X102967276Y-69125185D01*
X102733290Y-69304729D01*
X102733283Y-69304735D01*
X102524735Y-69513283D01*
X102524729Y-69513290D01*
X102345185Y-69747276D01*
X102345174Y-69747292D01*
X102197709Y-70002707D01*
X102197704Y-70002718D01*
X102084838Y-70275199D01*
X102084835Y-70275209D01*
X102008499Y-70560102D01*
X102008496Y-70560115D01*
X101983497Y-70750000D01*
X99000500Y-70750000D01*
X99000500Y-62878711D01*
X101649500Y-62878711D01*
X101649500Y-63121288D01*
X101681161Y-63361785D01*
X101743947Y-63596104D01*
X101836773Y-63820205D01*
X101836776Y-63820212D01*
X101958064Y-64030289D01*
X101958066Y-64030292D01*
X101958067Y-64030293D01*
X102105733Y-64222736D01*
X102105739Y-64222743D01*
X102277256Y-64394260D01*
X102277262Y-64394265D01*
X102469711Y-64541936D01*
X102679788Y-64663224D01*
X102903900Y-64756054D01*
X103138211Y-64818838D01*
X103318586Y-64842584D01*
X103378711Y-64850500D01*
X103378712Y-64850500D01*
X103621289Y-64850500D01*
X103669388Y-64844167D01*
X103861789Y-64818838D01*
X104096100Y-64756054D01*
X104320212Y-64663224D01*
X104530289Y-64541936D01*
X104722738Y-64394265D01*
X104894265Y-64222738D01*
X105041936Y-64030289D01*
X105163224Y-63820212D01*
X105256054Y-63596100D01*
X105318838Y-63361789D01*
X105350500Y-63121288D01*
X105350500Y-62878712D01*
X105350500Y-62878711D01*
X162649500Y-62878711D01*
X162649500Y-63121288D01*
X162681161Y-63361785D01*
X162743947Y-63596104D01*
X162836773Y-63820205D01*
X162836776Y-63820212D01*
X162958064Y-64030289D01*
X162958066Y-64030292D01*
X162958067Y-64030293D01*
X163105733Y-64222736D01*
X163105739Y-64222743D01*
X163277256Y-64394260D01*
X163277262Y-64394265D01*
X163469711Y-64541936D01*
X163679788Y-64663224D01*
X163903900Y-64756054D01*
X164138211Y-64818838D01*
X164318586Y-64842584D01*
X164378711Y-64850500D01*
X164378712Y-64850500D01*
X164621289Y-64850500D01*
X164669388Y-64844167D01*
X164861789Y-64818838D01*
X165096100Y-64756054D01*
X165320212Y-64663224D01*
X165530289Y-64541936D01*
X165722738Y-64394265D01*
X165894265Y-64222738D01*
X166041936Y-64030289D01*
X166163224Y-63820212D01*
X166256054Y-63596100D01*
X166318838Y-63361789D01*
X166350500Y-63121288D01*
X166350500Y-62878712D01*
X166318838Y-62638211D01*
X166256054Y-62403900D01*
X166163224Y-62179788D01*
X166041936Y-61969711D01*
X165894265Y-61777262D01*
X165894260Y-61777256D01*
X165722743Y-61605739D01*
X165722736Y-61605733D01*
X165530293Y-61458067D01*
X165530292Y-61458066D01*
X165530289Y-61458064D01*
X165320212Y-61336776D01*
X165320205Y-61336773D01*
X165096104Y-61243947D01*
X164861785Y-61181161D01*
X164621289Y-61149500D01*
X164621288Y-61149500D01*
X164378712Y-61149500D01*
X164378711Y-61149500D01*
X164138214Y-61181161D01*
X163903895Y-61243947D01*
X163679794Y-61336773D01*
X163679785Y-61336777D01*
X163469706Y-61458067D01*
X163277263Y-61605733D01*
X163277256Y-61605739D01*
X163105739Y-61777256D01*
X163105733Y-61777263D01*
X162958067Y-61969706D01*
X162836777Y-62179785D01*
X162836773Y-62179794D01*
X162743947Y-62403895D01*
X162681161Y-62638214D01*
X162649500Y-62878711D01*
X105350500Y-62878711D01*
X105318838Y-62638211D01*
X105256054Y-62403900D01*
X105163224Y-62179788D01*
X105041936Y-61969711D01*
X104894265Y-61777262D01*
X104894260Y-61777256D01*
X104722743Y-61605739D01*
X104722736Y-61605733D01*
X104530293Y-61458067D01*
X104530292Y-61458066D01*
X104530289Y-61458064D01*
X104320212Y-61336776D01*
X104320205Y-61336773D01*
X104096104Y-61243947D01*
X103861785Y-61181161D01*
X103621289Y-61149500D01*
X103621288Y-61149500D01*
X103378712Y-61149500D01*
X103378711Y-61149500D01*
X103138214Y-61181161D01*
X102903895Y-61243947D01*
X102679794Y-61336773D01*
X102679785Y-61336777D01*
X102469706Y-61458067D01*
X102277263Y-61605733D01*
X102277256Y-61605739D01*
X102105739Y-61777256D01*
X102105733Y-61777263D01*
X101958067Y-61969706D01*
X101836777Y-62179785D01*
X101836773Y-62179794D01*
X101743947Y-62403895D01*
X101681161Y-62638214D01*
X101649500Y-62878711D01*
X99000500Y-62878711D01*
X99000500Y-58124500D01*
X99020185Y-58057461D01*
X99072989Y-58011706D01*
X99124500Y-58000500D01*
X168875500Y-58000500D01*
X168942539Y-58020185D01*
G37*
%TD.AperFunction*%
%TD*%
M02*
