%TF.GenerationSoftware,KiCad,Pcbnew,9.0.8*%
%TF.CreationDate,2026-03-26T20:49:17+00:00*%
%TF.ProjectId,DummyLoad,44756d6d-794c-46f6-9164-2e6b69636164,rev?*%
%TF.SameCoordinates,Original*%
%TF.FileFunction,Copper,L1,Top*%
%TF.FilePolarity,Positive*%
%FSLAX46Y46*%
G04 Gerber Fmt 4.6, Leading zero omitted, Abs format (unit mm)*
G04 Created by KiCad (PCBNEW 9.0.8) date 2026-03-26 20:49:17*
%MOMM*%
%LPD*%
G01*
G04 APERTURE LIST*
G04 Aperture macros list*
%AMRoundRect*
0 Rectangle with rounded corners*
0 $1 Rounding radius*
0 $2 $3 $4 $5 $6 $7 $8 $9 X,Y pos of 4 corners*
0 Add a 4 corners polygon primitive as box body*
4,1,4,$2,$3,$4,$5,$6,$7,$8,$9,$2,$3,0*
0 Add four circle primitives for the rounded corners*
1,1,$1+$1,$2,$3*
1,1,$1+$1,$4,$5*
1,1,$1+$1,$6,$7*
1,1,$1+$1,$8,$9*
0 Add four rect primitives between the rounded corners*
20,1,$1+$1,$2,$3,$4,$5,0*
20,1,$1+$1,$4,$5,$6,$7,0*
20,1,$1+$1,$6,$7,$8,$9,0*
20,1,$1+$1,$8,$9,$2,$3,0*%
G04 Aperture macros list end*
%TA.AperFunction,ComponentPad*%
%ADD10C,1.000000*%
%TD*%
%TA.AperFunction,ComponentPad*%
%ADD11O,2.500000X1.600000*%
%TD*%
%TA.AperFunction,ComponentPad*%
%ADD12O,7.000000X3.500000*%
%TD*%
%TA.AperFunction,SMDPad,CuDef*%
%ADD13RoundRect,0.250000X0.625000X-0.312500X0.625000X0.312500X-0.625000X0.312500X-0.625000X-0.312500X0*%
%TD*%
%TA.AperFunction,SMDPad,CuDef*%
%ADD14RoundRect,0.250000X-0.625000X0.312500X-0.625000X-0.312500X0.625000X-0.312500X0.625000X0.312500X0*%
%TD*%
%TA.AperFunction,SMDPad,CuDef*%
%ADD15RoundRect,0.250000X0.312500X0.625000X-0.312500X0.625000X-0.312500X-0.625000X0.312500X-0.625000X0*%
%TD*%
%TA.AperFunction,SMDPad,CuDef*%
%ADD16RoundRect,0.250000X0.325000X0.650000X-0.325000X0.650000X-0.325000X-0.650000X0.325000X-0.650000X0*%
%TD*%
%TA.AperFunction,ViaPad*%
%ADD17C,0.600000*%
%TD*%
%TA.AperFunction,Conductor*%
%ADD18C,1.500000*%
%TD*%
G04 APERTURE END LIST*
D10*
%TO.P,TP1,1,1*%
%TO.N,Net-(D1-K)*%
X145000000Y-87000000D03*
%TD*%
D11*
%TO.P,J2,1,In*%
%TO.N,RF_Out*%
X157000000Y-76080000D03*
D12*
%TO.P,J2,2,Ext*%
%TO.N,GND*%
X162080000Y-71000000D03*
D11*
X157000000Y-73540000D03*
D12*
X162080000Y-81160000D03*
%TD*%
D13*
%TO.P,R1,1*%
%TO.N,RF_In*%
X116500000Y-75000000D03*
%TO.P,R1,2*%
%TO.N,GND*%
X116500000Y-72075000D03*
%TD*%
D14*
%TO.P,R9,1*%
%TO.N,RF_In*%
X128500000Y-77075000D03*
%TO.P,R9,2*%
%TO.N,GND*%
X128500000Y-80000000D03*
%TD*%
D13*
%TO.P,R2,1*%
%TO.N,RF_In*%
X120500000Y-75000000D03*
%TO.P,R2,2*%
%TO.N,GND*%
X120500000Y-72075000D03*
%TD*%
D10*
%TO.P,TP2,1,1*%
%TO.N,GND*%
X141500000Y-87000000D03*
%TD*%
D15*
%TO.P,R22,1*%
%TO.N,Net-(R22-Pad1)*%
X143962500Y-76000000D03*
%TO.P,R22,2*%
%TO.N,Net-(C2-Pad1)*%
X141037500Y-76000000D03*
%TD*%
D13*
%TO.P,R3,1*%
%TO.N,RF_In*%
X124500000Y-75000000D03*
%TO.P,R3,2*%
%TO.N,GND*%
X124500000Y-72075000D03*
%TD*%
D14*
%TO.P,R7,1*%
%TO.N,RF_In*%
X120500000Y-77075000D03*
%TO.P,R7,2*%
%TO.N,GND*%
X120500000Y-80000000D03*
%TD*%
D13*
%TO.P,R24,1*%
%TO.N,RF_Out*%
X152000000Y-74962500D03*
%TO.P,R24,2*%
%TO.N,GND*%
X152000000Y-72037500D03*
%TD*%
D16*
%TO.P,C2,1*%
%TO.N,Net-(C2-Pad1)*%
X138475000Y-72000000D03*
%TO.P,C2,2*%
%TO.N,RF_In*%
X135525000Y-72000000D03*
%TD*%
D13*
%TO.P,R5,1*%
%TO.N,RF_In*%
X132500000Y-75000000D03*
%TO.P,R5,2*%
%TO.N,GND*%
X132500000Y-72075000D03*
%TD*%
D14*
%TO.P,R8,1*%
%TO.N,RF_In*%
X124500000Y-77075000D03*
%TO.P,R8,2*%
%TO.N,GND*%
X124500000Y-80000000D03*
%TD*%
D15*
%TO.P,R21,1*%
%TO.N,Net-(C2-Pad1)*%
X138462500Y-76000000D03*
%TO.P,R21,2*%
%TO.N,RF_In*%
X135537500Y-76000000D03*
%TD*%
D11*
%TO.P,J1,1,In*%
%TO.N,RF_In*%
X111050000Y-76080000D03*
D12*
%TO.P,J1,2,Ext*%
%TO.N,GND*%
X105970000Y-81160000D03*
D11*
X111050000Y-78620000D03*
D12*
X105970000Y-71000000D03*
%TD*%
D13*
%TO.P,R4,1*%
%TO.N,RF_In*%
X128500000Y-75000000D03*
%TO.P,R4,2*%
%TO.N,GND*%
X128500000Y-72075000D03*
%TD*%
D14*
%TO.P,R6,1*%
%TO.N,RF_In*%
X116500000Y-77075000D03*
%TO.P,R6,2*%
%TO.N,GND*%
X116500000Y-80000000D03*
%TD*%
%TO.P,R10,1*%
%TO.N,RF_In*%
X132500000Y-77075000D03*
%TO.P,R10,2*%
%TO.N,GND*%
X132500000Y-80000000D03*
%TD*%
D15*
%TO.P,R23,1*%
%TO.N,RF_Out*%
X149500000Y-76000000D03*
%TO.P,R23,2*%
%TO.N,Net-(R22-Pad1)*%
X146575000Y-76000000D03*
%TD*%
D14*
%TO.P,R25,1*%
%TO.N,RF_Out*%
X152000000Y-77037500D03*
%TO.P,R25,2*%
%TO.N,GND*%
X152000000Y-79962500D03*
%TD*%
D17*
%TO.N,GND*%
X112785000Y-80335000D03*
X145805000Y-80335000D03*
X130565000Y-60015000D03*
X145805000Y-60015000D03*
X166125000Y-67635000D03*
X150885000Y-62555000D03*
X155965000Y-87955000D03*
X112785000Y-90495000D03*
X161045000Y-65095000D03*
X135645000Y-82875000D03*
X138185000Y-62555000D03*
X102625000Y-67635000D03*
X153425000Y-65095000D03*
X130565000Y-80335000D03*
X110245000Y-82875000D03*
X140725000Y-85415000D03*
X115325000Y-65095000D03*
X130565000Y-72715000D03*
X122500000Y-80000000D03*
X135645000Y-60015000D03*
X110245000Y-72715000D03*
X166125000Y-85415000D03*
X133105000Y-87955000D03*
X143265000Y-90495000D03*
X163585000Y-75255000D03*
X128025000Y-87955000D03*
X140725000Y-72715000D03*
X120405000Y-93035000D03*
X100085000Y-87955000D03*
X107705000Y-93035000D03*
X153425000Y-93035000D03*
X163585000Y-67635000D03*
X128025000Y-93035000D03*
X112785000Y-93035000D03*
X150885000Y-70175000D03*
X117865000Y-60015000D03*
X143265000Y-93035000D03*
X155965000Y-82875000D03*
X107705000Y-75255000D03*
X118500000Y-80000000D03*
X128025000Y-65095000D03*
X105165000Y-60015000D03*
X140725000Y-65095000D03*
X117865000Y-85415000D03*
X117865000Y-87955000D03*
X120405000Y-82875000D03*
X100085000Y-93035000D03*
X120405000Y-60015000D03*
X100085000Y-72715000D03*
X130565000Y-62555000D03*
X128025000Y-85415000D03*
X122945000Y-67635000D03*
X120405000Y-70175000D03*
X153425000Y-70175000D03*
X161045000Y-60015000D03*
X161045000Y-87955000D03*
X102625000Y-93035000D03*
X120405000Y-90495000D03*
X120405000Y-62555000D03*
X148345000Y-70175000D03*
X105165000Y-75255000D03*
X125485000Y-62555000D03*
X133105000Y-60015000D03*
X161045000Y-93035000D03*
X138185000Y-70175000D03*
X114500000Y-72000000D03*
X155965000Y-65095000D03*
X140725000Y-70175000D03*
X153425000Y-87955000D03*
X158505000Y-65095000D03*
X110245000Y-87955000D03*
X166125000Y-75255000D03*
X122500000Y-72000000D03*
X130565000Y-67635000D03*
X107705000Y-60015000D03*
X112785000Y-67635000D03*
X163585000Y-85415000D03*
X125485000Y-67635000D03*
X135645000Y-65095000D03*
X155965000Y-93035000D03*
X130565000Y-82875000D03*
X143265000Y-70175000D03*
X140725000Y-67635000D03*
X120405000Y-67635000D03*
X148345000Y-80335000D03*
X145805000Y-93035000D03*
X143265000Y-87955000D03*
X105165000Y-67635000D03*
X130565000Y-65095000D03*
X161045000Y-85415000D03*
X143265000Y-62555000D03*
X135645000Y-93035000D03*
X158505000Y-67635000D03*
X161045000Y-75255000D03*
X150885000Y-60015000D03*
X128025000Y-62555000D03*
X135645000Y-87955000D03*
X120405000Y-65095000D03*
X117865000Y-70175000D03*
X125485000Y-60015000D03*
X135645000Y-85415000D03*
X148345000Y-62555000D03*
X105165000Y-85415000D03*
X133105000Y-67635000D03*
X138185000Y-93035000D03*
X158505000Y-87955000D03*
X102625000Y-77795000D03*
X105165000Y-77795000D03*
X148345000Y-65095000D03*
X107705000Y-67635000D03*
X133105000Y-82875000D03*
X107705000Y-62555000D03*
X145805000Y-62555000D03*
X115325000Y-93035000D03*
X161045000Y-67635000D03*
X138185000Y-90495000D03*
X158505000Y-60015000D03*
X143265000Y-60015000D03*
X110245000Y-90495000D03*
X120405000Y-87955000D03*
X117865000Y-67635000D03*
X161045000Y-62555000D03*
X148345000Y-60015000D03*
X130565000Y-90495000D03*
X138185000Y-85415000D03*
X155965000Y-67635000D03*
X148345000Y-93035000D03*
X145805000Y-70175000D03*
X118500000Y-72000000D03*
X161045000Y-90495000D03*
X122945000Y-90495000D03*
X102625000Y-85415000D03*
X158505000Y-90495000D03*
X126500000Y-80000000D03*
X155965000Y-62555000D03*
X112785000Y-62555000D03*
X148345000Y-85415000D03*
X155965000Y-80335000D03*
X122945000Y-93035000D03*
X110245000Y-93035000D03*
X166125000Y-60015000D03*
X105165000Y-93035000D03*
X163585000Y-77795000D03*
X140725000Y-93035000D03*
X125485000Y-93035000D03*
X122945000Y-62555000D03*
X166125000Y-77795000D03*
X148345000Y-90495000D03*
X112785000Y-85415000D03*
X158505000Y-85415000D03*
X110245000Y-85415000D03*
X100085000Y-62555000D03*
X143265000Y-77795000D03*
X117865000Y-62555000D03*
X158505000Y-93035000D03*
X117865000Y-93035000D03*
X100085000Y-65095000D03*
X133105000Y-65095000D03*
X155965000Y-70175000D03*
X100085000Y-80335000D03*
X110245000Y-65095000D03*
X125485000Y-85415000D03*
X150885000Y-87955000D03*
X115325000Y-62555000D03*
X153425000Y-67635000D03*
X135645000Y-70175000D03*
X138185000Y-67635000D03*
X145805000Y-77795000D03*
X112785000Y-82875000D03*
X128025000Y-82875000D03*
X133105000Y-90495000D03*
X128025000Y-67635000D03*
X135645000Y-62555000D03*
X115325000Y-60015000D03*
X100085000Y-60015000D03*
X112785000Y-70175000D03*
X115325000Y-67635000D03*
X133105000Y-62555000D03*
X148345000Y-87955000D03*
X107705000Y-90495000D03*
X107705000Y-65095000D03*
X126500000Y-72000000D03*
X153425000Y-82875000D03*
X120405000Y-85415000D03*
X115325000Y-82875000D03*
X115325000Y-70175000D03*
X153425000Y-85415000D03*
X153425000Y-60015000D03*
X166125000Y-82875000D03*
X166125000Y-93035000D03*
X153425000Y-90495000D03*
X166125000Y-72715000D03*
X130565000Y-70175000D03*
X100085000Y-90495000D03*
X100085000Y-75255000D03*
X155965000Y-85415000D03*
X150885000Y-90495000D03*
X125485000Y-65095000D03*
X122945000Y-85415000D03*
X135645000Y-90495000D03*
X128025000Y-90495000D03*
X114500000Y-80000000D03*
X163585000Y-93035000D03*
X125485000Y-90495000D03*
X128025000Y-60015000D03*
X163585000Y-60015000D03*
X133105000Y-85415000D03*
X145805000Y-72715000D03*
X110245000Y-60015000D03*
X128025000Y-70175000D03*
X150885000Y-65095000D03*
X100085000Y-67635000D03*
X161045000Y-77795000D03*
X100085000Y-85415000D03*
X150885000Y-85415000D03*
X125485000Y-87955000D03*
X130565000Y-93035000D03*
X107705000Y-77795000D03*
X143265000Y-67635000D03*
X140725000Y-62555000D03*
X155965000Y-90495000D03*
X145805000Y-67635000D03*
X140725000Y-60015000D03*
X145805000Y-65095000D03*
X102625000Y-75255000D03*
X102625000Y-60015000D03*
X135645000Y-80335000D03*
X110245000Y-67635000D03*
X130565000Y-87955000D03*
X148345000Y-82875000D03*
X150885000Y-67635000D03*
X110245000Y-62555000D03*
X115325000Y-87955000D03*
X107705000Y-87955000D03*
X112785000Y-87955000D03*
X115325000Y-90495000D03*
X143265000Y-65095000D03*
X150885000Y-82875000D03*
X150885000Y-93035000D03*
X140725000Y-90495000D03*
X138185000Y-65095000D03*
X155965000Y-60015000D03*
X125485000Y-82875000D03*
X112785000Y-60015000D03*
X133105000Y-93035000D03*
X100085000Y-77795000D03*
X133105000Y-70175000D03*
X112785000Y-72715000D03*
X117865000Y-90495000D03*
X122945000Y-82875000D03*
X117865000Y-65095000D03*
X107705000Y-85415000D03*
X148345000Y-72715000D03*
X158505000Y-62555000D03*
X117865000Y-82875000D03*
X138185000Y-87955000D03*
X138185000Y-60015000D03*
X122945000Y-65095000D03*
X130565000Y-85415000D03*
X112785000Y-65095000D03*
X100085000Y-82875000D03*
X153425000Y-62555000D03*
X145805000Y-90495000D03*
X122945000Y-60015000D03*
X143265000Y-72715000D03*
X115325000Y-85415000D03*
X122945000Y-70175000D03*
X148345000Y-67635000D03*
X135645000Y-67635000D03*
X122945000Y-87955000D03*
X125485000Y-70175000D03*
X100085000Y-70175000D03*
%TO.N,RF_In*%
X135500000Y-77500000D03*
X114500000Y-77000000D03*
X126500000Y-75000000D03*
X114500000Y-75000000D03*
X134000000Y-75000000D03*
X130500000Y-75000000D03*
X126500000Y-77000000D03*
X130500000Y-77000000D03*
X113000000Y-75500000D03*
X122500000Y-77000000D03*
X118500000Y-75000000D03*
X118500000Y-77000000D03*
X134000000Y-77000000D03*
X122500000Y-75000000D03*
X113000000Y-76500000D03*
%TD*%
D18*
%TO.N,RF_In*%
X135537500Y-76000000D02*
X135525000Y-72000000D01*
%TO.N,Net-(C2-Pad1)*%
X138475000Y-72000000D02*
X138462500Y-76000000D01*
X138462500Y-76000000D02*
X141037500Y-76000000D01*
%TO.N,Net-(R22-Pad1)*%
X143962500Y-76000000D02*
X146575000Y-76000000D01*
%TD*%
%TA.AperFunction,Conductor*%
%TO.N,RF_Out*%
G36*
X152513288Y-74002953D02*
G01*
X157000000Y-75000000D01*
X158376000Y-75000000D01*
X158443039Y-75019685D01*
X158488794Y-75072489D01*
X158500000Y-75124000D01*
X158500000Y-76876000D01*
X158480315Y-76943039D01*
X158427511Y-76988794D01*
X158376000Y-77000000D01*
X157000000Y-77000000D01*
X152513288Y-77997047D01*
X152486389Y-78000000D01*
X148624000Y-78000000D01*
X148556961Y-77980315D01*
X148511206Y-77927511D01*
X148500000Y-77876000D01*
X148500000Y-74124000D01*
X148519685Y-74056961D01*
X148572489Y-74011206D01*
X148624000Y-74000000D01*
X152486389Y-74000000D01*
X152513288Y-74002953D01*
G37*
%TD.AperFunction*%
%TD*%
%TA.AperFunction,Conductor*%
%TO.N,GND*%
G36*
X168941298Y-58020185D02*
G01*
X168987053Y-58072989D01*
X168998247Y-58126222D01*
X168501705Y-93877222D01*
X168481091Y-93943982D01*
X168427657Y-93988999D01*
X168377717Y-93999500D01*
X99124500Y-93999500D01*
X99057461Y-93979815D01*
X99011706Y-93927011D01*
X99000500Y-93875500D01*
X99000500Y-88878711D01*
X102149500Y-88878711D01*
X102149500Y-89121288D01*
X102181161Y-89361785D01*
X102243947Y-89596104D01*
X102336773Y-89820205D01*
X102336776Y-89820212D01*
X102458064Y-90030289D01*
X102458066Y-90030292D01*
X102458067Y-90030293D01*
X102605733Y-90222736D01*
X102605739Y-90222743D01*
X102777256Y-90394260D01*
X102777262Y-90394265D01*
X102969711Y-90541936D01*
X103179788Y-90663224D01*
X103403900Y-90756054D01*
X103638211Y-90818838D01*
X103818586Y-90842584D01*
X103878711Y-90850500D01*
X103878712Y-90850500D01*
X104121289Y-90850500D01*
X104169388Y-90844167D01*
X104361789Y-90818838D01*
X104596100Y-90756054D01*
X104820212Y-90663224D01*
X105030289Y-90541936D01*
X105222738Y-90394265D01*
X105394265Y-90222738D01*
X105541936Y-90030289D01*
X105663224Y-89820212D01*
X105756054Y-89596100D01*
X105818838Y-89361789D01*
X105850500Y-89121288D01*
X105850500Y-88878712D01*
X105850500Y-88878711D01*
X162149500Y-88878711D01*
X162149500Y-89121288D01*
X162181161Y-89361785D01*
X162243947Y-89596104D01*
X162336773Y-89820205D01*
X162336776Y-89820212D01*
X162458064Y-90030289D01*
X162458066Y-90030292D01*
X162458067Y-90030293D01*
X162605733Y-90222736D01*
X162605739Y-90222743D01*
X162777256Y-90394260D01*
X162777262Y-90394265D01*
X162969711Y-90541936D01*
X163179788Y-90663224D01*
X163403900Y-90756054D01*
X163638211Y-90818838D01*
X163818586Y-90842584D01*
X163878711Y-90850500D01*
X163878712Y-90850500D01*
X164121289Y-90850500D01*
X164169388Y-90844167D01*
X164361789Y-90818838D01*
X164596100Y-90756054D01*
X164820212Y-90663224D01*
X165030289Y-90541936D01*
X165222738Y-90394265D01*
X165394265Y-90222738D01*
X165541936Y-90030289D01*
X165663224Y-89820212D01*
X165756054Y-89596100D01*
X165818838Y-89361789D01*
X165850500Y-89121288D01*
X165850500Y-88878712D01*
X165818838Y-88638211D01*
X165756054Y-88403900D01*
X165663224Y-88179788D01*
X165541936Y-87969711D01*
X165394265Y-87777262D01*
X165394260Y-87777256D01*
X165222743Y-87605739D01*
X165222736Y-87605733D01*
X165030293Y-87458067D01*
X165030292Y-87458066D01*
X165030289Y-87458064D01*
X164820212Y-87336776D01*
X164820205Y-87336773D01*
X164596104Y-87243947D01*
X164361785Y-87181161D01*
X164121289Y-87149500D01*
X164121288Y-87149500D01*
X163878712Y-87149500D01*
X163878711Y-87149500D01*
X163638214Y-87181161D01*
X163403895Y-87243947D01*
X163179794Y-87336773D01*
X163179785Y-87336777D01*
X162969706Y-87458067D01*
X162777263Y-87605733D01*
X162777256Y-87605739D01*
X162605739Y-87777256D01*
X162605733Y-87777263D01*
X162458067Y-87969706D01*
X162336777Y-88179785D01*
X162336773Y-88179794D01*
X162243947Y-88403895D01*
X162181161Y-88638214D01*
X162149500Y-88878711D01*
X105850500Y-88878711D01*
X105818838Y-88638211D01*
X105756054Y-88403900D01*
X105663224Y-88179788D01*
X105541936Y-87969711D01*
X105478187Y-87886632D01*
X105459725Y-87862572D01*
X140990979Y-87862572D01*
X141026328Y-87886192D01*
X141208306Y-87961569D01*
X141208318Y-87961572D01*
X141401504Y-87999999D01*
X141401508Y-88000000D01*
X141598492Y-88000000D01*
X141598495Y-87999999D01*
X141791681Y-87961572D01*
X141791693Y-87961569D01*
X141973676Y-87886190D01*
X141973680Y-87886187D01*
X142009019Y-87862573D01*
X142009020Y-87862572D01*
X141500001Y-87353553D01*
X141500000Y-87353553D01*
X140990979Y-87862572D01*
X105459725Y-87862572D01*
X105394266Y-87777263D01*
X105394260Y-87777256D01*
X105222743Y-87605739D01*
X105222736Y-87605733D01*
X105030293Y-87458067D01*
X105030292Y-87458066D01*
X105030289Y-87458064D01*
X104820212Y-87336776D01*
X104820205Y-87336773D01*
X104596104Y-87243947D01*
X104361785Y-87181161D01*
X104121289Y-87149500D01*
X104121288Y-87149500D01*
X103878712Y-87149500D01*
X103878711Y-87149500D01*
X103638214Y-87181161D01*
X103403895Y-87243947D01*
X103179794Y-87336773D01*
X103179785Y-87336777D01*
X102969706Y-87458067D01*
X102777263Y-87605733D01*
X102777256Y-87605739D01*
X102605739Y-87777256D01*
X102605733Y-87777263D01*
X102458067Y-87969706D01*
X102336777Y-88179785D01*
X102336773Y-88179794D01*
X102243947Y-88403895D01*
X102181161Y-88638214D01*
X102149500Y-88878711D01*
X99000500Y-88878711D01*
X99000500Y-86901504D01*
X140500000Y-86901504D01*
X140500000Y-87098495D01*
X140538427Y-87291681D01*
X140538430Y-87291693D01*
X140613808Y-87473673D01*
X140613809Y-87473675D01*
X140637425Y-87509019D01*
X141146446Y-87000000D01*
X141146446Y-86999999D01*
X141096719Y-86950272D01*
X141250000Y-86950272D01*
X141250000Y-87049728D01*
X141288060Y-87141614D01*
X141358386Y-87211940D01*
X141450272Y-87250000D01*
X141549728Y-87250000D01*
X141641614Y-87211940D01*
X141711940Y-87141614D01*
X141750000Y-87049728D01*
X141750000Y-86999999D01*
X141853553Y-86999999D01*
X141853553Y-87000001D01*
X142362572Y-87509020D01*
X142362573Y-87509019D01*
X142386187Y-87473680D01*
X142386190Y-87473676D01*
X142461569Y-87291693D01*
X142461572Y-87291681D01*
X142499989Y-87098543D01*
X143999499Y-87098543D01*
X144037947Y-87291829D01*
X144037950Y-87291839D01*
X144113364Y-87473907D01*
X144113371Y-87473920D01*
X144222860Y-87637781D01*
X144222863Y-87637785D01*
X144362214Y-87777136D01*
X144362218Y-87777139D01*
X144526079Y-87886628D01*
X144526092Y-87886635D01*
X144708160Y-87962049D01*
X144708165Y-87962051D01*
X144708169Y-87962051D01*
X144708170Y-87962052D01*
X144901456Y-88000500D01*
X144901459Y-88000500D01*
X145098543Y-88000500D01*
X145253351Y-87969706D01*
X145291835Y-87962051D01*
X145432655Y-87903721D01*
X145473907Y-87886635D01*
X145473907Y-87886634D01*
X145473914Y-87886632D01*
X145637782Y-87777139D01*
X145777139Y-87637782D01*
X145886632Y-87473914D01*
X145962051Y-87291835D01*
X145977943Y-87211940D01*
X146000500Y-87098543D01*
X146000500Y-86901456D01*
X145962052Y-86708170D01*
X145962051Y-86708169D01*
X145962051Y-86708165D01*
X145962049Y-86708160D01*
X145886635Y-86526092D01*
X145886628Y-86526079D01*
X145777139Y-86362218D01*
X145777136Y-86362214D01*
X145637785Y-86222863D01*
X145637781Y-86222860D01*
X145473920Y-86113371D01*
X145473907Y-86113364D01*
X145291839Y-86037950D01*
X145291829Y-86037947D01*
X145098543Y-85999500D01*
X145098541Y-85999500D01*
X144901459Y-85999500D01*
X144901457Y-85999500D01*
X144708170Y-86037947D01*
X144708160Y-86037950D01*
X144526092Y-86113364D01*
X144526079Y-86113371D01*
X144362218Y-86222860D01*
X144362214Y-86222863D01*
X144222863Y-86362214D01*
X144222860Y-86362218D01*
X144113371Y-86526079D01*
X144113364Y-86526092D01*
X144037950Y-86708160D01*
X144037947Y-86708170D01*
X143999500Y-86901456D01*
X143999500Y-86901459D01*
X143999500Y-87098541D01*
X143999500Y-87098543D01*
X143999499Y-87098543D01*
X142499989Y-87098543D01*
X142499999Y-87098495D01*
X142500000Y-87098492D01*
X142500000Y-86901507D01*
X142499999Y-86901505D01*
X142461572Y-86708318D01*
X142461569Y-86708306D01*
X142386192Y-86526328D01*
X142362572Y-86490979D01*
X141853553Y-86999999D01*
X141750000Y-86999999D01*
X141750000Y-86950272D01*
X141711940Y-86858386D01*
X141641614Y-86788060D01*
X141549728Y-86750000D01*
X141450272Y-86750000D01*
X141358386Y-86788060D01*
X141288060Y-86858386D01*
X141250000Y-86950272D01*
X141096719Y-86950272D01*
X140637426Y-86490978D01*
X140637426Y-86490979D01*
X140613813Y-86526318D01*
X140613809Y-86526325D01*
X140538429Y-86708310D01*
X140538427Y-86708318D01*
X140500000Y-86901504D01*
X99000500Y-86901504D01*
X99000500Y-86137426D01*
X140990978Y-86137426D01*
X141500000Y-86646446D01*
X141500001Y-86646446D01*
X142009020Y-86137426D01*
X141973675Y-86113809D01*
X141973673Y-86113808D01*
X141791693Y-86038430D01*
X141791681Y-86038427D01*
X141598495Y-86000000D01*
X141401504Y-86000000D01*
X141208318Y-86038427D01*
X141208310Y-86038429D01*
X141026325Y-86113809D01*
X141026318Y-86113813D01*
X140990979Y-86137426D01*
X140990978Y-86137426D01*
X99000500Y-86137426D01*
X99000500Y-80910000D01*
X101983497Y-80910000D01*
X104995038Y-80910000D01*
X104965000Y-81061016D01*
X104965000Y-81258984D01*
X104995038Y-81410000D01*
X101983498Y-81410000D01*
X102008496Y-81599884D01*
X102008499Y-81599897D01*
X102084835Y-81884790D01*
X102084838Y-81884800D01*
X102197704Y-82157281D01*
X102197709Y-82157292D01*
X102345174Y-82412707D01*
X102345185Y-82412723D01*
X102524729Y-82646709D01*
X102524735Y-82646716D01*
X102733283Y-82855264D01*
X102733290Y-82855270D01*
X102967276Y-83034814D01*
X102967292Y-83034825D01*
X103222707Y-83182290D01*
X103222718Y-83182295D01*
X103495199Y-83295161D01*
X103495209Y-83295164D01*
X103780102Y-83371500D01*
X103780115Y-83371503D01*
X104072516Y-83409998D01*
X104072534Y-83410000D01*
X105720000Y-83410000D01*
X105720000Y-82134961D01*
X105871016Y-82165000D01*
X106068984Y-82165000D01*
X106220000Y-82134961D01*
X106220000Y-83410000D01*
X107867466Y-83410000D01*
X107867483Y-83409998D01*
X108159884Y-83371503D01*
X108159897Y-83371500D01*
X108444790Y-83295164D01*
X108444800Y-83295161D01*
X108717281Y-83182295D01*
X108717292Y-83182290D01*
X108972707Y-83034825D01*
X108972723Y-83034814D01*
X109206709Y-82855270D01*
X109206716Y-82855264D01*
X109415264Y-82646716D01*
X109415270Y-82646709D01*
X109594814Y-82412723D01*
X109594825Y-82412707D01*
X109742290Y-82157292D01*
X109742295Y-82157281D01*
X109855161Y-81884800D01*
X109855164Y-81884790D01*
X109931500Y-81599897D01*
X109931503Y-81599884D01*
X109956502Y-81410000D01*
X106944962Y-81410000D01*
X106975000Y-81258984D01*
X106975000Y-81061016D01*
X106944962Y-80910000D01*
X109956502Y-80910000D01*
X109931503Y-80720115D01*
X109931500Y-80720102D01*
X109855164Y-80435209D01*
X109855161Y-80435199D01*
X109809509Y-80324986D01*
X150625001Y-80324986D01*
X150635494Y-80427697D01*
X150690641Y-80594119D01*
X150690643Y-80594124D01*
X150782684Y-80743345D01*
X150906654Y-80867315D01*
X151055875Y-80959356D01*
X151055880Y-80959358D01*
X151222302Y-81014505D01*
X151222309Y-81014506D01*
X151325019Y-81024999D01*
X151749999Y-81024999D01*
X152250000Y-81024999D01*
X152674972Y-81024999D01*
X152674986Y-81024998D01*
X152777697Y-81014505D01*
X152944119Y-80959358D01*
X152944124Y-80959356D01*
X153024142Y-80910000D01*
X158093497Y-80910000D01*
X161105038Y-80910000D01*
X161075000Y-81061016D01*
X161075000Y-81258984D01*
X161105038Y-81410000D01*
X158093498Y-81410000D01*
X158118496Y-81599884D01*
X158118499Y-81599897D01*
X158194835Y-81884790D01*
X158194838Y-81884800D01*
X158307704Y-82157281D01*
X158307709Y-82157292D01*
X158455174Y-82412707D01*
X158455185Y-82412723D01*
X158634729Y-82646709D01*
X158634735Y-82646716D01*
X158843283Y-82855264D01*
X158843290Y-82855270D01*
X159077276Y-83034814D01*
X159077292Y-83034825D01*
X159332707Y-83182290D01*
X159332718Y-83182295D01*
X159605199Y-83295161D01*
X159605209Y-83295164D01*
X159890102Y-83371500D01*
X159890115Y-83371503D01*
X160182516Y-83409998D01*
X160182534Y-83410000D01*
X161830000Y-83410000D01*
X161830000Y-82134961D01*
X161981016Y-82165000D01*
X162178984Y-82165000D01*
X162330000Y-82134961D01*
X162330000Y-83410000D01*
X163977466Y-83410000D01*
X163977483Y-83409998D01*
X164269884Y-83371503D01*
X164269897Y-83371500D01*
X164554790Y-83295164D01*
X164554800Y-83295161D01*
X164827281Y-83182295D01*
X164827292Y-83182290D01*
X165082707Y-83034825D01*
X165082723Y-83034814D01*
X165316709Y-82855270D01*
X165316716Y-82855264D01*
X165525264Y-82646716D01*
X165525270Y-82646709D01*
X165704814Y-82412723D01*
X165704825Y-82412707D01*
X165852290Y-82157292D01*
X165852295Y-82157281D01*
X165965161Y-81884800D01*
X165965164Y-81884790D01*
X166041500Y-81599897D01*
X166041503Y-81599884D01*
X166066502Y-81410000D01*
X163054962Y-81410000D01*
X163085000Y-81258984D01*
X163085000Y-81061016D01*
X163054962Y-80910000D01*
X166066502Y-80910000D01*
X166041503Y-80720115D01*
X166041500Y-80720102D01*
X165965164Y-80435209D01*
X165965161Y-80435199D01*
X165852295Y-80162718D01*
X165852290Y-80162707D01*
X165704825Y-79907292D01*
X165704814Y-79907276D01*
X165525270Y-79673290D01*
X165525264Y-79673283D01*
X165316716Y-79464735D01*
X165316707Y-79464727D01*
X165082723Y-79285185D01*
X165082707Y-79285174D01*
X164827292Y-79137709D01*
X164827281Y-79137704D01*
X164554800Y-79024838D01*
X164554790Y-79024835D01*
X164269897Y-78948499D01*
X164269884Y-78948496D01*
X163977483Y-78910001D01*
X163977466Y-78910000D01*
X162330000Y-78910000D01*
X162330000Y-80185038D01*
X162178984Y-80155000D01*
X161981016Y-80155000D01*
X161830000Y-80185038D01*
X161830000Y-78910000D01*
X160182534Y-78910000D01*
X160182516Y-78910001D01*
X159890115Y-78948496D01*
X159890102Y-78948499D01*
X159605209Y-79024835D01*
X159605199Y-79024838D01*
X159332718Y-79137704D01*
X159332707Y-79137709D01*
X159077292Y-79285174D01*
X159077276Y-79285185D01*
X158843293Y-79464727D01*
X158843283Y-79464735D01*
X158634735Y-79673283D01*
X158634729Y-79673290D01*
X158455185Y-79907276D01*
X158455174Y-79907292D01*
X158307709Y-80162707D01*
X158307704Y-80162718D01*
X158194838Y-80435199D01*
X158194835Y-80435209D01*
X158118499Y-80720102D01*
X158118496Y-80720115D01*
X158093497Y-80910000D01*
X153024142Y-80910000D01*
X153093345Y-80867315D01*
X153098824Y-80861837D01*
X153217315Y-80743345D01*
X153309356Y-80594124D01*
X153309358Y-80594119D01*
X153364505Y-80427697D01*
X153364506Y-80427690D01*
X153374999Y-80324986D01*
X153375000Y-80324973D01*
X153375000Y-80212500D01*
X152250000Y-80212500D01*
X152250000Y-81024999D01*
X151749999Y-81024999D01*
X151750000Y-81024998D01*
X151750000Y-80212500D01*
X150625001Y-80212500D01*
X150625001Y-80324986D01*
X109809509Y-80324986D01*
X109761297Y-80208591D01*
X109742296Y-80162719D01*
X109742290Y-80162707D01*
X109594825Y-79907292D01*
X109594814Y-79907276D01*
X109415270Y-79673290D01*
X109415264Y-79673283D01*
X109206716Y-79464735D01*
X109206707Y-79464727D01*
X108972723Y-79285185D01*
X108972707Y-79285174D01*
X108717292Y-79137709D01*
X108717281Y-79137704D01*
X108444800Y-79024838D01*
X108444790Y-79024835D01*
X108175620Y-78952712D01*
X108159897Y-78948499D01*
X108159884Y-78948496D01*
X107867483Y-78910001D01*
X107867466Y-78910000D01*
X106220000Y-78910000D01*
X106220000Y-80185038D01*
X106068984Y-80155000D01*
X105871016Y-80155000D01*
X105720000Y-80185038D01*
X105720000Y-78910000D01*
X104072534Y-78910000D01*
X104072516Y-78910001D01*
X103780115Y-78948496D01*
X103780102Y-78948499D01*
X103495209Y-79024835D01*
X103495199Y-79024838D01*
X103222718Y-79137704D01*
X103222707Y-79137709D01*
X102967292Y-79285174D01*
X102967276Y-79285185D01*
X102733293Y-79464727D01*
X102733283Y-79464735D01*
X102524735Y-79673283D01*
X102524729Y-79673290D01*
X102345185Y-79907276D01*
X102345174Y-79907292D01*
X102197709Y-80162707D01*
X102197704Y-80162718D01*
X102084838Y-80435199D01*
X102084835Y-80435209D01*
X102008499Y-80720102D01*
X102008496Y-80720115D01*
X101983497Y-80910000D01*
X99000500Y-80910000D01*
X99000500Y-75103487D01*
X108994500Y-75103487D01*
X108994500Y-76876000D01*
X108994501Y-76876009D01*
X109006052Y-76983450D01*
X109006054Y-76983462D01*
X109017260Y-77034972D01*
X109051383Y-77137497D01*
X109051386Y-77137503D01*
X109129171Y-77258537D01*
X109129179Y-77258548D01*
X109174923Y-77311340D01*
X109174926Y-77311343D01*
X109174930Y-77311347D01*
X109283664Y-77405567D01*
X109283667Y-77405568D01*
X109283668Y-77405569D01*
X109377925Y-77448616D01*
X109414541Y-77465338D01*
X109481580Y-77485023D01*
X109481584Y-77485024D01*
X109599145Y-77501926D01*
X109662698Y-77530949D01*
X109700473Y-77589727D01*
X109700474Y-77659597D01*
X109669178Y-77712344D01*
X109608414Y-77773107D01*
X109488140Y-77938650D01*
X109395244Y-78120970D01*
X109332009Y-78315586D01*
X109323391Y-78370000D01*
X110680496Y-78370000D01*
X110635326Y-78448236D01*
X110605000Y-78561415D01*
X110605000Y-78678585D01*
X110635326Y-78791764D01*
X110680496Y-78870000D01*
X109323391Y-78870000D01*
X109332009Y-78924413D01*
X109395244Y-79119029D01*
X109488140Y-79301349D01*
X109608417Y-79466894D01*
X109608417Y-79466895D01*
X109753104Y-79611582D01*
X109918650Y-79731859D01*
X110100968Y-79824755D01*
X110295582Y-79887990D01*
X110497683Y-79920000D01*
X110800000Y-79920000D01*
X110800000Y-78989504D01*
X110878236Y-79034674D01*
X110991415Y-79065000D01*
X111108585Y-79065000D01*
X111221764Y-79034674D01*
X111300000Y-78989504D01*
X111300000Y-79920000D01*
X111602317Y-79920000D01*
X111804417Y-79887990D01*
X111999031Y-79824755D01*
X112181349Y-79731859D01*
X112346894Y-79611582D01*
X112346895Y-79611582D01*
X112358464Y-79600013D01*
X150625000Y-79600013D01*
X150625000Y-79712500D01*
X151750000Y-79712500D01*
X152250000Y-79712500D01*
X153374999Y-79712500D01*
X153374999Y-79600028D01*
X153374998Y-79600013D01*
X153364505Y-79497302D01*
X153309358Y-79330880D01*
X153309356Y-79330875D01*
X153217315Y-79181654D01*
X153093345Y-79057684D01*
X152944124Y-78965643D01*
X152944119Y-78965641D01*
X152777697Y-78910494D01*
X152777690Y-78910493D01*
X152674986Y-78900000D01*
X152250000Y-78900000D01*
X152250000Y-79712500D01*
X151750000Y-79712500D01*
X151750000Y-78900000D01*
X151325028Y-78900000D01*
X151325012Y-78900001D01*
X151222302Y-78910494D01*
X151055880Y-78965641D01*
X151055875Y-78965643D01*
X150906654Y-79057684D01*
X150782684Y-79181654D01*
X150690643Y-79330875D01*
X150690641Y-79330880D01*
X150635494Y-79497302D01*
X150635493Y-79497309D01*
X150625000Y-79600013D01*
X112358464Y-79600013D01*
X112449295Y-79509183D01*
X112491582Y-79466895D01*
X112491582Y-79466894D01*
X112611859Y-79301349D01*
X112704755Y-79119029D01*
X112767990Y-78924413D01*
X112776609Y-78870000D01*
X111419504Y-78870000D01*
X111464674Y-78791764D01*
X111495000Y-78678585D01*
X111495000Y-78561415D01*
X111464674Y-78448236D01*
X111419504Y-78370000D01*
X112776609Y-78370000D01*
X112767990Y-78315586D01*
X112704755Y-78120970D01*
X112611859Y-77938650D01*
X112506467Y-77793592D01*
X112482987Y-77727786D01*
X112498812Y-77659732D01*
X112548918Y-77611037D01*
X112617396Y-77597161D01*
X112652837Y-77605575D01*
X113122880Y-77793592D01*
X114790090Y-78460476D01*
X114790099Y-78460478D01*
X114790100Y-78460479D01*
X114882217Y-78487506D01*
X114882222Y-78487507D01*
X114882232Y-78487510D01*
X114928284Y-78496379D01*
X114966522Y-78500027D01*
X115023871Y-78505500D01*
X115023880Y-78505500D01*
X136375990Y-78505500D01*
X136376000Y-78505500D01*
X136483456Y-78493947D01*
X136534967Y-78482741D01*
X136569197Y-78471347D01*
X136637497Y-78448616D01*
X136637501Y-78448613D01*
X136637504Y-78448613D01*
X136758543Y-78370825D01*
X136811347Y-78325070D01*
X136905567Y-78216336D01*
X136965338Y-78085459D01*
X136985023Y-78018420D01*
X136985024Y-78018416D01*
X137005500Y-77876000D01*
X137005500Y-76345424D01*
X137010033Y-76329984D01*
X137009574Y-76313901D01*
X137019674Y-76297150D01*
X137025185Y-76278385D01*
X137037343Y-76267849D01*
X137045654Y-76254068D01*
X137063209Y-76245436D01*
X137077989Y-76232630D01*
X137093913Y-76230340D01*
X137108355Y-76223240D01*
X137127786Y-76225469D01*
X137147147Y-76222686D01*
X137161784Y-76229370D01*
X137177769Y-76231205D01*
X137192908Y-76243584D01*
X137210703Y-76251711D01*
X137220005Y-76265741D01*
X137231858Y-76275433D01*
X137247430Y-76307105D01*
X137257353Y-76337644D01*
X137272523Y-76384331D01*
X137272642Y-76384698D01*
X137302151Y-76476491D01*
X137302906Y-76478312D01*
X137302908Y-76478316D01*
X137303615Y-76480022D01*
X137303616Y-76480025D01*
X137347417Y-76565991D01*
X137388368Y-76646986D01*
X137401066Y-76690333D01*
X137410001Y-76777797D01*
X137410001Y-76777799D01*
X137442542Y-76876000D01*
X137465186Y-76944334D01*
X137557288Y-77093656D01*
X137681344Y-77217712D01*
X137830666Y-77309814D01*
X137997203Y-77364999D01*
X138099991Y-77375500D01*
X138825008Y-77375499D01*
X138825016Y-77375498D01*
X138825019Y-77375498D01*
X138881302Y-77369748D01*
X138927797Y-77364999D01*
X139094334Y-77309814D01*
X139160568Y-77268961D01*
X139225664Y-77250500D01*
X140274336Y-77250500D01*
X140339432Y-77268961D01*
X140405659Y-77309810D01*
X140405660Y-77309810D01*
X140405666Y-77309814D01*
X140572203Y-77364999D01*
X140674991Y-77375500D01*
X141400008Y-77375499D01*
X141400016Y-77375498D01*
X141400019Y-77375498D01*
X141456302Y-77369748D01*
X141502797Y-77364999D01*
X141669334Y-77309814D01*
X141818656Y-77217712D01*
X141942712Y-77093656D01*
X142034814Y-76944334D01*
X142089999Y-76777797D01*
X142099014Y-76689552D01*
X142111887Y-76645860D01*
X142196382Y-76480029D01*
X142196383Y-76480027D01*
X142196384Y-76480025D01*
X142257209Y-76292826D01*
X142267106Y-76230340D01*
X142288000Y-76098422D01*
X142288000Y-75901577D01*
X142712000Y-75901577D01*
X142712000Y-76098422D01*
X142742790Y-76292826D01*
X142803617Y-76480029D01*
X142888113Y-76645860D01*
X142900986Y-76689553D01*
X142910001Y-76777797D01*
X142910001Y-76777799D01*
X142942542Y-76876000D01*
X142965186Y-76944334D01*
X143057288Y-77093656D01*
X143181344Y-77217712D01*
X143330666Y-77309814D01*
X143497203Y-77364999D01*
X143599991Y-77375500D01*
X144325008Y-77375499D01*
X144325016Y-77375498D01*
X144325019Y-77375498D01*
X144381302Y-77369748D01*
X144427797Y-77364999D01*
X144594334Y-77309814D01*
X144660568Y-77268961D01*
X144725664Y-77250500D01*
X145811836Y-77250500D01*
X145876932Y-77268961D01*
X145943159Y-77309810D01*
X145943160Y-77309810D01*
X145943166Y-77309814D01*
X146109703Y-77364999D01*
X146212491Y-77375500D01*
X146937508Y-77375499D01*
X146937516Y-77375498D01*
X146937519Y-77375498D01*
X146993802Y-77369748D01*
X147040297Y-77364999D01*
X147206834Y-77309814D01*
X147356156Y-77217712D01*
X147480212Y-77093656D01*
X147572314Y-76944334D01*
X147627499Y-76777797D01*
X147636514Y-76689552D01*
X147649387Y-76645860D01*
X147733884Y-76480025D01*
X147752569Y-76422517D01*
X147792007Y-76364842D01*
X147856365Y-76337644D01*
X147925212Y-76349559D01*
X147976687Y-76396803D01*
X147994500Y-76460836D01*
X147994500Y-77876000D01*
X147994501Y-77876009D01*
X148006052Y-77983450D01*
X148006054Y-77983462D01*
X148017260Y-78034972D01*
X148051383Y-78137497D01*
X148051386Y-78137503D01*
X148129171Y-78258537D01*
X148129179Y-78258548D01*
X148174923Y-78311340D01*
X148174926Y-78311343D01*
X148174930Y-78311347D01*
X148283664Y-78405567D01*
X148283667Y-78405568D01*
X148283668Y-78405569D01*
X148403901Y-78460479D01*
X148414541Y-78465338D01*
X148481580Y-78485023D01*
X148481584Y-78485024D01*
X148624000Y-78505500D01*
X148624003Y-78505500D01*
X152486378Y-78505500D01*
X152486389Y-78505500D01*
X152541552Y-78502481D01*
X152568451Y-78499528D01*
X152622946Y-78490510D01*
X152647638Y-78485023D01*
X157042203Y-77508453D01*
X157069102Y-77505500D01*
X158375990Y-77505500D01*
X158376000Y-77505500D01*
X158483456Y-77493947D01*
X158534967Y-77482741D01*
X158569197Y-77471347D01*
X158637497Y-77448616D01*
X158637501Y-77448613D01*
X158637504Y-77448613D01*
X158758543Y-77370825D01*
X158811347Y-77325070D01*
X158905567Y-77216336D01*
X158965338Y-77085459D01*
X158985023Y-77018420D01*
X158985024Y-77018416D01*
X159005500Y-76876000D01*
X159005500Y-75124000D01*
X158993947Y-75016544D01*
X158982741Y-74965033D01*
X158981421Y-74961067D01*
X158948616Y-74862502D01*
X158948613Y-74862496D01*
X158897066Y-74782288D01*
X158870825Y-74741457D01*
X158860737Y-74729815D01*
X158825076Y-74688659D01*
X158825072Y-74688656D01*
X158825070Y-74688653D01*
X158716336Y-74594433D01*
X158716333Y-74594431D01*
X158716331Y-74594430D01*
X158585459Y-74534661D01*
X158547170Y-74523418D01*
X158488392Y-74485643D01*
X158459369Y-74422086D01*
X158469314Y-74352928D01*
X158481789Y-74331556D01*
X158561859Y-74221349D01*
X158654755Y-74039029D01*
X158717990Y-73844413D01*
X158726609Y-73790000D01*
X157369504Y-73790000D01*
X157414674Y-73711764D01*
X157445000Y-73598585D01*
X157445000Y-73481415D01*
X157414674Y-73368236D01*
X157369504Y-73290000D01*
X158726609Y-73290000D01*
X158717990Y-73235586D01*
X158654755Y-73040970D01*
X158561859Y-72858650D01*
X158441582Y-72693105D01*
X158441582Y-72693104D01*
X158296895Y-72548417D01*
X158131349Y-72428140D01*
X157949031Y-72335244D01*
X157754417Y-72272009D01*
X157552317Y-72240000D01*
X157250000Y-72240000D01*
X157250000Y-73170495D01*
X157171764Y-73125326D01*
X157058585Y-73095000D01*
X156941415Y-73095000D01*
X156828236Y-73125326D01*
X156750000Y-73170495D01*
X156750000Y-72240000D01*
X156447683Y-72240000D01*
X156245582Y-72272009D01*
X156050968Y-72335244D01*
X155868650Y-72428140D01*
X155703105Y-72548417D01*
X155703104Y-72548417D01*
X155558417Y-72693104D01*
X155558417Y-72693105D01*
X155438140Y-72858650D01*
X155345244Y-73040970D01*
X155282009Y-73235586D01*
X155273391Y-73290000D01*
X156630496Y-73290000D01*
X156585326Y-73368236D01*
X156555000Y-73481415D01*
X156555000Y-73598585D01*
X156585326Y-73711764D01*
X156630496Y-73790000D01*
X155273391Y-73790000D01*
X155282009Y-73844413D01*
X155282010Y-73844418D01*
X155304572Y-73913858D01*
X155306567Y-73983699D01*
X155270486Y-74043532D01*
X155207785Y-74074359D01*
X155159742Y-74073222D01*
X152622955Y-73509491D01*
X152622922Y-73509485D01*
X152568455Y-73500472D01*
X152553080Y-73498784D01*
X152541552Y-73497519D01*
X152486389Y-73494500D01*
X148624000Y-73494500D01*
X148623991Y-73494500D01*
X148623990Y-73494501D01*
X148516549Y-73506052D01*
X148516537Y-73506054D01*
X148465027Y-73517260D01*
X148362502Y-73551383D01*
X148362496Y-73551386D01*
X148241462Y-73629171D01*
X148241451Y-73629179D01*
X148188659Y-73674923D01*
X148094433Y-73783664D01*
X148094430Y-73783668D01*
X148034664Y-73914534D01*
X148014976Y-73981582D01*
X147994500Y-74124001D01*
X147994500Y-75539163D01*
X147974815Y-75606202D01*
X147922011Y-75651957D01*
X147852853Y-75661901D01*
X147789297Y-75632876D01*
X147752569Y-75577482D01*
X147733884Y-75519975D01*
X147733882Y-75519972D01*
X147733882Y-75519970D01*
X147649386Y-75354138D01*
X147636513Y-75310444D01*
X147627499Y-75222203D01*
X147627498Y-75222200D01*
X147594961Y-75124010D01*
X147572314Y-75055666D01*
X147480212Y-74906344D01*
X147356156Y-74782288D01*
X147206834Y-74690186D01*
X147040297Y-74635001D01*
X147040295Y-74635000D01*
X146937510Y-74624500D01*
X146212498Y-74624500D01*
X146212480Y-74624501D01*
X146109703Y-74635000D01*
X146109700Y-74635001D01*
X145943168Y-74690185D01*
X145943159Y-74690189D01*
X145876932Y-74731039D01*
X145811836Y-74749500D01*
X144725664Y-74749500D01*
X144660568Y-74731039D01*
X144594340Y-74690189D01*
X144594335Y-74690187D01*
X144594334Y-74690186D01*
X144427797Y-74635001D01*
X144427795Y-74635000D01*
X144325010Y-74624500D01*
X143599998Y-74624500D01*
X143599980Y-74624501D01*
X143497203Y-74635000D01*
X143497200Y-74635001D01*
X143330668Y-74690185D01*
X143330663Y-74690187D01*
X143181342Y-74782289D01*
X143057289Y-74906342D01*
X142965187Y-75055663D01*
X142965185Y-75055668D01*
X142910001Y-75222204D01*
X142910000Y-75222205D01*
X142900985Y-75310449D01*
X142888112Y-75354141D01*
X142803617Y-75519970D01*
X142742790Y-75707173D01*
X142712000Y-75901577D01*
X142288000Y-75901577D01*
X142257209Y-75707173D01*
X142215069Y-75577482D01*
X142196384Y-75519975D01*
X142196382Y-75519972D01*
X142196382Y-75519970D01*
X142111886Y-75354138D01*
X142099013Y-75310444D01*
X142089999Y-75222203D01*
X142089998Y-75222200D01*
X142057461Y-75124010D01*
X142034814Y-75055666D01*
X141942712Y-74906344D01*
X141818656Y-74782288D01*
X141669334Y-74690186D01*
X141502797Y-74635001D01*
X141502795Y-74635000D01*
X141400010Y-74624500D01*
X140674998Y-74624500D01*
X140674980Y-74624501D01*
X140572203Y-74635000D01*
X140572200Y-74635001D01*
X140405668Y-74690185D01*
X140405659Y-74690189D01*
X140339432Y-74731039D01*
X140274336Y-74749500D01*
X139841302Y-74749500D01*
X139774263Y-74729815D01*
X139728508Y-74677011D01*
X139717303Y-74625112D01*
X139721361Y-73326675D01*
X139721361Y-73326674D01*
X139724257Y-72399986D01*
X150625001Y-72399986D01*
X150635494Y-72502697D01*
X150690641Y-72669119D01*
X150690643Y-72669124D01*
X150782684Y-72818345D01*
X150906654Y-72942315D01*
X151055875Y-73034356D01*
X151055880Y-73034358D01*
X151222302Y-73089505D01*
X151222309Y-73089506D01*
X151325019Y-73099999D01*
X151749999Y-73099999D01*
X152250000Y-73099999D01*
X152674972Y-73099999D01*
X152674986Y-73099998D01*
X152777697Y-73089505D01*
X152944119Y-73034358D01*
X152944124Y-73034356D01*
X153093345Y-72942315D01*
X153217315Y-72818345D01*
X153309356Y-72669124D01*
X153309358Y-72669119D01*
X153364505Y-72502697D01*
X153364506Y-72502690D01*
X153374999Y-72399986D01*
X153375000Y-72399973D01*
X153375000Y-72287500D01*
X152250000Y-72287500D01*
X152250000Y-73099999D01*
X151749999Y-73099999D01*
X151750000Y-73099998D01*
X151750000Y-72287500D01*
X150625001Y-72287500D01*
X150625001Y-72399986D01*
X139724257Y-72399986D01*
X139724770Y-72235751D01*
X139725801Y-71905499D01*
X139725800Y-71905481D01*
X139695618Y-71710990D01*
X139695618Y-71710987D01*
X139693167Y-71703364D01*
X139684053Y-71675013D01*
X150625000Y-71675013D01*
X150625000Y-71787500D01*
X151750000Y-71787500D01*
X152250000Y-71787500D01*
X153374999Y-71787500D01*
X153374999Y-71675028D01*
X153374998Y-71675013D01*
X153364505Y-71572302D01*
X153309358Y-71405880D01*
X153309356Y-71405875D01*
X153228988Y-71275579D01*
X153228987Y-71275577D01*
X153217317Y-71256656D01*
X153093345Y-71132684D01*
X152944124Y-71040643D01*
X152944119Y-71040641D01*
X152777697Y-70985494D01*
X152777690Y-70985493D01*
X152674986Y-70975000D01*
X152250000Y-70975000D01*
X152250000Y-71787500D01*
X151750000Y-71787500D01*
X151750000Y-70975000D01*
X151325028Y-70975000D01*
X151325012Y-70975001D01*
X151222302Y-70985494D01*
X151055880Y-71040641D01*
X151055875Y-71040643D01*
X150906654Y-71132684D01*
X150782684Y-71256654D01*
X150690643Y-71405875D01*
X150690641Y-71405880D01*
X150635494Y-71572302D01*
X150635493Y-71572309D01*
X150625000Y-71675013D01*
X139684053Y-71675013D01*
X139651037Y-71572309D01*
X139635378Y-71523598D01*
X139575861Y-71405880D01*
X139563839Y-71382101D01*
X139550499Y-71326152D01*
X139550499Y-71299998D01*
X139550498Y-71299981D01*
X139539999Y-71197203D01*
X139539998Y-71197200D01*
X139507452Y-71098984D01*
X139484814Y-71030666D01*
X139392712Y-70881344D01*
X139268656Y-70757288D01*
X139256840Y-70750000D01*
X158093497Y-70750000D01*
X161105038Y-70750000D01*
X161075000Y-70901016D01*
X161075000Y-71098984D01*
X161105038Y-71250000D01*
X158093498Y-71250000D01*
X158118496Y-71439884D01*
X158118499Y-71439897D01*
X158194835Y-71724790D01*
X158194838Y-71724800D01*
X158307704Y-71997281D01*
X158307709Y-71997292D01*
X158455174Y-72252707D01*
X158455185Y-72252723D01*
X158634729Y-72486709D01*
X158634735Y-72486716D01*
X158843283Y-72695264D01*
X158843290Y-72695270D01*
X159077276Y-72874814D01*
X159077292Y-72874825D01*
X159332707Y-73022290D01*
X159332718Y-73022295D01*
X159605199Y-73135161D01*
X159605209Y-73135164D01*
X159890102Y-73211500D01*
X159890115Y-73211503D01*
X160182516Y-73249998D01*
X160182534Y-73250000D01*
X161830000Y-73250000D01*
X161830000Y-71974961D01*
X161981016Y-72005000D01*
X162178984Y-72005000D01*
X162330000Y-71974961D01*
X162330000Y-73250000D01*
X163977466Y-73250000D01*
X163977483Y-73249998D01*
X164269884Y-73211503D01*
X164269897Y-73211500D01*
X164554790Y-73135164D01*
X164554800Y-73135161D01*
X164827281Y-73022295D01*
X164827292Y-73022290D01*
X165082707Y-72874825D01*
X165082723Y-72874814D01*
X165316709Y-72695270D01*
X165316716Y-72695264D01*
X165525264Y-72486716D01*
X165525270Y-72486709D01*
X165704814Y-72252723D01*
X165704825Y-72252707D01*
X165852290Y-71997292D01*
X165852295Y-71997281D01*
X165965161Y-71724800D01*
X165965164Y-71724790D01*
X166041500Y-71439897D01*
X166041503Y-71439884D01*
X166066502Y-71250000D01*
X163054962Y-71250000D01*
X163085000Y-71098984D01*
X163085000Y-70901016D01*
X163054962Y-70750000D01*
X166066502Y-70750000D01*
X166041503Y-70560115D01*
X166041500Y-70560102D01*
X165965164Y-70275209D01*
X165965161Y-70275199D01*
X165852295Y-70002718D01*
X165852290Y-70002707D01*
X165704825Y-69747292D01*
X165704814Y-69747276D01*
X165525270Y-69513290D01*
X165525264Y-69513283D01*
X165316716Y-69304735D01*
X165316709Y-69304729D01*
X165082723Y-69125185D01*
X165082707Y-69125174D01*
X164827292Y-68977709D01*
X164827281Y-68977704D01*
X164554800Y-68864838D01*
X164554790Y-68864835D01*
X164269897Y-68788499D01*
X164269884Y-68788496D01*
X163977483Y-68750001D01*
X163977466Y-68750000D01*
X162330000Y-68750000D01*
X162330000Y-70025038D01*
X162178984Y-69995000D01*
X161981016Y-69995000D01*
X161830000Y-70025038D01*
X161830000Y-68750000D01*
X160182534Y-68750000D01*
X160182516Y-68750001D01*
X159890115Y-68788496D01*
X159890102Y-68788499D01*
X159605209Y-68864835D01*
X159605199Y-68864838D01*
X159332718Y-68977704D01*
X159332707Y-68977709D01*
X159077292Y-69125174D01*
X159077276Y-69125185D01*
X158843290Y-69304729D01*
X158843283Y-69304735D01*
X158634735Y-69513283D01*
X158634729Y-69513290D01*
X158455185Y-69747276D01*
X158455174Y-69747292D01*
X158307709Y-70002707D01*
X158307704Y-70002718D01*
X158194838Y-70275199D01*
X158194835Y-70275209D01*
X158118499Y-70560102D01*
X158118496Y-70560115D01*
X158093497Y-70750000D01*
X139256840Y-70750000D01*
X139119334Y-70665186D01*
X138952797Y-70610001D01*
X138952795Y-70610000D01*
X138850010Y-70599500D01*
X138099998Y-70599500D01*
X138099980Y-70599501D01*
X137997203Y-70610000D01*
X137997200Y-70610001D01*
X137830668Y-70665185D01*
X137830663Y-70665187D01*
X137681342Y-70757289D01*
X137557289Y-70881342D01*
X137465187Y-71030663D01*
X137465185Y-71030668D01*
X137461880Y-71040643D01*
X137410001Y-71197203D01*
X137410001Y-71197204D01*
X137410000Y-71197204D01*
X137399500Y-71299983D01*
X137399500Y-71326916D01*
X137385809Y-71383555D01*
X137317622Y-71516355D01*
X137256211Y-71703364D01*
X137224815Y-71897668D01*
X137224813Y-71897685D01*
X137218529Y-73908639D01*
X137198635Y-73975616D01*
X137145689Y-74021206D01*
X137076499Y-74030933D01*
X137013035Y-74001710D01*
X136976876Y-73947410D01*
X136948615Y-73862502D01*
X136948613Y-73862496D01*
X136870828Y-73741462D01*
X136870825Y-73741457D01*
X136870820Y-73741451D01*
X136825072Y-73688654D01*
X136823285Y-73687106D01*
X136822855Y-73686437D01*
X136821939Y-73685521D01*
X136822138Y-73685321D01*
X136785508Y-73628330D01*
X136780485Y-73593782D01*
X136775186Y-71897676D01*
X136743788Y-71703364D01*
X136682378Y-71516356D01*
X136614190Y-71383555D01*
X136600499Y-71326916D01*
X136600499Y-71299998D01*
X136600498Y-71299981D01*
X136589999Y-71197203D01*
X136589998Y-71197200D01*
X136557452Y-71098984D01*
X136534814Y-71030666D01*
X136442712Y-70881344D01*
X136318656Y-70757288D01*
X136169334Y-70665186D01*
X136002797Y-70610001D01*
X136002795Y-70610000D01*
X135900010Y-70599500D01*
X135149998Y-70599500D01*
X135149980Y-70599501D01*
X135047203Y-70610000D01*
X135047200Y-70610001D01*
X134880668Y-70665185D01*
X134880663Y-70665187D01*
X134731342Y-70757289D01*
X134607289Y-70881342D01*
X134515187Y-71030663D01*
X134515185Y-71030668D01*
X134511880Y-71040643D01*
X134460001Y-71197203D01*
X134460001Y-71197204D01*
X134460000Y-71197204D01*
X134449500Y-71299983D01*
X134449500Y-71326153D01*
X134436161Y-71382101D01*
X134364622Y-71523597D01*
X134304382Y-71710987D01*
X134304381Y-71710990D01*
X134274199Y-71905481D01*
X134274198Y-71905499D01*
X134278776Y-73370112D01*
X134259301Y-73437213D01*
X134206641Y-73483133D01*
X134154777Y-73494500D01*
X115011182Y-73494500D01*
X114968815Y-73496405D01*
X114965788Y-73496542D01*
X114965771Y-73496543D01*
X114943606Y-73498541D01*
X114898600Y-73504649D01*
X114898570Y-73504654D01*
X109511390Y-74484141D01*
X109450424Y-74499189D01*
X109450419Y-74499191D01*
X109421092Y-74508397D01*
X109421091Y-74508397D01*
X109362496Y-74530873D01*
X109362495Y-74530874D01*
X109241462Y-74608657D01*
X109241451Y-74608666D01*
X109188659Y-74654410D01*
X109094433Y-74763151D01*
X109094430Y-74763155D01*
X109034664Y-74894021D01*
X109014976Y-74961069D01*
X109001376Y-75055663D01*
X108994500Y-75103487D01*
X99000500Y-75103487D01*
X99000500Y-70750000D01*
X101983497Y-70750000D01*
X104995038Y-70750000D01*
X104965000Y-70901016D01*
X104965000Y-71098984D01*
X104995038Y-71250000D01*
X101983498Y-71250000D01*
X102008496Y-71439884D01*
X102008499Y-71439897D01*
X102084835Y-71724790D01*
X102084838Y-71724800D01*
X102197704Y-71997281D01*
X102197709Y-71997292D01*
X102345174Y-72252707D01*
X102345185Y-72252723D01*
X102524729Y-72486709D01*
X102524735Y-72486716D01*
X102733283Y-72695264D01*
X102733290Y-72695270D01*
X102967276Y-72874814D01*
X102967292Y-72874825D01*
X103222707Y-73022290D01*
X103222718Y-73022295D01*
X103495199Y-73135161D01*
X103495209Y-73135164D01*
X103780102Y-73211500D01*
X103780115Y-73211503D01*
X104072516Y-73249998D01*
X104072534Y-73250000D01*
X105720000Y-73250000D01*
X105720000Y-71974961D01*
X105871016Y-72005000D01*
X106068984Y-72005000D01*
X106220000Y-71974961D01*
X106220000Y-73250000D01*
X107867466Y-73250000D01*
X107867483Y-73249998D01*
X108159884Y-73211503D01*
X108159897Y-73211500D01*
X108444790Y-73135164D01*
X108444800Y-73135161D01*
X108717281Y-73022295D01*
X108717292Y-73022290D01*
X108972707Y-72874825D01*
X108972723Y-72874814D01*
X109206709Y-72695270D01*
X109206716Y-72695264D01*
X109415264Y-72486716D01*
X109415270Y-72486709D01*
X109594814Y-72252723D01*
X109594825Y-72252707D01*
X109742290Y-71997292D01*
X109742295Y-71997281D01*
X109855161Y-71724800D01*
X109855164Y-71724790D01*
X109931500Y-71439897D01*
X109931503Y-71439884D01*
X109956502Y-71250000D01*
X106944962Y-71250000D01*
X106975000Y-71098984D01*
X106975000Y-70901016D01*
X106944962Y-70750000D01*
X109956502Y-70750000D01*
X109931503Y-70560115D01*
X109931500Y-70560102D01*
X109855164Y-70275209D01*
X109855161Y-70275199D01*
X109742295Y-70002718D01*
X109742290Y-70002707D01*
X109594825Y-69747292D01*
X109594814Y-69747276D01*
X109415270Y-69513290D01*
X109415264Y-69513283D01*
X109206716Y-69304735D01*
X109206709Y-69304729D01*
X108972723Y-69125185D01*
X108972707Y-69125174D01*
X108717292Y-68977709D01*
X108717281Y-68977704D01*
X108444800Y-68864838D01*
X108444790Y-68864835D01*
X108159897Y-68788499D01*
X108159884Y-68788496D01*
X107867483Y-68750001D01*
X107867466Y-68750000D01*
X106220000Y-68750000D01*
X106220000Y-70025038D01*
X106068984Y-69995000D01*
X105871016Y-69995000D01*
X105720000Y-70025038D01*
X105720000Y-68750000D01*
X104072534Y-68750000D01*
X104072516Y-68750001D01*
X103780115Y-68788496D01*
X103780102Y-68788499D01*
X103495209Y-68864835D01*
X103495199Y-68864838D01*
X103222718Y-68977704D01*
X103222707Y-68977709D01*
X102967292Y-69125174D01*
X102967276Y-69125185D01*
X102733290Y-69304729D01*
X102733283Y-69304735D01*
X102524735Y-69513283D01*
X102524729Y-69513290D01*
X102345185Y-69747276D01*
X102345174Y-69747292D01*
X102197709Y-70002707D01*
X102197704Y-70002718D01*
X102084838Y-70275199D01*
X102084835Y-70275209D01*
X102008499Y-70560102D01*
X102008496Y-70560115D01*
X101983497Y-70750000D01*
X99000500Y-70750000D01*
X99000500Y-62878711D01*
X101649500Y-62878711D01*
X101649500Y-63121288D01*
X101681161Y-63361785D01*
X101743947Y-63596104D01*
X101836773Y-63820205D01*
X101836776Y-63820212D01*
X101958064Y-64030289D01*
X101958066Y-64030292D01*
X101958067Y-64030293D01*
X102105733Y-64222736D01*
X102105739Y-64222743D01*
X102277256Y-64394260D01*
X102277262Y-64394265D01*
X102469711Y-64541936D01*
X102679788Y-64663224D01*
X102903900Y-64756054D01*
X103138211Y-64818838D01*
X103318586Y-64842584D01*
X103378711Y-64850500D01*
X103378712Y-64850500D01*
X103621289Y-64850500D01*
X103669388Y-64844167D01*
X103861789Y-64818838D01*
X104096100Y-64756054D01*
X104320212Y-64663224D01*
X104530289Y-64541936D01*
X104722738Y-64394265D01*
X104894265Y-64222738D01*
X105041936Y-64030289D01*
X105163224Y-63820212D01*
X105256054Y-63596100D01*
X105318838Y-63361789D01*
X105350500Y-63121288D01*
X105350500Y-62878712D01*
X105350500Y-62878711D01*
X162649500Y-62878711D01*
X162649500Y-63121288D01*
X162681161Y-63361785D01*
X162743947Y-63596104D01*
X162836773Y-63820205D01*
X162836776Y-63820212D01*
X162958064Y-64030289D01*
X162958066Y-64030292D01*
X162958067Y-64030293D01*
X163105733Y-64222736D01*
X163105739Y-64222743D01*
X163277256Y-64394260D01*
X163277262Y-64394265D01*
X163469711Y-64541936D01*
X163679788Y-64663224D01*
X163903900Y-64756054D01*
X164138211Y-64818838D01*
X164318586Y-64842584D01*
X164378711Y-64850500D01*
X164378712Y-64850500D01*
X164621289Y-64850500D01*
X164669388Y-64844167D01*
X164861789Y-64818838D01*
X165096100Y-64756054D01*
X165320212Y-64663224D01*
X165530289Y-64541936D01*
X165722738Y-64394265D01*
X165894265Y-64222738D01*
X166041936Y-64030289D01*
X166163224Y-63820212D01*
X166256054Y-63596100D01*
X166318838Y-63361789D01*
X166350500Y-63121288D01*
X166350500Y-62878712D01*
X166318838Y-62638211D01*
X166256054Y-62403900D01*
X166163224Y-62179788D01*
X166041936Y-61969711D01*
X165894265Y-61777262D01*
X165894260Y-61777256D01*
X165722743Y-61605739D01*
X165722736Y-61605733D01*
X165530293Y-61458067D01*
X165530292Y-61458066D01*
X165530289Y-61458064D01*
X165320212Y-61336776D01*
X165320205Y-61336773D01*
X165096104Y-61243947D01*
X164861785Y-61181161D01*
X164621289Y-61149500D01*
X164621288Y-61149500D01*
X164378712Y-61149500D01*
X164378711Y-61149500D01*
X164138214Y-61181161D01*
X163903895Y-61243947D01*
X163679794Y-61336773D01*
X163679785Y-61336777D01*
X163469706Y-61458067D01*
X163277263Y-61605733D01*
X163277256Y-61605739D01*
X163105739Y-61777256D01*
X163105733Y-61777263D01*
X162958067Y-61969706D01*
X162836777Y-62179785D01*
X162836773Y-62179794D01*
X162743947Y-62403895D01*
X162681161Y-62638214D01*
X162649500Y-62878711D01*
X105350500Y-62878711D01*
X105318838Y-62638211D01*
X105256054Y-62403900D01*
X105163224Y-62179788D01*
X105041936Y-61969711D01*
X104894265Y-61777262D01*
X104894260Y-61777256D01*
X104722743Y-61605739D01*
X104722736Y-61605733D01*
X104530293Y-61458067D01*
X104530292Y-61458066D01*
X104530289Y-61458064D01*
X104320212Y-61336776D01*
X104320205Y-61336773D01*
X104096104Y-61243947D01*
X103861785Y-61181161D01*
X103621289Y-61149500D01*
X103621288Y-61149500D01*
X103378712Y-61149500D01*
X103378711Y-61149500D01*
X103138214Y-61181161D01*
X102903895Y-61243947D01*
X102679794Y-61336773D01*
X102679785Y-61336777D01*
X102469706Y-61458067D01*
X102277263Y-61605733D01*
X102277256Y-61605739D01*
X102105739Y-61777256D01*
X102105733Y-61777263D01*
X101958067Y-61969706D01*
X101836777Y-62179785D01*
X101836773Y-62179794D01*
X101743947Y-62403895D01*
X101681161Y-62638214D01*
X101649500Y-62878711D01*
X99000500Y-62878711D01*
X99000500Y-58124500D01*
X99020185Y-58057461D01*
X99072989Y-58011706D01*
X99124500Y-58000500D01*
X168874259Y-58000500D01*
X168941298Y-58020185D01*
G37*
%TD.AperFunction*%
%TD*%
%TA.AperFunction,Conductor*%
%TO.N,RF_In*%
G36*
X136443039Y-74019685D02*
G01*
X136488794Y-74072489D01*
X136500000Y-74124000D01*
X136500000Y-77876000D01*
X136480315Y-77943039D01*
X136427511Y-77988794D01*
X136376000Y-78000000D01*
X115023880Y-78000000D01*
X114977828Y-77991131D01*
X112500000Y-77000000D01*
X109624000Y-77000000D01*
X109556961Y-76980315D01*
X109511206Y-76927511D01*
X109500000Y-76876000D01*
X109500000Y-75103487D01*
X109519685Y-75036448D01*
X109572489Y-74990693D01*
X109601813Y-74981488D01*
X114989000Y-74002000D01*
X115011182Y-74000000D01*
X136376000Y-74000000D01*
X136443039Y-74019685D01*
G37*
%TD.AperFunction*%
%TD*%
M02*
