%TF.GenerationSoftware,KiCad,Pcbnew,9.0.8*%
%TF.CreationDate,2026-04-10T12:08:16+00:00*%
%TF.ProjectId,DummyLoad,44756d6d-794c-46f6-9164-2e6b69636164,rev?*%
%TF.SameCoordinates,Original*%
%TF.FileFunction,Copper,L1,Top*%
%TF.FilePolarity,Positive*%
%FSLAX46Y46*%
G04 Gerber Fmt 4.6, Leading zero omitted, Abs format (unit mm)*
G04 Created by KiCad (PCBNEW 9.0.8) date 2026-04-10 12:08:16*
%MOMM*%
%LPD*%
G01*
G04 APERTURE LIST*
G04 Aperture macros list*
%AMRoundRect*
0 Rectangle with rounded corners*
0 $1 Rounding radius*
0 $2 $3 $4 $5 $6 $7 $8 $9 X,Y pos of 4 corners*
0 Add a 4 corners polygon primitive as box body*
4,1,4,$2,$3,$4,$5,$6,$7,$8,$9,$2,$3,0*
0 Add four circle primitives for the rounded corners*
1,1,$1+$1,$2,$3*
1,1,$1+$1,$4,$5*
1,1,$1+$1,$6,$7*
1,1,$1+$1,$8,$9*
0 Add four rect primitives between the rounded corners*
20,1,$1+$1,$2,$3,$4,$5,0*
20,1,$1+$1,$4,$5,$6,$7,0*
20,1,$1+$1,$6,$7,$8,$9,0*
20,1,$1+$1,$8,$9,$2,$3,0*%
G04 Aperture macros list end*
%TA.AperFunction,ComponentPad*%
%ADD10C,3.000000*%
%TD*%
%TA.AperFunction,ComponentPad*%
%ADD11O,2.500000X1.600000*%
%TD*%
%TA.AperFunction,ComponentPad*%
%ADD12O,7.000000X3.500000*%
%TD*%
%TA.AperFunction,SMDPad,CuDef*%
%ADD13RoundRect,0.250000X0.625000X-0.400000X0.625000X0.400000X-0.625000X0.400000X-0.625000X-0.400000X0*%
%TD*%
%TA.AperFunction,SMDPad,CuDef*%
%ADD14RoundRect,0.250000X-0.625000X0.400000X-0.625000X-0.400000X0.625000X-0.400000X0.625000X0.400000X0*%
%TD*%
%TA.AperFunction,SMDPad,CuDef*%
%ADD15RoundRect,0.250000X0.400000X0.625000X-0.400000X0.625000X-0.400000X-0.625000X0.400000X-0.625000X0*%
%TD*%
%TA.AperFunction,SMDPad,CuDef*%
%ADD16RoundRect,0.250000X0.412500X0.650000X-0.412500X0.650000X-0.412500X-0.650000X0.412500X-0.650000X0*%
%TD*%
%TA.AperFunction,ViaPad*%
%ADD17C,0.600000*%
%TD*%
%TA.AperFunction,Conductor*%
%ADD18C,1.500000*%
%TD*%
G04 APERTURE END LIST*
D10*
%TO.P,TP3,1,1*%
%TO.N,Net-(D1-K)*%
X145000000Y-87500000D03*
%TD*%
D11*
%TO.P,J2,1,In*%
%TO.N,RF_Out*%
X157000000Y-76080000D03*
D12*
%TO.P,J2,2,Ext*%
%TO.N,GND*%
X162080000Y-71000000D03*
D11*
X157000000Y-73540000D03*
D12*
X162080000Y-81160000D03*
%TD*%
D13*
%TO.P,R1,1*%
%TO.N,RF_In*%
X116500000Y-74550000D03*
%TO.P,R1,2*%
%TO.N,GND*%
X116500000Y-71450000D03*
%TD*%
D14*
%TO.P,R9,1*%
%TO.N,RF_In*%
X128500000Y-77500000D03*
%TO.P,R9,2*%
%TO.N,GND*%
X128500000Y-80600000D03*
%TD*%
D13*
%TO.P,R2,1*%
%TO.N,RF_In*%
X120500000Y-74600000D03*
%TO.P,R2,2*%
%TO.N,GND*%
X120500000Y-71500000D03*
%TD*%
D10*
%TO.P,TP4,1,1*%
%TO.N,GND*%
X140500000Y-87500000D03*
%TD*%
D15*
%TO.P,R22,1*%
%TO.N,Net-(R22-Pad1)*%
X144050000Y-76000000D03*
%TO.P,R22,2*%
%TO.N,Net-(C2-Pad1)*%
X140950000Y-76000000D03*
%TD*%
D10*
%TO.P,TP1,1,1*%
%TO.N,RF_In*%
X117500000Y-87500000D03*
%TD*%
D13*
%TO.P,R3,1*%
%TO.N,RF_In*%
X124500000Y-74600000D03*
%TO.P,R3,2*%
%TO.N,GND*%
X124500000Y-71500000D03*
%TD*%
D14*
%TO.P,R7,1*%
%TO.N,RF_In*%
X120500000Y-77500000D03*
%TO.P,R7,2*%
%TO.N,GND*%
X120500000Y-80600000D03*
%TD*%
D13*
%TO.P,R24,1*%
%TO.N,RF_Out*%
X152000000Y-74550000D03*
%TO.P,R24,2*%
%TO.N,GND*%
X152000000Y-71450000D03*
%TD*%
D16*
%TO.P,C2,1*%
%TO.N,Net-(C2-Pad1)*%
X138562500Y-72000000D03*
%TO.P,C2,2*%
%TO.N,RF_In*%
X135437500Y-72000000D03*
%TD*%
D10*
%TO.P,TP2,1,1*%
%TO.N,GND*%
X122000000Y-87500000D03*
%TD*%
D13*
%TO.P,R5,1*%
%TO.N,RF_In*%
X132500000Y-74600000D03*
%TO.P,R5,2*%
%TO.N,GND*%
X132500000Y-71500000D03*
%TD*%
D14*
%TO.P,R8,1*%
%TO.N,RF_In*%
X124500000Y-77500000D03*
%TO.P,R8,2*%
%TO.N,GND*%
X124500000Y-80600000D03*
%TD*%
D15*
%TO.P,R21,1*%
%TO.N,Net-(C2-Pad1)*%
X138550000Y-76000000D03*
%TO.P,R21,2*%
%TO.N,RF_In*%
X135450000Y-76000000D03*
%TD*%
D11*
%TO.P,J1,1,In*%
%TO.N,RF_In*%
X111050000Y-76080000D03*
D12*
%TO.P,J1,2,Ext*%
%TO.N,GND*%
X105970000Y-81160000D03*
D11*
X111050000Y-78620000D03*
D12*
X105970000Y-71000000D03*
%TD*%
D13*
%TO.P,R4,1*%
%TO.N,RF_In*%
X128500000Y-74600000D03*
%TO.P,R4,2*%
%TO.N,GND*%
X128500000Y-71500000D03*
%TD*%
D14*
%TO.P,R6,1*%
%TO.N,RF_In*%
X116500000Y-77450000D03*
%TO.P,R6,2*%
%TO.N,GND*%
X116500000Y-80550000D03*
%TD*%
%TO.P,R10,1*%
%TO.N,RF_In*%
X132500000Y-77500000D03*
%TO.P,R10,2*%
%TO.N,GND*%
X132500000Y-80600000D03*
%TD*%
D15*
%TO.P,R23,1*%
%TO.N,RF_Out*%
X149587500Y-76000000D03*
%TO.P,R23,2*%
%TO.N,Net-(R22-Pad1)*%
X146487500Y-76000000D03*
%TD*%
D14*
%TO.P,R25,1*%
%TO.N,RF_Out*%
X152000000Y-77450000D03*
%TO.P,R25,2*%
%TO.N,GND*%
X152000000Y-80550000D03*
%TD*%
D17*
%TO.N,GND*%
X138185000Y-87955000D03*
X120405000Y-90495000D03*
X107705000Y-62555000D03*
X133105000Y-82875000D03*
X110245000Y-85415000D03*
X135645000Y-60015000D03*
X163585000Y-60015000D03*
X133105000Y-62555000D03*
X150885000Y-85415000D03*
X140725000Y-60015000D03*
X122945000Y-82875000D03*
X112785000Y-62555000D03*
X100085000Y-87955000D03*
X115325000Y-93035000D03*
X107705000Y-77795000D03*
X105165000Y-93035000D03*
X153425000Y-93035000D03*
X128025000Y-87955000D03*
X161045000Y-60015000D03*
X148345000Y-65095000D03*
X122500000Y-80000000D03*
X120405000Y-62555000D03*
X110245000Y-90495000D03*
X120405000Y-85415000D03*
X153425000Y-67635000D03*
X143265000Y-62555000D03*
X138185000Y-93035000D03*
X135645000Y-90495000D03*
X115325000Y-62555000D03*
X112785000Y-70175000D03*
X105165000Y-60015000D03*
X166125000Y-82875000D03*
X128025000Y-62555000D03*
X117865000Y-65095000D03*
X130565000Y-60015000D03*
X163585000Y-75255000D03*
X166125000Y-60015000D03*
X107705000Y-93035000D03*
X118500000Y-80000000D03*
X112785000Y-65095000D03*
X161045000Y-65095000D03*
X122945000Y-90495000D03*
X148345000Y-82875000D03*
X161045000Y-62555000D03*
X163585000Y-77795000D03*
X110245000Y-67635000D03*
X143265000Y-72715000D03*
X107705000Y-75255000D03*
X135645000Y-62555000D03*
X133105000Y-90495000D03*
X150885000Y-62555000D03*
X100085000Y-65095000D03*
X100085000Y-72715000D03*
X122945000Y-93035000D03*
X117865000Y-62555000D03*
X107705000Y-67635000D03*
X107705000Y-65095000D03*
X125485000Y-82875000D03*
X163585000Y-67635000D03*
X130565000Y-62555000D03*
X112785000Y-72715000D03*
X161045000Y-93035000D03*
X155965000Y-60015000D03*
X125485000Y-62555000D03*
X128025000Y-85415000D03*
X114500000Y-72000000D03*
X112785000Y-67635000D03*
X100085000Y-93035000D03*
X138185000Y-90495000D03*
X145805000Y-65095000D03*
X148345000Y-62555000D03*
X122500000Y-72000000D03*
X155965000Y-65095000D03*
X140725000Y-90495000D03*
X155965000Y-62555000D03*
X161045000Y-75255000D03*
X117865000Y-82875000D03*
X150885000Y-60015000D03*
X117865000Y-60015000D03*
X150885000Y-82875000D03*
X128025000Y-67635000D03*
X150885000Y-67635000D03*
X125485000Y-90495000D03*
X145805000Y-60015000D03*
X148345000Y-87955000D03*
X100085000Y-82875000D03*
X100085000Y-80335000D03*
X135645000Y-65095000D03*
X161045000Y-85415000D03*
X130565000Y-82875000D03*
X100085000Y-90495000D03*
X120405000Y-93035000D03*
X102625000Y-60015000D03*
X107705000Y-85415000D03*
X145805000Y-72715000D03*
X135645000Y-67635000D03*
X135645000Y-70175000D03*
X166125000Y-93035000D03*
X158505000Y-62555000D03*
X161045000Y-77795000D03*
X143265000Y-90495000D03*
X155965000Y-80335000D03*
X153425000Y-65095000D03*
X122945000Y-62555000D03*
X140725000Y-67635000D03*
X140725000Y-65095000D03*
X135645000Y-87955000D03*
X105165000Y-67635000D03*
X145805000Y-77795000D03*
X102625000Y-93035000D03*
X150885000Y-87955000D03*
X135645000Y-82875000D03*
X140725000Y-72715000D03*
X120405000Y-65095000D03*
X155965000Y-93035000D03*
X112785000Y-87955000D03*
X115325000Y-60015000D03*
X153425000Y-87955000D03*
X110245000Y-62555000D03*
X148345000Y-67635000D03*
X105165000Y-75255000D03*
X125485000Y-85415000D03*
X100085000Y-70175000D03*
X138185000Y-85415000D03*
X125485000Y-87955000D03*
X130565000Y-70175000D03*
X130565000Y-67635000D03*
X153425000Y-60015000D03*
X135645000Y-93035000D03*
X166125000Y-67635000D03*
X166125000Y-72715000D03*
X145805000Y-70175000D03*
X148345000Y-90495000D03*
X130565000Y-85415000D03*
X117865000Y-67635000D03*
X105165000Y-85415000D03*
X110245000Y-93035000D03*
X163585000Y-85415000D03*
X107705000Y-90495000D03*
X110245000Y-72715000D03*
X166125000Y-85415000D03*
X125485000Y-93035000D03*
X118500000Y-72000000D03*
X158505000Y-87955000D03*
X153425000Y-62555000D03*
X115325000Y-90495000D03*
X143265000Y-70175000D03*
X128025000Y-82875000D03*
X128025000Y-90495000D03*
X100085000Y-67635000D03*
X126500000Y-80000000D03*
X155965000Y-67635000D03*
X135645000Y-85415000D03*
X138185000Y-60015000D03*
X145805000Y-62555000D03*
X112785000Y-60015000D03*
X130565000Y-93035000D03*
X150885000Y-90495000D03*
X133105000Y-85415000D03*
X148345000Y-85415000D03*
X133105000Y-65095000D03*
X158505000Y-85415000D03*
X166125000Y-75255000D03*
X163585000Y-93035000D03*
X148345000Y-93035000D03*
X166125000Y-77795000D03*
X102625000Y-67635000D03*
X153425000Y-85415000D03*
X145805000Y-67635000D03*
X128025000Y-93035000D03*
X158505000Y-60015000D03*
X110245000Y-82875000D03*
X112785000Y-90495000D03*
X145805000Y-93035000D03*
X143265000Y-67635000D03*
X110245000Y-65095000D03*
X115325000Y-67635000D03*
X120405000Y-67635000D03*
X120405000Y-82875000D03*
X122945000Y-65095000D03*
X126500000Y-72000000D03*
X125485000Y-65095000D03*
X117865000Y-93035000D03*
X158505000Y-67635000D03*
X100085000Y-75255000D03*
X110245000Y-60015000D03*
X153425000Y-82875000D03*
X161045000Y-87955000D03*
X130565000Y-65095000D03*
X107705000Y-60015000D03*
X161045000Y-67635000D03*
X143265000Y-60015000D03*
X130565000Y-90495000D03*
X138185000Y-62555000D03*
X155965000Y-85415000D03*
X138185000Y-67635000D03*
X138185000Y-70175000D03*
X110245000Y-87955000D03*
X102625000Y-85415000D03*
X143265000Y-85415000D03*
X130565000Y-80335000D03*
X140725000Y-93035000D03*
X125485000Y-67635000D03*
X145805000Y-80335000D03*
X135645000Y-80335000D03*
X128025000Y-65095000D03*
X148345000Y-70175000D03*
X112785000Y-93035000D03*
X122945000Y-67635000D03*
X102625000Y-75255000D03*
X150885000Y-65095000D03*
X138185000Y-65095000D03*
X143265000Y-77795000D03*
X133105000Y-93035000D03*
X145805000Y-90495000D03*
X133105000Y-60015000D03*
X158505000Y-93035000D03*
X140725000Y-70175000D03*
X158505000Y-90495000D03*
X107705000Y-87955000D03*
X100085000Y-85415000D03*
X150885000Y-93035000D03*
X102625000Y-77795000D03*
X122945000Y-60015000D03*
X100085000Y-60015000D03*
X155965000Y-70175000D03*
X117865000Y-90495000D03*
X140725000Y-62555000D03*
X115325000Y-65095000D03*
X155965000Y-82875000D03*
X125485000Y-60015000D03*
X105165000Y-77795000D03*
X133105000Y-87955000D03*
X158505000Y-65095000D03*
X133105000Y-67635000D03*
X128025000Y-60015000D03*
X100085000Y-77795000D03*
X153425000Y-90495000D03*
X148345000Y-80335000D03*
X120405000Y-60015000D03*
X148345000Y-60015000D03*
X143265000Y-93035000D03*
X100085000Y-62555000D03*
X143265000Y-65095000D03*
X130565000Y-87955000D03*
X155965000Y-90495000D03*
X155965000Y-87955000D03*
X161045000Y-90495000D03*
%TO.N,RF_In*%
X135500000Y-77500000D03*
X114500000Y-77000000D03*
X126500000Y-75000000D03*
X114500000Y-75000000D03*
X134000000Y-75000000D03*
X130500000Y-75000000D03*
X126500000Y-77000000D03*
X130500000Y-77000000D03*
X113000000Y-75500000D03*
X122500000Y-77000000D03*
X118500000Y-75000000D03*
X118500000Y-77000000D03*
X134000000Y-77000000D03*
X122500000Y-75000000D03*
X113000000Y-76500000D03*
%TD*%
D18*
%TO.N,RF_In*%
X135450000Y-76000000D02*
X135437500Y-72000000D01*
X113500000Y-83500000D02*
X113500000Y-77000000D01*
X117500000Y-87500000D02*
X113500000Y-83500000D01*
%TO.N,Net-(C2-Pad1)*%
X138562500Y-72000000D02*
X138550000Y-76000000D01*
X138550000Y-76000000D02*
X140950000Y-76000000D01*
%TO.N,Net-(R22-Pad1)*%
X144050000Y-76000000D02*
X146487500Y-76000000D01*
%TD*%
%TA.AperFunction,Conductor*%
%TO.N,RF_Out*%
G36*
X150739594Y-73519685D02*
G01*
X150785349Y-73572489D01*
X150795293Y-73641647D01*
X150778094Y-73689097D01*
X150690643Y-73830875D01*
X150690641Y-73830880D01*
X150635494Y-73997302D01*
X150635493Y-73997309D01*
X150625000Y-74100013D01*
X150625000Y-74300000D01*
X153374999Y-74300000D01*
X153374999Y-74100028D01*
X153374998Y-74100013D01*
X153364505Y-73997302D01*
X153309625Y-73831685D01*
X153307223Y-73761857D01*
X153342955Y-73701815D01*
X153405475Y-73670622D01*
X153470869Y-73676575D01*
X155648155Y-74493058D01*
X155692297Y-74521482D01*
X155702786Y-74531971D01*
X155845275Y-74635493D01*
X155868390Y-74652287D01*
X155984607Y-74711503D01*
X156050776Y-74745218D01*
X156050778Y-74745218D01*
X156050781Y-74745220D01*
X156147934Y-74776787D01*
X156245465Y-74808477D01*
X156329103Y-74821724D01*
X156447648Y-74840500D01*
X156447649Y-74840500D01*
X156552181Y-74840500D01*
X156595720Y-74848395D01*
X157000000Y-75000000D01*
X158376000Y-75000000D01*
X158443039Y-75019685D01*
X158488794Y-75072489D01*
X158500000Y-75124000D01*
X158500000Y-76876000D01*
X158480315Y-76943039D01*
X158427511Y-76988794D01*
X158376000Y-77000000D01*
X157000000Y-77000000D01*
X153470870Y-78323423D01*
X153401188Y-78328531D01*
X153339805Y-78295154D01*
X153306212Y-78233891D01*
X153309625Y-78168314D01*
X153364505Y-78002697D01*
X153364506Y-78002690D01*
X153374999Y-77899986D01*
X153375000Y-77899973D01*
X153375000Y-77700000D01*
X150625001Y-77700000D01*
X150625001Y-77899986D01*
X150635494Y-78002697D01*
X150690641Y-78169119D01*
X150690643Y-78169124D01*
X150778094Y-78310903D01*
X150796534Y-78378295D01*
X150775612Y-78444959D01*
X150721970Y-78489729D01*
X150672555Y-78500000D01*
X148624000Y-78500000D01*
X148556961Y-78480315D01*
X148511206Y-78427511D01*
X148500000Y-78376000D01*
X148500000Y-77297523D01*
X148519685Y-77230484D01*
X148572489Y-77184729D01*
X148641647Y-77174785D01*
X148705203Y-77203810D01*
X148711681Y-77209842D01*
X148719154Y-77217315D01*
X148868375Y-77309356D01*
X148868380Y-77309358D01*
X149034802Y-77364505D01*
X149034809Y-77364506D01*
X149137519Y-77374999D01*
X149337499Y-77374999D01*
X149837500Y-77374999D01*
X150037472Y-77374999D01*
X150037486Y-77374998D01*
X150140197Y-77364505D01*
X150306619Y-77309358D01*
X150306624Y-77309356D01*
X150455844Y-77217316D01*
X150461395Y-77211765D01*
X150522716Y-77178277D01*
X150592408Y-77183258D01*
X150618460Y-77200000D01*
X151750000Y-77200000D01*
X152250000Y-77200000D01*
X153374999Y-77200000D01*
X153374999Y-77000028D01*
X153374998Y-77000013D01*
X153364505Y-76897302D01*
X153309358Y-76730880D01*
X153309356Y-76730875D01*
X153217315Y-76581654D01*
X153093345Y-76457684D01*
X152944124Y-76365643D01*
X152944119Y-76365641D01*
X152777697Y-76310494D01*
X152777690Y-76310493D01*
X152674986Y-76300000D01*
X152250000Y-76300000D01*
X152250000Y-77200000D01*
X151750000Y-77200000D01*
X151750000Y-76300000D01*
X151325028Y-76300000D01*
X151325012Y-76300001D01*
X151222302Y-76310494D01*
X151055880Y-76365641D01*
X151055875Y-76365643D01*
X150926596Y-76445384D01*
X150859203Y-76463824D01*
X150792540Y-76442901D01*
X150747770Y-76389259D01*
X150737499Y-76339845D01*
X150737499Y-76250000D01*
X149837500Y-76250000D01*
X149837500Y-77374999D01*
X149337499Y-77374999D01*
X149337500Y-77374998D01*
X149337500Y-75750000D01*
X149837500Y-75750000D01*
X150737499Y-75750000D01*
X150737499Y-75660154D01*
X150757184Y-75593115D01*
X150809988Y-75547360D01*
X150879146Y-75537416D01*
X150926596Y-75554616D01*
X151055869Y-75634353D01*
X151055880Y-75634358D01*
X151222302Y-75689505D01*
X151222309Y-75689506D01*
X151325019Y-75699999D01*
X151749999Y-75699999D01*
X152250000Y-75699999D01*
X152674972Y-75699999D01*
X152674986Y-75699998D01*
X152777697Y-75689505D01*
X152944119Y-75634358D01*
X152944124Y-75634356D01*
X153093345Y-75542315D01*
X153217315Y-75418345D01*
X153309356Y-75269124D01*
X153309358Y-75269119D01*
X153364505Y-75102697D01*
X153364506Y-75102690D01*
X153374999Y-74999986D01*
X153375000Y-74999973D01*
X153375000Y-74800000D01*
X152250000Y-74800000D01*
X152250000Y-75699999D01*
X151749999Y-75699999D01*
X151750000Y-75699998D01*
X151750000Y-74800000D01*
X150615222Y-74800000D01*
X150575436Y-74821724D01*
X150505744Y-74816738D01*
X150461399Y-74788238D01*
X150455845Y-74782684D01*
X150306624Y-74690643D01*
X150306619Y-74690641D01*
X150140197Y-74635494D01*
X150140190Y-74635493D01*
X150037486Y-74625000D01*
X149837500Y-74625000D01*
X149837500Y-75750000D01*
X149337500Y-75750000D01*
X149337500Y-74625000D01*
X149137529Y-74625000D01*
X149137512Y-74625001D01*
X149034802Y-74635494D01*
X148868380Y-74690641D01*
X148868375Y-74690643D01*
X148719154Y-74782684D01*
X148711681Y-74790158D01*
X148650358Y-74823643D01*
X148580666Y-74818659D01*
X148524733Y-74776787D01*
X148500316Y-74711323D01*
X148500000Y-74702477D01*
X148500000Y-73624000D01*
X148519685Y-73556961D01*
X148572489Y-73511206D01*
X148624000Y-73500000D01*
X150672555Y-73500000D01*
X150739594Y-73519685D01*
G37*
%TD.AperFunction*%
%TD*%
%TA.AperFunction,Conductor*%
%TO.N,GND*%
G36*
X168942539Y-58020185D02*
G01*
X168988294Y-58072989D01*
X168999500Y-58124500D01*
X168999500Y-93875500D01*
X168979815Y-93942539D01*
X168927011Y-93988294D01*
X168875500Y-93999500D01*
X99124500Y-93999500D01*
X99057461Y-93979815D01*
X99011706Y-93927011D01*
X99000500Y-93875500D01*
X99000500Y-88878711D01*
X102149500Y-88878711D01*
X102149500Y-89121288D01*
X102181161Y-89361785D01*
X102243947Y-89596104D01*
X102336773Y-89820205D01*
X102336776Y-89820212D01*
X102458064Y-90030289D01*
X102458066Y-90030292D01*
X102458067Y-90030293D01*
X102605733Y-90222736D01*
X102605739Y-90222743D01*
X102777256Y-90394260D01*
X102777262Y-90394265D01*
X102969711Y-90541936D01*
X103179788Y-90663224D01*
X103403900Y-90756054D01*
X103638211Y-90818838D01*
X103818586Y-90842584D01*
X103878711Y-90850500D01*
X103878712Y-90850500D01*
X104121289Y-90850500D01*
X104169388Y-90844167D01*
X104361789Y-90818838D01*
X104596100Y-90756054D01*
X104820212Y-90663224D01*
X105030289Y-90541936D01*
X105222738Y-90394265D01*
X105394265Y-90222738D01*
X105541936Y-90030289D01*
X105663224Y-89820212D01*
X105756054Y-89596100D01*
X105818838Y-89361789D01*
X105850500Y-89121288D01*
X105850500Y-88878712D01*
X105818838Y-88638211D01*
X105756054Y-88403900D01*
X105663224Y-88179788D01*
X105541936Y-87969711D01*
X105394265Y-87777262D01*
X105394260Y-87777256D01*
X105222743Y-87605739D01*
X105222736Y-87605733D01*
X105030293Y-87458067D01*
X105030292Y-87458066D01*
X105030289Y-87458064D01*
X104820212Y-87336776D01*
X104820205Y-87336773D01*
X104596104Y-87243947D01*
X104361785Y-87181161D01*
X104121289Y-87149500D01*
X104121288Y-87149500D01*
X103878712Y-87149500D01*
X103878711Y-87149500D01*
X103638214Y-87181161D01*
X103403895Y-87243947D01*
X103179794Y-87336773D01*
X103179785Y-87336777D01*
X102969706Y-87458067D01*
X102777263Y-87605733D01*
X102777256Y-87605739D01*
X102605739Y-87777256D01*
X102605733Y-87777263D01*
X102458067Y-87969706D01*
X102336777Y-88179785D01*
X102336773Y-88179794D01*
X102243947Y-88403895D01*
X102181161Y-88638214D01*
X102149500Y-88878711D01*
X99000500Y-88878711D01*
X99000500Y-80910000D01*
X101983497Y-80910000D01*
X104995038Y-80910000D01*
X104965000Y-81061016D01*
X104965000Y-81258984D01*
X104995038Y-81410000D01*
X101983498Y-81410000D01*
X102008496Y-81599884D01*
X102008499Y-81599897D01*
X102084835Y-81884790D01*
X102084838Y-81884800D01*
X102197704Y-82157281D01*
X102197709Y-82157292D01*
X102345174Y-82412707D01*
X102345185Y-82412723D01*
X102524729Y-82646709D01*
X102524735Y-82646716D01*
X102733283Y-82855264D01*
X102733290Y-82855270D01*
X102967276Y-83034814D01*
X102967292Y-83034825D01*
X103222707Y-83182290D01*
X103222718Y-83182295D01*
X103495199Y-83295161D01*
X103495209Y-83295164D01*
X103780102Y-83371500D01*
X103780115Y-83371503D01*
X104072516Y-83409998D01*
X104072534Y-83410000D01*
X105720000Y-83410000D01*
X105720000Y-82134961D01*
X105871016Y-82165000D01*
X106068984Y-82165000D01*
X106220000Y-82134961D01*
X106220000Y-83410000D01*
X107867466Y-83410000D01*
X107867483Y-83409998D01*
X108159884Y-83371503D01*
X108159897Y-83371500D01*
X108444790Y-83295164D01*
X108444800Y-83295161D01*
X108717281Y-83182295D01*
X108717292Y-83182290D01*
X108972707Y-83034825D01*
X108972723Y-83034814D01*
X109206709Y-82855270D01*
X109206716Y-82855264D01*
X109415264Y-82646716D01*
X109415270Y-82646709D01*
X109594814Y-82412723D01*
X109594825Y-82412707D01*
X109742290Y-82157292D01*
X109742295Y-82157281D01*
X109855161Y-81884800D01*
X109855164Y-81884790D01*
X109931500Y-81599897D01*
X109931503Y-81599884D01*
X109956502Y-81410000D01*
X106944962Y-81410000D01*
X106975000Y-81258984D01*
X106975000Y-81061016D01*
X106944962Y-80910000D01*
X109956502Y-80910000D01*
X109931503Y-80720115D01*
X109931500Y-80720102D01*
X109855164Y-80435209D01*
X109855161Y-80435199D01*
X109742295Y-80162718D01*
X109742290Y-80162707D01*
X109594825Y-79907292D01*
X109594814Y-79907276D01*
X109415270Y-79673290D01*
X109415264Y-79673283D01*
X109206716Y-79464735D01*
X109206709Y-79464729D01*
X108972723Y-79285185D01*
X108972707Y-79285174D01*
X108717292Y-79137709D01*
X108717281Y-79137704D01*
X108444800Y-79024838D01*
X108444790Y-79024835D01*
X108175620Y-78952712D01*
X108159897Y-78948499D01*
X108159884Y-78948496D01*
X107867483Y-78910001D01*
X107867466Y-78910000D01*
X106220000Y-78910000D01*
X106220000Y-80185038D01*
X106068984Y-80155000D01*
X105871016Y-80155000D01*
X105720000Y-80185038D01*
X105720000Y-78910000D01*
X104072534Y-78910000D01*
X104072516Y-78910001D01*
X103780115Y-78948496D01*
X103780102Y-78948499D01*
X103495209Y-79024835D01*
X103495199Y-79024838D01*
X103222718Y-79137704D01*
X103222707Y-79137709D01*
X102967292Y-79285174D01*
X102967276Y-79285185D01*
X102733290Y-79464729D01*
X102733283Y-79464735D01*
X102524735Y-79673283D01*
X102524729Y-79673290D01*
X102345185Y-79907276D01*
X102345174Y-79907292D01*
X102197709Y-80162707D01*
X102197704Y-80162718D01*
X102084838Y-80435199D01*
X102084835Y-80435209D01*
X102008499Y-80720102D01*
X102008496Y-80720115D01*
X101983497Y-80910000D01*
X99000500Y-80910000D01*
X99000500Y-75094711D01*
X108994500Y-75094711D01*
X108994500Y-76876000D01*
X108994501Y-76876009D01*
X109006052Y-76983450D01*
X109006054Y-76983462D01*
X109017260Y-77034972D01*
X109051383Y-77137497D01*
X109051386Y-77137503D01*
X109129171Y-77258537D01*
X109129179Y-77258548D01*
X109174923Y-77311340D01*
X109174926Y-77311343D01*
X109174930Y-77311347D01*
X109283664Y-77405567D01*
X109283667Y-77405568D01*
X109283668Y-77405569D01*
X109377925Y-77448616D01*
X109414541Y-77465338D01*
X109481580Y-77485023D01*
X109481584Y-77485024D01*
X109599145Y-77501926D01*
X109662698Y-77530949D01*
X109700473Y-77589727D01*
X109700474Y-77659597D01*
X109669178Y-77712344D01*
X109608414Y-77773107D01*
X109488140Y-77938650D01*
X109395244Y-78120970D01*
X109332009Y-78315586D01*
X109323391Y-78370000D01*
X110680496Y-78370000D01*
X110635326Y-78448236D01*
X110605000Y-78561415D01*
X110605000Y-78678585D01*
X110635326Y-78791764D01*
X110680496Y-78870000D01*
X109323391Y-78870000D01*
X109332009Y-78924413D01*
X109395244Y-79119029D01*
X109488140Y-79301349D01*
X109608417Y-79466894D01*
X109608417Y-79466895D01*
X109753104Y-79611582D01*
X109918650Y-79731859D01*
X110100968Y-79824755D01*
X110295582Y-79887990D01*
X110497683Y-79920000D01*
X110800000Y-79920000D01*
X110800000Y-78989504D01*
X110878236Y-79034674D01*
X110991415Y-79065000D01*
X111108585Y-79065000D01*
X111221764Y-79034674D01*
X111300000Y-78989504D01*
X111300000Y-79920000D01*
X111602317Y-79920000D01*
X111804417Y-79887990D01*
X111999033Y-79824754D01*
X112069204Y-79789000D01*
X112137873Y-79776103D01*
X112202614Y-79802379D01*
X112242872Y-79859485D01*
X112249500Y-79899484D01*
X112249500Y-83598422D01*
X112280290Y-83792826D01*
X112341117Y-83980030D01*
X112430476Y-84155405D01*
X112546172Y-84314646D01*
X112546174Y-84314648D01*
X115467999Y-87236473D01*
X115501484Y-87297796D01*
X115503257Y-87340338D01*
X115499501Y-87368867D01*
X115499500Y-87368886D01*
X115499500Y-87631127D01*
X115526123Y-87833339D01*
X115533730Y-87891116D01*
X115585028Y-88082563D01*
X115601602Y-88144418D01*
X115601605Y-88144428D01*
X115701953Y-88386690D01*
X115701958Y-88386700D01*
X115833075Y-88613803D01*
X115992718Y-88821851D01*
X115992726Y-88821860D01*
X116178140Y-89007274D01*
X116178148Y-89007281D01*
X116386196Y-89166924D01*
X116613299Y-89298041D01*
X116613309Y-89298046D01*
X116855571Y-89398394D01*
X116855581Y-89398398D01*
X117108884Y-89466270D01*
X117357188Y-89498960D01*
X117365074Y-89499999D01*
X117368880Y-89500500D01*
X117368887Y-89500500D01*
X117631113Y-89500500D01*
X117631120Y-89500500D01*
X117891116Y-89466270D01*
X118144419Y-89398398D01*
X118386697Y-89298043D01*
X118613803Y-89166924D01*
X118821851Y-89007282D01*
X118821855Y-89007277D01*
X118821860Y-89007274D01*
X119007274Y-88821860D01*
X119007277Y-88821855D01*
X119007282Y-88821851D01*
X119166924Y-88613803D01*
X119298043Y-88386697D01*
X119398398Y-88144419D01*
X119466270Y-87891116D01*
X119500500Y-87631120D01*
X119500500Y-87368905D01*
X120000000Y-87368905D01*
X120000000Y-87631094D01*
X120034220Y-87891009D01*
X120034222Y-87891020D01*
X120102075Y-88144255D01*
X120202404Y-88386471D01*
X120202409Y-88386482D01*
X120333488Y-88613516D01*
X120333494Y-88613524D01*
X120420080Y-88726365D01*
X121322421Y-87824024D01*
X121335359Y-87855258D01*
X121417437Y-87978097D01*
X121521903Y-88082563D01*
X121644742Y-88164641D01*
X121675974Y-88177577D01*
X120773633Y-89079917D01*
X120773633Y-89079918D01*
X120886475Y-89166505D01*
X120886483Y-89166511D01*
X121113517Y-89297590D01*
X121113528Y-89297595D01*
X121355744Y-89397924D01*
X121608979Y-89465777D01*
X121608990Y-89465779D01*
X121868905Y-89499999D01*
X121868920Y-89500000D01*
X122131080Y-89500000D01*
X122131094Y-89499999D01*
X122391009Y-89465779D01*
X122391020Y-89465777D01*
X122644255Y-89397924D01*
X122886471Y-89297595D01*
X122886482Y-89297590D01*
X123113516Y-89166511D01*
X123113534Y-89166499D01*
X123226365Y-89079919D01*
X123226365Y-89079917D01*
X122324025Y-88177578D01*
X122355258Y-88164641D01*
X122478097Y-88082563D01*
X122582563Y-87978097D01*
X122664641Y-87855258D01*
X122677577Y-87824025D01*
X123579917Y-88726365D01*
X123579919Y-88726365D01*
X123666499Y-88613534D01*
X123666511Y-88613516D01*
X123797590Y-88386482D01*
X123797595Y-88386471D01*
X123897924Y-88144255D01*
X123965777Y-87891020D01*
X123965779Y-87891009D01*
X123999999Y-87631094D01*
X124000000Y-87631080D01*
X124000000Y-87368919D01*
X123999999Y-87368905D01*
X138500000Y-87368905D01*
X138500000Y-87631094D01*
X138534220Y-87891009D01*
X138534222Y-87891020D01*
X138602075Y-88144255D01*
X138702404Y-88386471D01*
X138702409Y-88386482D01*
X138833488Y-88613516D01*
X138833494Y-88613524D01*
X138920080Y-88726365D01*
X139822421Y-87824024D01*
X139835359Y-87855258D01*
X139917437Y-87978097D01*
X140021903Y-88082563D01*
X140144742Y-88164641D01*
X140175974Y-88177577D01*
X139273633Y-89079917D01*
X139273633Y-89079918D01*
X139386475Y-89166505D01*
X139386483Y-89166511D01*
X139613517Y-89297590D01*
X139613528Y-89297595D01*
X139855744Y-89397924D01*
X140108979Y-89465777D01*
X140108990Y-89465779D01*
X140368905Y-89499999D01*
X140368920Y-89500000D01*
X140631080Y-89500000D01*
X140631094Y-89499999D01*
X140891009Y-89465779D01*
X140891020Y-89465777D01*
X141144255Y-89397924D01*
X141386471Y-89297595D01*
X141386482Y-89297590D01*
X141613516Y-89166511D01*
X141613534Y-89166499D01*
X141726365Y-89079919D01*
X141726365Y-89079917D01*
X140824025Y-88177578D01*
X140855258Y-88164641D01*
X140978097Y-88082563D01*
X141082563Y-87978097D01*
X141164641Y-87855258D01*
X141177577Y-87824025D01*
X142079917Y-88726365D01*
X142079919Y-88726365D01*
X142166499Y-88613534D01*
X142166511Y-88613516D01*
X142297590Y-88386482D01*
X142297595Y-88386471D01*
X142397924Y-88144255D01*
X142465777Y-87891020D01*
X142465779Y-87891009D01*
X142499999Y-87631094D01*
X142500000Y-87631080D01*
X142500000Y-87368912D01*
X142499995Y-87368872D01*
X142999500Y-87368872D01*
X142999500Y-87631127D01*
X143026123Y-87833339D01*
X143033730Y-87891116D01*
X143085028Y-88082563D01*
X143101602Y-88144418D01*
X143101605Y-88144428D01*
X143201953Y-88386690D01*
X143201958Y-88386700D01*
X143333075Y-88613803D01*
X143492718Y-88821851D01*
X143492726Y-88821860D01*
X143678140Y-89007274D01*
X143678148Y-89007281D01*
X143886196Y-89166924D01*
X144113299Y-89298041D01*
X144113309Y-89298046D01*
X144355571Y-89398394D01*
X144355581Y-89398398D01*
X144608884Y-89466270D01*
X144857188Y-89498960D01*
X144865074Y-89499999D01*
X144868880Y-89500500D01*
X144868887Y-89500500D01*
X145131113Y-89500500D01*
X145131120Y-89500500D01*
X145391116Y-89466270D01*
X145644419Y-89398398D01*
X145886697Y-89298043D01*
X146113803Y-89166924D01*
X146321851Y-89007282D01*
X146321855Y-89007277D01*
X146321860Y-89007274D01*
X146450423Y-88878711D01*
X162149500Y-88878711D01*
X162149500Y-89121288D01*
X162181161Y-89361785D01*
X162243947Y-89596104D01*
X162336773Y-89820205D01*
X162336776Y-89820212D01*
X162458064Y-90030289D01*
X162458066Y-90030292D01*
X162458067Y-90030293D01*
X162605733Y-90222736D01*
X162605739Y-90222743D01*
X162777256Y-90394260D01*
X162777262Y-90394265D01*
X162969711Y-90541936D01*
X163179788Y-90663224D01*
X163403900Y-90756054D01*
X163638211Y-90818838D01*
X163818586Y-90842584D01*
X163878711Y-90850500D01*
X163878712Y-90850500D01*
X164121289Y-90850500D01*
X164169388Y-90844167D01*
X164361789Y-90818838D01*
X164596100Y-90756054D01*
X164820212Y-90663224D01*
X165030289Y-90541936D01*
X165222738Y-90394265D01*
X165394265Y-90222738D01*
X165541936Y-90030289D01*
X165663224Y-89820212D01*
X165756054Y-89596100D01*
X165818838Y-89361789D01*
X165850500Y-89121288D01*
X165850500Y-88878712D01*
X165818838Y-88638211D01*
X165756054Y-88403900D01*
X165663224Y-88179788D01*
X165541936Y-87969711D01*
X165394265Y-87777262D01*
X165394260Y-87777256D01*
X165222743Y-87605739D01*
X165222736Y-87605733D01*
X165030293Y-87458067D01*
X165030292Y-87458066D01*
X165030289Y-87458064D01*
X164820212Y-87336776D01*
X164820205Y-87336773D01*
X164596104Y-87243947D01*
X164361785Y-87181161D01*
X164121289Y-87149500D01*
X164121288Y-87149500D01*
X163878712Y-87149500D01*
X163878711Y-87149500D01*
X163638214Y-87181161D01*
X163403895Y-87243947D01*
X163179794Y-87336773D01*
X163179785Y-87336777D01*
X162969706Y-87458067D01*
X162777263Y-87605733D01*
X162777256Y-87605739D01*
X162605739Y-87777256D01*
X162605733Y-87777263D01*
X162458067Y-87969706D01*
X162336777Y-88179785D01*
X162336773Y-88179794D01*
X162243947Y-88403895D01*
X162181161Y-88638214D01*
X162149500Y-88878711D01*
X146450423Y-88878711D01*
X146507274Y-88821860D01*
X146507277Y-88821855D01*
X146507282Y-88821851D01*
X146666924Y-88613803D01*
X146798043Y-88386697D01*
X146898398Y-88144419D01*
X146966270Y-87891116D01*
X147000500Y-87631120D01*
X147000500Y-87368880D01*
X146966270Y-87108884D01*
X146898398Y-86855581D01*
X146890022Y-86835359D01*
X146798046Y-86613309D01*
X146798041Y-86613299D01*
X146666924Y-86386196D01*
X146507281Y-86178148D01*
X146507274Y-86178140D01*
X146321860Y-85992726D01*
X146321851Y-85992718D01*
X146113803Y-85833075D01*
X145886700Y-85701958D01*
X145886690Y-85701953D01*
X145644428Y-85601605D01*
X145644421Y-85601603D01*
X145644419Y-85601602D01*
X145391116Y-85533730D01*
X145333339Y-85526123D01*
X145131127Y-85499500D01*
X145131120Y-85499500D01*
X144868880Y-85499500D01*
X144868872Y-85499500D01*
X144637772Y-85529926D01*
X144608884Y-85533730D01*
X144355581Y-85601602D01*
X144355571Y-85601605D01*
X144113309Y-85701953D01*
X144113299Y-85701958D01*
X143886196Y-85833075D01*
X143678148Y-85992718D01*
X143492718Y-86178148D01*
X143333075Y-86386196D01*
X143201958Y-86613299D01*
X143201953Y-86613309D01*
X143101605Y-86855571D01*
X143101602Y-86855581D01*
X143033730Y-87108884D01*
X143033716Y-87108990D01*
X142999500Y-87368872D01*
X142499995Y-87368872D01*
X142465779Y-87108990D01*
X142465777Y-87108979D01*
X142397924Y-86855744D01*
X142297595Y-86613528D01*
X142297590Y-86613517D01*
X142166511Y-86386483D01*
X142166505Y-86386475D01*
X142079918Y-86273633D01*
X142079917Y-86273633D01*
X141177577Y-87175973D01*
X141164641Y-87144742D01*
X141082563Y-87021903D01*
X140978097Y-86917437D01*
X140855258Y-86835359D01*
X140824023Y-86822421D01*
X141726365Y-85920080D01*
X141613524Y-85833494D01*
X141613516Y-85833488D01*
X141386482Y-85702409D01*
X141386471Y-85702404D01*
X141144255Y-85602075D01*
X140891020Y-85534222D01*
X140891009Y-85534220D01*
X140631094Y-85500000D01*
X140368905Y-85500000D01*
X140108990Y-85534220D01*
X140108979Y-85534222D01*
X139855744Y-85602075D01*
X139613528Y-85702404D01*
X139613517Y-85702409D01*
X139386471Y-85833496D01*
X139273633Y-85920079D01*
X139273633Y-85920080D01*
X140175974Y-86822421D01*
X140144742Y-86835359D01*
X140021903Y-86917437D01*
X139917437Y-87021903D01*
X139835359Y-87144742D01*
X139822421Y-87175974D01*
X138920080Y-86273633D01*
X138920079Y-86273633D01*
X138833496Y-86386471D01*
X138702409Y-86613517D01*
X138702404Y-86613528D01*
X138602075Y-86855744D01*
X138534222Y-87108979D01*
X138534220Y-87108990D01*
X138500000Y-87368905D01*
X123999999Y-87368905D01*
X123965779Y-87108990D01*
X123965777Y-87108979D01*
X123897924Y-86855744D01*
X123797595Y-86613528D01*
X123797590Y-86613517D01*
X123666511Y-86386483D01*
X123666505Y-86386475D01*
X123579918Y-86273633D01*
X123579917Y-86273633D01*
X122677577Y-87175973D01*
X122664641Y-87144742D01*
X122582563Y-87021903D01*
X122478097Y-86917437D01*
X122355258Y-86835359D01*
X122324023Y-86822421D01*
X123226365Y-85920080D01*
X123113524Y-85833494D01*
X123113516Y-85833488D01*
X122886482Y-85702409D01*
X122886471Y-85702404D01*
X122644255Y-85602075D01*
X122391020Y-85534222D01*
X122391009Y-85534220D01*
X122131094Y-85500000D01*
X121868905Y-85500000D01*
X121608990Y-85534220D01*
X121608979Y-85534222D01*
X121355744Y-85602075D01*
X121113528Y-85702404D01*
X121113517Y-85702409D01*
X120886471Y-85833496D01*
X120773633Y-85920079D01*
X120773633Y-85920080D01*
X121675974Y-86822421D01*
X121644742Y-86835359D01*
X121521903Y-86917437D01*
X121417437Y-87021903D01*
X121335359Y-87144742D01*
X121322421Y-87175974D01*
X120420080Y-86273633D01*
X120420079Y-86273633D01*
X120333496Y-86386471D01*
X120202409Y-86613517D01*
X120202404Y-86613528D01*
X120102075Y-86855744D01*
X120034222Y-87108979D01*
X120034220Y-87108990D01*
X120000000Y-87368905D01*
X119500500Y-87368905D01*
X119500500Y-87368880D01*
X119466270Y-87108884D01*
X119398398Y-86855581D01*
X119390022Y-86835359D01*
X119298046Y-86613309D01*
X119298041Y-86613299D01*
X119166924Y-86386196D01*
X119007281Y-86178148D01*
X119007274Y-86178140D01*
X118821860Y-85992726D01*
X118821851Y-85992718D01*
X118613803Y-85833075D01*
X118386700Y-85701958D01*
X118386690Y-85701953D01*
X118144428Y-85601605D01*
X118144421Y-85601603D01*
X118144419Y-85601602D01*
X117891116Y-85533730D01*
X117833339Y-85526123D01*
X117631127Y-85499500D01*
X117631120Y-85499500D01*
X117368880Y-85499500D01*
X117368875Y-85499500D01*
X117368867Y-85499501D01*
X117340338Y-85503257D01*
X117271303Y-85492491D01*
X117236473Y-85467999D01*
X114786819Y-83018345D01*
X114753334Y-82957022D01*
X114750500Y-82930664D01*
X114750500Y-80999986D01*
X150625001Y-80999986D01*
X150635494Y-81102697D01*
X150690641Y-81269119D01*
X150690643Y-81269124D01*
X150782684Y-81418345D01*
X150906654Y-81542315D01*
X151055875Y-81634356D01*
X151055880Y-81634358D01*
X151222302Y-81689505D01*
X151222309Y-81689506D01*
X151325019Y-81699999D01*
X151749999Y-81699999D01*
X152250000Y-81699999D01*
X152674972Y-81699999D01*
X152674986Y-81699998D01*
X152777697Y-81689505D01*
X152944119Y-81634358D01*
X152944124Y-81634356D01*
X153093345Y-81542315D01*
X153217315Y-81418345D01*
X153286990Y-81305385D01*
X153286992Y-81305382D01*
X153309353Y-81269130D01*
X153309358Y-81269119D01*
X153364505Y-81102697D01*
X153364506Y-81102690D01*
X153374999Y-80999986D01*
X153375000Y-80999973D01*
X153375000Y-80910000D01*
X158093497Y-80910000D01*
X161105038Y-80910000D01*
X161075000Y-81061016D01*
X161075000Y-81258984D01*
X161105038Y-81410000D01*
X158093498Y-81410000D01*
X158118496Y-81599884D01*
X158118499Y-81599897D01*
X158194835Y-81884790D01*
X158194838Y-81884800D01*
X158307704Y-82157281D01*
X158307709Y-82157292D01*
X158455174Y-82412707D01*
X158455185Y-82412723D01*
X158634729Y-82646709D01*
X158634735Y-82646716D01*
X158843283Y-82855264D01*
X158843290Y-82855270D01*
X159077276Y-83034814D01*
X159077292Y-83034825D01*
X159332707Y-83182290D01*
X159332718Y-83182295D01*
X159605199Y-83295161D01*
X159605209Y-83295164D01*
X159890102Y-83371500D01*
X159890115Y-83371503D01*
X160182516Y-83409998D01*
X160182534Y-83410000D01*
X161830000Y-83410000D01*
X161830000Y-82134961D01*
X161981016Y-82165000D01*
X162178984Y-82165000D01*
X162330000Y-82134961D01*
X162330000Y-83410000D01*
X163977466Y-83410000D01*
X163977483Y-83409998D01*
X164269884Y-83371503D01*
X164269897Y-83371500D01*
X164554790Y-83295164D01*
X164554800Y-83295161D01*
X164827281Y-83182295D01*
X164827292Y-83182290D01*
X165082707Y-83034825D01*
X165082723Y-83034814D01*
X165316709Y-82855270D01*
X165316716Y-82855264D01*
X165525264Y-82646716D01*
X165525270Y-82646709D01*
X165704814Y-82412723D01*
X165704825Y-82412707D01*
X165852290Y-82157292D01*
X165852295Y-82157281D01*
X165965161Y-81884800D01*
X165965164Y-81884790D01*
X166041500Y-81599897D01*
X166041503Y-81599884D01*
X166066502Y-81410000D01*
X163054962Y-81410000D01*
X163085000Y-81258984D01*
X163085000Y-81061016D01*
X163054962Y-80910000D01*
X166066502Y-80910000D01*
X166041503Y-80720115D01*
X166041500Y-80720102D01*
X165965164Y-80435209D01*
X165965161Y-80435199D01*
X165852295Y-80162718D01*
X165852290Y-80162707D01*
X165704825Y-79907292D01*
X165704814Y-79907276D01*
X165525270Y-79673290D01*
X165525264Y-79673283D01*
X165316716Y-79464735D01*
X165316709Y-79464729D01*
X165082723Y-79285185D01*
X165082707Y-79285174D01*
X164827292Y-79137709D01*
X164827281Y-79137704D01*
X164554800Y-79024838D01*
X164554790Y-79024835D01*
X164269897Y-78948499D01*
X164269884Y-78948496D01*
X163977483Y-78910001D01*
X163977466Y-78910000D01*
X162330000Y-78910000D01*
X162330000Y-80185038D01*
X162178984Y-80155000D01*
X161981016Y-80155000D01*
X161830000Y-80185038D01*
X161830000Y-78910000D01*
X160182534Y-78910000D01*
X160182516Y-78910001D01*
X159890115Y-78948496D01*
X159890102Y-78948499D01*
X159605209Y-79024835D01*
X159605199Y-79024838D01*
X159332718Y-79137704D01*
X159332707Y-79137709D01*
X159077292Y-79285174D01*
X159077276Y-79285185D01*
X158843290Y-79464729D01*
X158843283Y-79464735D01*
X158634735Y-79673283D01*
X158634729Y-79673290D01*
X158455185Y-79907276D01*
X158455174Y-79907292D01*
X158307709Y-80162707D01*
X158307704Y-80162718D01*
X158194838Y-80435199D01*
X158194835Y-80435209D01*
X158118499Y-80720102D01*
X158118496Y-80720115D01*
X158093497Y-80910000D01*
X153375000Y-80910000D01*
X153375000Y-80800000D01*
X152250000Y-80800000D01*
X152250000Y-81699999D01*
X151749999Y-81699999D01*
X151750000Y-81699998D01*
X151750000Y-80800000D01*
X150625001Y-80800000D01*
X150625001Y-80999986D01*
X114750500Y-80999986D01*
X114750500Y-80100013D01*
X150625000Y-80100013D01*
X150625000Y-80300000D01*
X151750000Y-80300000D01*
X152250000Y-80300000D01*
X153374999Y-80300000D01*
X153374999Y-80100028D01*
X153374998Y-80100013D01*
X153364505Y-79997302D01*
X153309358Y-79830880D01*
X153309356Y-79830875D01*
X153217315Y-79681654D01*
X153093345Y-79557684D01*
X152944124Y-79465643D01*
X152944119Y-79465641D01*
X152777697Y-79410494D01*
X152777690Y-79410493D01*
X152674986Y-79400000D01*
X152250000Y-79400000D01*
X152250000Y-80300000D01*
X151750000Y-80300000D01*
X151750000Y-79400000D01*
X151325028Y-79400000D01*
X151325012Y-79400001D01*
X151222302Y-79410494D01*
X151055880Y-79465641D01*
X151055875Y-79465643D01*
X150906654Y-79557684D01*
X150782684Y-79681654D01*
X150690643Y-79830875D01*
X150690641Y-79830880D01*
X150635494Y-79997302D01*
X150635493Y-79997309D01*
X150625000Y-80100013D01*
X114750500Y-80100013D01*
X114750500Y-79108629D01*
X114770185Y-79041590D01*
X114822989Y-78995835D01*
X114892147Y-78985891D01*
X114899382Y-78987153D01*
X114899404Y-78987156D01*
X114899408Y-78987157D01*
X115034345Y-79005500D01*
X115034350Y-79005500D01*
X136375990Y-79005500D01*
X136376000Y-79005500D01*
X136483456Y-78993947D01*
X136534967Y-78982741D01*
X136569197Y-78971347D01*
X136637497Y-78948616D01*
X136637501Y-78948613D01*
X136637504Y-78948613D01*
X136758543Y-78870825D01*
X136811347Y-78825070D01*
X136905567Y-78716336D01*
X136965338Y-78585459D01*
X136985023Y-78518420D01*
X136985024Y-78518416D01*
X137005500Y-78376000D01*
X137005500Y-76094582D01*
X137299198Y-76094582D01*
X137299344Y-76096448D01*
X137299498Y-76098411D01*
X137314566Y-76193543D01*
X137314626Y-76193927D01*
X137329380Y-76289010D01*
X137329794Y-76290755D01*
X137329801Y-76290785D01*
X137329892Y-76291169D01*
X137330266Y-76292750D01*
X137330291Y-76292826D01*
X137360089Y-76384534D01*
X137389622Y-76476401D01*
X137389624Y-76476405D01*
X137389626Y-76476411D01*
X137390255Y-76477948D01*
X137390319Y-76478567D01*
X137391112Y-76481034D01*
X137390854Y-76481116D01*
X137392391Y-76483952D01*
X137392431Y-76484073D01*
X137391436Y-76484401D01*
X137399500Y-76524930D01*
X137399500Y-76675000D01*
X137399501Y-76675019D01*
X137410000Y-76777796D01*
X137410001Y-76777799D01*
X137442542Y-76876000D01*
X137465186Y-76944334D01*
X137557288Y-77093656D01*
X137681344Y-77217712D01*
X137830666Y-77309814D01*
X137997203Y-77364999D01*
X138099991Y-77375500D01*
X139000008Y-77375499D01*
X139000016Y-77375498D01*
X139000019Y-77375498D01*
X139056302Y-77369748D01*
X139102797Y-77364999D01*
X139269334Y-77309814D01*
X139335568Y-77268961D01*
X139400664Y-77250500D01*
X140099336Y-77250500D01*
X140164432Y-77268961D01*
X140230659Y-77309810D01*
X140230660Y-77309810D01*
X140230666Y-77309814D01*
X140397203Y-77364999D01*
X140499991Y-77375500D01*
X141400008Y-77375499D01*
X141400016Y-77375498D01*
X141400019Y-77375498D01*
X141456302Y-77369748D01*
X141502797Y-77364999D01*
X141669334Y-77309814D01*
X141818656Y-77217712D01*
X141942712Y-77093656D01*
X142034814Y-76944334D01*
X142089999Y-76777797D01*
X142100500Y-76675009D01*
X142100499Y-76524933D01*
X142108446Y-76485008D01*
X142107378Y-76484661D01*
X142169708Y-76292830D01*
X142169708Y-76292829D01*
X142169709Y-76292826D01*
X142185572Y-76192666D01*
X142200500Y-76098422D01*
X142200500Y-75901577D01*
X142799500Y-75901577D01*
X142799500Y-76098422D01*
X142830291Y-76292827D01*
X142830291Y-76292830D01*
X142892621Y-76484658D01*
X142891556Y-76485003D01*
X142899500Y-76524930D01*
X142899500Y-76675000D01*
X142899501Y-76675019D01*
X142910000Y-76777796D01*
X142910001Y-76777799D01*
X142942542Y-76876000D01*
X142965186Y-76944334D01*
X143057288Y-77093656D01*
X143181344Y-77217712D01*
X143330666Y-77309814D01*
X143497203Y-77364999D01*
X143599991Y-77375500D01*
X144500008Y-77375499D01*
X144500016Y-77375498D01*
X144500019Y-77375498D01*
X144556302Y-77369748D01*
X144602797Y-77364999D01*
X144769334Y-77309814D01*
X144835568Y-77268961D01*
X144900664Y-77250500D01*
X145636836Y-77250500D01*
X145701932Y-77268961D01*
X145768159Y-77309810D01*
X145768160Y-77309810D01*
X145768166Y-77309814D01*
X145934703Y-77364999D01*
X146037491Y-77375500D01*
X146937508Y-77375499D01*
X146937516Y-77375498D01*
X146937519Y-77375498D01*
X146993802Y-77369748D01*
X147040297Y-77364999D01*
X147206834Y-77309814D01*
X147356156Y-77217712D01*
X147480212Y-77093656D01*
X147572314Y-76944334D01*
X147627499Y-76777797D01*
X147638000Y-76675009D01*
X147637999Y-76524933D01*
X147645946Y-76485008D01*
X147644878Y-76484661D01*
X147707208Y-76292830D01*
X147707208Y-76292829D01*
X147707209Y-76292826D01*
X147723072Y-76192666D01*
X147738000Y-76098422D01*
X147738000Y-75901577D01*
X147720086Y-75788483D01*
X147707209Y-75707174D01*
X147707208Y-75707170D01*
X147707208Y-75707169D01*
X147644879Y-75515342D01*
X147645941Y-75514996D01*
X147637999Y-75475066D01*
X147637999Y-75324998D01*
X147637998Y-75324981D01*
X147627499Y-75222203D01*
X147627498Y-75222200D01*
X147594961Y-75124010D01*
X147572314Y-75055666D01*
X147480212Y-74906344D01*
X147356156Y-74782288D01*
X147206834Y-74690186D01*
X147040297Y-74635001D01*
X147040295Y-74635000D01*
X146937510Y-74624500D01*
X146037498Y-74624500D01*
X146037480Y-74624501D01*
X145934703Y-74635000D01*
X145934700Y-74635001D01*
X145768168Y-74690185D01*
X145768159Y-74690189D01*
X145701932Y-74731039D01*
X145636836Y-74749500D01*
X144900664Y-74749500D01*
X144835568Y-74731039D01*
X144769340Y-74690189D01*
X144769335Y-74690187D01*
X144769334Y-74690186D01*
X144602797Y-74635001D01*
X144602795Y-74635000D01*
X144500010Y-74624500D01*
X143599998Y-74624500D01*
X143599980Y-74624501D01*
X143497203Y-74635000D01*
X143497200Y-74635001D01*
X143330668Y-74690185D01*
X143330663Y-74690187D01*
X143181342Y-74782289D01*
X143057289Y-74906342D01*
X142965187Y-75055663D01*
X142965186Y-75055666D01*
X142910001Y-75222203D01*
X142910001Y-75222204D01*
X142910000Y-75222204D01*
X142899500Y-75324983D01*
X142899500Y-75475068D01*
X142891559Y-75514997D01*
X142892621Y-75515342D01*
X142830291Y-75707169D01*
X142830291Y-75707172D01*
X142799500Y-75901577D01*
X142200500Y-75901577D01*
X142182586Y-75788483D01*
X142169709Y-75707174D01*
X142169708Y-75707170D01*
X142169708Y-75707169D01*
X142107379Y-75515342D01*
X142108441Y-75514996D01*
X142100499Y-75475066D01*
X142100499Y-75324998D01*
X142100498Y-75324981D01*
X142089999Y-75222203D01*
X142089998Y-75222200D01*
X142057461Y-75124010D01*
X142034814Y-75055666D01*
X141942712Y-74906344D01*
X141818656Y-74782288D01*
X141669334Y-74690186D01*
X141502797Y-74635001D01*
X141502795Y-74635000D01*
X141400010Y-74624500D01*
X140499998Y-74624500D01*
X140499980Y-74624501D01*
X140397203Y-74635000D01*
X140397200Y-74635001D01*
X140230668Y-74690185D01*
X140230659Y-74690189D01*
X140164432Y-74731039D01*
X140147874Y-74735734D01*
X140134271Y-74744477D01*
X140099336Y-74749500D01*
X139928802Y-74749500D01*
X139861763Y-74729815D01*
X139816008Y-74677011D01*
X139804803Y-74625112D01*
X139807932Y-73624001D01*
X147994500Y-73624001D01*
X147994500Y-74702496D01*
X147994820Y-74720478D01*
X147995139Y-74729394D01*
X147996103Y-74747380D01*
X147996105Y-74747395D01*
X148026093Y-74885245D01*
X148026688Y-74887978D01*
X148041847Y-74928622D01*
X148051105Y-74953443D01*
X148051107Y-74953447D01*
X148085557Y-75016537D01*
X148120056Y-75079717D01*
X148221793Y-75181457D01*
X148277726Y-75223329D01*
X148277734Y-75223335D01*
X148372968Y-75275335D01*
X148373518Y-75275643D01*
X148397552Y-75300165D01*
X148421831Y-75324444D01*
X148422001Y-75325111D01*
X148422424Y-75325543D01*
X148423765Y-75332024D01*
X148437000Y-75383872D01*
X148437000Y-76611194D01*
X148417315Y-76678233D01*
X148369609Y-76719574D01*
X148369957Y-76720115D01*
X148366200Y-76722528D01*
X148364523Y-76723983D01*
X148362501Y-76724906D01*
X148241462Y-76802694D01*
X148241451Y-76802702D01*
X148188659Y-76848446D01*
X148094433Y-76957187D01*
X148094430Y-76957191D01*
X148034664Y-77088057D01*
X148020145Y-77137504D01*
X148014977Y-77155103D01*
X148014976Y-77155107D01*
X147994500Y-77297523D01*
X147994500Y-78376000D01*
X147994501Y-78376009D01*
X148006052Y-78483450D01*
X148006054Y-78483462D01*
X148017260Y-78534972D01*
X148051383Y-78637497D01*
X148051386Y-78637503D01*
X148129171Y-78758537D01*
X148129179Y-78758548D01*
X148174923Y-78811340D01*
X148174926Y-78811343D01*
X148174930Y-78811347D01*
X148283664Y-78905567D01*
X148283667Y-78905568D01*
X148283668Y-78905569D01*
X148388304Y-78953356D01*
X148414541Y-78965338D01*
X148481580Y-78985023D01*
X148481584Y-78985024D01*
X148624000Y-79005500D01*
X148624003Y-79005500D01*
X150672553Y-79005500D01*
X150672555Y-79005500D01*
X150775425Y-78994922D01*
X150775430Y-78994921D01*
X150775432Y-78994921D01*
X150824831Y-78984653D01*
X150824832Y-78984652D01*
X150824840Y-78984651D01*
X150923416Y-78953356D01*
X151045875Y-78877822D01*
X151099517Y-78833052D01*
X151099517Y-78833051D01*
X151103602Y-78829642D01*
X151103924Y-78829099D01*
X151107624Y-78824036D01*
X151195735Y-78726076D01*
X151227129Y-78660568D01*
X151233892Y-78651318D01*
X151252890Y-78636757D01*
X151268897Y-78618961D01*
X151280348Y-78615713D01*
X151289348Y-78608816D01*
X151310999Y-78607020D01*
X151333991Y-78600499D01*
X152675008Y-78600499D01*
X152777797Y-78589999D01*
X152819451Y-78576195D01*
X152889278Y-78573793D01*
X152949320Y-78609524D01*
X152957590Y-78619415D01*
X152981560Y-78651318D01*
X152982995Y-78653227D01*
X153098329Y-78739248D01*
X153154802Y-78769955D01*
X153156592Y-78771035D01*
X153159708Y-78772624D01*
X153159713Y-78772626D01*
X153159715Y-78772627D01*
X153294613Y-78822669D01*
X153438144Y-78832678D01*
X153507826Y-78827570D01*
X153648363Y-78796737D01*
X157070611Y-77513395D01*
X157114150Y-77505500D01*
X158375990Y-77505500D01*
X158376000Y-77505500D01*
X158483456Y-77493947D01*
X158534967Y-77482741D01*
X158569197Y-77471347D01*
X158637497Y-77448616D01*
X158637501Y-77448613D01*
X158637504Y-77448613D01*
X158758543Y-77370825D01*
X158811347Y-77325070D01*
X158905567Y-77216336D01*
X158965338Y-77085459D01*
X158985023Y-77018420D01*
X158985024Y-77018416D01*
X159005500Y-76876000D01*
X159005500Y-75124000D01*
X158993947Y-75016544D01*
X158982741Y-74965033D01*
X158978885Y-74953447D01*
X158948616Y-74862502D01*
X158948613Y-74862496D01*
X158897066Y-74782288D01*
X158870825Y-74741457D01*
X158860737Y-74729815D01*
X158825076Y-74688659D01*
X158825072Y-74688656D01*
X158825070Y-74688653D01*
X158716336Y-74594433D01*
X158716333Y-74594431D01*
X158716331Y-74594430D01*
X158585459Y-74534661D01*
X158547170Y-74523418D01*
X158488392Y-74485643D01*
X158459369Y-74422086D01*
X158469314Y-74352928D01*
X158481789Y-74331556D01*
X158561859Y-74221349D01*
X158654755Y-74039029D01*
X158717990Y-73844413D01*
X158726609Y-73790000D01*
X157369504Y-73790000D01*
X157414674Y-73711764D01*
X157445000Y-73598585D01*
X157445000Y-73481415D01*
X157414674Y-73368236D01*
X157369504Y-73290000D01*
X158726609Y-73290000D01*
X158717990Y-73235586D01*
X158654755Y-73040970D01*
X158561859Y-72858650D01*
X158441582Y-72693105D01*
X158441582Y-72693104D01*
X158296895Y-72548417D01*
X158131349Y-72428140D01*
X157949031Y-72335244D01*
X157754417Y-72272009D01*
X157552317Y-72240000D01*
X157250000Y-72240000D01*
X157250000Y-73170495D01*
X157171764Y-73125326D01*
X157058585Y-73095000D01*
X156941415Y-73095000D01*
X156828236Y-73125326D01*
X156750000Y-73170495D01*
X156750000Y-72240000D01*
X156447683Y-72240000D01*
X156245582Y-72272009D01*
X156050968Y-72335244D01*
X155868650Y-72428140D01*
X155703105Y-72548417D01*
X155703104Y-72548417D01*
X155558417Y-72693104D01*
X155558417Y-72693105D01*
X155438140Y-72858650D01*
X155345244Y-73040970D01*
X155282009Y-73235586D01*
X155273391Y-73290000D01*
X156630496Y-73290000D01*
X156585326Y-73368236D01*
X156555000Y-73481415D01*
X156555000Y-73598585D01*
X156585326Y-73711764D01*
X156630496Y-73790000D01*
X155235484Y-73790000D01*
X155191945Y-73782105D01*
X154288114Y-73443168D01*
X153648370Y-73203263D01*
X153648363Y-73203261D01*
X153648362Y-73203261D01*
X153516697Y-73173157D01*
X153516696Y-73173156D01*
X153516688Y-73173155D01*
X153451310Y-73167204D01*
X153451294Y-73167203D01*
X153316373Y-73173036D01*
X153179797Y-73218294D01*
X153117274Y-73249489D01*
X152998987Y-73331386D01*
X152956122Y-73384435D01*
X152898677Y-73424207D01*
X152828848Y-73426608D01*
X152820671Y-73424207D01*
X152777800Y-73410001D01*
X152675016Y-73399500D01*
X151336658Y-73399500D01*
X151269619Y-73379815D01*
X151232343Y-73342540D01*
X151167383Y-73241462D01*
X151167380Y-73241457D01*
X151147310Y-73218295D01*
X151121631Y-73188659D01*
X151121627Y-73188656D01*
X151121625Y-73188653D01*
X151012891Y-73094433D01*
X151012888Y-73094431D01*
X151012886Y-73094430D01*
X150882020Y-73034664D01*
X150882015Y-73034662D01*
X150882014Y-73034662D01*
X150822747Y-73017259D01*
X150814972Y-73014976D01*
X150752902Y-73006052D01*
X150672555Y-72994500D01*
X148624000Y-72994500D01*
X148623991Y-72994500D01*
X148623990Y-72994501D01*
X148516549Y-73006052D01*
X148516537Y-73006054D01*
X148465027Y-73017260D01*
X148362502Y-73051383D01*
X148362496Y-73051386D01*
X148241462Y-73129171D01*
X148241451Y-73129179D01*
X148188659Y-73174923D01*
X148094433Y-73283664D01*
X148094430Y-73283668D01*
X148034664Y-73414534D01*
X148014976Y-73481582D01*
X148009949Y-73516549D01*
X147994502Y-73623990D01*
X147994500Y-73624001D01*
X139807932Y-73624001D01*
X139807947Y-73619183D01*
X139807947Y-73619182D01*
X139813301Y-71905499D01*
X139813300Y-71905481D01*
X139812447Y-71899986D01*
X150625001Y-71899986D01*
X150635494Y-72002697D01*
X150690641Y-72169119D01*
X150690643Y-72169124D01*
X150782684Y-72318345D01*
X150906654Y-72442315D01*
X151055875Y-72534356D01*
X151055880Y-72534358D01*
X151222302Y-72589505D01*
X151222309Y-72589506D01*
X151325019Y-72599999D01*
X151749999Y-72599999D01*
X152250000Y-72599999D01*
X152674972Y-72599999D01*
X152674986Y-72599998D01*
X152777697Y-72589505D01*
X152944119Y-72534358D01*
X152944124Y-72534356D01*
X153093345Y-72442315D01*
X153217315Y-72318345D01*
X153309356Y-72169124D01*
X153309358Y-72169119D01*
X153364505Y-72002697D01*
X153364506Y-72002690D01*
X153374999Y-71899986D01*
X153375000Y-71899973D01*
X153375000Y-71700000D01*
X152250000Y-71700000D01*
X152250000Y-72599999D01*
X151749999Y-72599999D01*
X151750000Y-72599998D01*
X151750000Y-71700000D01*
X150625001Y-71700000D01*
X150625001Y-71899986D01*
X139812447Y-71899986D01*
X139783118Y-71710990D01*
X139783118Y-71710987D01*
X139760507Y-71640650D01*
X139731449Y-71550258D01*
X139725499Y-71512309D01*
X139725499Y-71299998D01*
X139725498Y-71299981D01*
X139714999Y-71197203D01*
X139682452Y-71098984D01*
X139659814Y-71030666D01*
X139640907Y-71000013D01*
X150625000Y-71000013D01*
X150625000Y-71200000D01*
X151750000Y-71200000D01*
X152250000Y-71200000D01*
X153374999Y-71200000D01*
X153374999Y-71000028D01*
X153374998Y-71000013D01*
X153364505Y-70897302D01*
X153341714Y-70828522D01*
X153315694Y-70750000D01*
X158093497Y-70750000D01*
X161105038Y-70750000D01*
X161075000Y-70901016D01*
X161075000Y-71098984D01*
X161105038Y-71250000D01*
X158093498Y-71250000D01*
X158118496Y-71439884D01*
X158118499Y-71439897D01*
X158194835Y-71724790D01*
X158194838Y-71724800D01*
X158307704Y-71997281D01*
X158307709Y-71997292D01*
X158455174Y-72252707D01*
X158455185Y-72252723D01*
X158634729Y-72486709D01*
X158634735Y-72486716D01*
X158843283Y-72695264D01*
X158843290Y-72695270D01*
X159077276Y-72874814D01*
X159077292Y-72874825D01*
X159332707Y-73022290D01*
X159332718Y-73022295D01*
X159605199Y-73135161D01*
X159605209Y-73135164D01*
X159890102Y-73211500D01*
X159890115Y-73211503D01*
X160182516Y-73249998D01*
X160182534Y-73250000D01*
X161830000Y-73250000D01*
X161830000Y-71974961D01*
X161981016Y-72005000D01*
X162178984Y-72005000D01*
X162330000Y-71974961D01*
X162330000Y-73250000D01*
X163977466Y-73250000D01*
X163977483Y-73249998D01*
X164269884Y-73211503D01*
X164269897Y-73211500D01*
X164554790Y-73135164D01*
X164554800Y-73135161D01*
X164827281Y-73022295D01*
X164827292Y-73022290D01*
X165082707Y-72874825D01*
X165082723Y-72874814D01*
X165316709Y-72695270D01*
X165316716Y-72695264D01*
X165525264Y-72486716D01*
X165525270Y-72486709D01*
X165704814Y-72252723D01*
X165704825Y-72252707D01*
X165852290Y-71997292D01*
X165852295Y-71997281D01*
X165965161Y-71724800D01*
X165965164Y-71724790D01*
X166041500Y-71439897D01*
X166041503Y-71439884D01*
X166066502Y-71250000D01*
X163054962Y-71250000D01*
X163085000Y-71098984D01*
X163085000Y-70901016D01*
X163054962Y-70750000D01*
X166066502Y-70750000D01*
X166041503Y-70560115D01*
X166041500Y-70560102D01*
X165965164Y-70275209D01*
X165965161Y-70275199D01*
X165852295Y-70002718D01*
X165852290Y-70002707D01*
X165704825Y-69747292D01*
X165704814Y-69747276D01*
X165525270Y-69513290D01*
X165525264Y-69513283D01*
X165316716Y-69304735D01*
X165316709Y-69304729D01*
X165082723Y-69125185D01*
X165082707Y-69125174D01*
X164827292Y-68977709D01*
X164827281Y-68977704D01*
X164554800Y-68864838D01*
X164554790Y-68864835D01*
X164269897Y-68788499D01*
X164269884Y-68788496D01*
X163977483Y-68750001D01*
X163977466Y-68750000D01*
X162330000Y-68750000D01*
X162330000Y-70025038D01*
X162178984Y-69995000D01*
X161981016Y-69995000D01*
X161830000Y-70025038D01*
X161830000Y-68750000D01*
X160182534Y-68750000D01*
X160182516Y-68750001D01*
X159890115Y-68788496D01*
X159890102Y-68788499D01*
X159605209Y-68864835D01*
X159605199Y-68864838D01*
X159332718Y-68977704D01*
X159332707Y-68977709D01*
X159077292Y-69125174D01*
X159077276Y-69125185D01*
X158843290Y-69304729D01*
X158843283Y-69304735D01*
X158634735Y-69513283D01*
X158634729Y-69513290D01*
X158455185Y-69747276D01*
X158455174Y-69747292D01*
X158307709Y-70002707D01*
X158307704Y-70002718D01*
X158194838Y-70275199D01*
X158194835Y-70275209D01*
X158118499Y-70560102D01*
X158118496Y-70560115D01*
X158093497Y-70750000D01*
X153315694Y-70750000D01*
X153309358Y-70730880D01*
X153309356Y-70730875D01*
X153217315Y-70581654D01*
X153093345Y-70457684D01*
X152944124Y-70365643D01*
X152944119Y-70365641D01*
X152777697Y-70310494D01*
X152777690Y-70310493D01*
X152674986Y-70300000D01*
X152250000Y-70300000D01*
X152250000Y-71200000D01*
X151750000Y-71200000D01*
X151750000Y-70300000D01*
X151325028Y-70300000D01*
X151325012Y-70300001D01*
X151222302Y-70310494D01*
X151055880Y-70365641D01*
X151055875Y-70365643D01*
X150906654Y-70457684D01*
X150782684Y-70581654D01*
X150690643Y-70730875D01*
X150690641Y-70730880D01*
X150635494Y-70897302D01*
X150635493Y-70897309D01*
X150625000Y-71000013D01*
X139640907Y-71000013D01*
X139567712Y-70881344D01*
X139443656Y-70757288D01*
X139294334Y-70665186D01*
X139127797Y-70610001D01*
X139127795Y-70610000D01*
X139025010Y-70599500D01*
X138099998Y-70599500D01*
X138099980Y-70599501D01*
X137997203Y-70610000D01*
X137997200Y-70610001D01*
X137830668Y-70665185D01*
X137830663Y-70665187D01*
X137681342Y-70757289D01*
X137557289Y-70881342D01*
X137465187Y-71030663D01*
X137465185Y-71030668D01*
X137463462Y-71035869D01*
X137410001Y-71197203D01*
X137410001Y-71197204D01*
X137410000Y-71197204D01*
X137399500Y-71299983D01*
X137399500Y-71513634D01*
X137393311Y-71552320D01*
X137343711Y-71703362D01*
X137343711Y-71703363D01*
X137312315Y-71897668D01*
X137312313Y-71897685D01*
X137299827Y-75892918D01*
X137299806Y-75899643D01*
X137299500Y-75901583D01*
X137299500Y-75998188D01*
X137299499Y-75998577D01*
X137299198Y-76094582D01*
X137005500Y-76094582D01*
X137005500Y-73624000D01*
X136993947Y-73516544D01*
X136982741Y-73465033D01*
X136969153Y-73424207D01*
X136948616Y-73362502D01*
X136948613Y-73362496D01*
X136870828Y-73241462D01*
X136870825Y-73241457D01*
X136837728Y-73203261D01*
X136825074Y-73188657D01*
X136825071Y-73188654D01*
X136819597Y-73183911D01*
X136793296Y-73161120D01*
X136733977Y-73109719D01*
X136696203Y-73050941D01*
X136691181Y-73016399D01*
X136687686Y-71897676D01*
X136656288Y-71703364D01*
X136606688Y-71552320D01*
X136600499Y-71513633D01*
X136600499Y-71299998D01*
X136600498Y-71299981D01*
X136589999Y-71197203D01*
X136589998Y-71197200D01*
X136557452Y-71098984D01*
X136534814Y-71030666D01*
X136442712Y-70881344D01*
X136318656Y-70757288D01*
X136169334Y-70665186D01*
X136002797Y-70610001D01*
X136002795Y-70610000D01*
X135900010Y-70599500D01*
X134974998Y-70599500D01*
X134974980Y-70599501D01*
X134872203Y-70610000D01*
X134872200Y-70610001D01*
X134705668Y-70665185D01*
X134705663Y-70665187D01*
X134556342Y-70757289D01*
X134432289Y-70881342D01*
X134340187Y-71030663D01*
X134340185Y-71030668D01*
X134338462Y-71035869D01*
X134285001Y-71197203D01*
X134285001Y-71197204D01*
X134285000Y-71197204D01*
X134274500Y-71299983D01*
X134274500Y-71512312D01*
X134268550Y-71550261D01*
X134216883Y-71710983D01*
X134216881Y-71710990D01*
X134186699Y-71905481D01*
X134186698Y-71905499D01*
X134189713Y-72870112D01*
X134170238Y-72937213D01*
X134117578Y-72983133D01*
X134065714Y-72994500D01*
X115016607Y-72994500D01*
X115016602Y-72994500D01*
X115016577Y-72994501D01*
X114949540Y-72998969D01*
X114949534Y-72998969D01*
X114949531Y-72998970D01*
X114944545Y-72999637D01*
X114916903Y-73003337D01*
X114916890Y-73003340D01*
X114850983Y-73016677D01*
X114850956Y-73016684D01*
X114794807Y-73031998D01*
X114794807Y-73031999D01*
X109458367Y-74487392D01*
X109419289Y-74499772D01*
X109411121Y-74502729D01*
X109400403Y-74506610D01*
X109362496Y-74522098D01*
X109362493Y-74522099D01*
X109362490Y-74522101D01*
X109241462Y-74599881D01*
X109241451Y-74599890D01*
X109188659Y-74645634D01*
X109094433Y-74754375D01*
X109094430Y-74754379D01*
X109034664Y-74885245D01*
X109014976Y-74952293D01*
X109005738Y-75016549D01*
X108994500Y-75094711D01*
X99000500Y-75094711D01*
X99000500Y-70750000D01*
X101983497Y-70750000D01*
X104995038Y-70750000D01*
X104965000Y-70901016D01*
X104965000Y-71098984D01*
X104995038Y-71250000D01*
X101983498Y-71250000D01*
X102008496Y-71439884D01*
X102008499Y-71439897D01*
X102084835Y-71724790D01*
X102084838Y-71724800D01*
X102197704Y-71997281D01*
X102197709Y-71997292D01*
X102345174Y-72252707D01*
X102345185Y-72252723D01*
X102524729Y-72486709D01*
X102524735Y-72486716D01*
X102733283Y-72695264D01*
X102733290Y-72695270D01*
X102967276Y-72874814D01*
X102967292Y-72874825D01*
X103222707Y-73022290D01*
X103222718Y-73022295D01*
X103495199Y-73135161D01*
X103495209Y-73135164D01*
X103780102Y-73211500D01*
X103780115Y-73211503D01*
X104072516Y-73249998D01*
X104072534Y-73250000D01*
X105720000Y-73250000D01*
X105720000Y-71974961D01*
X105871016Y-72005000D01*
X106068984Y-72005000D01*
X106220000Y-71974961D01*
X106220000Y-73250000D01*
X107867466Y-73250000D01*
X107867483Y-73249998D01*
X108159884Y-73211503D01*
X108159897Y-73211500D01*
X108444790Y-73135164D01*
X108444800Y-73135161D01*
X108717281Y-73022295D01*
X108717292Y-73022290D01*
X108972707Y-72874825D01*
X108972723Y-72874814D01*
X109206709Y-72695270D01*
X109206716Y-72695264D01*
X109415264Y-72486716D01*
X109415270Y-72486709D01*
X109594814Y-72252723D01*
X109594825Y-72252707D01*
X109742290Y-71997292D01*
X109742295Y-71997281D01*
X109855161Y-71724800D01*
X109855164Y-71724790D01*
X109931500Y-71439897D01*
X109931503Y-71439884D01*
X109956502Y-71250000D01*
X106944962Y-71250000D01*
X106975000Y-71098984D01*
X106975000Y-70901016D01*
X106944962Y-70750000D01*
X109956502Y-70750000D01*
X109931503Y-70560115D01*
X109931500Y-70560102D01*
X109855164Y-70275209D01*
X109855161Y-70275199D01*
X109742295Y-70002718D01*
X109742290Y-70002707D01*
X109594825Y-69747292D01*
X109594814Y-69747276D01*
X109415270Y-69513290D01*
X109415264Y-69513283D01*
X109206716Y-69304735D01*
X109206709Y-69304729D01*
X108972723Y-69125185D01*
X108972707Y-69125174D01*
X108717292Y-68977709D01*
X108717281Y-68977704D01*
X108444800Y-68864838D01*
X108444790Y-68864835D01*
X108159897Y-68788499D01*
X108159884Y-68788496D01*
X107867483Y-68750001D01*
X107867466Y-68750000D01*
X106220000Y-68750000D01*
X106220000Y-70025038D01*
X106068984Y-69995000D01*
X105871016Y-69995000D01*
X105720000Y-70025038D01*
X105720000Y-68750000D01*
X104072534Y-68750000D01*
X104072516Y-68750001D01*
X103780115Y-68788496D01*
X103780102Y-68788499D01*
X103495209Y-68864835D01*
X103495199Y-68864838D01*
X103222718Y-68977704D01*
X103222707Y-68977709D01*
X102967292Y-69125174D01*
X102967276Y-69125185D01*
X102733290Y-69304729D01*
X102733283Y-69304735D01*
X102524735Y-69513283D01*
X102524729Y-69513290D01*
X102345185Y-69747276D01*
X102345174Y-69747292D01*
X102197709Y-70002707D01*
X102197704Y-70002718D01*
X102084838Y-70275199D01*
X102084835Y-70275209D01*
X102008499Y-70560102D01*
X102008496Y-70560115D01*
X101983497Y-70750000D01*
X99000500Y-70750000D01*
X99000500Y-62878711D01*
X101649500Y-62878711D01*
X101649500Y-63121288D01*
X101681161Y-63361785D01*
X101743947Y-63596104D01*
X101836773Y-63820205D01*
X101836776Y-63820212D01*
X101958064Y-64030289D01*
X101958066Y-64030292D01*
X101958067Y-64030293D01*
X102105733Y-64222736D01*
X102105739Y-64222743D01*
X102277256Y-64394260D01*
X102277262Y-64394265D01*
X102469711Y-64541936D01*
X102679788Y-64663224D01*
X102903900Y-64756054D01*
X103138211Y-64818838D01*
X103318586Y-64842584D01*
X103378711Y-64850500D01*
X103378712Y-64850500D01*
X103621289Y-64850500D01*
X103669388Y-64844167D01*
X103861789Y-64818838D01*
X104096100Y-64756054D01*
X104320212Y-64663224D01*
X104530289Y-64541936D01*
X104722738Y-64394265D01*
X104894265Y-64222738D01*
X105041936Y-64030289D01*
X105163224Y-63820212D01*
X105256054Y-63596100D01*
X105318838Y-63361789D01*
X105350500Y-63121288D01*
X105350500Y-62878712D01*
X105350500Y-62878711D01*
X162649500Y-62878711D01*
X162649500Y-63121288D01*
X162681161Y-63361785D01*
X162743947Y-63596104D01*
X162836773Y-63820205D01*
X162836776Y-63820212D01*
X162958064Y-64030289D01*
X162958066Y-64030292D01*
X162958067Y-64030293D01*
X163105733Y-64222736D01*
X163105739Y-64222743D01*
X163277256Y-64394260D01*
X163277262Y-64394265D01*
X163469711Y-64541936D01*
X163679788Y-64663224D01*
X163903900Y-64756054D01*
X164138211Y-64818838D01*
X164318586Y-64842584D01*
X164378711Y-64850500D01*
X164378712Y-64850500D01*
X164621289Y-64850500D01*
X164669388Y-64844167D01*
X164861789Y-64818838D01*
X165096100Y-64756054D01*
X165320212Y-64663224D01*
X165530289Y-64541936D01*
X165722738Y-64394265D01*
X165894265Y-64222738D01*
X166041936Y-64030289D01*
X166163224Y-63820212D01*
X166256054Y-63596100D01*
X166318838Y-63361789D01*
X166350500Y-63121288D01*
X166350500Y-62878712D01*
X166318838Y-62638211D01*
X166256054Y-62403900D01*
X166163224Y-62179788D01*
X166041936Y-61969711D01*
X165894265Y-61777262D01*
X165894260Y-61777256D01*
X165722743Y-61605739D01*
X165722736Y-61605733D01*
X165530293Y-61458067D01*
X165530292Y-61458066D01*
X165530289Y-61458064D01*
X165320212Y-61336776D01*
X165320205Y-61336773D01*
X165096104Y-61243947D01*
X164861785Y-61181161D01*
X164621289Y-61149500D01*
X164621288Y-61149500D01*
X164378712Y-61149500D01*
X164378711Y-61149500D01*
X164138214Y-61181161D01*
X163903895Y-61243947D01*
X163679794Y-61336773D01*
X163679785Y-61336777D01*
X163469706Y-61458067D01*
X163277263Y-61605733D01*
X163277256Y-61605739D01*
X163105739Y-61777256D01*
X163105733Y-61777263D01*
X162958067Y-61969706D01*
X162836777Y-62179785D01*
X162836773Y-62179794D01*
X162743947Y-62403895D01*
X162681161Y-62638214D01*
X162649500Y-62878711D01*
X105350500Y-62878711D01*
X105318838Y-62638211D01*
X105256054Y-62403900D01*
X105163224Y-62179788D01*
X105041936Y-61969711D01*
X104894265Y-61777262D01*
X104894260Y-61777256D01*
X104722743Y-61605739D01*
X104722736Y-61605733D01*
X104530293Y-61458067D01*
X104530292Y-61458066D01*
X104530289Y-61458064D01*
X104320212Y-61336776D01*
X104320205Y-61336773D01*
X104096104Y-61243947D01*
X103861785Y-61181161D01*
X103621289Y-61149500D01*
X103621288Y-61149500D01*
X103378712Y-61149500D01*
X103378711Y-61149500D01*
X103138214Y-61181161D01*
X102903895Y-61243947D01*
X102679794Y-61336773D01*
X102679785Y-61336777D01*
X102469706Y-61458067D01*
X102277263Y-61605733D01*
X102277256Y-61605739D01*
X102105739Y-61777256D01*
X102105733Y-61777263D01*
X101958067Y-61969706D01*
X101836777Y-62179785D01*
X101836773Y-62179794D01*
X101743947Y-62403895D01*
X101681161Y-62638214D01*
X101649500Y-62878711D01*
X99000500Y-62878711D01*
X99000500Y-58124500D01*
X99020185Y-58057461D01*
X99072989Y-58011706D01*
X99124500Y-58000500D01*
X168875500Y-58000500D01*
X168942539Y-58020185D01*
G37*
%TD.AperFunction*%
%TD*%
%TA.AperFunction,Conductor*%
%TO.N,RF_In*%
G36*
X136443039Y-73519685D02*
G01*
X136488794Y-73572489D01*
X136500000Y-73624000D01*
X136500000Y-78376000D01*
X136480315Y-78443039D01*
X136427511Y-78488794D01*
X136376000Y-78500000D01*
X115034345Y-78500000D01*
X114970548Y-78482329D01*
X112500000Y-77000000D01*
X109624000Y-77000000D01*
X109556961Y-76980315D01*
X109511206Y-76927511D01*
X109500000Y-76876000D01*
X109500000Y-75094711D01*
X109519685Y-75027672D01*
X109572489Y-74981917D01*
X109591373Y-74975080D01*
X114927822Y-73519685D01*
X114983980Y-73504368D01*
X115016607Y-73500000D01*
X136376000Y-73500000D01*
X136443039Y-73519685D01*
G37*
%TD.AperFunction*%
%TD*%
M02*
