%TF.GenerationSoftware,KiCad,Pcbnew,9.0.8*%
%TF.CreationDate,2026-03-26T13:17:19+00:00*%
%TF.ProjectId,DummyLoad,44756d6d-794c-46f6-9164-2e6b69636164,rev?*%
%TF.SameCoordinates,Original*%
%TF.FileFunction,Copper,L1,Top*%
%TF.FilePolarity,Positive*%
%FSLAX46Y46*%
G04 Gerber Fmt 4.6, Leading zero omitted, Abs format (unit mm)*
G04 Created by KiCad (PCBNEW 9.0.8) date 2026-03-26 13:17:19*
%MOMM*%
%LPD*%
G01*
G04 APERTURE LIST*
G04 Aperture macros list*
%AMRoundRect*
0 Rectangle with rounded corners*
0 $1 Rounding radius*
0 $2 $3 $4 $5 $6 $7 $8 $9 X,Y pos of 4 corners*
0 Add a 4 corners polygon primitive as box body*
4,1,4,$2,$3,$4,$5,$6,$7,$8,$9,$2,$3,0*
0 Add four circle primitives for the rounded corners*
1,1,$1+$1,$2,$3*
1,1,$1+$1,$4,$5*
1,1,$1+$1,$6,$7*
1,1,$1+$1,$8,$9*
0 Add four rect primitives between the rounded corners*
20,1,$1+$1,$2,$3,$4,$5,0*
20,1,$1+$1,$4,$5,$6,$7,0*
20,1,$1+$1,$6,$7,$8,$9,0*
20,1,$1+$1,$8,$9,$2,$3,0*%
G04 Aperture macros list end*
%TA.AperFunction,ComponentPad*%
%ADD10O,2.500000X1.600000*%
%TD*%
%TA.AperFunction,ComponentPad*%
%ADD11O,7.000000X3.500000*%
%TD*%
%TA.AperFunction,SMDPad,CuDef*%
%ADD12RoundRect,0.250000X1.425000X-0.362500X1.425000X0.362500X-1.425000X0.362500X-1.425000X-0.362500X0*%
%TD*%
%TA.AperFunction,SMDPad,CuDef*%
%ADD13RoundRect,0.250000X-1.425000X0.362500X-1.425000X-0.362500X1.425000X-0.362500X1.425000X0.362500X0*%
%TD*%
%TA.AperFunction,ComponentPad*%
%ADD14R,1.700000X1.700000*%
%TD*%
%TA.AperFunction,ComponentPad*%
%ADD15O,1.700000X1.700000*%
%TD*%
%TA.AperFunction,SMDPad,CuDef*%
%ADD16RoundRect,0.250000X0.362500X1.425000X-0.362500X1.425000X-0.362500X-1.425000X0.362500X-1.425000X0*%
%TD*%
G04 APERTURE END LIST*
D10*
%TO.P,J2,1,In*%
%TO.N,RF_Out*%
X157000000Y-76080000D03*
D11*
%TO.P,J2,2,Ext*%
%TO.N,GND*%
X162080000Y-71000000D03*
D10*
X157000000Y-73540000D03*
D11*
X162080000Y-81160000D03*
%TD*%
D12*
%TO.P,R1,1*%
%TO.N,RF_In*%
X118620000Y-74462500D03*
%TO.P,R1,2*%
%TO.N,GND*%
X118620000Y-68537500D03*
%TD*%
D13*
%TO.P,R9,1*%
%TO.N,RF_In*%
X135000000Y-77575000D03*
%TO.P,R9,2*%
%TO.N,GND*%
X135000000Y-83500000D03*
%TD*%
D12*
%TO.P,R2,1*%
%TO.N,RF_In*%
X124090000Y-74462500D03*
%TO.P,R2,2*%
%TO.N,GND*%
X124090000Y-68537500D03*
%TD*%
D14*
%TO.P,J3,1,Pin_1*%
%TO.N,PWR*%
X149775000Y-68500000D03*
D15*
%TO.P,J3,2,Pin_2*%
%TO.N,GND*%
X147235000Y-68500000D03*
%TD*%
D12*
%TO.P,R3,1*%
%TO.N,RF_In*%
X129560000Y-74462500D03*
%TO.P,R3,2*%
%TO.N,GND*%
X129560000Y-68537500D03*
%TD*%
D13*
%TO.P,R7,1*%
%TO.N,RF_In*%
X124000000Y-77537500D03*
%TO.P,R7,2*%
%TO.N,GND*%
X124000000Y-83462500D03*
%TD*%
D12*
%TO.P,R5,1*%
%TO.N,RF_In*%
X140500000Y-74462500D03*
%TO.P,R5,2*%
%TO.N,GND*%
X140500000Y-68537500D03*
%TD*%
D13*
%TO.P,R8,1*%
%TO.N,RF_In*%
X129500000Y-77537500D03*
%TO.P,R8,2*%
%TO.N,GND*%
X129500000Y-83462500D03*
%TD*%
D16*
%TO.P,R21,1*%
%TO.N,RF_Out*%
X151500000Y-76000000D03*
%TO.P,R21,2*%
%TO.N,RF_In*%
X145575000Y-76000000D03*
%TD*%
D10*
%TO.P,J1,1,In*%
%TO.N,RF_In*%
X111050000Y-76080000D03*
D11*
%TO.P,J1,2,Ext*%
%TO.N,GND*%
X105970000Y-81160000D03*
D10*
X111050000Y-78620000D03*
D11*
X105970000Y-71000000D03*
%TD*%
D12*
%TO.P,R4,1*%
%TO.N,RF_In*%
X135030000Y-74462500D03*
%TO.P,R4,2*%
%TO.N,GND*%
X135030000Y-68537500D03*
%TD*%
D13*
%TO.P,R6,1*%
%TO.N,RF_In*%
X118500000Y-77537500D03*
%TO.P,R6,2*%
%TO.N,GND*%
X118500000Y-83462500D03*
%TD*%
%TO.P,R10,1*%
%TO.N,RF_In*%
X140500000Y-77575000D03*
%TO.P,R10,2*%
%TO.N,GND*%
X140500000Y-83500000D03*
%TD*%
%TA.AperFunction,Conductor*%
%TO.N,RF_Out*%
G36*
X152513288Y-74002953D02*
G01*
X157000000Y-75000000D01*
X158376000Y-75000000D01*
X158443039Y-75019685D01*
X158488794Y-75072489D01*
X158500000Y-75124000D01*
X158500000Y-76876000D01*
X158480315Y-76943039D01*
X158427511Y-76988794D01*
X158376000Y-77000000D01*
X157000000Y-77000000D01*
X152513288Y-77997047D01*
X152486389Y-78000000D01*
X150624000Y-78000000D01*
X150556961Y-77980315D01*
X150511206Y-77927511D01*
X150500000Y-77876000D01*
X150500000Y-74124000D01*
X150519685Y-74056961D01*
X150572489Y-74011206D01*
X150624000Y-74000000D01*
X152486389Y-74000000D01*
X152513288Y-74002953D01*
G37*
%TD.AperFunction*%
%TD*%
%TA.AperFunction,Conductor*%
%TO.N,GND*%
G36*
X168941298Y-58020185D02*
G01*
X168987053Y-58072989D01*
X168998247Y-58126222D01*
X168501705Y-93877222D01*
X168481091Y-93943982D01*
X168427657Y-93988999D01*
X168377717Y-93999500D01*
X99124500Y-93999500D01*
X99057461Y-93979815D01*
X99011706Y-93927011D01*
X99000500Y-93875500D01*
X99000500Y-88878711D01*
X102149500Y-88878711D01*
X102149500Y-89121288D01*
X102181161Y-89361785D01*
X102243947Y-89596104D01*
X102336773Y-89820205D01*
X102336776Y-89820212D01*
X102458064Y-90030289D01*
X102458066Y-90030292D01*
X102458067Y-90030293D01*
X102605733Y-90222736D01*
X102605739Y-90222743D01*
X102777256Y-90394260D01*
X102777262Y-90394265D01*
X102969711Y-90541936D01*
X103179788Y-90663224D01*
X103403900Y-90756054D01*
X103638211Y-90818838D01*
X103818586Y-90842584D01*
X103878711Y-90850500D01*
X103878712Y-90850500D01*
X104121289Y-90850500D01*
X104169388Y-90844167D01*
X104361789Y-90818838D01*
X104596100Y-90756054D01*
X104820212Y-90663224D01*
X105030289Y-90541936D01*
X105222738Y-90394265D01*
X105394265Y-90222738D01*
X105541936Y-90030289D01*
X105663224Y-89820212D01*
X105756054Y-89596100D01*
X105818838Y-89361789D01*
X105850500Y-89121288D01*
X105850500Y-88878712D01*
X105850500Y-88878711D01*
X162149500Y-88878711D01*
X162149500Y-89121288D01*
X162181161Y-89361785D01*
X162243947Y-89596104D01*
X162336773Y-89820205D01*
X162336776Y-89820212D01*
X162458064Y-90030289D01*
X162458066Y-90030292D01*
X162458067Y-90030293D01*
X162605733Y-90222736D01*
X162605739Y-90222743D01*
X162777256Y-90394260D01*
X162777262Y-90394265D01*
X162969711Y-90541936D01*
X163179788Y-90663224D01*
X163403900Y-90756054D01*
X163638211Y-90818838D01*
X163818586Y-90842584D01*
X163878711Y-90850500D01*
X163878712Y-90850500D01*
X164121289Y-90850500D01*
X164169388Y-90844167D01*
X164361789Y-90818838D01*
X164596100Y-90756054D01*
X164820212Y-90663224D01*
X165030289Y-90541936D01*
X165222738Y-90394265D01*
X165394265Y-90222738D01*
X165541936Y-90030289D01*
X165663224Y-89820212D01*
X165756054Y-89596100D01*
X165818838Y-89361789D01*
X165850500Y-89121288D01*
X165850500Y-88878712D01*
X165818838Y-88638211D01*
X165756054Y-88403900D01*
X165663224Y-88179788D01*
X165541936Y-87969711D01*
X165394265Y-87777262D01*
X165394260Y-87777256D01*
X165222743Y-87605739D01*
X165222736Y-87605733D01*
X165030293Y-87458067D01*
X165030292Y-87458066D01*
X165030289Y-87458064D01*
X164820212Y-87336776D01*
X164820205Y-87336773D01*
X164596104Y-87243947D01*
X164361785Y-87181161D01*
X164121289Y-87149500D01*
X164121288Y-87149500D01*
X163878712Y-87149500D01*
X163878711Y-87149500D01*
X163638214Y-87181161D01*
X163403895Y-87243947D01*
X163179794Y-87336773D01*
X163179785Y-87336777D01*
X162969706Y-87458067D01*
X162777263Y-87605733D01*
X162777256Y-87605739D01*
X162605739Y-87777256D01*
X162605733Y-87777263D01*
X162458067Y-87969706D01*
X162336777Y-88179785D01*
X162336773Y-88179794D01*
X162243947Y-88403895D01*
X162181161Y-88638214D01*
X162149500Y-88878711D01*
X105850500Y-88878711D01*
X105818838Y-88638211D01*
X105756054Y-88403900D01*
X105663224Y-88179788D01*
X105541936Y-87969711D01*
X105394265Y-87777262D01*
X105394260Y-87777256D01*
X105222743Y-87605739D01*
X105222736Y-87605733D01*
X105030293Y-87458067D01*
X105030292Y-87458066D01*
X105030289Y-87458064D01*
X104820212Y-87336776D01*
X104820205Y-87336773D01*
X104596104Y-87243947D01*
X104361785Y-87181161D01*
X104121289Y-87149500D01*
X104121288Y-87149500D01*
X103878712Y-87149500D01*
X103878711Y-87149500D01*
X103638214Y-87181161D01*
X103403895Y-87243947D01*
X103179794Y-87336773D01*
X103179785Y-87336777D01*
X102969706Y-87458067D01*
X102777263Y-87605733D01*
X102777256Y-87605739D01*
X102605739Y-87777256D01*
X102605733Y-87777263D01*
X102458067Y-87969706D01*
X102336777Y-88179785D01*
X102336773Y-88179794D01*
X102243947Y-88403895D01*
X102181161Y-88638214D01*
X102149500Y-88878711D01*
X99000500Y-88878711D01*
X99000500Y-83874986D01*
X116325001Y-83874986D01*
X116335494Y-83977697D01*
X116390641Y-84144119D01*
X116390643Y-84144124D01*
X116482684Y-84293345D01*
X116606654Y-84417315D01*
X116755875Y-84509356D01*
X116755880Y-84509358D01*
X116922302Y-84564505D01*
X116922309Y-84564506D01*
X117025019Y-84574999D01*
X118249999Y-84574999D01*
X118750000Y-84574999D01*
X119974972Y-84574999D01*
X119974986Y-84574998D01*
X120077697Y-84564505D01*
X120244119Y-84509358D01*
X120244124Y-84509356D01*
X120393345Y-84417315D01*
X120517315Y-84293345D01*
X120609356Y-84144124D01*
X120609358Y-84144119D01*
X120664505Y-83977697D01*
X120664506Y-83977690D01*
X120674999Y-83874986D01*
X121825001Y-83874986D01*
X121835494Y-83977697D01*
X121890641Y-84144119D01*
X121890643Y-84144124D01*
X121982684Y-84293345D01*
X122106654Y-84417315D01*
X122255875Y-84509356D01*
X122255880Y-84509358D01*
X122422302Y-84564505D01*
X122422309Y-84564506D01*
X122525019Y-84574999D01*
X123749999Y-84574999D01*
X124250000Y-84574999D01*
X125474972Y-84574999D01*
X125474986Y-84574998D01*
X125577697Y-84564505D01*
X125744119Y-84509358D01*
X125744124Y-84509356D01*
X125893345Y-84417315D01*
X126017315Y-84293345D01*
X126109356Y-84144124D01*
X126109358Y-84144119D01*
X126164505Y-83977697D01*
X126164506Y-83977690D01*
X126174999Y-83874986D01*
X127325001Y-83874986D01*
X127335494Y-83977697D01*
X127390641Y-84144119D01*
X127390643Y-84144124D01*
X127482684Y-84293345D01*
X127606654Y-84417315D01*
X127755875Y-84509356D01*
X127755880Y-84509358D01*
X127922302Y-84564505D01*
X127922309Y-84564506D01*
X128025019Y-84574999D01*
X129249999Y-84574999D01*
X129750000Y-84574999D01*
X130974972Y-84574999D01*
X130974986Y-84574998D01*
X131077697Y-84564505D01*
X131244119Y-84509358D01*
X131244124Y-84509356D01*
X131393345Y-84417315D01*
X131517315Y-84293345D01*
X131609356Y-84144124D01*
X131609358Y-84144119D01*
X131664505Y-83977697D01*
X131664506Y-83977690D01*
X131671168Y-83912486D01*
X132825001Y-83912486D01*
X132835494Y-84015197D01*
X132890641Y-84181619D01*
X132890643Y-84181624D01*
X132982684Y-84330845D01*
X133106654Y-84454815D01*
X133255875Y-84546856D01*
X133255880Y-84546858D01*
X133422302Y-84602005D01*
X133422309Y-84602006D01*
X133525019Y-84612499D01*
X134749999Y-84612499D01*
X135250000Y-84612499D01*
X136474972Y-84612499D01*
X136474986Y-84612498D01*
X136577697Y-84602005D01*
X136744119Y-84546858D01*
X136744124Y-84546856D01*
X136893345Y-84454815D01*
X137017315Y-84330845D01*
X137109356Y-84181624D01*
X137109358Y-84181619D01*
X137164505Y-84015197D01*
X137164506Y-84015190D01*
X137174999Y-83912486D01*
X138325001Y-83912486D01*
X138335494Y-84015197D01*
X138390641Y-84181619D01*
X138390643Y-84181624D01*
X138482684Y-84330845D01*
X138606654Y-84454815D01*
X138755875Y-84546856D01*
X138755880Y-84546858D01*
X138922302Y-84602005D01*
X138922309Y-84602006D01*
X139025019Y-84612499D01*
X140249999Y-84612499D01*
X140750000Y-84612499D01*
X141974972Y-84612499D01*
X141974986Y-84612498D01*
X142077697Y-84602005D01*
X142244119Y-84546858D01*
X142244124Y-84546856D01*
X142393345Y-84454815D01*
X142517315Y-84330845D01*
X142609356Y-84181624D01*
X142609358Y-84181619D01*
X142664505Y-84015197D01*
X142664506Y-84015190D01*
X142674999Y-83912486D01*
X142675000Y-83912473D01*
X142675000Y-83750000D01*
X140750000Y-83750000D01*
X140750000Y-84612499D01*
X140249999Y-84612499D01*
X140250000Y-84612498D01*
X140250000Y-83750000D01*
X138325001Y-83750000D01*
X138325001Y-83912486D01*
X137174999Y-83912486D01*
X137175000Y-83912473D01*
X137175000Y-83750000D01*
X135250000Y-83750000D01*
X135250000Y-84612499D01*
X134749999Y-84612499D01*
X134750000Y-84612498D01*
X134750000Y-83750000D01*
X132825001Y-83750000D01*
X132825001Y-83912486D01*
X131671168Y-83912486D01*
X131674999Y-83874986D01*
X131675000Y-83874973D01*
X131675000Y-83712500D01*
X129750000Y-83712500D01*
X129750000Y-84574999D01*
X129249999Y-84574999D01*
X129250000Y-84574998D01*
X129250000Y-83712500D01*
X127325001Y-83712500D01*
X127325001Y-83874986D01*
X126174999Y-83874986D01*
X126175000Y-83874973D01*
X126175000Y-83712500D01*
X124250000Y-83712500D01*
X124250000Y-84574999D01*
X123749999Y-84574999D01*
X123750000Y-84574998D01*
X123750000Y-83712500D01*
X121825001Y-83712500D01*
X121825001Y-83874986D01*
X120674999Y-83874986D01*
X120675000Y-83874973D01*
X120675000Y-83712500D01*
X118750000Y-83712500D01*
X118750000Y-84574999D01*
X118249999Y-84574999D01*
X118250000Y-84574998D01*
X118250000Y-83712500D01*
X116325001Y-83712500D01*
X116325001Y-83874986D01*
X99000500Y-83874986D01*
X99000500Y-80910000D01*
X101983497Y-80910000D01*
X104995038Y-80910000D01*
X104965000Y-81061016D01*
X104965000Y-81258984D01*
X104995038Y-81410000D01*
X101983498Y-81410000D01*
X102008496Y-81599884D01*
X102008499Y-81599897D01*
X102084835Y-81884790D01*
X102084838Y-81884800D01*
X102197704Y-82157281D01*
X102197709Y-82157292D01*
X102345174Y-82412707D01*
X102345185Y-82412723D01*
X102524729Y-82646709D01*
X102524735Y-82646716D01*
X102733283Y-82855264D01*
X102733290Y-82855270D01*
X102967276Y-83034814D01*
X102967292Y-83034825D01*
X103222707Y-83182290D01*
X103222718Y-83182295D01*
X103495199Y-83295161D01*
X103495209Y-83295164D01*
X103780102Y-83371500D01*
X103780115Y-83371503D01*
X104072516Y-83409998D01*
X104072534Y-83410000D01*
X105720000Y-83410000D01*
X105720000Y-82134961D01*
X105871016Y-82165000D01*
X106068984Y-82165000D01*
X106220000Y-82134961D01*
X106220000Y-83410000D01*
X107867466Y-83410000D01*
X107867483Y-83409998D01*
X108159884Y-83371503D01*
X108159897Y-83371500D01*
X108444790Y-83295164D01*
X108444800Y-83295161D01*
X108717281Y-83182295D01*
X108717292Y-83182290D01*
X108946401Y-83050013D01*
X116325000Y-83050013D01*
X116325000Y-83212500D01*
X118250000Y-83212500D01*
X118750000Y-83212500D01*
X120674999Y-83212500D01*
X120674999Y-83050029D01*
X120674998Y-83050013D01*
X121825000Y-83050013D01*
X121825000Y-83212500D01*
X123750000Y-83212500D01*
X124250000Y-83212500D01*
X126174999Y-83212500D01*
X126174999Y-83050029D01*
X126174998Y-83050013D01*
X127325000Y-83050013D01*
X127325000Y-83212500D01*
X129250000Y-83212500D01*
X129750000Y-83212500D01*
X131674999Y-83212500D01*
X131674999Y-83087513D01*
X132825000Y-83087513D01*
X132825000Y-83250000D01*
X134750000Y-83250000D01*
X135250000Y-83250000D01*
X137174999Y-83250000D01*
X137174999Y-83087529D01*
X137174998Y-83087513D01*
X138325000Y-83087513D01*
X138325000Y-83250000D01*
X140250000Y-83250000D01*
X140750000Y-83250000D01*
X142674999Y-83250000D01*
X142674999Y-83087528D01*
X142674998Y-83087513D01*
X142664505Y-82984802D01*
X142609358Y-82818380D01*
X142609356Y-82818375D01*
X142517315Y-82669154D01*
X142393345Y-82545184D01*
X142244124Y-82453143D01*
X142244119Y-82453141D01*
X142077697Y-82397994D01*
X142077690Y-82397993D01*
X141974986Y-82387500D01*
X140750000Y-82387500D01*
X140750000Y-83250000D01*
X140250000Y-83250000D01*
X140250000Y-82387500D01*
X139025028Y-82387500D01*
X139025012Y-82387501D01*
X138922302Y-82397994D01*
X138755880Y-82453141D01*
X138755875Y-82453143D01*
X138606654Y-82545184D01*
X138482684Y-82669154D01*
X138390643Y-82818375D01*
X138390641Y-82818380D01*
X138335494Y-82984802D01*
X138335493Y-82984809D01*
X138325000Y-83087513D01*
X137174998Y-83087513D01*
X137174998Y-83087512D01*
X137164505Y-82984802D01*
X137109358Y-82818380D01*
X137109356Y-82818375D01*
X137017315Y-82669154D01*
X136893345Y-82545184D01*
X136744124Y-82453143D01*
X136744119Y-82453141D01*
X136577697Y-82397994D01*
X136577690Y-82397993D01*
X136474986Y-82387500D01*
X135250000Y-82387500D01*
X135250000Y-83250000D01*
X134750000Y-83250000D01*
X134750000Y-82387500D01*
X133525028Y-82387500D01*
X133525012Y-82387501D01*
X133422302Y-82397994D01*
X133255880Y-82453141D01*
X133255875Y-82453143D01*
X133106654Y-82545184D01*
X132982684Y-82669154D01*
X132890643Y-82818375D01*
X132890641Y-82818380D01*
X132835494Y-82984802D01*
X132835493Y-82984809D01*
X132825000Y-83087513D01*
X131674999Y-83087513D01*
X131674999Y-83050028D01*
X131674998Y-83050013D01*
X131664505Y-82947302D01*
X131609358Y-82780880D01*
X131609356Y-82780875D01*
X131517315Y-82631654D01*
X131393345Y-82507684D01*
X131244124Y-82415643D01*
X131244119Y-82415641D01*
X131077697Y-82360494D01*
X131077690Y-82360493D01*
X130974986Y-82350000D01*
X129750000Y-82350000D01*
X129750000Y-83212500D01*
X129250000Y-83212500D01*
X129250000Y-82350000D01*
X128025028Y-82350000D01*
X128025012Y-82350001D01*
X127922302Y-82360494D01*
X127755880Y-82415641D01*
X127755875Y-82415643D01*
X127606654Y-82507684D01*
X127482684Y-82631654D01*
X127390643Y-82780875D01*
X127390641Y-82780880D01*
X127335494Y-82947302D01*
X127335493Y-82947309D01*
X127325000Y-83050013D01*
X126174998Y-83050013D01*
X126174998Y-83050012D01*
X126164505Y-82947302D01*
X126109358Y-82780880D01*
X126109356Y-82780875D01*
X126017315Y-82631654D01*
X125893345Y-82507684D01*
X125744124Y-82415643D01*
X125744119Y-82415641D01*
X125577697Y-82360494D01*
X125577690Y-82360493D01*
X125474986Y-82350000D01*
X124250000Y-82350000D01*
X124250000Y-83212500D01*
X123750000Y-83212500D01*
X123750000Y-82350000D01*
X122525028Y-82350000D01*
X122525012Y-82350001D01*
X122422302Y-82360494D01*
X122255880Y-82415641D01*
X122255875Y-82415643D01*
X122106654Y-82507684D01*
X121982684Y-82631654D01*
X121890643Y-82780875D01*
X121890641Y-82780880D01*
X121835494Y-82947302D01*
X121835493Y-82947309D01*
X121825000Y-83050013D01*
X120674998Y-83050013D01*
X120674998Y-83050012D01*
X120664505Y-82947302D01*
X120609358Y-82780880D01*
X120609356Y-82780875D01*
X120517315Y-82631654D01*
X120393345Y-82507684D01*
X120244124Y-82415643D01*
X120244119Y-82415641D01*
X120077697Y-82360494D01*
X120077690Y-82360493D01*
X119974986Y-82350000D01*
X118750000Y-82350000D01*
X118750000Y-83212500D01*
X118250000Y-83212500D01*
X118250000Y-82350000D01*
X117025028Y-82350000D01*
X117025012Y-82350001D01*
X116922302Y-82360494D01*
X116755880Y-82415641D01*
X116755875Y-82415643D01*
X116606654Y-82507684D01*
X116482684Y-82631654D01*
X116390643Y-82780875D01*
X116390641Y-82780880D01*
X116335494Y-82947302D01*
X116335493Y-82947309D01*
X116325000Y-83050013D01*
X108946401Y-83050013D01*
X108972707Y-83034825D01*
X108972715Y-83034819D01*
X109085225Y-82948488D01*
X109085227Y-82948487D01*
X109206709Y-82855270D01*
X109206716Y-82855264D01*
X109415264Y-82646716D01*
X109415270Y-82646709D01*
X109594814Y-82412723D01*
X109594825Y-82412707D01*
X109742290Y-82157292D01*
X109742295Y-82157281D01*
X109855161Y-81884800D01*
X109855164Y-81884790D01*
X109931500Y-81599897D01*
X109931503Y-81599884D01*
X109956502Y-81410000D01*
X106944962Y-81410000D01*
X106975000Y-81258984D01*
X106975000Y-81061016D01*
X106944962Y-80910000D01*
X109956502Y-80910000D01*
X158093497Y-80910000D01*
X161105038Y-80910000D01*
X161075000Y-81061016D01*
X161075000Y-81258984D01*
X161105038Y-81410000D01*
X158093498Y-81410000D01*
X158118496Y-81599884D01*
X158118499Y-81599897D01*
X158194835Y-81884790D01*
X158194838Y-81884800D01*
X158307704Y-82157281D01*
X158307709Y-82157292D01*
X158455174Y-82412707D01*
X158455185Y-82412723D01*
X158634729Y-82646709D01*
X158634735Y-82646716D01*
X158843283Y-82855264D01*
X158843290Y-82855270D01*
X159077276Y-83034814D01*
X159077292Y-83034825D01*
X159332707Y-83182290D01*
X159332718Y-83182295D01*
X159605199Y-83295161D01*
X159605209Y-83295164D01*
X159890102Y-83371500D01*
X159890115Y-83371503D01*
X160182516Y-83409998D01*
X160182534Y-83410000D01*
X161830000Y-83410000D01*
X161830000Y-82134961D01*
X161981016Y-82165000D01*
X162178984Y-82165000D01*
X162330000Y-82134961D01*
X162330000Y-83410000D01*
X163977466Y-83410000D01*
X163977483Y-83409998D01*
X164269884Y-83371503D01*
X164269897Y-83371500D01*
X164554790Y-83295164D01*
X164554800Y-83295161D01*
X164827281Y-83182295D01*
X164827292Y-83182290D01*
X165082707Y-83034825D01*
X165082723Y-83034814D01*
X165316709Y-82855270D01*
X165316716Y-82855264D01*
X165525264Y-82646716D01*
X165525270Y-82646709D01*
X165704814Y-82412723D01*
X165704825Y-82412707D01*
X165852290Y-82157292D01*
X165852295Y-82157281D01*
X165965161Y-81884800D01*
X165965164Y-81884790D01*
X166041500Y-81599897D01*
X166041503Y-81599884D01*
X166066502Y-81410000D01*
X163054962Y-81410000D01*
X163085000Y-81258984D01*
X163085000Y-81061016D01*
X163054962Y-80910000D01*
X166066502Y-80910000D01*
X166041503Y-80720115D01*
X166041500Y-80720102D01*
X165965164Y-80435209D01*
X165965161Y-80435199D01*
X165852295Y-80162718D01*
X165852290Y-80162707D01*
X165704825Y-79907292D01*
X165704814Y-79907276D01*
X165525270Y-79673290D01*
X165525264Y-79673283D01*
X165316716Y-79464735D01*
X165316709Y-79464729D01*
X165082723Y-79285185D01*
X165082707Y-79285174D01*
X164827292Y-79137709D01*
X164827281Y-79137704D01*
X164554800Y-79024838D01*
X164554790Y-79024835D01*
X164269897Y-78948499D01*
X164269884Y-78948496D01*
X163977483Y-78910001D01*
X163977466Y-78910000D01*
X162330000Y-78910000D01*
X162330000Y-80185038D01*
X162178984Y-80155000D01*
X161981016Y-80155000D01*
X161830000Y-80185038D01*
X161830000Y-78910000D01*
X160182534Y-78910000D01*
X160182516Y-78910001D01*
X159890115Y-78948496D01*
X159890102Y-78948499D01*
X159605209Y-79024835D01*
X159605199Y-79024838D01*
X159332718Y-79137704D01*
X159332707Y-79137709D01*
X159077292Y-79285174D01*
X159077276Y-79285185D01*
X158843290Y-79464729D01*
X158843283Y-79464735D01*
X158634735Y-79673283D01*
X158634729Y-79673290D01*
X158455185Y-79907276D01*
X158455174Y-79907292D01*
X158307709Y-80162707D01*
X158307704Y-80162718D01*
X158194838Y-80435199D01*
X158194835Y-80435209D01*
X158118499Y-80720102D01*
X158118496Y-80720115D01*
X158093497Y-80910000D01*
X109956502Y-80910000D01*
X109931503Y-80720115D01*
X109931500Y-80720102D01*
X109855164Y-80435209D01*
X109855161Y-80435199D01*
X109742295Y-80162718D01*
X109742290Y-80162707D01*
X109594825Y-79907292D01*
X109594814Y-79907276D01*
X109415270Y-79673290D01*
X109415264Y-79673283D01*
X109206716Y-79464735D01*
X109206709Y-79464729D01*
X108972723Y-79285185D01*
X108972707Y-79285174D01*
X108717292Y-79137709D01*
X108717281Y-79137704D01*
X108444800Y-79024838D01*
X108444790Y-79024835D01*
X108175620Y-78952712D01*
X108159897Y-78948499D01*
X108159884Y-78948496D01*
X107867483Y-78910001D01*
X107867466Y-78910000D01*
X106220000Y-78910000D01*
X106220000Y-80185038D01*
X106068984Y-80155000D01*
X105871016Y-80155000D01*
X105720000Y-80185038D01*
X105720000Y-78910000D01*
X104072534Y-78910000D01*
X104072516Y-78910001D01*
X103780115Y-78948496D01*
X103780102Y-78948499D01*
X103495209Y-79024835D01*
X103495199Y-79024838D01*
X103222718Y-79137704D01*
X103222707Y-79137709D01*
X102967292Y-79285174D01*
X102967276Y-79285185D01*
X102733290Y-79464729D01*
X102733283Y-79464735D01*
X102524735Y-79673283D01*
X102524729Y-79673290D01*
X102345185Y-79907276D01*
X102345174Y-79907292D01*
X102197709Y-80162707D01*
X102197704Y-80162718D01*
X102084838Y-80435199D01*
X102084835Y-80435209D01*
X102008499Y-80720102D01*
X102008496Y-80720115D01*
X101983497Y-80910000D01*
X99000500Y-80910000D01*
X99000500Y-75106381D01*
X108994500Y-75106381D01*
X108994500Y-76876000D01*
X108994501Y-76876009D01*
X109006052Y-76983450D01*
X109006054Y-76983462D01*
X109017260Y-77034972D01*
X109051383Y-77137497D01*
X109051386Y-77137503D01*
X109129171Y-77258537D01*
X109129179Y-77258548D01*
X109174923Y-77311340D01*
X109174926Y-77311343D01*
X109174930Y-77311347D01*
X109283664Y-77405567D01*
X109283667Y-77405568D01*
X109283668Y-77405569D01*
X109377925Y-77448616D01*
X109414541Y-77465338D01*
X109481580Y-77485023D01*
X109481584Y-77485024D01*
X109599145Y-77501926D01*
X109662698Y-77530949D01*
X109700473Y-77589727D01*
X109700474Y-77659597D01*
X109669178Y-77712344D01*
X109608414Y-77773107D01*
X109488140Y-77938650D01*
X109395244Y-78120970D01*
X109332009Y-78315586D01*
X109323391Y-78370000D01*
X110680496Y-78370000D01*
X110635326Y-78448236D01*
X110605000Y-78561415D01*
X110605000Y-78678585D01*
X110635326Y-78791764D01*
X110680496Y-78870000D01*
X109323391Y-78870000D01*
X109332009Y-78924413D01*
X109395244Y-79119029D01*
X109488140Y-79301349D01*
X109608417Y-79466894D01*
X109608417Y-79466895D01*
X109753104Y-79611582D01*
X109918650Y-79731859D01*
X110100968Y-79824755D01*
X110295582Y-79887990D01*
X110497683Y-79920000D01*
X110800000Y-79920000D01*
X110800000Y-78989504D01*
X110878236Y-79034674D01*
X110991415Y-79065000D01*
X111108585Y-79065000D01*
X111221764Y-79034674D01*
X111300000Y-78989504D01*
X111300000Y-79920000D01*
X111602317Y-79920000D01*
X111804417Y-79887990D01*
X111999031Y-79824755D01*
X112181349Y-79731859D01*
X112346894Y-79611582D01*
X112346895Y-79611582D01*
X112491582Y-79466895D01*
X112491582Y-79466894D01*
X112611859Y-79301349D01*
X112704755Y-79119029D01*
X112767990Y-78924413D01*
X112776609Y-78870000D01*
X111419504Y-78870000D01*
X111464674Y-78791764D01*
X111495000Y-78678585D01*
X111495000Y-78561415D01*
X111464674Y-78448236D01*
X111419504Y-78370000D01*
X112776609Y-78370000D01*
X112767990Y-78315586D01*
X112704755Y-78120970D01*
X112611859Y-77938650D01*
X112491582Y-77773105D01*
X112491582Y-77773104D01*
X112480259Y-77761781D01*
X112446774Y-77700458D01*
X112451758Y-77630766D01*
X112493630Y-77574833D01*
X112559094Y-77550416D01*
X112602004Y-77554870D01*
X112798676Y-77611063D01*
X115844419Y-78481276D01*
X115844420Y-78481276D01*
X115844430Y-78481279D01*
X115913188Y-78495843D01*
X115947253Y-78500614D01*
X116017367Y-78505500D01*
X116201001Y-78505500D01*
X116272943Y-78500355D01*
X116307878Y-78495332D01*
X116378399Y-78479987D01*
X116399630Y-78470288D01*
X116411991Y-78465423D01*
X116462511Y-78448610D01*
X116462511Y-78448609D01*
X116464662Y-78447894D01*
X116534487Y-78445401D01*
X116591500Y-78477868D01*
X116606344Y-78492712D01*
X116755666Y-78584814D01*
X116922203Y-78639999D01*
X117024991Y-78650500D01*
X119975008Y-78650499D01*
X120077797Y-78639999D01*
X120244334Y-78584814D01*
X120393656Y-78492712D01*
X120412980Y-78473388D01*
X120474302Y-78439901D01*
X120543994Y-78444884D01*
X120552177Y-78448274D01*
X120577920Y-78460031D01*
X120589541Y-78465338D01*
X120656580Y-78485023D01*
X120656584Y-78485024D01*
X120799000Y-78505500D01*
X120799003Y-78505500D01*
X121700991Y-78505500D01*
X121701001Y-78505500D01*
X121808457Y-78493947D01*
X121859968Y-78482741D01*
X121928200Y-78460031D01*
X121964660Y-78447896D01*
X122034486Y-78445402D01*
X122091501Y-78477869D01*
X122106344Y-78492712D01*
X122255666Y-78584814D01*
X122422203Y-78639999D01*
X122524991Y-78650500D01*
X125475008Y-78650499D01*
X125577797Y-78639999D01*
X125744334Y-78584814D01*
X125893656Y-78492712D01*
X125912980Y-78473388D01*
X125974302Y-78439901D01*
X126043994Y-78444884D01*
X126052177Y-78448274D01*
X126077920Y-78460031D01*
X126089541Y-78465338D01*
X126156580Y-78485023D01*
X126156584Y-78485024D01*
X126299000Y-78505500D01*
X126299003Y-78505500D01*
X127200991Y-78505500D01*
X127201001Y-78505500D01*
X127308457Y-78493947D01*
X127359968Y-78482741D01*
X127428200Y-78460031D01*
X127464660Y-78447896D01*
X127534486Y-78445402D01*
X127591501Y-78477869D01*
X127606344Y-78492712D01*
X127755666Y-78584814D01*
X127922203Y-78639999D01*
X128024991Y-78650500D01*
X130975008Y-78650499D01*
X131077797Y-78639999D01*
X131244334Y-78584814D01*
X131393656Y-78492712D01*
X131412980Y-78473388D01*
X131474302Y-78439901D01*
X131543994Y-78444884D01*
X131552177Y-78448274D01*
X131577920Y-78460031D01*
X131589541Y-78465338D01*
X131656580Y-78485023D01*
X131656584Y-78485024D01*
X131799000Y-78505500D01*
X131799003Y-78505500D01*
X132700991Y-78505500D01*
X132701001Y-78505500D01*
X132808457Y-78493947D01*
X132859968Y-78482741D01*
X132936525Y-78457259D01*
X133006349Y-78454765D01*
X133063365Y-78487233D01*
X133106344Y-78530212D01*
X133255666Y-78622314D01*
X133422203Y-78677499D01*
X133524991Y-78688000D01*
X136475008Y-78687999D01*
X136577797Y-78677499D01*
X136744334Y-78622314D01*
X136893656Y-78530212D01*
X136938724Y-78485144D01*
X137000047Y-78451658D01*
X137069738Y-78456642D01*
X137077920Y-78460031D01*
X137089541Y-78465338D01*
X137156580Y-78485023D01*
X137156584Y-78485024D01*
X137299000Y-78505500D01*
X137299003Y-78505500D01*
X138200991Y-78505500D01*
X138201001Y-78505500D01*
X138308457Y-78493947D01*
X138359968Y-78482741D01*
X138436525Y-78457259D01*
X138506349Y-78454765D01*
X138563365Y-78487233D01*
X138606344Y-78530212D01*
X138755666Y-78622314D01*
X138922203Y-78677499D01*
X139024991Y-78688000D01*
X141975008Y-78687999D01*
X142077797Y-78677499D01*
X142244334Y-78622314D01*
X142393656Y-78530212D01*
X142438724Y-78485144D01*
X142500047Y-78451658D01*
X142569738Y-78456642D01*
X142577920Y-78460031D01*
X142589541Y-78465338D01*
X142656580Y-78485023D01*
X142656584Y-78485024D01*
X142799000Y-78505500D01*
X142799003Y-78505500D01*
X146375990Y-78505500D01*
X146376000Y-78505500D01*
X146483456Y-78493947D01*
X146534967Y-78482741D01*
X146572379Y-78470289D01*
X146637497Y-78448616D01*
X146637501Y-78448613D01*
X146637504Y-78448613D01*
X146758543Y-78370825D01*
X146811347Y-78325070D01*
X146905567Y-78216336D01*
X146965338Y-78085459D01*
X146985023Y-78018420D01*
X146985024Y-78018416D01*
X147005500Y-77876000D01*
X147005500Y-74124000D01*
X149994500Y-74124000D01*
X149994500Y-77876000D01*
X149994501Y-77876009D01*
X150006052Y-77983450D01*
X150006054Y-77983462D01*
X150017260Y-78034972D01*
X150051383Y-78137497D01*
X150051386Y-78137503D01*
X150129171Y-78258537D01*
X150129179Y-78258548D01*
X150174923Y-78311340D01*
X150174926Y-78311343D01*
X150174930Y-78311347D01*
X150283664Y-78405567D01*
X150283667Y-78405568D01*
X150283668Y-78405569D01*
X150402920Y-78460031D01*
X150414541Y-78465338D01*
X150481580Y-78485023D01*
X150481584Y-78485024D01*
X150624000Y-78505500D01*
X150624003Y-78505500D01*
X152486378Y-78505500D01*
X152486389Y-78505500D01*
X152541552Y-78502481D01*
X152568451Y-78499528D01*
X152622946Y-78490510D01*
X152622955Y-78490508D01*
X157042203Y-77508453D01*
X157069102Y-77505500D01*
X158375990Y-77505500D01*
X158376000Y-77505500D01*
X158483456Y-77493947D01*
X158534967Y-77482741D01*
X158569197Y-77471347D01*
X158637497Y-77448616D01*
X158637501Y-77448613D01*
X158637504Y-77448613D01*
X158758543Y-77370825D01*
X158811347Y-77325070D01*
X158905567Y-77216336D01*
X158965338Y-77085459D01*
X158985023Y-77018420D01*
X158985024Y-77018416D01*
X159005500Y-76876000D01*
X159005500Y-75124000D01*
X158993947Y-75016544D01*
X158982741Y-74965033D01*
X158982384Y-74963961D01*
X158948616Y-74862502D01*
X158948613Y-74862496D01*
X158870825Y-74741457D01*
X158870820Y-74741451D01*
X158825076Y-74688659D01*
X158825072Y-74688656D01*
X158825070Y-74688653D01*
X158716336Y-74594433D01*
X158716333Y-74594431D01*
X158716331Y-74594430D01*
X158585459Y-74534661D01*
X158547170Y-74523418D01*
X158488392Y-74485643D01*
X158459369Y-74422086D01*
X158469314Y-74352928D01*
X158481789Y-74331556D01*
X158561859Y-74221349D01*
X158654755Y-74039029D01*
X158717990Y-73844413D01*
X158726609Y-73790000D01*
X157369504Y-73790000D01*
X157414674Y-73711764D01*
X157445000Y-73598585D01*
X157445000Y-73481415D01*
X157414674Y-73368236D01*
X157369504Y-73290000D01*
X158726609Y-73290000D01*
X158717990Y-73235586D01*
X158654755Y-73040970D01*
X158561859Y-72858650D01*
X158441582Y-72693105D01*
X158441582Y-72693104D01*
X158296895Y-72548417D01*
X158131349Y-72428140D01*
X157949031Y-72335244D01*
X157754417Y-72272009D01*
X157552317Y-72240000D01*
X157250000Y-72240000D01*
X157250000Y-73170495D01*
X157171764Y-73125326D01*
X157058585Y-73095000D01*
X156941415Y-73095000D01*
X156828236Y-73125326D01*
X156750000Y-73170495D01*
X156750000Y-72240000D01*
X156447683Y-72240000D01*
X156245582Y-72272009D01*
X156050968Y-72335244D01*
X155868650Y-72428140D01*
X155703105Y-72548417D01*
X155703104Y-72548417D01*
X155558417Y-72693104D01*
X155558417Y-72693105D01*
X155438140Y-72858650D01*
X155345244Y-73040970D01*
X155282009Y-73235586D01*
X155273391Y-73290000D01*
X156630496Y-73290000D01*
X156585326Y-73368236D01*
X156555000Y-73481415D01*
X156555000Y-73598585D01*
X156585326Y-73711764D01*
X156630496Y-73790000D01*
X155273391Y-73790000D01*
X155282009Y-73844413D01*
X155282010Y-73844418D01*
X155304572Y-73913858D01*
X155306567Y-73983699D01*
X155270486Y-74043532D01*
X155207785Y-74074359D01*
X155159742Y-74073222D01*
X152622955Y-73509491D01*
X152622922Y-73509485D01*
X152568455Y-73500472D01*
X152553080Y-73498784D01*
X152541552Y-73497519D01*
X152486389Y-73494500D01*
X150624000Y-73494500D01*
X150623991Y-73494500D01*
X150623990Y-73494501D01*
X150516549Y-73506052D01*
X150516537Y-73506054D01*
X150465027Y-73517260D01*
X150362502Y-73551383D01*
X150362496Y-73551386D01*
X150241462Y-73629171D01*
X150241451Y-73629179D01*
X150188659Y-73674923D01*
X150094433Y-73783664D01*
X150094430Y-73783668D01*
X150034664Y-73914534D01*
X150014976Y-73981582D01*
X150009949Y-74016549D01*
X149994500Y-74124000D01*
X147005500Y-74124000D01*
X146993947Y-74016544D01*
X146982741Y-73965033D01*
X146979293Y-73954674D01*
X146948616Y-73862502D01*
X146948613Y-73862496D01*
X146870828Y-73741462D01*
X146870825Y-73741457D01*
X146845096Y-73711764D01*
X146825076Y-73688659D01*
X146825072Y-73688656D01*
X146825070Y-73688653D01*
X146716336Y-73594433D01*
X146716333Y-73594431D01*
X146716331Y-73594430D01*
X146585465Y-73534664D01*
X146585460Y-73534662D01*
X146585459Y-73534662D01*
X146518420Y-73514977D01*
X146518422Y-73514977D01*
X146518417Y-73514976D01*
X146456347Y-73506052D01*
X146376000Y-73494500D01*
X142798999Y-73494500D01*
X142798990Y-73494500D01*
X142798989Y-73494501D01*
X142691548Y-73506052D01*
X142691536Y-73506054D01*
X142640032Y-73517259D01*
X142535337Y-73552104D01*
X142465512Y-73554597D01*
X142426631Y-73537109D01*
X142416852Y-73530484D01*
X142393656Y-73507288D01*
X142244334Y-73415186D01*
X142077797Y-73360001D01*
X142077795Y-73360000D01*
X141975010Y-73349500D01*
X139024998Y-73349500D01*
X139024981Y-73349501D01*
X138922203Y-73360000D01*
X138922200Y-73360001D01*
X138755668Y-73415185D01*
X138755663Y-73415187D01*
X138606337Y-73507292D01*
X138587015Y-73526615D01*
X138525692Y-73560099D01*
X138456000Y-73555113D01*
X138447824Y-73551726D01*
X138410465Y-73534664D01*
X138410460Y-73534662D01*
X138410459Y-73534662D01*
X138343420Y-73514977D01*
X138343422Y-73514977D01*
X138343417Y-73514976D01*
X138281347Y-73506052D01*
X138201000Y-73494500D01*
X137328999Y-73494500D01*
X137328990Y-73494500D01*
X137328989Y-73494501D01*
X137221548Y-73506052D01*
X137221536Y-73506054D01*
X137170032Y-73517259D01*
X137065337Y-73552104D01*
X136995512Y-73554597D01*
X136938498Y-73522130D01*
X136923657Y-73507289D01*
X136923656Y-73507288D01*
X136830888Y-73450069D01*
X136774336Y-73415187D01*
X136774331Y-73415185D01*
X136772862Y-73414698D01*
X136607797Y-73360001D01*
X136607795Y-73360000D01*
X136505010Y-73349500D01*
X133554998Y-73349500D01*
X133554981Y-73349501D01*
X133452203Y-73360000D01*
X133452200Y-73360001D01*
X133285668Y-73415185D01*
X133285663Y-73415187D01*
X133136337Y-73507292D01*
X133117015Y-73526615D01*
X133055692Y-73560099D01*
X132986000Y-73555113D01*
X132977824Y-73551726D01*
X132940465Y-73534664D01*
X132940460Y-73534662D01*
X132940459Y-73534662D01*
X132873420Y-73514977D01*
X132873422Y-73514977D01*
X132873417Y-73514976D01*
X132811347Y-73506052D01*
X132731000Y-73494500D01*
X131858999Y-73494500D01*
X131858990Y-73494500D01*
X131858989Y-73494501D01*
X131751548Y-73506052D01*
X131751536Y-73506054D01*
X131700032Y-73517259D01*
X131595337Y-73552104D01*
X131525512Y-73554597D01*
X131468498Y-73522130D01*
X131453657Y-73507289D01*
X131453656Y-73507288D01*
X131360888Y-73450069D01*
X131304336Y-73415187D01*
X131304331Y-73415185D01*
X131302862Y-73414698D01*
X131137797Y-73360001D01*
X131137795Y-73360000D01*
X131035010Y-73349500D01*
X128084998Y-73349500D01*
X128084981Y-73349501D01*
X127982203Y-73360000D01*
X127982200Y-73360001D01*
X127815668Y-73415185D01*
X127815663Y-73415187D01*
X127666337Y-73507292D01*
X127647015Y-73526615D01*
X127585692Y-73560099D01*
X127516000Y-73555113D01*
X127507824Y-73551726D01*
X127470465Y-73534664D01*
X127470460Y-73534662D01*
X127470459Y-73534662D01*
X127403420Y-73514977D01*
X127403422Y-73514977D01*
X127403417Y-73514976D01*
X127341347Y-73506052D01*
X127261000Y-73494500D01*
X126388999Y-73494500D01*
X126388990Y-73494500D01*
X126388989Y-73494501D01*
X126281548Y-73506052D01*
X126281536Y-73506054D01*
X126230032Y-73517259D01*
X126125337Y-73552104D01*
X126055512Y-73554597D01*
X125998498Y-73522130D01*
X125983657Y-73507289D01*
X125983656Y-73507288D01*
X125890888Y-73450069D01*
X125834336Y-73415187D01*
X125834331Y-73415185D01*
X125832862Y-73414698D01*
X125667797Y-73360001D01*
X125667795Y-73360000D01*
X125565010Y-73349500D01*
X122614998Y-73349500D01*
X122614981Y-73349501D01*
X122512203Y-73360000D01*
X122512200Y-73360001D01*
X122345668Y-73415185D01*
X122345663Y-73415187D01*
X122196337Y-73507292D01*
X122177015Y-73526615D01*
X122115692Y-73560099D01*
X122046000Y-73555113D01*
X122037824Y-73551726D01*
X122000465Y-73534664D01*
X122000460Y-73534662D01*
X122000459Y-73534662D01*
X121933420Y-73514977D01*
X121933422Y-73514977D01*
X121933417Y-73514976D01*
X121871347Y-73506052D01*
X121791000Y-73494500D01*
X120918999Y-73494500D01*
X120918990Y-73494500D01*
X120918989Y-73494501D01*
X120811548Y-73506052D01*
X120811536Y-73506054D01*
X120760032Y-73517259D01*
X120655337Y-73552104D01*
X120585512Y-73554597D01*
X120528498Y-73522130D01*
X120513657Y-73507289D01*
X120513656Y-73507288D01*
X120420888Y-73450069D01*
X120364336Y-73415187D01*
X120364331Y-73415185D01*
X120362862Y-73414698D01*
X120197797Y-73360001D01*
X120197795Y-73360000D01*
X120095010Y-73349500D01*
X117144998Y-73349500D01*
X117144981Y-73349501D01*
X117042203Y-73360000D01*
X117042200Y-73360001D01*
X116875668Y-73415185D01*
X116875663Y-73415187D01*
X116726337Y-73507292D01*
X116707015Y-73526615D01*
X116645692Y-73560099D01*
X116576000Y-73555113D01*
X116567824Y-73551726D01*
X116530465Y-73534664D01*
X116530460Y-73534662D01*
X116530459Y-73534662D01*
X116463420Y-73514977D01*
X116463422Y-73514977D01*
X116463417Y-73514976D01*
X116401347Y-73506052D01*
X116321000Y-73494500D01*
X116009482Y-73494500D01*
X115970935Y-73495972D01*
X115970927Y-73495972D01*
X115970916Y-73495973D01*
X115952081Y-73497413D01*
X115913764Y-73501819D01*
X110235722Y-74375364D01*
X109528285Y-74484200D01*
X109528258Y-74484205D01*
X109460320Y-74499511D01*
X109460311Y-74499514D01*
X109427671Y-74509274D01*
X109362495Y-74533768D01*
X109241462Y-74611552D01*
X109241451Y-74611560D01*
X109188659Y-74657304D01*
X109094433Y-74766045D01*
X109094430Y-74766049D01*
X109034664Y-74896915D01*
X109034662Y-74896922D01*
X109014977Y-74963961D01*
X109014976Y-74963965D01*
X108994500Y-75106381D01*
X99000500Y-75106381D01*
X99000500Y-70750000D01*
X101983497Y-70750000D01*
X104995038Y-70750000D01*
X104965000Y-70901016D01*
X104965000Y-71098984D01*
X104995038Y-71250000D01*
X101983498Y-71250000D01*
X102008496Y-71439884D01*
X102008499Y-71439897D01*
X102084835Y-71724790D01*
X102084838Y-71724800D01*
X102197704Y-71997281D01*
X102197709Y-71997292D01*
X102345174Y-72252707D01*
X102345185Y-72252723D01*
X102524729Y-72486709D01*
X102524735Y-72486716D01*
X102733283Y-72695264D01*
X102733290Y-72695270D01*
X102967276Y-72874814D01*
X102967292Y-72874825D01*
X103222707Y-73022290D01*
X103222718Y-73022295D01*
X103495199Y-73135161D01*
X103495209Y-73135164D01*
X103780102Y-73211500D01*
X103780115Y-73211503D01*
X104072516Y-73249998D01*
X104072534Y-73250000D01*
X105720000Y-73250000D01*
X105720000Y-71974961D01*
X105871016Y-72005000D01*
X106068984Y-72005000D01*
X106220000Y-71974961D01*
X106220000Y-73250000D01*
X107867466Y-73250000D01*
X107867483Y-73249998D01*
X108159884Y-73211503D01*
X108159897Y-73211500D01*
X108444790Y-73135164D01*
X108444800Y-73135161D01*
X108717281Y-73022295D01*
X108717292Y-73022290D01*
X108972707Y-72874825D01*
X108972723Y-72874814D01*
X109206709Y-72695270D01*
X109206716Y-72695264D01*
X109415264Y-72486716D01*
X109415270Y-72486709D01*
X109594814Y-72252723D01*
X109594825Y-72252707D01*
X109742290Y-71997292D01*
X109742295Y-71997281D01*
X109855161Y-71724800D01*
X109855164Y-71724790D01*
X109931500Y-71439897D01*
X109931503Y-71439884D01*
X109956502Y-71250000D01*
X106944962Y-71250000D01*
X106975000Y-71098984D01*
X106975000Y-70901016D01*
X106944962Y-70750000D01*
X109956502Y-70750000D01*
X158093497Y-70750000D01*
X161105038Y-70750000D01*
X161075000Y-70901016D01*
X161075000Y-71098984D01*
X161105038Y-71250000D01*
X158093498Y-71250000D01*
X158118496Y-71439884D01*
X158118499Y-71439897D01*
X158194835Y-71724790D01*
X158194838Y-71724800D01*
X158307704Y-71997281D01*
X158307709Y-71997292D01*
X158455174Y-72252707D01*
X158455185Y-72252723D01*
X158634729Y-72486709D01*
X158634735Y-72486716D01*
X158843283Y-72695264D01*
X158843290Y-72695270D01*
X159077276Y-72874814D01*
X159077292Y-72874825D01*
X159332707Y-73022290D01*
X159332718Y-73022295D01*
X159605199Y-73135161D01*
X159605209Y-73135164D01*
X159890102Y-73211500D01*
X159890115Y-73211503D01*
X160182516Y-73249998D01*
X160182534Y-73250000D01*
X161830000Y-73250000D01*
X161830000Y-71974961D01*
X161981016Y-72005000D01*
X162178984Y-72005000D01*
X162330000Y-71974961D01*
X162330000Y-73250000D01*
X163977466Y-73250000D01*
X163977483Y-73249998D01*
X164269884Y-73211503D01*
X164269897Y-73211500D01*
X164554790Y-73135164D01*
X164554800Y-73135161D01*
X164827281Y-73022295D01*
X164827292Y-73022290D01*
X165082707Y-72874825D01*
X165082723Y-72874814D01*
X165316709Y-72695270D01*
X165316716Y-72695264D01*
X165525264Y-72486716D01*
X165525270Y-72486709D01*
X165704814Y-72252723D01*
X165704825Y-72252707D01*
X165852290Y-71997292D01*
X165852295Y-71997281D01*
X165965161Y-71724800D01*
X165965164Y-71724790D01*
X166041500Y-71439897D01*
X166041503Y-71439884D01*
X166066502Y-71250000D01*
X163054962Y-71250000D01*
X163085000Y-71098984D01*
X163085000Y-70901016D01*
X163054962Y-70750000D01*
X166066502Y-70750000D01*
X166041503Y-70560115D01*
X166041500Y-70560102D01*
X165965164Y-70275209D01*
X165965161Y-70275199D01*
X165852295Y-70002718D01*
X165852290Y-70002707D01*
X165704825Y-69747292D01*
X165704814Y-69747276D01*
X165525270Y-69513290D01*
X165525264Y-69513283D01*
X165316716Y-69304735D01*
X165316709Y-69304729D01*
X165082723Y-69125185D01*
X165082707Y-69125174D01*
X164827292Y-68977709D01*
X164827281Y-68977704D01*
X164554800Y-68864838D01*
X164554790Y-68864835D01*
X164269897Y-68788499D01*
X164269884Y-68788496D01*
X163977483Y-68750001D01*
X163977466Y-68750000D01*
X162330000Y-68750000D01*
X162330000Y-70025038D01*
X162178984Y-69995000D01*
X161981016Y-69995000D01*
X161830000Y-70025038D01*
X161830000Y-68750000D01*
X160182534Y-68750000D01*
X160182516Y-68750001D01*
X159890115Y-68788496D01*
X159890102Y-68788499D01*
X159605209Y-68864835D01*
X159605199Y-68864838D01*
X159332718Y-68977704D01*
X159332707Y-68977709D01*
X159077292Y-69125174D01*
X159077276Y-69125185D01*
X158843290Y-69304729D01*
X158843283Y-69304735D01*
X158634735Y-69513283D01*
X158634729Y-69513290D01*
X158455185Y-69747276D01*
X158455174Y-69747292D01*
X158307709Y-70002707D01*
X158307704Y-70002718D01*
X158194838Y-70275199D01*
X158194835Y-70275209D01*
X158118499Y-70560102D01*
X158118496Y-70560115D01*
X158093497Y-70750000D01*
X109956502Y-70750000D01*
X109931503Y-70560115D01*
X109931500Y-70560102D01*
X109855164Y-70275209D01*
X109855161Y-70275199D01*
X109742295Y-70002718D01*
X109742290Y-70002707D01*
X109594825Y-69747292D01*
X109594814Y-69747276D01*
X109415270Y-69513290D01*
X109415264Y-69513283D01*
X109206716Y-69304735D01*
X109206709Y-69304729D01*
X108972723Y-69125185D01*
X108972707Y-69125174D01*
X108717292Y-68977709D01*
X108717281Y-68977704D01*
X108650364Y-68949986D01*
X116445001Y-68949986D01*
X116455494Y-69052697D01*
X116510641Y-69219119D01*
X116510643Y-69219124D01*
X116602684Y-69368345D01*
X116726654Y-69492315D01*
X116875875Y-69584356D01*
X116875880Y-69584358D01*
X117042302Y-69639505D01*
X117042309Y-69639506D01*
X117145019Y-69649999D01*
X118369999Y-69649999D01*
X118870000Y-69649999D01*
X120094972Y-69649999D01*
X120094986Y-69649998D01*
X120197697Y-69639505D01*
X120364119Y-69584358D01*
X120364124Y-69584356D01*
X120513345Y-69492315D01*
X120637315Y-69368345D01*
X120729356Y-69219124D01*
X120729358Y-69219119D01*
X120784505Y-69052697D01*
X120784506Y-69052690D01*
X120794999Y-68949986D01*
X121915001Y-68949986D01*
X121925494Y-69052697D01*
X121980641Y-69219119D01*
X121980643Y-69219124D01*
X122072684Y-69368345D01*
X122196654Y-69492315D01*
X122345875Y-69584356D01*
X122345880Y-69584358D01*
X122512302Y-69639505D01*
X122512309Y-69639506D01*
X122615019Y-69649999D01*
X123839999Y-69649999D01*
X124340000Y-69649999D01*
X125564972Y-69649999D01*
X125564986Y-69649998D01*
X125667697Y-69639505D01*
X125834119Y-69584358D01*
X125834124Y-69584356D01*
X125983345Y-69492315D01*
X126107315Y-69368345D01*
X126199356Y-69219124D01*
X126199358Y-69219119D01*
X126254505Y-69052697D01*
X126254506Y-69052690D01*
X126264999Y-68949986D01*
X127385001Y-68949986D01*
X127395494Y-69052697D01*
X127450641Y-69219119D01*
X127450643Y-69219124D01*
X127542684Y-69368345D01*
X127666654Y-69492315D01*
X127815875Y-69584356D01*
X127815880Y-69584358D01*
X127982302Y-69639505D01*
X127982309Y-69639506D01*
X128085019Y-69649999D01*
X129309999Y-69649999D01*
X129810000Y-69649999D01*
X131034972Y-69649999D01*
X131034986Y-69649998D01*
X131137697Y-69639505D01*
X131304119Y-69584358D01*
X131304124Y-69584356D01*
X131453345Y-69492315D01*
X131577315Y-69368345D01*
X131669356Y-69219124D01*
X131669358Y-69219119D01*
X131724505Y-69052697D01*
X131724506Y-69052690D01*
X131734999Y-68949986D01*
X132855001Y-68949986D01*
X132865494Y-69052697D01*
X132920641Y-69219119D01*
X132920643Y-69219124D01*
X133012684Y-69368345D01*
X133136654Y-69492315D01*
X133285875Y-69584356D01*
X133285880Y-69584358D01*
X133452302Y-69639505D01*
X133452309Y-69639506D01*
X133555019Y-69649999D01*
X134779999Y-69649999D01*
X135280000Y-69649999D01*
X136504972Y-69649999D01*
X136504986Y-69649998D01*
X136607697Y-69639505D01*
X136774119Y-69584358D01*
X136774124Y-69584356D01*
X136923345Y-69492315D01*
X137047315Y-69368345D01*
X137139356Y-69219124D01*
X137139358Y-69219119D01*
X137194505Y-69052697D01*
X137194506Y-69052690D01*
X137204999Y-68949986D01*
X138325001Y-68949986D01*
X138335494Y-69052697D01*
X138390641Y-69219119D01*
X138390643Y-69219124D01*
X138482684Y-69368345D01*
X138606654Y-69492315D01*
X138755875Y-69584356D01*
X138755880Y-69584358D01*
X138922302Y-69639505D01*
X138922309Y-69639506D01*
X139025019Y-69649999D01*
X140249999Y-69649999D01*
X140750000Y-69649999D01*
X141974972Y-69649999D01*
X141974986Y-69649998D01*
X142077697Y-69639505D01*
X142244119Y-69584358D01*
X142244124Y-69584356D01*
X142393345Y-69492315D01*
X142517315Y-69368345D01*
X142609356Y-69219124D01*
X142609358Y-69219119D01*
X142664505Y-69052697D01*
X142664506Y-69052690D01*
X142674999Y-68949986D01*
X142675000Y-68949973D01*
X142675000Y-68787500D01*
X140750000Y-68787500D01*
X140750000Y-69649999D01*
X140249999Y-69649999D01*
X140250000Y-69649998D01*
X140250000Y-68787500D01*
X138325001Y-68787500D01*
X138325001Y-68949986D01*
X137204999Y-68949986D01*
X137205000Y-68949973D01*
X137205000Y-68787500D01*
X135280000Y-68787500D01*
X135280000Y-69649999D01*
X134779999Y-69649999D01*
X134780000Y-69649998D01*
X134780000Y-68787500D01*
X132855001Y-68787500D01*
X132855001Y-68949986D01*
X131734999Y-68949986D01*
X131735000Y-68949973D01*
X131735000Y-68787500D01*
X129810000Y-68787500D01*
X129810000Y-69649999D01*
X129309999Y-69649999D01*
X129310000Y-69649998D01*
X129310000Y-68787500D01*
X127385001Y-68787500D01*
X127385001Y-68949986D01*
X126264999Y-68949986D01*
X126265000Y-68949973D01*
X126265000Y-68787500D01*
X124340000Y-68787500D01*
X124340000Y-69649999D01*
X123839999Y-69649999D01*
X123840000Y-69649998D01*
X123840000Y-68787500D01*
X121915001Y-68787500D01*
X121915001Y-68949986D01*
X120794999Y-68949986D01*
X120795000Y-68949973D01*
X120795000Y-68787500D01*
X118870000Y-68787500D01*
X118870000Y-69649999D01*
X118369999Y-69649999D01*
X118370000Y-69649998D01*
X118370000Y-68787500D01*
X116445001Y-68787500D01*
X116445001Y-68949986D01*
X108650364Y-68949986D01*
X108444800Y-68864838D01*
X108444790Y-68864835D01*
X108411492Y-68855913D01*
X108159897Y-68788499D01*
X108159884Y-68788496D01*
X107867483Y-68750001D01*
X107867466Y-68750000D01*
X106220000Y-68750000D01*
X106220000Y-70025038D01*
X106068984Y-69995000D01*
X105871016Y-69995000D01*
X105720000Y-70025038D01*
X105720000Y-68750000D01*
X104072534Y-68750000D01*
X104072516Y-68750001D01*
X103780115Y-68788496D01*
X103780102Y-68788499D01*
X103495209Y-68864835D01*
X103495199Y-68864838D01*
X103222718Y-68977704D01*
X103222707Y-68977709D01*
X102967292Y-69125174D01*
X102967276Y-69125185D01*
X102733290Y-69304729D01*
X102733283Y-69304735D01*
X102524735Y-69513283D01*
X102524729Y-69513290D01*
X102345185Y-69747276D01*
X102345174Y-69747292D01*
X102197709Y-70002707D01*
X102197704Y-70002718D01*
X102084838Y-70275199D01*
X102084835Y-70275209D01*
X102008499Y-70560102D01*
X102008496Y-70560115D01*
X101983497Y-70750000D01*
X99000500Y-70750000D01*
X99000500Y-68125013D01*
X116445000Y-68125013D01*
X116445000Y-68287500D01*
X118370000Y-68287500D01*
X118870000Y-68287500D01*
X120794999Y-68287500D01*
X120794999Y-68125029D01*
X120794998Y-68125013D01*
X121915000Y-68125013D01*
X121915000Y-68287500D01*
X123840000Y-68287500D01*
X124340000Y-68287500D01*
X126264999Y-68287500D01*
X126264999Y-68125029D01*
X126264998Y-68125013D01*
X127385000Y-68125013D01*
X127385000Y-68287500D01*
X129310000Y-68287500D01*
X129810000Y-68287500D01*
X131734999Y-68287500D01*
X131734999Y-68125029D01*
X131734998Y-68125013D01*
X132855000Y-68125013D01*
X132855000Y-68287500D01*
X134780000Y-68287500D01*
X135280000Y-68287500D01*
X137204999Y-68287500D01*
X137204999Y-68125029D01*
X137204998Y-68125013D01*
X138325000Y-68125013D01*
X138325000Y-68287500D01*
X140250000Y-68287500D01*
X140750000Y-68287500D01*
X142674999Y-68287500D01*
X142674999Y-68250000D01*
X145907769Y-68250000D01*
X146801988Y-68250000D01*
X146769075Y-68307007D01*
X146735000Y-68434174D01*
X146735000Y-68565826D01*
X146769075Y-68692993D01*
X146801988Y-68750000D01*
X145907769Y-68750000D01*
X145918242Y-68816126D01*
X145918242Y-68816129D01*
X145983904Y-69018217D01*
X146080379Y-69207557D01*
X146205272Y-69379459D01*
X146205276Y-69379464D01*
X146355535Y-69529723D01*
X146355540Y-69529727D01*
X146527442Y-69654620D01*
X146716782Y-69751095D01*
X146918871Y-69816757D01*
X146985000Y-69827231D01*
X146985000Y-68933012D01*
X147042007Y-68965925D01*
X147169174Y-69000000D01*
X147300826Y-69000000D01*
X147427993Y-68965925D01*
X147485000Y-68933012D01*
X147485000Y-69827230D01*
X147551126Y-69816757D01*
X147551129Y-69816757D01*
X147753217Y-69751095D01*
X147942557Y-69654620D01*
X148114458Y-69529728D01*
X148228133Y-69416053D01*
X148289456Y-69382568D01*
X148359148Y-69387552D01*
X148415082Y-69429423D01*
X148431997Y-69460401D01*
X148481202Y-69592328D01*
X148481206Y-69592335D01*
X148567452Y-69707544D01*
X148567455Y-69707547D01*
X148682664Y-69793793D01*
X148682671Y-69793797D01*
X148817517Y-69844091D01*
X148817516Y-69844091D01*
X148824444Y-69844835D01*
X148877127Y-69850500D01*
X150672872Y-69850499D01*
X150732483Y-69844091D01*
X150867331Y-69793796D01*
X150982546Y-69707546D01*
X151068796Y-69592331D01*
X151119091Y-69457483D01*
X151125500Y-69397873D01*
X151125499Y-67602128D01*
X151119091Y-67542517D01*
X151118002Y-67539598D01*
X151068797Y-67407671D01*
X151068793Y-67407664D01*
X150982547Y-67292455D01*
X150982544Y-67292452D01*
X150867335Y-67206206D01*
X150867328Y-67206202D01*
X150732482Y-67155908D01*
X150732483Y-67155908D01*
X150672883Y-67149501D01*
X150672881Y-67149500D01*
X150672873Y-67149500D01*
X150672864Y-67149500D01*
X148877129Y-67149500D01*
X148877123Y-67149501D01*
X148817516Y-67155908D01*
X148682671Y-67206202D01*
X148682664Y-67206206D01*
X148567455Y-67292452D01*
X148567452Y-67292455D01*
X148481206Y-67407664D01*
X148481202Y-67407671D01*
X148431997Y-67539598D01*
X148390126Y-67595532D01*
X148324661Y-67619949D01*
X148256388Y-67605097D01*
X148228134Y-67583946D01*
X148114464Y-67470276D01*
X148114459Y-67470272D01*
X147942557Y-67345379D01*
X147753215Y-67248903D01*
X147551124Y-67183241D01*
X147485000Y-67172768D01*
X147485000Y-68066988D01*
X147427993Y-68034075D01*
X147300826Y-68000000D01*
X147169174Y-68000000D01*
X147042007Y-68034075D01*
X146985000Y-68066988D01*
X146985000Y-67172768D01*
X146984999Y-67172768D01*
X146918875Y-67183241D01*
X146716784Y-67248903D01*
X146527442Y-67345379D01*
X146355540Y-67470272D01*
X146355535Y-67470276D01*
X146205276Y-67620535D01*
X146205272Y-67620540D01*
X146080379Y-67792442D01*
X145983904Y-67981782D01*
X145918242Y-68183870D01*
X145918242Y-68183873D01*
X145907769Y-68250000D01*
X142674999Y-68250000D01*
X142674999Y-68125028D01*
X142674998Y-68125013D01*
X142664505Y-68022302D01*
X142609358Y-67855880D01*
X142609356Y-67855875D01*
X142517315Y-67706654D01*
X142393345Y-67582684D01*
X142244124Y-67490643D01*
X142244119Y-67490641D01*
X142077697Y-67435494D01*
X142077690Y-67435493D01*
X141974986Y-67425000D01*
X140750000Y-67425000D01*
X140750000Y-68287500D01*
X140250000Y-68287500D01*
X140250000Y-67425000D01*
X139025028Y-67425000D01*
X139025012Y-67425001D01*
X138922302Y-67435494D01*
X138755880Y-67490641D01*
X138755875Y-67490643D01*
X138606654Y-67582684D01*
X138482684Y-67706654D01*
X138390643Y-67855875D01*
X138390641Y-67855880D01*
X138335494Y-68022302D01*
X138335493Y-68022309D01*
X138325000Y-68125013D01*
X137204998Y-68125013D01*
X137204998Y-68125012D01*
X137194505Y-68022302D01*
X137139358Y-67855880D01*
X137139356Y-67855875D01*
X137047315Y-67706654D01*
X136923345Y-67582684D01*
X136774124Y-67490643D01*
X136774119Y-67490641D01*
X136607697Y-67435494D01*
X136607690Y-67435493D01*
X136504986Y-67425000D01*
X135280000Y-67425000D01*
X135280000Y-68287500D01*
X134780000Y-68287500D01*
X134780000Y-67425000D01*
X133555028Y-67425000D01*
X133555012Y-67425001D01*
X133452302Y-67435494D01*
X133285880Y-67490641D01*
X133285875Y-67490643D01*
X133136654Y-67582684D01*
X133012684Y-67706654D01*
X132920643Y-67855875D01*
X132920641Y-67855880D01*
X132865494Y-68022302D01*
X132865493Y-68022309D01*
X132855000Y-68125013D01*
X131734998Y-68125013D01*
X131734998Y-68125012D01*
X131724505Y-68022302D01*
X131669358Y-67855880D01*
X131669356Y-67855875D01*
X131577315Y-67706654D01*
X131453345Y-67582684D01*
X131304124Y-67490643D01*
X131304119Y-67490641D01*
X131137697Y-67435494D01*
X131137690Y-67435493D01*
X131034986Y-67425000D01*
X129810000Y-67425000D01*
X129810000Y-68287500D01*
X129310000Y-68287500D01*
X129310000Y-67425000D01*
X128085028Y-67425000D01*
X128085012Y-67425001D01*
X127982302Y-67435494D01*
X127815880Y-67490641D01*
X127815875Y-67490643D01*
X127666654Y-67582684D01*
X127542684Y-67706654D01*
X127450643Y-67855875D01*
X127450641Y-67855880D01*
X127395494Y-68022302D01*
X127395493Y-68022309D01*
X127385000Y-68125013D01*
X126264998Y-68125013D01*
X126264998Y-68125012D01*
X126254505Y-68022302D01*
X126199358Y-67855880D01*
X126199356Y-67855875D01*
X126107315Y-67706654D01*
X125983345Y-67582684D01*
X125834124Y-67490643D01*
X125834119Y-67490641D01*
X125667697Y-67435494D01*
X125667690Y-67435493D01*
X125564986Y-67425000D01*
X124340000Y-67425000D01*
X124340000Y-68287500D01*
X123840000Y-68287500D01*
X123840000Y-67425000D01*
X122615028Y-67425000D01*
X122615012Y-67425001D01*
X122512302Y-67435494D01*
X122345880Y-67490641D01*
X122345875Y-67490643D01*
X122196654Y-67582684D01*
X122072684Y-67706654D01*
X121980643Y-67855875D01*
X121980641Y-67855880D01*
X121925494Y-68022302D01*
X121925493Y-68022309D01*
X121915000Y-68125013D01*
X120794998Y-68125013D01*
X120794998Y-68125012D01*
X120784505Y-68022302D01*
X120729358Y-67855880D01*
X120729356Y-67855875D01*
X120637315Y-67706654D01*
X120513345Y-67582684D01*
X120364124Y-67490643D01*
X120364119Y-67490641D01*
X120197697Y-67435494D01*
X120197690Y-67435493D01*
X120094986Y-67425000D01*
X118870000Y-67425000D01*
X118870000Y-68287500D01*
X118370000Y-68287500D01*
X118370000Y-67425000D01*
X117145028Y-67425000D01*
X117145012Y-67425001D01*
X117042302Y-67435494D01*
X116875880Y-67490641D01*
X116875875Y-67490643D01*
X116726654Y-67582684D01*
X116602684Y-67706654D01*
X116510643Y-67855875D01*
X116510641Y-67855880D01*
X116455494Y-68022302D01*
X116455493Y-68022309D01*
X116445000Y-68125013D01*
X99000500Y-68125013D01*
X99000500Y-62878711D01*
X101649500Y-62878711D01*
X101649500Y-63121288D01*
X101681161Y-63361785D01*
X101743947Y-63596104D01*
X101836773Y-63820205D01*
X101836776Y-63820212D01*
X101958064Y-64030289D01*
X101958066Y-64030292D01*
X101958067Y-64030293D01*
X102105733Y-64222736D01*
X102105739Y-64222743D01*
X102277256Y-64394260D01*
X102277262Y-64394265D01*
X102469711Y-64541936D01*
X102679788Y-64663224D01*
X102903900Y-64756054D01*
X103138211Y-64818838D01*
X103318586Y-64842584D01*
X103378711Y-64850500D01*
X103378712Y-64850500D01*
X103621289Y-64850500D01*
X103669388Y-64844167D01*
X103861789Y-64818838D01*
X104096100Y-64756054D01*
X104320212Y-64663224D01*
X104530289Y-64541936D01*
X104722738Y-64394265D01*
X104894265Y-64222738D01*
X105041936Y-64030289D01*
X105163224Y-63820212D01*
X105256054Y-63596100D01*
X105318838Y-63361789D01*
X105350500Y-63121288D01*
X105350500Y-62878712D01*
X105350500Y-62878711D01*
X162649500Y-62878711D01*
X162649500Y-63121288D01*
X162681161Y-63361785D01*
X162743947Y-63596104D01*
X162836773Y-63820205D01*
X162836776Y-63820212D01*
X162958064Y-64030289D01*
X162958066Y-64030292D01*
X162958067Y-64030293D01*
X163105733Y-64222736D01*
X163105739Y-64222743D01*
X163277256Y-64394260D01*
X163277262Y-64394265D01*
X163469711Y-64541936D01*
X163679788Y-64663224D01*
X163903900Y-64756054D01*
X164138211Y-64818838D01*
X164318586Y-64842584D01*
X164378711Y-64850500D01*
X164378712Y-64850500D01*
X164621289Y-64850500D01*
X164669388Y-64844167D01*
X164861789Y-64818838D01*
X165096100Y-64756054D01*
X165320212Y-64663224D01*
X165530289Y-64541936D01*
X165722738Y-64394265D01*
X165894265Y-64222738D01*
X166041936Y-64030289D01*
X166163224Y-63820212D01*
X166256054Y-63596100D01*
X166318838Y-63361789D01*
X166350500Y-63121288D01*
X166350500Y-62878712D01*
X166318838Y-62638211D01*
X166256054Y-62403900D01*
X166163224Y-62179788D01*
X166041936Y-61969711D01*
X165894265Y-61777262D01*
X165894260Y-61777256D01*
X165722743Y-61605739D01*
X165722736Y-61605733D01*
X165530293Y-61458067D01*
X165530292Y-61458066D01*
X165530289Y-61458064D01*
X165320212Y-61336776D01*
X165320205Y-61336773D01*
X165096104Y-61243947D01*
X164861785Y-61181161D01*
X164621289Y-61149500D01*
X164621288Y-61149500D01*
X164378712Y-61149500D01*
X164378711Y-61149500D01*
X164138214Y-61181161D01*
X163903895Y-61243947D01*
X163679794Y-61336773D01*
X163679785Y-61336777D01*
X163469706Y-61458067D01*
X163277263Y-61605733D01*
X163277256Y-61605739D01*
X163105739Y-61777256D01*
X163105733Y-61777263D01*
X162958067Y-61969706D01*
X162836777Y-62179785D01*
X162836773Y-62179794D01*
X162743947Y-62403895D01*
X162681161Y-62638214D01*
X162649500Y-62878711D01*
X105350500Y-62878711D01*
X105318838Y-62638211D01*
X105256054Y-62403900D01*
X105163224Y-62179788D01*
X105041936Y-61969711D01*
X104894265Y-61777262D01*
X104894260Y-61777256D01*
X104722743Y-61605739D01*
X104722736Y-61605733D01*
X104530293Y-61458067D01*
X104530292Y-61458066D01*
X104530289Y-61458064D01*
X104320212Y-61336776D01*
X104320205Y-61336773D01*
X104096104Y-61243947D01*
X103861785Y-61181161D01*
X103621289Y-61149500D01*
X103621288Y-61149500D01*
X103378712Y-61149500D01*
X103378711Y-61149500D01*
X103138214Y-61181161D01*
X102903895Y-61243947D01*
X102679794Y-61336773D01*
X102679785Y-61336777D01*
X102469706Y-61458067D01*
X102277263Y-61605733D01*
X102277256Y-61605739D01*
X102105739Y-61777256D01*
X102105733Y-61777263D01*
X101958067Y-61969706D01*
X101836777Y-62179785D01*
X101836773Y-62179794D01*
X101743947Y-62403895D01*
X101681161Y-62638214D01*
X101649500Y-62878711D01*
X99000500Y-62878711D01*
X99000500Y-58124500D01*
X99020185Y-58057461D01*
X99072989Y-58011706D01*
X99124500Y-58000500D01*
X168874259Y-58000500D01*
X168941298Y-58020185D01*
G37*
%TD.AperFunction*%
%TD*%
%TA.AperFunction,Conductor*%
%TO.N,RF_In*%
G36*
X116388039Y-74019685D02*
G01*
X116433794Y-74072489D01*
X116445000Y-74124000D01*
X116445000Y-74212500D01*
X120794999Y-74212500D01*
X120794999Y-74124000D01*
X120814684Y-74056961D01*
X120867488Y-74011206D01*
X120918999Y-74000000D01*
X121791000Y-74000000D01*
X121858039Y-74019685D01*
X121903794Y-74072489D01*
X121915000Y-74124000D01*
X121915000Y-74212500D01*
X126264999Y-74212500D01*
X126264999Y-74124000D01*
X126284684Y-74056961D01*
X126337488Y-74011206D01*
X126388999Y-74000000D01*
X127261000Y-74000000D01*
X127328039Y-74019685D01*
X127373794Y-74072489D01*
X127385000Y-74124000D01*
X127385000Y-74212500D01*
X131734999Y-74212500D01*
X131734999Y-74124000D01*
X131754684Y-74056961D01*
X131807488Y-74011206D01*
X131858999Y-74000000D01*
X132731000Y-74000000D01*
X132798039Y-74019685D01*
X132843794Y-74072489D01*
X132855000Y-74124000D01*
X132855000Y-74212500D01*
X137204999Y-74212500D01*
X137204999Y-74124000D01*
X137224684Y-74056961D01*
X137277488Y-74011206D01*
X137328999Y-74000000D01*
X138201000Y-74000000D01*
X138268039Y-74019685D01*
X138313794Y-74072489D01*
X138325000Y-74124000D01*
X138325000Y-74212500D01*
X142674999Y-74212500D01*
X142674999Y-74124000D01*
X142694684Y-74056961D01*
X142747488Y-74011206D01*
X142798999Y-74000000D01*
X146376000Y-74000000D01*
X146443039Y-74019685D01*
X146488794Y-74072489D01*
X146500000Y-74124000D01*
X146500000Y-77876000D01*
X146480315Y-77943039D01*
X146427511Y-77988794D01*
X146376000Y-78000000D01*
X142799000Y-78000000D01*
X142731961Y-77980315D01*
X142686206Y-77927511D01*
X142675000Y-77876000D01*
X142675000Y-77825000D01*
X138325001Y-77825000D01*
X138325001Y-77876000D01*
X138305316Y-77943039D01*
X138252512Y-77988794D01*
X138201001Y-78000000D01*
X137299000Y-78000000D01*
X137231961Y-77980315D01*
X137186206Y-77927511D01*
X137175000Y-77876000D01*
X137175000Y-77825000D01*
X132825001Y-77825000D01*
X132825001Y-77876000D01*
X132805316Y-77943039D01*
X132752512Y-77988794D01*
X132701001Y-78000000D01*
X131799000Y-78000000D01*
X131731961Y-77980315D01*
X131686206Y-77927511D01*
X131675000Y-77876000D01*
X131675000Y-77787500D01*
X127325001Y-77787500D01*
X127325001Y-77876000D01*
X127305316Y-77943039D01*
X127252512Y-77988794D01*
X127201001Y-78000000D01*
X126299000Y-78000000D01*
X126231961Y-77980315D01*
X126186206Y-77927511D01*
X126175000Y-77876000D01*
X126175000Y-77787500D01*
X121825001Y-77787500D01*
X121825001Y-77876000D01*
X121805316Y-77943039D01*
X121752512Y-77988794D01*
X121701001Y-78000000D01*
X120799000Y-78000000D01*
X120731961Y-77980315D01*
X120686206Y-77927511D01*
X120675000Y-77876000D01*
X120675000Y-77787500D01*
X116325001Y-77787500D01*
X116325001Y-77876000D01*
X116322450Y-77884685D01*
X116323739Y-77893647D01*
X116312760Y-77917687D01*
X116305316Y-77943039D01*
X116298475Y-77948966D01*
X116294714Y-77957203D01*
X116272479Y-77971492D01*
X116252512Y-77988794D01*
X116241997Y-77991081D01*
X116235936Y-77994977D01*
X116201001Y-78000000D01*
X116017367Y-78000000D01*
X115983302Y-77995229D01*
X113343826Y-77241093D01*
X112937548Y-77125013D01*
X116325000Y-77125013D01*
X116325000Y-77287500D01*
X118250000Y-77287500D01*
X118750000Y-77287500D01*
X120674999Y-77287500D01*
X120674999Y-77125029D01*
X120674998Y-77125013D01*
X121825000Y-77125013D01*
X121825000Y-77287500D01*
X123750000Y-77287500D01*
X124250000Y-77287500D01*
X126174999Y-77287500D01*
X126174999Y-77125029D01*
X126174998Y-77125013D01*
X127325000Y-77125013D01*
X127325000Y-77287500D01*
X129250000Y-77287500D01*
X129750000Y-77287500D01*
X131674999Y-77287500D01*
X131674999Y-77162513D01*
X132825000Y-77162513D01*
X132825000Y-77325000D01*
X134750000Y-77325000D01*
X135250000Y-77325000D01*
X137174999Y-77325000D01*
X137174999Y-77162529D01*
X137174998Y-77162513D01*
X138325000Y-77162513D01*
X138325000Y-77325000D01*
X140250000Y-77325000D01*
X140750000Y-77325000D01*
X142674999Y-77325000D01*
X142674999Y-77162528D01*
X142674998Y-77162513D01*
X142664505Y-77059802D01*
X142609358Y-76893380D01*
X142609356Y-76893375D01*
X142517315Y-76744154D01*
X142393345Y-76620184D01*
X142244124Y-76528143D01*
X142244119Y-76528141D01*
X142077697Y-76472994D01*
X142077690Y-76472993D01*
X141974986Y-76462500D01*
X140750000Y-76462500D01*
X140750000Y-77325000D01*
X140250000Y-77325000D01*
X140250000Y-76462500D01*
X139025028Y-76462500D01*
X139025012Y-76462501D01*
X138922302Y-76472994D01*
X138755880Y-76528141D01*
X138755875Y-76528143D01*
X138606654Y-76620184D01*
X138482684Y-76744154D01*
X138390643Y-76893375D01*
X138390641Y-76893380D01*
X138335494Y-77059802D01*
X138335493Y-77059809D01*
X138325000Y-77162513D01*
X137174998Y-77162513D01*
X137174998Y-77162512D01*
X137164505Y-77059802D01*
X137109358Y-76893380D01*
X137109356Y-76893375D01*
X137017315Y-76744154D01*
X136893345Y-76620184D01*
X136744124Y-76528143D01*
X136744119Y-76528141D01*
X136577697Y-76472994D01*
X136577690Y-76472993D01*
X136474986Y-76462500D01*
X135250000Y-76462500D01*
X135250000Y-77325000D01*
X134750000Y-77325000D01*
X134750000Y-76462500D01*
X133525028Y-76462500D01*
X133525012Y-76462501D01*
X133422302Y-76472994D01*
X133255880Y-76528141D01*
X133255875Y-76528143D01*
X133106654Y-76620184D01*
X132982684Y-76744154D01*
X132890643Y-76893375D01*
X132890641Y-76893380D01*
X132835494Y-77059802D01*
X132835493Y-77059809D01*
X132825000Y-77162513D01*
X131674999Y-77162513D01*
X131674999Y-77125028D01*
X131674998Y-77125013D01*
X131664505Y-77022302D01*
X131609358Y-76855880D01*
X131609356Y-76855875D01*
X131517315Y-76706654D01*
X131393345Y-76582684D01*
X131244124Y-76490643D01*
X131244119Y-76490641D01*
X131077697Y-76435494D01*
X131077690Y-76435493D01*
X130974986Y-76425000D01*
X129750000Y-76425000D01*
X129750000Y-77287500D01*
X129250000Y-77287500D01*
X129250000Y-76425000D01*
X128025028Y-76425000D01*
X128025012Y-76425001D01*
X127922302Y-76435494D01*
X127755880Y-76490641D01*
X127755875Y-76490643D01*
X127606654Y-76582684D01*
X127482684Y-76706654D01*
X127390643Y-76855875D01*
X127390641Y-76855880D01*
X127335494Y-77022302D01*
X127335493Y-77022309D01*
X127325000Y-77125013D01*
X126174998Y-77125013D01*
X126174998Y-77125012D01*
X126164505Y-77022302D01*
X126109358Y-76855880D01*
X126109356Y-76855875D01*
X126017315Y-76706654D01*
X125893345Y-76582684D01*
X125744124Y-76490643D01*
X125744119Y-76490641D01*
X125577697Y-76435494D01*
X125577690Y-76435493D01*
X125474986Y-76425000D01*
X124250000Y-76425000D01*
X124250000Y-77287500D01*
X123750000Y-77287500D01*
X123750000Y-76425000D01*
X122525028Y-76425000D01*
X122525012Y-76425001D01*
X122422302Y-76435494D01*
X122255880Y-76490641D01*
X122255875Y-76490643D01*
X122106654Y-76582684D01*
X121982684Y-76706654D01*
X121890643Y-76855875D01*
X121890641Y-76855880D01*
X121835494Y-77022302D01*
X121835493Y-77022309D01*
X121825000Y-77125013D01*
X120674998Y-77125013D01*
X120674998Y-77125012D01*
X120664505Y-77022302D01*
X120609358Y-76855880D01*
X120609356Y-76855875D01*
X120517315Y-76706654D01*
X120393345Y-76582684D01*
X120244124Y-76490643D01*
X120244119Y-76490641D01*
X120077697Y-76435494D01*
X120077690Y-76435493D01*
X119974986Y-76425000D01*
X118750000Y-76425000D01*
X118750000Y-77287500D01*
X118250000Y-77287500D01*
X118250000Y-76425000D01*
X117025028Y-76425000D01*
X117025012Y-76425001D01*
X116922302Y-76435494D01*
X116755880Y-76490641D01*
X116755875Y-76490643D01*
X116606654Y-76582684D01*
X116482684Y-76706654D01*
X116390643Y-76855875D01*
X116390641Y-76855880D01*
X116335494Y-77022302D01*
X116335493Y-77022309D01*
X116325000Y-77125013D01*
X112937548Y-77125013D01*
X112500004Y-77000000D01*
X112500000Y-77000000D01*
X109624000Y-77000000D01*
X109556961Y-76980315D01*
X109511206Y-76927511D01*
X109500000Y-76876000D01*
X109500000Y-75106381D01*
X109519685Y-75039342D01*
X109572489Y-74993587D01*
X109605139Y-74983824D01*
X110312587Y-74874986D01*
X116445001Y-74874986D01*
X116455494Y-74977697D01*
X116510641Y-75144119D01*
X116510643Y-75144124D01*
X116602684Y-75293345D01*
X116726654Y-75417315D01*
X116875875Y-75509356D01*
X116875880Y-75509358D01*
X117042302Y-75564505D01*
X117042309Y-75564506D01*
X117145019Y-75574999D01*
X118369999Y-75574999D01*
X118870000Y-75574999D01*
X120094972Y-75574999D01*
X120094986Y-75574998D01*
X120197697Y-75564505D01*
X120364119Y-75509358D01*
X120364124Y-75509356D01*
X120513345Y-75417315D01*
X120637315Y-75293345D01*
X120729356Y-75144124D01*
X120729358Y-75144119D01*
X120784505Y-74977697D01*
X120784506Y-74977690D01*
X120794999Y-74874986D01*
X121915001Y-74874986D01*
X121925494Y-74977697D01*
X121980641Y-75144119D01*
X121980643Y-75144124D01*
X122072684Y-75293345D01*
X122196654Y-75417315D01*
X122345875Y-75509356D01*
X122345880Y-75509358D01*
X122512302Y-75564505D01*
X122512309Y-75564506D01*
X122615019Y-75574999D01*
X123839999Y-75574999D01*
X124340000Y-75574999D01*
X125564972Y-75574999D01*
X125564986Y-75574998D01*
X125667697Y-75564505D01*
X125834119Y-75509358D01*
X125834124Y-75509356D01*
X125983345Y-75417315D01*
X126107315Y-75293345D01*
X126199356Y-75144124D01*
X126199358Y-75144119D01*
X126254505Y-74977697D01*
X126254506Y-74977690D01*
X126264999Y-74874986D01*
X127385001Y-74874986D01*
X127395494Y-74977697D01*
X127450641Y-75144119D01*
X127450643Y-75144124D01*
X127542684Y-75293345D01*
X127666654Y-75417315D01*
X127815875Y-75509356D01*
X127815880Y-75509358D01*
X127982302Y-75564505D01*
X127982309Y-75564506D01*
X128085019Y-75574999D01*
X129309999Y-75574999D01*
X129810000Y-75574999D01*
X131034972Y-75574999D01*
X131034986Y-75574998D01*
X131137697Y-75564505D01*
X131304119Y-75509358D01*
X131304124Y-75509356D01*
X131453345Y-75417315D01*
X131577315Y-75293345D01*
X131669356Y-75144124D01*
X131669358Y-75144119D01*
X131724505Y-74977697D01*
X131724506Y-74977690D01*
X131734999Y-74874986D01*
X132855001Y-74874986D01*
X132865494Y-74977697D01*
X132920641Y-75144119D01*
X132920643Y-75144124D01*
X133012684Y-75293345D01*
X133136654Y-75417315D01*
X133285875Y-75509356D01*
X133285880Y-75509358D01*
X133452302Y-75564505D01*
X133452309Y-75564506D01*
X133555019Y-75574999D01*
X134779999Y-75574999D01*
X135280000Y-75574999D01*
X136504972Y-75574999D01*
X136504986Y-75574998D01*
X136607697Y-75564505D01*
X136774119Y-75509358D01*
X136774124Y-75509356D01*
X136923345Y-75417315D01*
X137047315Y-75293345D01*
X137139356Y-75144124D01*
X137139358Y-75144119D01*
X137194505Y-74977697D01*
X137194506Y-74977690D01*
X137204999Y-74874986D01*
X138325001Y-74874986D01*
X138335494Y-74977697D01*
X138390641Y-75144119D01*
X138390643Y-75144124D01*
X138482684Y-75293345D01*
X138606654Y-75417315D01*
X138755875Y-75509356D01*
X138755880Y-75509358D01*
X138922302Y-75564505D01*
X138922309Y-75564506D01*
X139025019Y-75574999D01*
X140249999Y-75574999D01*
X140750000Y-75574999D01*
X141974972Y-75574999D01*
X141974986Y-75574998D01*
X142077697Y-75564505D01*
X142244119Y-75509358D01*
X142244124Y-75509356D01*
X142393345Y-75417315D01*
X142517315Y-75293345D01*
X142609356Y-75144124D01*
X142609358Y-75144119D01*
X142664505Y-74977697D01*
X142664506Y-74977690D01*
X142674999Y-74874986D01*
X142675000Y-74874973D01*
X142675000Y-74712500D01*
X140750000Y-74712500D01*
X140750000Y-75574999D01*
X140249999Y-75574999D01*
X140250000Y-75574998D01*
X140250000Y-74712500D01*
X138325001Y-74712500D01*
X138325001Y-74874986D01*
X137204999Y-74874986D01*
X137205000Y-74874973D01*
X137205000Y-74712500D01*
X135280000Y-74712500D01*
X135280000Y-75574999D01*
X134779999Y-75574999D01*
X134780000Y-75574998D01*
X134780000Y-74712500D01*
X132855001Y-74712500D01*
X132855001Y-74874986D01*
X131734999Y-74874986D01*
X131735000Y-74874973D01*
X131735000Y-74712500D01*
X129810000Y-74712500D01*
X129810000Y-75574999D01*
X129309999Y-75574999D01*
X129310000Y-75574998D01*
X129310000Y-74712500D01*
X127385001Y-74712500D01*
X127385001Y-74874986D01*
X126264999Y-74874986D01*
X126265000Y-74874973D01*
X126265000Y-74712500D01*
X124340000Y-74712500D01*
X124340000Y-75574999D01*
X123839999Y-75574999D01*
X123840000Y-75574998D01*
X123840000Y-74712500D01*
X121915001Y-74712500D01*
X121915001Y-74874986D01*
X120794999Y-74874986D01*
X120795000Y-74874973D01*
X120795000Y-74712500D01*
X118870000Y-74712500D01*
X118870000Y-75574999D01*
X118369999Y-75574999D01*
X118370000Y-75574998D01*
X118370000Y-74712500D01*
X116445001Y-74712500D01*
X116445001Y-74874986D01*
X110312587Y-74874986D01*
X115990627Y-74001442D01*
X116009482Y-74000000D01*
X116321000Y-74000000D01*
X116388039Y-74019685D01*
G37*
%TD.AperFunction*%
%TD*%
M02*
