%TF.GenerationSoftware,KiCad,Pcbnew,9.0.8*%
%TF.CreationDate,2026-03-26T13:17:19+00:00*%
%TF.ProjectId,DummyLoad,44756d6d-794c-46f6-9164-2e6b69636164,rev?*%
%TF.SameCoordinates,Original*%
%TF.FileFunction,AssemblyDrawing,Bot*%
%FSLAX46Y46*%
G04 Gerber Fmt 4.6, Leading zero omitted, Abs format (unit mm)*
G04 Created by KiCad (PCBNEW 9.0.8) date 2026-03-26 13:17:19*
%MOMM*%
%LPD*%
G01*
G04 APERTURE LIST*
%ADD10C,0.150000*%
%ADD11C,0.120000*%
%ADD12C,0.100000*%
G04 APERTURE END LIST*
D10*
X127334819Y-71341964D02*
X127334819Y-70770536D01*
X127334819Y-71056250D02*
X126334819Y-71056250D01*
X126334819Y-71056250D02*
X126477676Y-70961012D01*
X126477676Y-70961012D02*
X126572914Y-70865774D01*
X126572914Y-70865774D02*
X126620533Y-70770536D01*
X127334819Y-71770536D02*
X126334819Y-71770536D01*
X127334819Y-72341964D02*
X126763390Y-71913393D01*
X126334819Y-72341964D02*
X126906247Y-71770536D01*
X129954819Y-70913392D02*
X129478628Y-70580059D01*
X129954819Y-70341964D02*
X128954819Y-70341964D01*
X128954819Y-70341964D02*
X128954819Y-70722916D01*
X128954819Y-70722916D02*
X129002438Y-70818154D01*
X129002438Y-70818154D02*
X129050057Y-70865773D01*
X129050057Y-70865773D02*
X129145295Y-70913392D01*
X129145295Y-70913392D02*
X129288152Y-70913392D01*
X129288152Y-70913392D02*
X129383390Y-70865773D01*
X129383390Y-70865773D02*
X129431009Y-70818154D01*
X129431009Y-70818154D02*
X129478628Y-70722916D01*
X129478628Y-70722916D02*
X129478628Y-70341964D01*
X129954819Y-71865773D02*
X129954819Y-71294345D01*
X129954819Y-71580059D02*
X128954819Y-71580059D01*
X128954819Y-71580059D02*
X129097676Y-71484821D01*
X129097676Y-71484821D02*
X129192914Y-71389583D01*
X129192914Y-71389583D02*
X129240533Y-71294345D01*
X128954819Y-72199107D02*
X128954819Y-72818154D01*
X128954819Y-72818154D02*
X129335771Y-72484821D01*
X129335771Y-72484821D02*
X129335771Y-72627678D01*
X129335771Y-72627678D02*
X129383390Y-72722916D01*
X129383390Y-72722916D02*
X129431009Y-72770535D01*
X129431009Y-72770535D02*
X129526247Y-72818154D01*
X129526247Y-72818154D02*
X129764342Y-72818154D01*
X129764342Y-72818154D02*
X129859580Y-72770535D01*
X129859580Y-72770535D02*
X129907200Y-72722916D01*
X129907200Y-72722916D02*
X129954819Y-72627678D01*
X129954819Y-72627678D02*
X129954819Y-72341964D01*
X129954819Y-72341964D02*
X129907200Y-72246726D01*
X129907200Y-72246726D02*
X129859580Y-72199107D01*
X127074819Y-80266964D02*
X127074819Y-79695536D01*
X127074819Y-79981250D02*
X126074819Y-79981250D01*
X126074819Y-79981250D02*
X126217676Y-79886012D01*
X126217676Y-79886012D02*
X126312914Y-79790774D01*
X126312914Y-79790774D02*
X126360533Y-79695536D01*
X127074819Y-80695536D02*
X126074819Y-80695536D01*
X127074819Y-81266964D02*
X126503390Y-80838393D01*
X126074819Y-81266964D02*
X126646247Y-80695536D01*
X124454819Y-79838392D02*
X123978628Y-79505059D01*
X124454819Y-79266964D02*
X123454819Y-79266964D01*
X123454819Y-79266964D02*
X123454819Y-79647916D01*
X123454819Y-79647916D02*
X123502438Y-79743154D01*
X123502438Y-79743154D02*
X123550057Y-79790773D01*
X123550057Y-79790773D02*
X123645295Y-79838392D01*
X123645295Y-79838392D02*
X123788152Y-79838392D01*
X123788152Y-79838392D02*
X123883390Y-79790773D01*
X123883390Y-79790773D02*
X123931009Y-79743154D01*
X123931009Y-79743154D02*
X123978628Y-79647916D01*
X123978628Y-79647916D02*
X123978628Y-79266964D01*
X124454819Y-80790773D02*
X124454819Y-80219345D01*
X124454819Y-80505059D02*
X123454819Y-80505059D01*
X123454819Y-80505059D02*
X123597676Y-80409821D01*
X123597676Y-80409821D02*
X123692914Y-80314583D01*
X123692914Y-80314583D02*
X123740533Y-80219345D01*
X124454819Y-81266964D02*
X124454819Y-81457440D01*
X124454819Y-81457440D02*
X124407200Y-81552678D01*
X124407200Y-81552678D02*
X124359580Y-81600297D01*
X124359580Y-81600297D02*
X124216723Y-81695535D01*
X124216723Y-81695535D02*
X124026247Y-81743154D01*
X124026247Y-81743154D02*
X123645295Y-81743154D01*
X123645295Y-81743154D02*
X123550057Y-81695535D01*
X123550057Y-81695535D02*
X123502438Y-81647916D01*
X123502438Y-81647916D02*
X123454819Y-81552678D01*
X123454819Y-81552678D02*
X123454819Y-81362202D01*
X123454819Y-81362202D02*
X123502438Y-81266964D01*
X123502438Y-81266964D02*
X123550057Y-81219345D01*
X123550057Y-81219345D02*
X123645295Y-81171726D01*
X123645295Y-81171726D02*
X123883390Y-81171726D01*
X123883390Y-81171726D02*
X123978628Y-81219345D01*
X123978628Y-81219345D02*
X124026247Y-81266964D01*
X124026247Y-81266964D02*
X124073866Y-81362202D01*
X124073866Y-81362202D02*
X124073866Y-81552678D01*
X124073866Y-81552678D02*
X124026247Y-81647916D01*
X124026247Y-81647916D02*
X123978628Y-81695535D01*
X123978628Y-81695535D02*
X123883390Y-81743154D01*
X121834819Y-71332589D02*
X121834819Y-70761161D01*
X121834819Y-71046875D02*
X120834819Y-71046875D01*
X120834819Y-71046875D02*
X120977676Y-70951637D01*
X120977676Y-70951637D02*
X121072914Y-70856399D01*
X121072914Y-70856399D02*
X121120533Y-70761161D01*
X121834819Y-71761161D02*
X120834819Y-71761161D01*
X121834819Y-72332589D02*
X121263390Y-71904018D01*
X120834819Y-72332589D02*
X121406247Y-71761161D01*
X124454819Y-70904017D02*
X123978628Y-70570684D01*
X124454819Y-70332589D02*
X123454819Y-70332589D01*
X123454819Y-70332589D02*
X123454819Y-70713541D01*
X123454819Y-70713541D02*
X123502438Y-70808779D01*
X123502438Y-70808779D02*
X123550057Y-70856398D01*
X123550057Y-70856398D02*
X123645295Y-70904017D01*
X123645295Y-70904017D02*
X123788152Y-70904017D01*
X123788152Y-70904017D02*
X123883390Y-70856398D01*
X123883390Y-70856398D02*
X123931009Y-70808779D01*
X123931009Y-70808779D02*
X123978628Y-70713541D01*
X123978628Y-70713541D02*
X123978628Y-70332589D01*
X124454819Y-71856398D02*
X124454819Y-71284970D01*
X124454819Y-71570684D02*
X123454819Y-71570684D01*
X123454819Y-71570684D02*
X123597676Y-71475446D01*
X123597676Y-71475446D02*
X123692914Y-71380208D01*
X123692914Y-71380208D02*
X123740533Y-71284970D01*
X123788152Y-72713541D02*
X124454819Y-72713541D01*
X123407200Y-72475446D02*
X124121485Y-72237351D01*
X124121485Y-72237351D02*
X124121485Y-72856398D01*
X138334819Y-71323214D02*
X138334819Y-70751786D01*
X138334819Y-71037500D02*
X137334819Y-71037500D01*
X137334819Y-71037500D02*
X137477676Y-70942262D01*
X137477676Y-70942262D02*
X137572914Y-70847024D01*
X137572914Y-70847024D02*
X137620533Y-70751786D01*
X138334819Y-71751786D02*
X137334819Y-71751786D01*
X138334819Y-72323214D02*
X137763390Y-71894643D01*
X137334819Y-72323214D02*
X137906247Y-71751786D01*
X140954819Y-70894642D02*
X140478628Y-70561309D01*
X140954819Y-70323214D02*
X139954819Y-70323214D01*
X139954819Y-70323214D02*
X139954819Y-70704166D01*
X139954819Y-70704166D02*
X140002438Y-70799404D01*
X140002438Y-70799404D02*
X140050057Y-70847023D01*
X140050057Y-70847023D02*
X140145295Y-70894642D01*
X140145295Y-70894642D02*
X140288152Y-70894642D01*
X140288152Y-70894642D02*
X140383390Y-70847023D01*
X140383390Y-70847023D02*
X140431009Y-70799404D01*
X140431009Y-70799404D02*
X140478628Y-70704166D01*
X140478628Y-70704166D02*
X140478628Y-70323214D01*
X140954819Y-71847023D02*
X140954819Y-71275595D01*
X140954819Y-71561309D02*
X139954819Y-71561309D01*
X139954819Y-71561309D02*
X140097676Y-71466071D01*
X140097676Y-71466071D02*
X140192914Y-71370833D01*
X140192914Y-71370833D02*
X140240533Y-71275595D01*
X140954819Y-72799404D02*
X140954819Y-72227976D01*
X140954819Y-72513690D02*
X139954819Y-72513690D01*
X139954819Y-72513690D02*
X140097676Y-72418452D01*
X140097676Y-72418452D02*
X140192914Y-72323214D01*
X140192914Y-72323214D02*
X140240533Y-72227976D01*
X132834819Y-71351339D02*
X132834819Y-70779911D01*
X132834819Y-71065625D02*
X131834819Y-71065625D01*
X131834819Y-71065625D02*
X131977676Y-70970387D01*
X131977676Y-70970387D02*
X132072914Y-70875149D01*
X132072914Y-70875149D02*
X132120533Y-70779911D01*
X132834819Y-71779911D02*
X131834819Y-71779911D01*
X132834819Y-72351339D02*
X132263390Y-71922768D01*
X131834819Y-72351339D02*
X132406247Y-71779911D01*
X135454819Y-70922767D02*
X134978628Y-70589434D01*
X135454819Y-70351339D02*
X134454819Y-70351339D01*
X134454819Y-70351339D02*
X134454819Y-70732291D01*
X134454819Y-70732291D02*
X134502438Y-70827529D01*
X134502438Y-70827529D02*
X134550057Y-70875148D01*
X134550057Y-70875148D02*
X134645295Y-70922767D01*
X134645295Y-70922767D02*
X134788152Y-70922767D01*
X134788152Y-70922767D02*
X134883390Y-70875148D01*
X134883390Y-70875148D02*
X134931009Y-70827529D01*
X134931009Y-70827529D02*
X134978628Y-70732291D01*
X134978628Y-70732291D02*
X134978628Y-70351339D01*
X135454819Y-71875148D02*
X135454819Y-71303720D01*
X135454819Y-71589434D02*
X134454819Y-71589434D01*
X134454819Y-71589434D02*
X134597676Y-71494196D01*
X134597676Y-71494196D02*
X134692914Y-71398958D01*
X134692914Y-71398958D02*
X134740533Y-71303720D01*
X134550057Y-72256101D02*
X134502438Y-72303720D01*
X134502438Y-72303720D02*
X134454819Y-72398958D01*
X134454819Y-72398958D02*
X134454819Y-72637053D01*
X134454819Y-72637053D02*
X134502438Y-72732291D01*
X134502438Y-72732291D02*
X134550057Y-72779910D01*
X134550057Y-72779910D02*
X134645295Y-72827529D01*
X134645295Y-72827529D02*
X134740533Y-72827529D01*
X134740533Y-72827529D02*
X134883390Y-72779910D01*
X134883390Y-72779910D02*
X135454819Y-72208482D01*
X135454819Y-72208482D02*
X135454819Y-72827529D01*
X121574819Y-80257589D02*
X121574819Y-79686161D01*
X121574819Y-79971875D02*
X120574819Y-79971875D01*
X120574819Y-79971875D02*
X120717676Y-79876637D01*
X120717676Y-79876637D02*
X120812914Y-79781399D01*
X120812914Y-79781399D02*
X120860533Y-79686161D01*
X121574819Y-80686161D02*
X120574819Y-80686161D01*
X121574819Y-81257589D02*
X121003390Y-80829018D01*
X120574819Y-81257589D02*
X121146247Y-80686161D01*
X118954819Y-79829017D02*
X118478628Y-79495684D01*
X118954819Y-79257589D02*
X117954819Y-79257589D01*
X117954819Y-79257589D02*
X117954819Y-79638541D01*
X117954819Y-79638541D02*
X118002438Y-79733779D01*
X118002438Y-79733779D02*
X118050057Y-79781398D01*
X118050057Y-79781398D02*
X118145295Y-79829017D01*
X118145295Y-79829017D02*
X118288152Y-79829017D01*
X118288152Y-79829017D02*
X118383390Y-79781398D01*
X118383390Y-79781398D02*
X118431009Y-79733779D01*
X118431009Y-79733779D02*
X118478628Y-79638541D01*
X118478628Y-79638541D02*
X118478628Y-79257589D01*
X118050057Y-80209970D02*
X118002438Y-80257589D01*
X118002438Y-80257589D02*
X117954819Y-80352827D01*
X117954819Y-80352827D02*
X117954819Y-80590922D01*
X117954819Y-80590922D02*
X118002438Y-80686160D01*
X118002438Y-80686160D02*
X118050057Y-80733779D01*
X118050057Y-80733779D02*
X118145295Y-80781398D01*
X118145295Y-80781398D02*
X118240533Y-80781398D01*
X118240533Y-80781398D02*
X118383390Y-80733779D01*
X118383390Y-80733779D02*
X118954819Y-80162351D01*
X118954819Y-80162351D02*
X118954819Y-80781398D01*
X117954819Y-81400446D02*
X117954819Y-81495684D01*
X117954819Y-81495684D02*
X118002438Y-81590922D01*
X118002438Y-81590922D02*
X118050057Y-81638541D01*
X118050057Y-81638541D02*
X118145295Y-81686160D01*
X118145295Y-81686160D02*
X118335771Y-81733779D01*
X118335771Y-81733779D02*
X118573866Y-81733779D01*
X118573866Y-81733779D02*
X118764342Y-81686160D01*
X118764342Y-81686160D02*
X118859580Y-81638541D01*
X118859580Y-81638541D02*
X118907200Y-81590922D01*
X118907200Y-81590922D02*
X118954819Y-81495684D01*
X118954819Y-81495684D02*
X118954819Y-81400446D01*
X118954819Y-81400446D02*
X118907200Y-81305208D01*
X118907200Y-81305208D02*
X118859580Y-81257589D01*
X118859580Y-81257589D02*
X118764342Y-81209970D01*
X118764342Y-81209970D02*
X118573866Y-81162351D01*
X118573866Y-81162351D02*
X118335771Y-81162351D01*
X118335771Y-81162351D02*
X118145295Y-81209970D01*
X118145295Y-81209970D02*
X118050057Y-81257589D01*
X118050057Y-81257589D02*
X118002438Y-81305208D01*
X118002438Y-81305208D02*
X117954819Y-81400446D01*
X150642857Y-79054819D02*
X151214285Y-79054819D01*
X150928571Y-79054819D02*
X150928571Y-78054819D01*
X150928571Y-78054819D02*
X151023809Y-78197676D01*
X151023809Y-78197676D02*
X151119047Y-78292914D01*
X151119047Y-78292914D02*
X151214285Y-78340533D01*
X150214285Y-79054819D02*
X150214285Y-78054819D01*
X150214285Y-78054819D02*
X149642857Y-79054819D01*
X149642857Y-79054819D02*
X149642857Y-78054819D01*
X148738095Y-78388152D02*
X148738095Y-79054819D01*
X148976190Y-78007200D02*
X149214285Y-78721485D01*
X149214285Y-78721485D02*
X148595238Y-78721485D01*
X148023809Y-78054819D02*
X147928571Y-78054819D01*
X147928571Y-78054819D02*
X147833333Y-78102438D01*
X147833333Y-78102438D02*
X147785714Y-78150057D01*
X147785714Y-78150057D02*
X147738095Y-78245295D01*
X147738095Y-78245295D02*
X147690476Y-78435771D01*
X147690476Y-78435771D02*
X147690476Y-78673866D01*
X147690476Y-78673866D02*
X147738095Y-78864342D01*
X147738095Y-78864342D02*
X147785714Y-78959580D01*
X147785714Y-78959580D02*
X147833333Y-79007200D01*
X147833333Y-79007200D02*
X147928571Y-79054819D01*
X147928571Y-79054819D02*
X148023809Y-79054819D01*
X148023809Y-79054819D02*
X148119047Y-79007200D01*
X148119047Y-79007200D02*
X148166666Y-78959580D01*
X148166666Y-78959580D02*
X148214285Y-78864342D01*
X148214285Y-78864342D02*
X148261904Y-78673866D01*
X148261904Y-78673866D02*
X148261904Y-78435771D01*
X148261904Y-78435771D02*
X148214285Y-78245295D01*
X148214285Y-78245295D02*
X148166666Y-78150057D01*
X148166666Y-78150057D02*
X148119047Y-78102438D01*
X148119047Y-78102438D02*
X148023809Y-78054819D01*
X147071428Y-78054819D02*
X146976190Y-78054819D01*
X146976190Y-78054819D02*
X146880952Y-78102438D01*
X146880952Y-78102438D02*
X146833333Y-78150057D01*
X146833333Y-78150057D02*
X146785714Y-78245295D01*
X146785714Y-78245295D02*
X146738095Y-78435771D01*
X146738095Y-78435771D02*
X146738095Y-78673866D01*
X146738095Y-78673866D02*
X146785714Y-78864342D01*
X146785714Y-78864342D02*
X146833333Y-78959580D01*
X146833333Y-78959580D02*
X146880952Y-79007200D01*
X146880952Y-79007200D02*
X146976190Y-79054819D01*
X146976190Y-79054819D02*
X147071428Y-79054819D01*
X147071428Y-79054819D02*
X147166666Y-79007200D01*
X147166666Y-79007200D02*
X147214285Y-78959580D01*
X147214285Y-78959580D02*
X147261904Y-78864342D01*
X147261904Y-78864342D02*
X147309523Y-78673866D01*
X147309523Y-78673866D02*
X147309523Y-78435771D01*
X147309523Y-78435771D02*
X147261904Y-78245295D01*
X147261904Y-78245295D02*
X147214285Y-78150057D01*
X147214285Y-78150057D02*
X147166666Y-78102438D01*
X147166666Y-78102438D02*
X147071428Y-78054819D01*
X145880952Y-78388152D02*
X145880952Y-79054819D01*
X146119047Y-78007200D02*
X146357142Y-78721485D01*
X146357142Y-78721485D02*
X145738095Y-78721485D01*
X149238094Y-73954819D02*
X149238094Y-72954819D01*
X149238094Y-72954819D02*
X148999999Y-72954819D01*
X148999999Y-72954819D02*
X148857142Y-73002438D01*
X148857142Y-73002438D02*
X148761904Y-73097676D01*
X148761904Y-73097676D02*
X148714285Y-73192914D01*
X148714285Y-73192914D02*
X148666666Y-73383390D01*
X148666666Y-73383390D02*
X148666666Y-73526247D01*
X148666666Y-73526247D02*
X148714285Y-73716723D01*
X148714285Y-73716723D02*
X148761904Y-73811961D01*
X148761904Y-73811961D02*
X148857142Y-73907200D01*
X148857142Y-73907200D02*
X148999999Y-73954819D01*
X148999999Y-73954819D02*
X149238094Y-73954819D01*
X147714285Y-73954819D02*
X148285713Y-73954819D01*
X147999999Y-73954819D02*
X147999999Y-72954819D01*
X147999999Y-72954819D02*
X148095237Y-73097676D01*
X148095237Y-73097676D02*
X148190475Y-73192914D01*
X148190475Y-73192914D02*
X148285713Y-73240533D01*
X138074819Y-80285714D02*
X138074819Y-79714286D01*
X138074819Y-80000000D02*
X137074819Y-80000000D01*
X137074819Y-80000000D02*
X137217676Y-79904762D01*
X137217676Y-79904762D02*
X137312914Y-79809524D01*
X137312914Y-79809524D02*
X137360533Y-79714286D01*
X138074819Y-80714286D02*
X137074819Y-80714286D01*
X138074819Y-81285714D02*
X137503390Y-80857143D01*
X137074819Y-81285714D02*
X137646247Y-80714286D01*
X135454819Y-79857142D02*
X134978628Y-79523809D01*
X135454819Y-79285714D02*
X134454819Y-79285714D01*
X134454819Y-79285714D02*
X134454819Y-79666666D01*
X134454819Y-79666666D02*
X134502438Y-79761904D01*
X134502438Y-79761904D02*
X134550057Y-79809523D01*
X134550057Y-79809523D02*
X134645295Y-79857142D01*
X134645295Y-79857142D02*
X134788152Y-79857142D01*
X134788152Y-79857142D02*
X134883390Y-79809523D01*
X134883390Y-79809523D02*
X134931009Y-79761904D01*
X134931009Y-79761904D02*
X134978628Y-79666666D01*
X134978628Y-79666666D02*
X134978628Y-79285714D01*
X135454819Y-80809523D02*
X135454819Y-80238095D01*
X135454819Y-80523809D02*
X134454819Y-80523809D01*
X134454819Y-80523809D02*
X134597676Y-80428571D01*
X134597676Y-80428571D02*
X134692914Y-80333333D01*
X134692914Y-80333333D02*
X134740533Y-80238095D01*
X134454819Y-81142857D02*
X134454819Y-81809523D01*
X134454819Y-81809523D02*
X135454819Y-81380952D01*
X152804819Y-80428571D02*
X152804819Y-79857143D01*
X152804819Y-80142857D02*
X151804819Y-80142857D01*
X151804819Y-80142857D02*
X151947676Y-80047619D01*
X151947676Y-80047619D02*
X152042914Y-79952381D01*
X152042914Y-79952381D02*
X152090533Y-79857143D01*
X151804819Y-81047619D02*
X151804819Y-81142857D01*
X151804819Y-81142857D02*
X151852438Y-81238095D01*
X151852438Y-81238095D02*
X151900057Y-81285714D01*
X151900057Y-81285714D02*
X151995295Y-81333333D01*
X151995295Y-81333333D02*
X152185771Y-81380952D01*
X152185771Y-81380952D02*
X152423866Y-81380952D01*
X152423866Y-81380952D02*
X152614342Y-81333333D01*
X152614342Y-81333333D02*
X152709580Y-81285714D01*
X152709580Y-81285714D02*
X152757200Y-81238095D01*
X152757200Y-81238095D02*
X152804819Y-81142857D01*
X152804819Y-81142857D02*
X152804819Y-81047619D01*
X152804819Y-81047619D02*
X152757200Y-80952381D01*
X152757200Y-80952381D02*
X152709580Y-80904762D01*
X152709580Y-80904762D02*
X152614342Y-80857143D01*
X152614342Y-80857143D02*
X152423866Y-80809524D01*
X152423866Y-80809524D02*
X152185771Y-80809524D01*
X152185771Y-80809524D02*
X151995295Y-80857143D01*
X151995295Y-80857143D02*
X151900057Y-80904762D01*
X151900057Y-80904762D02*
X151852438Y-80952381D01*
X151852438Y-80952381D02*
X151804819Y-81047619D01*
X152138152Y-81809524D02*
X152804819Y-81809524D01*
X152233390Y-81809524D02*
X152185771Y-81857143D01*
X152185771Y-81857143D02*
X152138152Y-81952381D01*
X152138152Y-81952381D02*
X152138152Y-82095238D01*
X152138152Y-82095238D02*
X152185771Y-82190476D01*
X152185771Y-82190476D02*
X152281009Y-82238095D01*
X152281009Y-82238095D02*
X152804819Y-82238095D01*
X152281009Y-83047619D02*
X152281009Y-82714286D01*
X152804819Y-82714286D02*
X151804819Y-82714286D01*
X151804819Y-82714286D02*
X151804819Y-83190476D01*
D11*
X150787664Y-81366667D02*
X150825760Y-81328571D01*
X150825760Y-81328571D02*
X150863855Y-81214286D01*
X150863855Y-81214286D02*
X150863855Y-81138095D01*
X150863855Y-81138095D02*
X150825760Y-81023809D01*
X150825760Y-81023809D02*
X150749569Y-80947619D01*
X150749569Y-80947619D02*
X150673379Y-80909524D01*
X150673379Y-80909524D02*
X150520998Y-80871428D01*
X150520998Y-80871428D02*
X150406712Y-80871428D01*
X150406712Y-80871428D02*
X150254331Y-80909524D01*
X150254331Y-80909524D02*
X150178140Y-80947619D01*
X150178140Y-80947619D02*
X150101950Y-81023809D01*
X150101950Y-81023809D02*
X150063855Y-81138095D01*
X150063855Y-81138095D02*
X150063855Y-81214286D01*
X150063855Y-81214286D02*
X150101950Y-81328571D01*
X150101950Y-81328571D02*
X150140045Y-81366667D01*
X150863855Y-82128571D02*
X150863855Y-81671428D01*
X150863855Y-81900000D02*
X150063855Y-81900000D01*
X150063855Y-81900000D02*
X150178140Y-81823809D01*
X150178140Y-81823809D02*
X150254331Y-81747619D01*
X150254331Y-81747619D02*
X150292426Y-81671428D01*
D10*
X132574819Y-80276339D02*
X132574819Y-79704911D01*
X132574819Y-79990625D02*
X131574819Y-79990625D01*
X131574819Y-79990625D02*
X131717676Y-79895387D01*
X131717676Y-79895387D02*
X131812914Y-79800149D01*
X131812914Y-79800149D02*
X131860533Y-79704911D01*
X132574819Y-80704911D02*
X131574819Y-80704911D01*
X132574819Y-81276339D02*
X132003390Y-80847768D01*
X131574819Y-81276339D02*
X132146247Y-80704911D01*
X129954819Y-79847767D02*
X129478628Y-79514434D01*
X129954819Y-79276339D02*
X128954819Y-79276339D01*
X128954819Y-79276339D02*
X128954819Y-79657291D01*
X128954819Y-79657291D02*
X129002438Y-79752529D01*
X129002438Y-79752529D02*
X129050057Y-79800148D01*
X129050057Y-79800148D02*
X129145295Y-79847767D01*
X129145295Y-79847767D02*
X129288152Y-79847767D01*
X129288152Y-79847767D02*
X129383390Y-79800148D01*
X129383390Y-79800148D02*
X129431009Y-79752529D01*
X129431009Y-79752529D02*
X129478628Y-79657291D01*
X129478628Y-79657291D02*
X129478628Y-79276339D01*
X129954819Y-80800148D02*
X129954819Y-80228720D01*
X129954819Y-80514434D02*
X128954819Y-80514434D01*
X128954819Y-80514434D02*
X129097676Y-80419196D01*
X129097676Y-80419196D02*
X129192914Y-80323958D01*
X129192914Y-80323958D02*
X129240533Y-80228720D01*
X129383390Y-81371577D02*
X129335771Y-81276339D01*
X129335771Y-81276339D02*
X129288152Y-81228720D01*
X129288152Y-81228720D02*
X129192914Y-81181101D01*
X129192914Y-81181101D02*
X129145295Y-81181101D01*
X129145295Y-81181101D02*
X129050057Y-81228720D01*
X129050057Y-81228720D02*
X129002438Y-81276339D01*
X129002438Y-81276339D02*
X128954819Y-81371577D01*
X128954819Y-81371577D02*
X128954819Y-81562053D01*
X128954819Y-81562053D02*
X129002438Y-81657291D01*
X129002438Y-81657291D02*
X129050057Y-81704910D01*
X129050057Y-81704910D02*
X129145295Y-81752529D01*
X129145295Y-81752529D02*
X129192914Y-81752529D01*
X129192914Y-81752529D02*
X129288152Y-81704910D01*
X129288152Y-81704910D02*
X129335771Y-81657291D01*
X129335771Y-81657291D02*
X129383390Y-81562053D01*
X129383390Y-81562053D02*
X129383390Y-81371577D01*
X129383390Y-81371577D02*
X129431009Y-81276339D01*
X129431009Y-81276339D02*
X129478628Y-81228720D01*
X129478628Y-81228720D02*
X129573866Y-81181101D01*
X129573866Y-81181101D02*
X129764342Y-81181101D01*
X129764342Y-81181101D02*
X129859580Y-81228720D01*
X129859580Y-81228720D02*
X129907200Y-81276339D01*
X129907200Y-81276339D02*
X129954819Y-81371577D01*
X129954819Y-81371577D02*
X129954819Y-81562053D01*
X129954819Y-81562053D02*
X129907200Y-81657291D01*
X129907200Y-81657291D02*
X129859580Y-81704910D01*
X129859580Y-81704910D02*
X129764342Y-81752529D01*
X129764342Y-81752529D02*
X129573866Y-81752529D01*
X129573866Y-81752529D02*
X129478628Y-81704910D01*
X129478628Y-81704910D02*
X129431009Y-81657291D01*
X129431009Y-81657291D02*
X129383390Y-81562053D01*
X143574819Y-80248214D02*
X143574819Y-79676786D01*
X143574819Y-79962500D02*
X142574819Y-79962500D01*
X142574819Y-79962500D02*
X142717676Y-79867262D01*
X142717676Y-79867262D02*
X142812914Y-79772024D01*
X142812914Y-79772024D02*
X142860533Y-79676786D01*
X143574819Y-80676786D02*
X142574819Y-80676786D01*
X143574819Y-81248214D02*
X143003390Y-80819643D01*
X142574819Y-81248214D02*
X143146247Y-80676786D01*
X140954819Y-79819642D02*
X140478628Y-79486309D01*
X140954819Y-79248214D02*
X139954819Y-79248214D01*
X139954819Y-79248214D02*
X139954819Y-79629166D01*
X139954819Y-79629166D02*
X140002438Y-79724404D01*
X140002438Y-79724404D02*
X140050057Y-79772023D01*
X140050057Y-79772023D02*
X140145295Y-79819642D01*
X140145295Y-79819642D02*
X140288152Y-79819642D01*
X140288152Y-79819642D02*
X140383390Y-79772023D01*
X140383390Y-79772023D02*
X140431009Y-79724404D01*
X140431009Y-79724404D02*
X140478628Y-79629166D01*
X140478628Y-79629166D02*
X140478628Y-79248214D01*
X140954819Y-80772023D02*
X140954819Y-80200595D01*
X140954819Y-80486309D02*
X139954819Y-80486309D01*
X139954819Y-80486309D02*
X140097676Y-80391071D01*
X140097676Y-80391071D02*
X140192914Y-80295833D01*
X140192914Y-80295833D02*
X140240533Y-80200595D01*
X139954819Y-81629166D02*
X139954819Y-81438690D01*
X139954819Y-81438690D02*
X140002438Y-81343452D01*
X140002438Y-81343452D02*
X140050057Y-81295833D01*
X140050057Y-81295833D02*
X140192914Y-81200595D01*
X140192914Y-81200595D02*
X140383390Y-81152976D01*
X140383390Y-81152976D02*
X140764342Y-81152976D01*
X140764342Y-81152976D02*
X140859580Y-81200595D01*
X140859580Y-81200595D02*
X140907200Y-81248214D01*
X140907200Y-81248214D02*
X140954819Y-81343452D01*
X140954819Y-81343452D02*
X140954819Y-81533928D01*
X140954819Y-81533928D02*
X140907200Y-81629166D01*
X140907200Y-81629166D02*
X140859580Y-81676785D01*
X140859580Y-81676785D02*
X140764342Y-81724404D01*
X140764342Y-81724404D02*
X140526247Y-81724404D01*
X140526247Y-81724404D02*
X140431009Y-81676785D01*
X140431009Y-81676785D02*
X140383390Y-81629166D01*
X140383390Y-81629166D02*
X140335771Y-81533928D01*
X140335771Y-81533928D02*
X140335771Y-81343452D01*
X140335771Y-81343452D02*
X140383390Y-81248214D01*
X140383390Y-81248214D02*
X140431009Y-81200595D01*
X140431009Y-81200595D02*
X140526247Y-81152976D01*
X116334819Y-71360714D02*
X116334819Y-70789286D01*
X116334819Y-71075000D02*
X115334819Y-71075000D01*
X115334819Y-71075000D02*
X115477676Y-70979762D01*
X115477676Y-70979762D02*
X115572914Y-70884524D01*
X115572914Y-70884524D02*
X115620533Y-70789286D01*
X116334819Y-71789286D02*
X115334819Y-71789286D01*
X116334819Y-72360714D02*
X115763390Y-71932143D01*
X115334819Y-72360714D02*
X115906247Y-71789286D01*
X118954819Y-70932142D02*
X118478628Y-70598809D01*
X118954819Y-70360714D02*
X117954819Y-70360714D01*
X117954819Y-70360714D02*
X117954819Y-70741666D01*
X117954819Y-70741666D02*
X118002438Y-70836904D01*
X118002438Y-70836904D02*
X118050057Y-70884523D01*
X118050057Y-70884523D02*
X118145295Y-70932142D01*
X118145295Y-70932142D02*
X118288152Y-70932142D01*
X118288152Y-70932142D02*
X118383390Y-70884523D01*
X118383390Y-70884523D02*
X118431009Y-70836904D01*
X118431009Y-70836904D02*
X118478628Y-70741666D01*
X118478628Y-70741666D02*
X118478628Y-70360714D01*
X118954819Y-71884523D02*
X118954819Y-71313095D01*
X118954819Y-71598809D02*
X117954819Y-71598809D01*
X117954819Y-71598809D02*
X118097676Y-71503571D01*
X118097676Y-71503571D02*
X118192914Y-71408333D01*
X118192914Y-71408333D02*
X118240533Y-71313095D01*
X117954819Y-72789285D02*
X117954819Y-72313095D01*
X117954819Y-72313095D02*
X118431009Y-72265476D01*
X118431009Y-72265476D02*
X118383390Y-72313095D01*
X118383390Y-72313095D02*
X118335771Y-72408333D01*
X118335771Y-72408333D02*
X118335771Y-72646428D01*
X118335771Y-72646428D02*
X118383390Y-72741666D01*
X118383390Y-72741666D02*
X118431009Y-72789285D01*
X118431009Y-72789285D02*
X118526247Y-72836904D01*
X118526247Y-72836904D02*
X118764342Y-72836904D01*
X118764342Y-72836904D02*
X118859580Y-72789285D01*
X118859580Y-72789285D02*
X118907200Y-72741666D01*
X118907200Y-72741666D02*
X118954819Y-72646428D01*
X118954819Y-72646428D02*
X118954819Y-72408333D01*
X118954819Y-72408333D02*
X118907200Y-72313095D01*
X118907200Y-72313095D02*
X118859580Y-72265476D01*
D12*
%TO.C,R13*%
X127900000Y-68406250D02*
X127900000Y-74706250D01*
X127900000Y-74706250D02*
X131100000Y-74706250D01*
X131100000Y-68406250D02*
X127900000Y-68406250D01*
X131100000Y-74706250D02*
X131100000Y-68406250D01*
%TO.C,R19*%
X122400000Y-77331250D02*
X122400000Y-83631250D01*
X122400000Y-83631250D02*
X125600000Y-83631250D01*
X125600000Y-77331250D02*
X122400000Y-77331250D01*
X125600000Y-83631250D02*
X125600000Y-77331250D01*
%TO.C,R14*%
X122400000Y-68396875D02*
X122400000Y-74696875D01*
X122400000Y-74696875D02*
X125600000Y-74696875D01*
X125600000Y-68396875D02*
X122400000Y-68396875D01*
X125600000Y-74696875D02*
X125600000Y-68396875D01*
%TO.C,R11*%
X138900000Y-68387500D02*
X138900000Y-74687500D01*
X138900000Y-74687500D02*
X142100000Y-74687500D01*
X142100000Y-68387500D02*
X138900000Y-68387500D01*
X142100000Y-74687500D02*
X142100000Y-68387500D01*
%TO.C,R12*%
X133400000Y-68415625D02*
X133400000Y-74715625D01*
X133400000Y-74715625D02*
X136600000Y-74715625D01*
X136600000Y-68415625D02*
X133400000Y-68415625D01*
X136600000Y-74715625D02*
X136600000Y-68415625D01*
%TO.C,R20*%
X116900000Y-77321875D02*
X116900000Y-83621875D01*
X116900000Y-83621875D02*
X120100000Y-83621875D01*
X120100000Y-77321875D02*
X116900000Y-77321875D01*
X120100000Y-83621875D02*
X120100000Y-77321875D01*
%TO.C,D1*%
X146200000Y-74500000D02*
X146200000Y-77500000D01*
X146200000Y-74500000D02*
X150800000Y-74500000D01*
X146200000Y-77500000D02*
X150800000Y-77500000D01*
X147998820Y-76001020D02*
X147000600Y-76001020D01*
X147998820Y-76750320D02*
X147998820Y-75200920D01*
X149149440Y-75200920D02*
X149149440Y-76801120D01*
X149149440Y-76001020D02*
X147998820Y-75200920D01*
X149149440Y-76001020D02*
X147998820Y-76750320D01*
X149149440Y-76001020D02*
X150051140Y-76001020D01*
X150800000Y-77500000D02*
X150800000Y-74500000D01*
%TO.C,R17*%
X133400000Y-77350000D02*
X133400000Y-83650000D01*
X133400000Y-83650000D02*
X136600000Y-83650000D01*
X136600000Y-77350000D02*
X133400000Y-77350000D01*
X136600000Y-83650000D02*
X136600000Y-77350000D01*
%TO.C,C1*%
X149700000Y-79900000D02*
X149700000Y-83100000D01*
X149700000Y-83100000D02*
X151300000Y-83100000D01*
X151300000Y-79900000D02*
X149700000Y-79900000D01*
X151300000Y-83100000D02*
X151300000Y-79900000D01*
%TO.C,R18*%
X127900000Y-77340625D02*
X127900000Y-83640625D01*
X127900000Y-83640625D02*
X131100000Y-83640625D01*
X131100000Y-77340625D02*
X127900000Y-77340625D01*
X131100000Y-83640625D02*
X131100000Y-77340625D01*
%TO.C,R16*%
X138900000Y-77312500D02*
X138900000Y-83612500D01*
X138900000Y-83612500D02*
X142100000Y-83612500D01*
X142100000Y-77312500D02*
X138900000Y-77312500D01*
X142100000Y-83612500D02*
X142100000Y-77312500D01*
%TO.C,R15*%
X116900000Y-68425000D02*
X116900000Y-74725000D01*
X116900000Y-74725000D02*
X120100000Y-74725000D01*
X120100000Y-68425000D02*
X116900000Y-68425000D01*
X120100000Y-74725000D02*
X120100000Y-68425000D01*
%TD*%
M02*
