%TF.GenerationSoftware,KiCad,Pcbnew,9.0.8*%
%TF.CreationDate,2026-03-26T13:17:19+00:00*%
%TF.ProjectId,DummyLoad,44756d6d-794c-46f6-9164-2e6b69636164,rev?*%
%TF.SameCoordinates,Original*%
%TF.FileFunction,Legend,Bot*%
%TF.FilePolarity,Positive*%
%FSLAX46Y46*%
G04 Gerber Fmt 4.6, Leading zero omitted, Abs format (unit mm)*
G04 Created by KiCad (PCBNEW 9.0.8) date 2026-03-26 13:17:19*
%MOMM*%
%LPD*%
G01*
G04 APERTURE LIST*
%ADD10C,0.150000*%
%ADD11C,0.120000*%
G04 APERTURE END LIST*
D10*
X132574819Y-70913392D02*
X132098628Y-70580059D01*
X132574819Y-70341964D02*
X131574819Y-70341964D01*
X131574819Y-70341964D02*
X131574819Y-70722916D01*
X131574819Y-70722916D02*
X131622438Y-70818154D01*
X131622438Y-70818154D02*
X131670057Y-70865773D01*
X131670057Y-70865773D02*
X131765295Y-70913392D01*
X131765295Y-70913392D02*
X131908152Y-70913392D01*
X131908152Y-70913392D02*
X132003390Y-70865773D01*
X132003390Y-70865773D02*
X132051009Y-70818154D01*
X132051009Y-70818154D02*
X132098628Y-70722916D01*
X132098628Y-70722916D02*
X132098628Y-70341964D01*
X132574819Y-71865773D02*
X132574819Y-71294345D01*
X132574819Y-71580059D02*
X131574819Y-71580059D01*
X131574819Y-71580059D02*
X131717676Y-71484821D01*
X131717676Y-71484821D02*
X131812914Y-71389583D01*
X131812914Y-71389583D02*
X131860533Y-71294345D01*
X131574819Y-72199107D02*
X131574819Y-72818154D01*
X131574819Y-72818154D02*
X131955771Y-72484821D01*
X131955771Y-72484821D02*
X131955771Y-72627678D01*
X131955771Y-72627678D02*
X132003390Y-72722916D01*
X132003390Y-72722916D02*
X132051009Y-72770535D01*
X132051009Y-72770535D02*
X132146247Y-72818154D01*
X132146247Y-72818154D02*
X132384342Y-72818154D01*
X132384342Y-72818154D02*
X132479580Y-72770535D01*
X132479580Y-72770535D02*
X132527200Y-72722916D01*
X132527200Y-72722916D02*
X132574819Y-72627678D01*
X132574819Y-72627678D02*
X132574819Y-72341964D01*
X132574819Y-72341964D02*
X132527200Y-72246726D01*
X132527200Y-72246726D02*
X132479580Y-72199107D01*
X126954819Y-79838392D02*
X126478628Y-79505059D01*
X126954819Y-79266964D02*
X125954819Y-79266964D01*
X125954819Y-79266964D02*
X125954819Y-79647916D01*
X125954819Y-79647916D02*
X126002438Y-79743154D01*
X126002438Y-79743154D02*
X126050057Y-79790773D01*
X126050057Y-79790773D02*
X126145295Y-79838392D01*
X126145295Y-79838392D02*
X126288152Y-79838392D01*
X126288152Y-79838392D02*
X126383390Y-79790773D01*
X126383390Y-79790773D02*
X126431009Y-79743154D01*
X126431009Y-79743154D02*
X126478628Y-79647916D01*
X126478628Y-79647916D02*
X126478628Y-79266964D01*
X126954819Y-80790773D02*
X126954819Y-80219345D01*
X126954819Y-80505059D02*
X125954819Y-80505059D01*
X125954819Y-80505059D02*
X126097676Y-80409821D01*
X126097676Y-80409821D02*
X126192914Y-80314583D01*
X126192914Y-80314583D02*
X126240533Y-80219345D01*
X126954819Y-81266964D02*
X126954819Y-81457440D01*
X126954819Y-81457440D02*
X126907200Y-81552678D01*
X126907200Y-81552678D02*
X126859580Y-81600297D01*
X126859580Y-81600297D02*
X126716723Y-81695535D01*
X126716723Y-81695535D02*
X126526247Y-81743154D01*
X126526247Y-81743154D02*
X126145295Y-81743154D01*
X126145295Y-81743154D02*
X126050057Y-81695535D01*
X126050057Y-81695535D02*
X126002438Y-81647916D01*
X126002438Y-81647916D02*
X125954819Y-81552678D01*
X125954819Y-81552678D02*
X125954819Y-81362202D01*
X125954819Y-81362202D02*
X126002438Y-81266964D01*
X126002438Y-81266964D02*
X126050057Y-81219345D01*
X126050057Y-81219345D02*
X126145295Y-81171726D01*
X126145295Y-81171726D02*
X126383390Y-81171726D01*
X126383390Y-81171726D02*
X126478628Y-81219345D01*
X126478628Y-81219345D02*
X126526247Y-81266964D01*
X126526247Y-81266964D02*
X126573866Y-81362202D01*
X126573866Y-81362202D02*
X126573866Y-81552678D01*
X126573866Y-81552678D02*
X126526247Y-81647916D01*
X126526247Y-81647916D02*
X126478628Y-81695535D01*
X126478628Y-81695535D02*
X126383390Y-81743154D01*
X127074819Y-70904017D02*
X126598628Y-70570684D01*
X127074819Y-70332589D02*
X126074819Y-70332589D01*
X126074819Y-70332589D02*
X126074819Y-70713541D01*
X126074819Y-70713541D02*
X126122438Y-70808779D01*
X126122438Y-70808779D02*
X126170057Y-70856398D01*
X126170057Y-70856398D02*
X126265295Y-70904017D01*
X126265295Y-70904017D02*
X126408152Y-70904017D01*
X126408152Y-70904017D02*
X126503390Y-70856398D01*
X126503390Y-70856398D02*
X126551009Y-70808779D01*
X126551009Y-70808779D02*
X126598628Y-70713541D01*
X126598628Y-70713541D02*
X126598628Y-70332589D01*
X127074819Y-71856398D02*
X127074819Y-71284970D01*
X127074819Y-71570684D02*
X126074819Y-71570684D01*
X126074819Y-71570684D02*
X126217676Y-71475446D01*
X126217676Y-71475446D02*
X126312914Y-71380208D01*
X126312914Y-71380208D02*
X126360533Y-71284970D01*
X126408152Y-72713541D02*
X127074819Y-72713541D01*
X126027200Y-72475446D02*
X126741485Y-72237351D01*
X126741485Y-72237351D02*
X126741485Y-72856398D01*
X143574819Y-70894642D02*
X143098628Y-70561309D01*
X143574819Y-70323214D02*
X142574819Y-70323214D01*
X142574819Y-70323214D02*
X142574819Y-70704166D01*
X142574819Y-70704166D02*
X142622438Y-70799404D01*
X142622438Y-70799404D02*
X142670057Y-70847023D01*
X142670057Y-70847023D02*
X142765295Y-70894642D01*
X142765295Y-70894642D02*
X142908152Y-70894642D01*
X142908152Y-70894642D02*
X143003390Y-70847023D01*
X143003390Y-70847023D02*
X143051009Y-70799404D01*
X143051009Y-70799404D02*
X143098628Y-70704166D01*
X143098628Y-70704166D02*
X143098628Y-70323214D01*
X143574819Y-71847023D02*
X143574819Y-71275595D01*
X143574819Y-71561309D02*
X142574819Y-71561309D01*
X142574819Y-71561309D02*
X142717676Y-71466071D01*
X142717676Y-71466071D02*
X142812914Y-71370833D01*
X142812914Y-71370833D02*
X142860533Y-71275595D01*
X143574819Y-72799404D02*
X143574819Y-72227976D01*
X143574819Y-72513690D02*
X142574819Y-72513690D01*
X142574819Y-72513690D02*
X142717676Y-72418452D01*
X142717676Y-72418452D02*
X142812914Y-72323214D01*
X142812914Y-72323214D02*
X142860533Y-72227976D01*
X138074819Y-70922767D02*
X137598628Y-70589434D01*
X138074819Y-70351339D02*
X137074819Y-70351339D01*
X137074819Y-70351339D02*
X137074819Y-70732291D01*
X137074819Y-70732291D02*
X137122438Y-70827529D01*
X137122438Y-70827529D02*
X137170057Y-70875148D01*
X137170057Y-70875148D02*
X137265295Y-70922767D01*
X137265295Y-70922767D02*
X137408152Y-70922767D01*
X137408152Y-70922767D02*
X137503390Y-70875148D01*
X137503390Y-70875148D02*
X137551009Y-70827529D01*
X137551009Y-70827529D02*
X137598628Y-70732291D01*
X137598628Y-70732291D02*
X137598628Y-70351339D01*
X138074819Y-71875148D02*
X138074819Y-71303720D01*
X138074819Y-71589434D02*
X137074819Y-71589434D01*
X137074819Y-71589434D02*
X137217676Y-71494196D01*
X137217676Y-71494196D02*
X137312914Y-71398958D01*
X137312914Y-71398958D02*
X137360533Y-71303720D01*
X137170057Y-72256101D02*
X137122438Y-72303720D01*
X137122438Y-72303720D02*
X137074819Y-72398958D01*
X137074819Y-72398958D02*
X137074819Y-72637053D01*
X137074819Y-72637053D02*
X137122438Y-72732291D01*
X137122438Y-72732291D02*
X137170057Y-72779910D01*
X137170057Y-72779910D02*
X137265295Y-72827529D01*
X137265295Y-72827529D02*
X137360533Y-72827529D01*
X137360533Y-72827529D02*
X137503390Y-72779910D01*
X137503390Y-72779910D02*
X138074819Y-72208482D01*
X138074819Y-72208482D02*
X138074819Y-72827529D01*
X121454819Y-79829017D02*
X120978628Y-79495684D01*
X121454819Y-79257589D02*
X120454819Y-79257589D01*
X120454819Y-79257589D02*
X120454819Y-79638541D01*
X120454819Y-79638541D02*
X120502438Y-79733779D01*
X120502438Y-79733779D02*
X120550057Y-79781398D01*
X120550057Y-79781398D02*
X120645295Y-79829017D01*
X120645295Y-79829017D02*
X120788152Y-79829017D01*
X120788152Y-79829017D02*
X120883390Y-79781398D01*
X120883390Y-79781398D02*
X120931009Y-79733779D01*
X120931009Y-79733779D02*
X120978628Y-79638541D01*
X120978628Y-79638541D02*
X120978628Y-79257589D01*
X120550057Y-80209970D02*
X120502438Y-80257589D01*
X120502438Y-80257589D02*
X120454819Y-80352827D01*
X120454819Y-80352827D02*
X120454819Y-80590922D01*
X120454819Y-80590922D02*
X120502438Y-80686160D01*
X120502438Y-80686160D02*
X120550057Y-80733779D01*
X120550057Y-80733779D02*
X120645295Y-80781398D01*
X120645295Y-80781398D02*
X120740533Y-80781398D01*
X120740533Y-80781398D02*
X120883390Y-80733779D01*
X120883390Y-80733779D02*
X121454819Y-80162351D01*
X121454819Y-80162351D02*
X121454819Y-80781398D01*
X120454819Y-81400446D02*
X120454819Y-81495684D01*
X120454819Y-81495684D02*
X120502438Y-81590922D01*
X120502438Y-81590922D02*
X120550057Y-81638541D01*
X120550057Y-81638541D02*
X120645295Y-81686160D01*
X120645295Y-81686160D02*
X120835771Y-81733779D01*
X120835771Y-81733779D02*
X121073866Y-81733779D01*
X121073866Y-81733779D02*
X121264342Y-81686160D01*
X121264342Y-81686160D02*
X121359580Y-81638541D01*
X121359580Y-81638541D02*
X121407200Y-81590922D01*
X121407200Y-81590922D02*
X121454819Y-81495684D01*
X121454819Y-81495684D02*
X121454819Y-81400446D01*
X121454819Y-81400446D02*
X121407200Y-81305208D01*
X121407200Y-81305208D02*
X121359580Y-81257589D01*
X121359580Y-81257589D02*
X121264342Y-81209970D01*
X121264342Y-81209970D02*
X121073866Y-81162351D01*
X121073866Y-81162351D02*
X120835771Y-81162351D01*
X120835771Y-81162351D02*
X120645295Y-81209970D01*
X120645295Y-81209970D02*
X120550057Y-81257589D01*
X120550057Y-81257589D02*
X120502438Y-81305208D01*
X120502438Y-81305208D02*
X120454819Y-81400446D01*
X149238094Y-78954819D02*
X149238094Y-77954819D01*
X149238094Y-77954819D02*
X148999999Y-77954819D01*
X148999999Y-77954819D02*
X148857142Y-78002438D01*
X148857142Y-78002438D02*
X148761904Y-78097676D01*
X148761904Y-78097676D02*
X148714285Y-78192914D01*
X148714285Y-78192914D02*
X148666666Y-78383390D01*
X148666666Y-78383390D02*
X148666666Y-78526247D01*
X148666666Y-78526247D02*
X148714285Y-78716723D01*
X148714285Y-78716723D02*
X148761904Y-78811961D01*
X148761904Y-78811961D02*
X148857142Y-78907200D01*
X148857142Y-78907200D02*
X148999999Y-78954819D01*
X148999999Y-78954819D02*
X149238094Y-78954819D01*
X147714285Y-78954819D02*
X148285713Y-78954819D01*
X147999999Y-78954819D02*
X147999999Y-77954819D01*
X147999999Y-77954819D02*
X148095237Y-78097676D01*
X148095237Y-78097676D02*
X148190475Y-78192914D01*
X148190475Y-78192914D02*
X148285713Y-78240533D01*
X137954819Y-79857142D02*
X137478628Y-79523809D01*
X137954819Y-79285714D02*
X136954819Y-79285714D01*
X136954819Y-79285714D02*
X136954819Y-79666666D01*
X136954819Y-79666666D02*
X137002438Y-79761904D01*
X137002438Y-79761904D02*
X137050057Y-79809523D01*
X137050057Y-79809523D02*
X137145295Y-79857142D01*
X137145295Y-79857142D02*
X137288152Y-79857142D01*
X137288152Y-79857142D02*
X137383390Y-79809523D01*
X137383390Y-79809523D02*
X137431009Y-79761904D01*
X137431009Y-79761904D02*
X137478628Y-79666666D01*
X137478628Y-79666666D02*
X137478628Y-79285714D01*
X137954819Y-80809523D02*
X137954819Y-80238095D01*
X137954819Y-80523809D02*
X136954819Y-80523809D01*
X136954819Y-80523809D02*
X137097676Y-80428571D01*
X137097676Y-80428571D02*
X137192914Y-80333333D01*
X137192914Y-80333333D02*
X137240533Y-80238095D01*
X136954819Y-81142857D02*
X136954819Y-81809523D01*
X136954819Y-81809523D02*
X137954819Y-81380952D01*
X152859580Y-81333333D02*
X152907200Y-81285714D01*
X152907200Y-81285714D02*
X152954819Y-81142857D01*
X152954819Y-81142857D02*
X152954819Y-81047619D01*
X152954819Y-81047619D02*
X152907200Y-80904762D01*
X152907200Y-80904762D02*
X152811961Y-80809524D01*
X152811961Y-80809524D02*
X152716723Y-80761905D01*
X152716723Y-80761905D02*
X152526247Y-80714286D01*
X152526247Y-80714286D02*
X152383390Y-80714286D01*
X152383390Y-80714286D02*
X152192914Y-80761905D01*
X152192914Y-80761905D02*
X152097676Y-80809524D01*
X152097676Y-80809524D02*
X152002438Y-80904762D01*
X152002438Y-80904762D02*
X151954819Y-81047619D01*
X151954819Y-81047619D02*
X151954819Y-81142857D01*
X151954819Y-81142857D02*
X152002438Y-81285714D01*
X152002438Y-81285714D02*
X152050057Y-81333333D01*
X152954819Y-82285714D02*
X152954819Y-81714286D01*
X152954819Y-82000000D02*
X151954819Y-82000000D01*
X151954819Y-82000000D02*
X152097676Y-81904762D01*
X152097676Y-81904762D02*
X152192914Y-81809524D01*
X152192914Y-81809524D02*
X152240533Y-81714286D01*
X132454819Y-79847767D02*
X131978628Y-79514434D01*
X132454819Y-79276339D02*
X131454819Y-79276339D01*
X131454819Y-79276339D02*
X131454819Y-79657291D01*
X131454819Y-79657291D02*
X131502438Y-79752529D01*
X131502438Y-79752529D02*
X131550057Y-79800148D01*
X131550057Y-79800148D02*
X131645295Y-79847767D01*
X131645295Y-79847767D02*
X131788152Y-79847767D01*
X131788152Y-79847767D02*
X131883390Y-79800148D01*
X131883390Y-79800148D02*
X131931009Y-79752529D01*
X131931009Y-79752529D02*
X131978628Y-79657291D01*
X131978628Y-79657291D02*
X131978628Y-79276339D01*
X132454819Y-80800148D02*
X132454819Y-80228720D01*
X132454819Y-80514434D02*
X131454819Y-80514434D01*
X131454819Y-80514434D02*
X131597676Y-80419196D01*
X131597676Y-80419196D02*
X131692914Y-80323958D01*
X131692914Y-80323958D02*
X131740533Y-80228720D01*
X131883390Y-81371577D02*
X131835771Y-81276339D01*
X131835771Y-81276339D02*
X131788152Y-81228720D01*
X131788152Y-81228720D02*
X131692914Y-81181101D01*
X131692914Y-81181101D02*
X131645295Y-81181101D01*
X131645295Y-81181101D02*
X131550057Y-81228720D01*
X131550057Y-81228720D02*
X131502438Y-81276339D01*
X131502438Y-81276339D02*
X131454819Y-81371577D01*
X131454819Y-81371577D02*
X131454819Y-81562053D01*
X131454819Y-81562053D02*
X131502438Y-81657291D01*
X131502438Y-81657291D02*
X131550057Y-81704910D01*
X131550057Y-81704910D02*
X131645295Y-81752529D01*
X131645295Y-81752529D02*
X131692914Y-81752529D01*
X131692914Y-81752529D02*
X131788152Y-81704910D01*
X131788152Y-81704910D02*
X131835771Y-81657291D01*
X131835771Y-81657291D02*
X131883390Y-81562053D01*
X131883390Y-81562053D02*
X131883390Y-81371577D01*
X131883390Y-81371577D02*
X131931009Y-81276339D01*
X131931009Y-81276339D02*
X131978628Y-81228720D01*
X131978628Y-81228720D02*
X132073866Y-81181101D01*
X132073866Y-81181101D02*
X132264342Y-81181101D01*
X132264342Y-81181101D02*
X132359580Y-81228720D01*
X132359580Y-81228720D02*
X132407200Y-81276339D01*
X132407200Y-81276339D02*
X132454819Y-81371577D01*
X132454819Y-81371577D02*
X132454819Y-81562053D01*
X132454819Y-81562053D02*
X132407200Y-81657291D01*
X132407200Y-81657291D02*
X132359580Y-81704910D01*
X132359580Y-81704910D02*
X132264342Y-81752529D01*
X132264342Y-81752529D02*
X132073866Y-81752529D01*
X132073866Y-81752529D02*
X131978628Y-81704910D01*
X131978628Y-81704910D02*
X131931009Y-81657291D01*
X131931009Y-81657291D02*
X131883390Y-81562053D01*
X143454819Y-79819642D02*
X142978628Y-79486309D01*
X143454819Y-79248214D02*
X142454819Y-79248214D01*
X142454819Y-79248214D02*
X142454819Y-79629166D01*
X142454819Y-79629166D02*
X142502438Y-79724404D01*
X142502438Y-79724404D02*
X142550057Y-79772023D01*
X142550057Y-79772023D02*
X142645295Y-79819642D01*
X142645295Y-79819642D02*
X142788152Y-79819642D01*
X142788152Y-79819642D02*
X142883390Y-79772023D01*
X142883390Y-79772023D02*
X142931009Y-79724404D01*
X142931009Y-79724404D02*
X142978628Y-79629166D01*
X142978628Y-79629166D02*
X142978628Y-79248214D01*
X143454819Y-80772023D02*
X143454819Y-80200595D01*
X143454819Y-80486309D02*
X142454819Y-80486309D01*
X142454819Y-80486309D02*
X142597676Y-80391071D01*
X142597676Y-80391071D02*
X142692914Y-80295833D01*
X142692914Y-80295833D02*
X142740533Y-80200595D01*
X142454819Y-81629166D02*
X142454819Y-81438690D01*
X142454819Y-81438690D02*
X142502438Y-81343452D01*
X142502438Y-81343452D02*
X142550057Y-81295833D01*
X142550057Y-81295833D02*
X142692914Y-81200595D01*
X142692914Y-81200595D02*
X142883390Y-81152976D01*
X142883390Y-81152976D02*
X143264342Y-81152976D01*
X143264342Y-81152976D02*
X143359580Y-81200595D01*
X143359580Y-81200595D02*
X143407200Y-81248214D01*
X143407200Y-81248214D02*
X143454819Y-81343452D01*
X143454819Y-81343452D02*
X143454819Y-81533928D01*
X143454819Y-81533928D02*
X143407200Y-81629166D01*
X143407200Y-81629166D02*
X143359580Y-81676785D01*
X143359580Y-81676785D02*
X143264342Y-81724404D01*
X143264342Y-81724404D02*
X143026247Y-81724404D01*
X143026247Y-81724404D02*
X142931009Y-81676785D01*
X142931009Y-81676785D02*
X142883390Y-81629166D01*
X142883390Y-81629166D02*
X142835771Y-81533928D01*
X142835771Y-81533928D02*
X142835771Y-81343452D01*
X142835771Y-81343452D02*
X142883390Y-81248214D01*
X142883390Y-81248214D02*
X142931009Y-81200595D01*
X142931009Y-81200595D02*
X143026247Y-81152976D01*
X121574819Y-70932142D02*
X121098628Y-70598809D01*
X121574819Y-70360714D02*
X120574819Y-70360714D01*
X120574819Y-70360714D02*
X120574819Y-70741666D01*
X120574819Y-70741666D02*
X120622438Y-70836904D01*
X120622438Y-70836904D02*
X120670057Y-70884523D01*
X120670057Y-70884523D02*
X120765295Y-70932142D01*
X120765295Y-70932142D02*
X120908152Y-70932142D01*
X120908152Y-70932142D02*
X121003390Y-70884523D01*
X121003390Y-70884523D02*
X121051009Y-70836904D01*
X121051009Y-70836904D02*
X121098628Y-70741666D01*
X121098628Y-70741666D02*
X121098628Y-70360714D01*
X121574819Y-71884523D02*
X121574819Y-71313095D01*
X121574819Y-71598809D02*
X120574819Y-71598809D01*
X120574819Y-71598809D02*
X120717676Y-71503571D01*
X120717676Y-71503571D02*
X120812914Y-71408333D01*
X120812914Y-71408333D02*
X120860533Y-71313095D01*
X120574819Y-72789285D02*
X120574819Y-72313095D01*
X120574819Y-72313095D02*
X121051009Y-72265476D01*
X121051009Y-72265476D02*
X121003390Y-72313095D01*
X121003390Y-72313095D02*
X120955771Y-72408333D01*
X120955771Y-72408333D02*
X120955771Y-72646428D01*
X120955771Y-72646428D02*
X121003390Y-72741666D01*
X121003390Y-72741666D02*
X121051009Y-72789285D01*
X121051009Y-72789285D02*
X121146247Y-72836904D01*
X121146247Y-72836904D02*
X121384342Y-72836904D01*
X121384342Y-72836904D02*
X121479580Y-72789285D01*
X121479580Y-72789285D02*
X121527200Y-72741666D01*
X121527200Y-72741666D02*
X121574819Y-72646428D01*
X121574819Y-72646428D02*
X121574819Y-72408333D01*
X121574819Y-72408333D02*
X121527200Y-72313095D01*
X121527200Y-72313095D02*
X121479580Y-72265476D01*
D11*
%TO.C,R13*%
X127790000Y-73733314D02*
X127790000Y-69379186D01*
X131210000Y-73733314D02*
X131210000Y-69379186D01*
%TO.C,R19*%
X122290000Y-78304186D02*
X122290000Y-82658314D01*
X125710000Y-78304186D02*
X125710000Y-82658314D01*
%TO.C,R14*%
X122290000Y-73723939D02*
X122290000Y-69369811D01*
X125710000Y-73723939D02*
X125710000Y-69369811D01*
%TO.C,R11*%
X138790000Y-73714564D02*
X138790000Y-69360436D01*
X142210000Y-73714564D02*
X142210000Y-69360436D01*
%TO.C,R12*%
X133290000Y-73742689D02*
X133290000Y-69388561D01*
X136710000Y-73742689D02*
X136710000Y-69388561D01*
%TO.C,R20*%
X116790000Y-78294811D02*
X116790000Y-82648939D01*
X120210000Y-78294811D02*
X120210000Y-82648939D01*
%TO.C,D1*%
X152010000Y-74350000D02*
X146500000Y-74350000D01*
X152010000Y-74350000D02*
X152010000Y-77650000D01*
X152010000Y-77650000D02*
X146500000Y-77650000D01*
%TO.C,R17*%
X133290000Y-78322936D02*
X133290000Y-82677064D01*
X136710000Y-78322936D02*
X136710000Y-82677064D01*
%TO.C,C1*%
X149590000Y-80788748D02*
X149590000Y-82211252D01*
X151410000Y-80788748D02*
X151410000Y-82211252D01*
%TO.C,R18*%
X127790000Y-78313561D02*
X127790000Y-82667689D01*
X131210000Y-78313561D02*
X131210000Y-82667689D01*
%TO.C,R16*%
X138790000Y-78285436D02*
X138790000Y-82639564D01*
X142210000Y-78285436D02*
X142210000Y-82639564D01*
%TO.C,R15*%
X116790000Y-73752064D02*
X116790000Y-69397936D01*
X120210000Y-73752064D02*
X120210000Y-69397936D01*
%TD*%
M02*
