%TF.GenerationSoftware,KiCad,Pcbnew,9.0.8*%
%TF.CreationDate,2026-03-24T15:58:39+00:00*%
%TF.ProjectId,DummyLoad,44756d6d-794c-46f6-9164-2e6b69636164,rev?*%
%TF.SameCoordinates,Original*%
%TF.FileFunction,Legend,Top*%
%TF.FilePolarity,Positive*%
%FSLAX46Y46*%
G04 Gerber Fmt 4.6, Leading zero omitted, Abs format (unit mm)*
G04 Created by KiCad (PCBNEW 9.0.8) date 2026-03-24 15:58:39*
%MOMM*%
%LPD*%
G01*
G04 APERTURE LIST*
%ADD10C,0.150000*%
%ADD11C,0.120000*%
G04 APERTURE END LIST*
D10*
X155166666Y-84454819D02*
X155166666Y-85169104D01*
X155166666Y-85169104D02*
X155119047Y-85311961D01*
X155119047Y-85311961D02*
X155023809Y-85407200D01*
X155023809Y-85407200D02*
X154880952Y-85454819D01*
X154880952Y-85454819D02*
X154785714Y-85454819D01*
X155595238Y-84550057D02*
X155642857Y-84502438D01*
X155642857Y-84502438D02*
X155738095Y-84454819D01*
X155738095Y-84454819D02*
X155976190Y-84454819D01*
X155976190Y-84454819D02*
X156071428Y-84502438D01*
X156071428Y-84502438D02*
X156119047Y-84550057D01*
X156119047Y-84550057D02*
X156166666Y-84645295D01*
X156166666Y-84645295D02*
X156166666Y-84740533D01*
X156166666Y-84740533D02*
X156119047Y-84883390D01*
X156119047Y-84883390D02*
X155547619Y-85454819D01*
X155547619Y-85454819D02*
X156166666Y-85454819D01*
X121574819Y-71666666D02*
X121098628Y-71999999D01*
X121574819Y-72238094D02*
X120574819Y-72238094D01*
X120574819Y-72238094D02*
X120574819Y-71857142D01*
X120574819Y-71857142D02*
X120622438Y-71761904D01*
X120622438Y-71761904D02*
X120670057Y-71714285D01*
X120670057Y-71714285D02*
X120765295Y-71666666D01*
X120765295Y-71666666D02*
X120908152Y-71666666D01*
X120908152Y-71666666D02*
X121003390Y-71714285D01*
X121003390Y-71714285D02*
X121051009Y-71761904D01*
X121051009Y-71761904D02*
X121098628Y-71857142D01*
X121098628Y-71857142D02*
X121098628Y-72238094D01*
X121574819Y-70714285D02*
X121574819Y-71285713D01*
X121574819Y-70999999D02*
X120574819Y-70999999D01*
X120574819Y-70999999D02*
X120717676Y-71095237D01*
X120717676Y-71095237D02*
X120812914Y-71190475D01*
X120812914Y-71190475D02*
X120860533Y-71285713D01*
X138074819Y-80704166D02*
X137598628Y-81037499D01*
X138074819Y-81275594D02*
X137074819Y-81275594D01*
X137074819Y-81275594D02*
X137074819Y-80894642D01*
X137074819Y-80894642D02*
X137122438Y-80799404D01*
X137122438Y-80799404D02*
X137170057Y-80751785D01*
X137170057Y-80751785D02*
X137265295Y-80704166D01*
X137265295Y-80704166D02*
X137408152Y-80704166D01*
X137408152Y-80704166D02*
X137503390Y-80751785D01*
X137503390Y-80751785D02*
X137551009Y-80799404D01*
X137551009Y-80799404D02*
X137598628Y-80894642D01*
X137598628Y-80894642D02*
X137598628Y-81275594D01*
X138074819Y-80227975D02*
X138074819Y-80037499D01*
X138074819Y-80037499D02*
X138027200Y-79942261D01*
X138027200Y-79942261D02*
X137979580Y-79894642D01*
X137979580Y-79894642D02*
X137836723Y-79799404D01*
X137836723Y-79799404D02*
X137646247Y-79751785D01*
X137646247Y-79751785D02*
X137265295Y-79751785D01*
X137265295Y-79751785D02*
X137170057Y-79799404D01*
X137170057Y-79799404D02*
X137122438Y-79847023D01*
X137122438Y-79847023D02*
X137074819Y-79942261D01*
X137074819Y-79942261D02*
X137074819Y-80132737D01*
X137074819Y-80132737D02*
X137122438Y-80227975D01*
X137122438Y-80227975D02*
X137170057Y-80275594D01*
X137170057Y-80275594D02*
X137265295Y-80323213D01*
X137265295Y-80323213D02*
X137503390Y-80323213D01*
X137503390Y-80323213D02*
X137598628Y-80275594D01*
X137598628Y-80275594D02*
X137646247Y-80227975D01*
X137646247Y-80227975D02*
X137693866Y-80132737D01*
X137693866Y-80132737D02*
X137693866Y-79942261D01*
X137693866Y-79942261D02*
X137646247Y-79847023D01*
X137646247Y-79847023D02*
X137598628Y-79799404D01*
X137598628Y-79799404D02*
X137503390Y-79751785D01*
X127044819Y-71666666D02*
X126568628Y-71999999D01*
X127044819Y-72238094D02*
X126044819Y-72238094D01*
X126044819Y-72238094D02*
X126044819Y-71857142D01*
X126044819Y-71857142D02*
X126092438Y-71761904D01*
X126092438Y-71761904D02*
X126140057Y-71714285D01*
X126140057Y-71714285D02*
X126235295Y-71666666D01*
X126235295Y-71666666D02*
X126378152Y-71666666D01*
X126378152Y-71666666D02*
X126473390Y-71714285D01*
X126473390Y-71714285D02*
X126521009Y-71761904D01*
X126521009Y-71761904D02*
X126568628Y-71857142D01*
X126568628Y-71857142D02*
X126568628Y-72238094D01*
X126140057Y-71285713D02*
X126092438Y-71238094D01*
X126092438Y-71238094D02*
X126044819Y-71142856D01*
X126044819Y-71142856D02*
X126044819Y-70904761D01*
X126044819Y-70904761D02*
X126092438Y-70809523D01*
X126092438Y-70809523D02*
X126140057Y-70761904D01*
X126140057Y-70761904D02*
X126235295Y-70714285D01*
X126235295Y-70714285D02*
X126330533Y-70714285D01*
X126330533Y-70714285D02*
X126473390Y-70761904D01*
X126473390Y-70761904D02*
X127044819Y-71333332D01*
X127044819Y-71333332D02*
X127044819Y-70714285D01*
X148166666Y-70454819D02*
X148166666Y-71169104D01*
X148166666Y-71169104D02*
X148119047Y-71311961D01*
X148119047Y-71311961D02*
X148023809Y-71407200D01*
X148023809Y-71407200D02*
X147880952Y-71454819D01*
X147880952Y-71454819D02*
X147785714Y-71454819D01*
X148547619Y-70454819D02*
X149166666Y-70454819D01*
X149166666Y-70454819D02*
X148833333Y-70835771D01*
X148833333Y-70835771D02*
X148976190Y-70835771D01*
X148976190Y-70835771D02*
X149071428Y-70883390D01*
X149071428Y-70883390D02*
X149119047Y-70931009D01*
X149119047Y-70931009D02*
X149166666Y-71026247D01*
X149166666Y-71026247D02*
X149166666Y-71264342D01*
X149166666Y-71264342D02*
X149119047Y-71359580D01*
X149119047Y-71359580D02*
X149071428Y-71407200D01*
X149071428Y-71407200D02*
X148976190Y-71454819D01*
X148976190Y-71454819D02*
X148690476Y-71454819D01*
X148690476Y-71454819D02*
X148595238Y-71407200D01*
X148595238Y-71407200D02*
X148547619Y-71359580D01*
X132514819Y-71666666D02*
X132038628Y-71999999D01*
X132514819Y-72238094D02*
X131514819Y-72238094D01*
X131514819Y-72238094D02*
X131514819Y-71857142D01*
X131514819Y-71857142D02*
X131562438Y-71761904D01*
X131562438Y-71761904D02*
X131610057Y-71714285D01*
X131610057Y-71714285D02*
X131705295Y-71666666D01*
X131705295Y-71666666D02*
X131848152Y-71666666D01*
X131848152Y-71666666D02*
X131943390Y-71714285D01*
X131943390Y-71714285D02*
X131991009Y-71761904D01*
X131991009Y-71761904D02*
X132038628Y-71857142D01*
X132038628Y-71857142D02*
X132038628Y-72238094D01*
X131514819Y-71333332D02*
X131514819Y-70714285D01*
X131514819Y-70714285D02*
X131895771Y-71047618D01*
X131895771Y-71047618D02*
X131895771Y-70904761D01*
X131895771Y-70904761D02*
X131943390Y-70809523D01*
X131943390Y-70809523D02*
X131991009Y-70761904D01*
X131991009Y-70761904D02*
X132086247Y-70714285D01*
X132086247Y-70714285D02*
X132324342Y-70714285D01*
X132324342Y-70714285D02*
X132419580Y-70761904D01*
X132419580Y-70761904D02*
X132467200Y-70809523D01*
X132467200Y-70809523D02*
X132514819Y-70904761D01*
X132514819Y-70904761D02*
X132514819Y-71190475D01*
X132514819Y-71190475D02*
X132467200Y-71285713D01*
X132467200Y-71285713D02*
X132419580Y-71333332D01*
X127074819Y-80666666D02*
X126598628Y-80999999D01*
X127074819Y-81238094D02*
X126074819Y-81238094D01*
X126074819Y-81238094D02*
X126074819Y-80857142D01*
X126074819Y-80857142D02*
X126122438Y-80761904D01*
X126122438Y-80761904D02*
X126170057Y-80714285D01*
X126170057Y-80714285D02*
X126265295Y-80666666D01*
X126265295Y-80666666D02*
X126408152Y-80666666D01*
X126408152Y-80666666D02*
X126503390Y-80714285D01*
X126503390Y-80714285D02*
X126551009Y-80761904D01*
X126551009Y-80761904D02*
X126598628Y-80857142D01*
X126598628Y-80857142D02*
X126598628Y-81238094D01*
X126074819Y-80333332D02*
X126074819Y-79666666D01*
X126074819Y-79666666D02*
X127074819Y-80095237D01*
X143454819Y-71666666D02*
X142978628Y-71999999D01*
X143454819Y-72238094D02*
X142454819Y-72238094D01*
X142454819Y-72238094D02*
X142454819Y-71857142D01*
X142454819Y-71857142D02*
X142502438Y-71761904D01*
X142502438Y-71761904D02*
X142550057Y-71714285D01*
X142550057Y-71714285D02*
X142645295Y-71666666D01*
X142645295Y-71666666D02*
X142788152Y-71666666D01*
X142788152Y-71666666D02*
X142883390Y-71714285D01*
X142883390Y-71714285D02*
X142931009Y-71761904D01*
X142931009Y-71761904D02*
X142978628Y-71857142D01*
X142978628Y-71857142D02*
X142978628Y-72238094D01*
X142454819Y-70761904D02*
X142454819Y-71238094D01*
X142454819Y-71238094D02*
X142931009Y-71285713D01*
X142931009Y-71285713D02*
X142883390Y-71238094D01*
X142883390Y-71238094D02*
X142835771Y-71142856D01*
X142835771Y-71142856D02*
X142835771Y-70904761D01*
X142835771Y-70904761D02*
X142883390Y-70809523D01*
X142883390Y-70809523D02*
X142931009Y-70761904D01*
X142931009Y-70761904D02*
X143026247Y-70714285D01*
X143026247Y-70714285D02*
X143264342Y-70714285D01*
X143264342Y-70714285D02*
X143359580Y-70761904D01*
X143359580Y-70761904D02*
X143407200Y-70809523D01*
X143407200Y-70809523D02*
X143454819Y-70904761D01*
X143454819Y-70904761D02*
X143454819Y-71142856D01*
X143454819Y-71142856D02*
X143407200Y-71238094D01*
X143407200Y-71238094D02*
X143359580Y-71285713D01*
X132574819Y-80666666D02*
X132098628Y-80999999D01*
X132574819Y-81238094D02*
X131574819Y-81238094D01*
X131574819Y-81238094D02*
X131574819Y-80857142D01*
X131574819Y-80857142D02*
X131622438Y-80761904D01*
X131622438Y-80761904D02*
X131670057Y-80714285D01*
X131670057Y-80714285D02*
X131765295Y-80666666D01*
X131765295Y-80666666D02*
X131908152Y-80666666D01*
X131908152Y-80666666D02*
X132003390Y-80714285D01*
X132003390Y-80714285D02*
X132051009Y-80761904D01*
X132051009Y-80761904D02*
X132098628Y-80857142D01*
X132098628Y-80857142D02*
X132098628Y-81238094D01*
X132003390Y-80095237D02*
X131955771Y-80190475D01*
X131955771Y-80190475D02*
X131908152Y-80238094D01*
X131908152Y-80238094D02*
X131812914Y-80285713D01*
X131812914Y-80285713D02*
X131765295Y-80285713D01*
X131765295Y-80285713D02*
X131670057Y-80238094D01*
X131670057Y-80238094D02*
X131622438Y-80190475D01*
X131622438Y-80190475D02*
X131574819Y-80095237D01*
X131574819Y-80095237D02*
X131574819Y-79904761D01*
X131574819Y-79904761D02*
X131622438Y-79809523D01*
X131622438Y-79809523D02*
X131670057Y-79761904D01*
X131670057Y-79761904D02*
X131765295Y-79714285D01*
X131765295Y-79714285D02*
X131812914Y-79714285D01*
X131812914Y-79714285D02*
X131908152Y-79761904D01*
X131908152Y-79761904D02*
X131955771Y-79809523D01*
X131955771Y-79809523D02*
X132003390Y-79904761D01*
X132003390Y-79904761D02*
X132003390Y-80095237D01*
X132003390Y-80095237D02*
X132051009Y-80190475D01*
X132051009Y-80190475D02*
X132098628Y-80238094D01*
X132098628Y-80238094D02*
X132193866Y-80285713D01*
X132193866Y-80285713D02*
X132384342Y-80285713D01*
X132384342Y-80285713D02*
X132479580Y-80238094D01*
X132479580Y-80238094D02*
X132527200Y-80190475D01*
X132527200Y-80190475D02*
X132574819Y-80095237D01*
X132574819Y-80095237D02*
X132574819Y-79904761D01*
X132574819Y-79904761D02*
X132527200Y-79809523D01*
X132527200Y-79809523D02*
X132479580Y-79761904D01*
X132479580Y-79761904D02*
X132384342Y-79714285D01*
X132384342Y-79714285D02*
X132193866Y-79714285D01*
X132193866Y-79714285D02*
X132098628Y-79761904D01*
X132098628Y-79761904D02*
X132051009Y-79809523D01*
X132051009Y-79809523D02*
X132003390Y-79904761D01*
X147894642Y-79074819D02*
X147561309Y-78598628D01*
X147323214Y-79074819D02*
X147323214Y-78074819D01*
X147323214Y-78074819D02*
X147704166Y-78074819D01*
X147704166Y-78074819D02*
X147799404Y-78122438D01*
X147799404Y-78122438D02*
X147847023Y-78170057D01*
X147847023Y-78170057D02*
X147894642Y-78265295D01*
X147894642Y-78265295D02*
X147894642Y-78408152D01*
X147894642Y-78408152D02*
X147847023Y-78503390D01*
X147847023Y-78503390D02*
X147799404Y-78551009D01*
X147799404Y-78551009D02*
X147704166Y-78598628D01*
X147704166Y-78598628D02*
X147323214Y-78598628D01*
X148275595Y-78170057D02*
X148323214Y-78122438D01*
X148323214Y-78122438D02*
X148418452Y-78074819D01*
X148418452Y-78074819D02*
X148656547Y-78074819D01*
X148656547Y-78074819D02*
X148751785Y-78122438D01*
X148751785Y-78122438D02*
X148799404Y-78170057D01*
X148799404Y-78170057D02*
X148847023Y-78265295D01*
X148847023Y-78265295D02*
X148847023Y-78360533D01*
X148847023Y-78360533D02*
X148799404Y-78503390D01*
X148799404Y-78503390D02*
X148227976Y-79074819D01*
X148227976Y-79074819D02*
X148847023Y-79074819D01*
X149799404Y-79074819D02*
X149227976Y-79074819D01*
X149513690Y-79074819D02*
X149513690Y-78074819D01*
X149513690Y-78074819D02*
X149418452Y-78217676D01*
X149418452Y-78217676D02*
X149323214Y-78312914D01*
X149323214Y-78312914D02*
X149227976Y-78360533D01*
X112166666Y-84454819D02*
X112166666Y-85169104D01*
X112166666Y-85169104D02*
X112119047Y-85311961D01*
X112119047Y-85311961D02*
X112023809Y-85407200D01*
X112023809Y-85407200D02*
X111880952Y-85454819D01*
X111880952Y-85454819D02*
X111785714Y-85454819D01*
X113166666Y-85454819D02*
X112595238Y-85454819D01*
X112880952Y-85454819D02*
X112880952Y-84454819D01*
X112880952Y-84454819D02*
X112785714Y-84597676D01*
X112785714Y-84597676D02*
X112690476Y-84692914D01*
X112690476Y-84692914D02*
X112595238Y-84740533D01*
X137984819Y-71666666D02*
X137508628Y-71999999D01*
X137984819Y-72238094D02*
X136984819Y-72238094D01*
X136984819Y-72238094D02*
X136984819Y-71857142D01*
X136984819Y-71857142D02*
X137032438Y-71761904D01*
X137032438Y-71761904D02*
X137080057Y-71714285D01*
X137080057Y-71714285D02*
X137175295Y-71666666D01*
X137175295Y-71666666D02*
X137318152Y-71666666D01*
X137318152Y-71666666D02*
X137413390Y-71714285D01*
X137413390Y-71714285D02*
X137461009Y-71761904D01*
X137461009Y-71761904D02*
X137508628Y-71857142D01*
X137508628Y-71857142D02*
X137508628Y-72238094D01*
X137318152Y-70809523D02*
X137984819Y-70809523D01*
X136937200Y-71047618D02*
X137651485Y-71285713D01*
X137651485Y-71285713D02*
X137651485Y-70666666D01*
X121574819Y-80666666D02*
X121098628Y-80999999D01*
X121574819Y-81238094D02*
X120574819Y-81238094D01*
X120574819Y-81238094D02*
X120574819Y-80857142D01*
X120574819Y-80857142D02*
X120622438Y-80761904D01*
X120622438Y-80761904D02*
X120670057Y-80714285D01*
X120670057Y-80714285D02*
X120765295Y-80666666D01*
X120765295Y-80666666D02*
X120908152Y-80666666D01*
X120908152Y-80666666D02*
X121003390Y-80714285D01*
X121003390Y-80714285D02*
X121051009Y-80761904D01*
X121051009Y-80761904D02*
X121098628Y-80857142D01*
X121098628Y-80857142D02*
X121098628Y-81238094D01*
X120574819Y-79809523D02*
X120574819Y-79999999D01*
X120574819Y-79999999D02*
X120622438Y-80095237D01*
X120622438Y-80095237D02*
X120670057Y-80142856D01*
X120670057Y-80142856D02*
X120812914Y-80238094D01*
X120812914Y-80238094D02*
X121003390Y-80285713D01*
X121003390Y-80285713D02*
X121384342Y-80285713D01*
X121384342Y-80285713D02*
X121479580Y-80238094D01*
X121479580Y-80238094D02*
X121527200Y-80190475D01*
X121527200Y-80190475D02*
X121574819Y-80095237D01*
X121574819Y-80095237D02*
X121574819Y-79904761D01*
X121574819Y-79904761D02*
X121527200Y-79809523D01*
X121527200Y-79809523D02*
X121479580Y-79761904D01*
X121479580Y-79761904D02*
X121384342Y-79714285D01*
X121384342Y-79714285D02*
X121146247Y-79714285D01*
X121146247Y-79714285D02*
X121051009Y-79761904D01*
X121051009Y-79761904D02*
X121003390Y-79809523D01*
X121003390Y-79809523D02*
X120955771Y-79904761D01*
X120955771Y-79904761D02*
X120955771Y-80095237D01*
X120955771Y-80095237D02*
X121003390Y-80190475D01*
X121003390Y-80190475D02*
X121051009Y-80238094D01*
X121051009Y-80238094D02*
X121146247Y-80285713D01*
X143574819Y-81180357D02*
X143098628Y-81513690D01*
X143574819Y-81751785D02*
X142574819Y-81751785D01*
X142574819Y-81751785D02*
X142574819Y-81370833D01*
X142574819Y-81370833D02*
X142622438Y-81275595D01*
X142622438Y-81275595D02*
X142670057Y-81227976D01*
X142670057Y-81227976D02*
X142765295Y-81180357D01*
X142765295Y-81180357D02*
X142908152Y-81180357D01*
X142908152Y-81180357D02*
X143003390Y-81227976D01*
X143003390Y-81227976D02*
X143051009Y-81275595D01*
X143051009Y-81275595D02*
X143098628Y-81370833D01*
X143098628Y-81370833D02*
X143098628Y-81751785D01*
X143574819Y-80227976D02*
X143574819Y-80799404D01*
X143574819Y-80513690D02*
X142574819Y-80513690D01*
X142574819Y-80513690D02*
X142717676Y-80608928D01*
X142717676Y-80608928D02*
X142812914Y-80704166D01*
X142812914Y-80704166D02*
X142860533Y-80799404D01*
X142574819Y-79608928D02*
X142574819Y-79513690D01*
X142574819Y-79513690D02*
X142622438Y-79418452D01*
X142622438Y-79418452D02*
X142670057Y-79370833D01*
X142670057Y-79370833D02*
X142765295Y-79323214D01*
X142765295Y-79323214D02*
X142955771Y-79275595D01*
X142955771Y-79275595D02*
X143193866Y-79275595D01*
X143193866Y-79275595D02*
X143384342Y-79323214D01*
X143384342Y-79323214D02*
X143479580Y-79370833D01*
X143479580Y-79370833D02*
X143527200Y-79418452D01*
X143527200Y-79418452D02*
X143574819Y-79513690D01*
X143574819Y-79513690D02*
X143574819Y-79608928D01*
X143574819Y-79608928D02*
X143527200Y-79704166D01*
X143527200Y-79704166D02*
X143479580Y-79751785D01*
X143479580Y-79751785D02*
X143384342Y-79799404D01*
X143384342Y-79799404D02*
X143193866Y-79847023D01*
X143193866Y-79847023D02*
X142955771Y-79847023D01*
X142955771Y-79847023D02*
X142765295Y-79799404D01*
X142765295Y-79799404D02*
X142670057Y-79751785D01*
X142670057Y-79751785D02*
X142622438Y-79704166D01*
X142622438Y-79704166D02*
X142574819Y-79608928D01*
D11*
%TO.C,J2*%
X154700000Y-68580000D02*
X169700000Y-68580000D01*
X154700000Y-83580000D02*
X154700000Y-68580000D01*
X169500000Y-76080000D02*
X168500000Y-75080000D01*
X169500000Y-76080000D02*
X168500000Y-77080000D01*
X169700000Y-68580000D02*
X169700000Y-83580000D01*
X169700000Y-83580000D02*
X154700000Y-83580000D01*
%TO.C,R1*%
X116910000Y-73677064D02*
X116910000Y-69322936D01*
X120330000Y-73677064D02*
X120330000Y-69322936D01*
%TO.C,R9*%
X133290000Y-78360436D02*
X133290000Y-82714564D01*
X136710000Y-78360436D02*
X136710000Y-82714564D01*
%TO.C,R2*%
X122380000Y-73677064D02*
X122380000Y-69322936D01*
X125800000Y-73677064D02*
X125800000Y-69322936D01*
%TO.C,J3*%
X145905000Y-67170000D02*
X145905000Y-69830000D01*
X148505000Y-67170000D02*
X145905000Y-67170000D01*
X148505000Y-67170000D02*
X148505000Y-69830000D01*
X148505000Y-69830000D02*
X145905000Y-69830000D01*
X149775000Y-67170000D02*
X151105000Y-67170000D01*
X151105000Y-67170000D02*
X151105000Y-68500000D01*
%TO.C,R3*%
X127850000Y-73677064D02*
X127850000Y-69322936D01*
X131270000Y-73677064D02*
X131270000Y-69322936D01*
%TO.C,R7*%
X122290000Y-78322936D02*
X122290000Y-82677064D01*
X125710000Y-78322936D02*
X125710000Y-82677064D01*
%TO.C,R5*%
X138790000Y-73677064D02*
X138790000Y-69322936D01*
X142210000Y-73677064D02*
X142210000Y-69322936D01*
%TO.C,R8*%
X127790000Y-78322936D02*
X127790000Y-82677064D01*
X131210000Y-78322936D02*
X131210000Y-82677064D01*
%TO.C,R21*%
X150714564Y-74290000D02*
X146360436Y-74290000D01*
X150714564Y-77710000D02*
X146360436Y-77710000D01*
%TO.C,J1*%
X98350000Y-68580000D02*
X113350000Y-68580000D01*
X98350000Y-83580000D02*
X98350000Y-68580000D01*
X98550000Y-76080000D02*
X99550000Y-75080000D01*
X98550000Y-76080000D02*
X99550000Y-77080000D01*
X113350000Y-68580000D02*
X113350000Y-83580000D01*
X113350000Y-83580000D02*
X98350000Y-83580000D01*
%TO.C,R4*%
X133320000Y-73677064D02*
X133320000Y-69322936D01*
X136740000Y-73677064D02*
X136740000Y-69322936D01*
%TO.C,R6*%
X116790000Y-78322936D02*
X116790000Y-82677064D01*
X120210000Y-78322936D02*
X120210000Y-82677064D01*
%TO.C,R10*%
X138790000Y-78360436D02*
X138790000Y-82714564D01*
X142210000Y-78360436D02*
X142210000Y-82714564D01*
%TD*%
M02*
